<?xml version="1.0" encoding="utf-8"?>
<!-- Generator: Adobe Illustrator 25.2.1, SVG Export Plug-In . SVG Version: 6.00 Build 0)  -->
<svg version="1.1" id="圖層_1" xmlns="http://www.w3.org/2000/svg" xmlns:xlink="http://www.w3.org/1999/xlink" x="0px" y="0px"
	 width="70px" height="31px" viewBox="0 0 70 31" style="enable-background:new 0 0 70 31;" xml:space="preserve">
<style type="text/css">
	.st0{fill:#FFFFFF;}
	.st1{fill:url(#SVGID_1_);}
	.st2{fill:url(#SVGID_2_);}
	.st3{fill:url(#SVGID_3_);}
	.st4{fill:#0396DF;}
	.st5{fill:#ECA200;}
	.st6{fill:url(#SVGID_4_);}
	.st7{fill:#231815;}
	.st8{filter:url(#Adobe_OpacityMaskFilter);}
	.st9{fill-rule:evenodd;clip-rule:evenodd;fill:#FFFFFF;}
	.st10{mask:url(#mask0_outline_2_);}
	.st11{fill-rule:evenodd;clip-rule:evenodd;fill:#0065A3;}
	.st12{fill-rule:evenodd;clip-rule:evenodd;fill:#231916;}
	.st13{filter:url(#Adobe_OpacityMaskFilter_1_);}
	.st14{mask:url(#mask1_outline_2_);}
	.st15{fill:#024F8D;}
	.st16{fill:#0280FF;}
	.st17{fill-rule:evenodd;clip-rule:evenodd;fill:#0280FF;}
	.st18{fill:#F08C00;}
	.st19{fill:#00AFAA;}
	.st20{fill:#0069A7;}
	.st21{fill:none;stroke:#FFFFFF;stroke-width:0.9458;stroke-miterlimit:10;}
	.st22{fill:#C01334;}
	.st23{fill:#0D131A;}
	.st24{fill:#004F81;}
	.st25{filter:url(#Adobe_OpacityMaskFilter_2_);}
	.st26{mask:url(#mask0_outline_1_);}
	.st27{fill-rule:evenodd;clip-rule:evenodd;fill:#026097;}
	.st28{fill-rule:evenodd;clip-rule:evenodd;fill:#0D131A;}
	.st29{filter:url(#Adobe_OpacityMaskFilter_3_);}
	.st30{mask:url(#mask1_outline_1_);}
	.st31{fill:#E05519;}
	.st32{fill:#DA007F;}
	.st33{fill:#252F3E;}
	.st34{fill:#FF9000;}
	.st35{fill:#1C9951;}
</style>
<g>
	<g>
		<path class="st31" d="M43.1,12.6c0.2,0,0.3,0,0.4-0.1v0c-0.6-0.4-1.3-0.7-1.9-1.1c-0.1,0.5-0.3,0.9-0.5,1.3c-0.4,1.1-0.8,2-1.4,3
			c-0.3,0.5-0.6,1.2-1.1,1.5c0.3,0.6,0.7,1.6,0.9,2.3h0c0.3-0.2,0.8-1,0.9-1.3c0,0,0,0,0.1,0c0,2.4,0,4.8,0,7.3
			c0.6-0.1,1.2-0.2,1.8-0.3v-9.6c0.2,0,0.3-0.1,0.4-0.2c-0.2-0.1-0.3-0.1-0.5-0.2C42.4,14.3,43,13.5,43.1,12.6z M37.7,21.1
			c0.1-0.3,0.1-0.5,0.2-0.8c0.1-0.6,0.2-1.2,0.4-1.8c0.1-0.7,0.1-1.3,0.2-2c0.1-0.1,0.3,0,0.4,0v-1.6c-0.6-0.1-1.3-0.1-1.9-0.2
			c0,0,0-0.3,0-0.4c0.1-0.4,0.1-0.9,0.2-1.3c0.1,0,0.2,0,0.2-0.1c0,0,0-0.1,0-0.1c-0.5-0.2-1-0.4-1.5-0.6c0,1.2-0.3,2.8-0.6,3.8
			c-0.1,0.5-0.2,1.1-0.4,1.5v0c0-0.1,0-0.1,0-0.2c-0.7,0-1.3,0-2-0.1v-0.3c0.6,0,1.2,0,1.8,0.1v-1.4c0.2,0,0.4,0,0.7,0
			c0-0.5,0-0.9,0-1.4c-0.2,0-0.4,0-0.7-0.1v-1.4c-0.6-0.1-1.2-0.2-1.8-0.2c0-0.6,0.1-0.3,0.3-0.6v-0.1c-0.6-0.1-1.2-0.3-1.7-0.4h0
			v0.8c-0.7-0.1-1.3-0.2-2-0.3v1.6c-0.3,0-0.6,0-0.8-0.1c0,0.5,0,1,0,1.6v0c0.3,0,0.6,0,0.8,0.1c0,0.5,0,1.1,0,1.6
			c0.7,0,1.3,0,2,0.1c0,0,0,0,0,0v0.3c-0.7,0-1.5,0-2.2-0.1v3c0.6,0,1.1,0,1.7-0.1c-0.1,0.1-0.1,0.3-0.2,0.4c-0.7,0-1.5,0.1-2.2,0.1
			c0.1,0.6,0.3,1.2,0.4,1.8c0.2,0,0.2-0.1,0.3-0.2c0.2,0,0.5,0,0.7-0.1c-0.2,0.3-0.4,0.7-0.6,1c0.5,0.1,1,0.2,1.5,0.3c0,0,0,0,0-0.1
			c0.1,0,0.2,0.1,0.3,0.1c-0.3,0.2-1.7,0.6-2.2,0.7c0,0,0,0,0,0c0.3,0.4,0.6,1,0.7,1.6c0.8-0.1,2.7-1.1,3.1-1.5
			c0.5,0.1,0.8,0.6,1.2,0.7c0.3-0.4,0.5-0.8,0.8-1.1c0,0,0,0,0.1,0c0.2,0.3,0.4,0.7,0.5,1.1c0,0,0,0,0,0c0.5-0.6,1.3-1.1,1.6-2h0
			c0.1,0.2,0.3,0.5,0.4,0.7c0.2,0.3,0.5,0.5,0.8,0.8c0,0,0,0,0.1,0c0.3-0.6,0.5-1.1,0.8-1.5C38.5,22.5,37.9,21.6,37.7,21.1z
			 M32.9,13.7c0.1,0,0.3,0,0.4,0c0,0.1,0,0.2,0,0.3c-0.1,0-0.3,0-0.4,0V13.7z M32.9,15.3c0.1,0,0.3,0,0.4,0c0,0.1,0,0.2,0,0.3
			c-0.1,0-0.3,0-0.4,0V15.3z M31.5,18.8c-0.2,0-0.4,0-0.7,0v-0.4h0.7C31.5,18.5,31.5,18.7,31.5,18.8L31.5,18.8z M31.5,15.5
			c-0.1,0-0.3,0-0.4,0v-0.3c0,0,0,0,0,0c0.1,0,0.3,0,0.4,0c0,0,0,0,0,0C31.5,15.3,31.5,15.4,31.5,15.5z M31.5,13.9
			c-0.2,0-0.3,0-0.5,0c0-0.1,0-0.2,0-0.4c0.1,0,0.3,0,0.4,0c0,0,0,0,0,0L31.5,13.9L31.5,13.9z M32.9,18.4h0.6v0.4
			c-0.2,0-0.4,0-0.6,0V18.4z M32.9,21.8c-0.1,0.2-0.2,0.4-0.3,0.5c-0.3-0.1-0.6-0.2-1-0.3c0,0,0,0,0-0.1c0.2-0.1,0.9-0.1,1.1-0.2
			L32.9,21.8L32.9,21.8L32.9,21.8z M36.1,21.6c-0.4,0.7-0.8,1.3-1.5,1.7c-0.2-0.1-0.5-0.3-0.7-0.4c0.1-0.2,0.2-0.4,0.3-0.5
			c0.1-0.3,0.2-0.5,0.3-0.8c0.3,0,0.6-0.1,0.9-0.1c0.1-0.1,0.1-1,0.1-1.2c-1,0.1-2,0.1-3,0.2l0.1-0.3c0.6-0.2,1.6-0.2,2.4-0.2v-1.1
			c0.2,0.2,0.5,0.6,0.6,0.9c0,0,0,0,0,0c0.1-0.2,0.2-0.4,0.3-0.6c0,0,0,0,0,0c0.1,0.5,0.2,1.1,0.3,1.6c0.1,0.2,0.1,0.4,0.2,0.5
			C36.2,21.3,36.2,21.5,36.1,21.6z M37,18.8L37,18.8c-0.2-0.8-0.3-1.6-0.4-2.4c0.2,0,0.4,0,0.7,0C37.3,17.2,37.1,18,37,18.8z
			 M63.4,15.4c0-0.2,0.6-1.5,0.7-1.9c0.1-0.2,0.1-0.4,0.2-0.6c0,0,0.2,0,0.3-0.1c0,0,0,0,0,0c-0.6-0.4-1.3-0.7-1.9-1.1
			c-0.1,0.3-0.2,0.6-0.3,0.9c-0.2,0.7-0.5,1.4-0.9,2c-0.4,0.7-0.8,1.5-1.3,2.1c-0.2,0.2-0.4,0.5-0.6,0.7c-0.1,0.1,0.2,0.4,0.3,0.6
			c0.2,0.4,0.6,1.2,0.7,1.7h0c0.5-0.3,0.7-1,1-1.4c0,0,0,0,0,0c0,2.3,0,4.7,0,7c0.6-0.1,1.1-0.2,1.7-0.2c0-3.1,0-6.2,0-9.3
			c0.2,0,0.3-0.1,0.3-0.3C63.7,15.5,63.6,15.5,63.4,15.4z M49.7,11.9c0.1,4,0.1,8.1,0.2,12.1c0.5-0.1,1.1-0.1,1.6-0.2v-1.3
			c0.7-0.1,1.5-0.1,2.2-0.2c0-3.3,0-6.6,0-9.8C52.4,12.2,51.1,12,49.7,11.9z M51.5,14.1c0.2,0,0.5,0,0.7,0.1c0,0.8,0,1.5,0,2.3
			c-0.2,0-0.5,0-0.7,0C51.5,15.6,51.5,14.8,51.5,14.1z M51.5,20.6c0-0.8,0-1.6,0-2.3h0.7c0,0.8,0,1.5,0,2.3
			C52,20.6,51.8,20.6,51.5,20.6z M57.5,15.2c0.6,0,1.1,0.1,1.7,0.1c0-0.5,0-1,0-1.6c-0.6-0.1-1.1-0.1-1.7-0.2c0-0.3,0-0.6,0-0.9
			c0.2,0,0.2-0.1,0.3-0.2c0-0.1-1.4-0.4-1.6-0.4v1.4c-0.6-0.1-1.3-0.1-1.9-0.2v1.8c0.6,0.1,1.3,0.1,1.9,0.2c0.1,0.1,0,0.8,0,0.9
			c-0.7,0-1.5-0.1-2.2-0.1c0,0.6,0,1.2,0,1.8c1.1,0,2.2,0,3.3,0c0,0.3,0,0.6,0,0.9c-1.1,0-2.2,0-3.3,0c0,0.6,0,1.2,0,1.7
			c1.1-0.1,2.2-0.1,3.3-0.2c0,0.6,0,1.2,0,1.8c0,0.2,0.1,0.5,0,0.7c-0.1,0.1-0.9,0.2-1.2,0.2c0.1,0.5,0.4,1,0.4,1.7
			c0.8-0.1,1.5-0.3,1.8-0.8c0.4-0.6,0.3-2.6,0.3-3.6c0.3,0,0.5,0,0.8,0c0-0.5,0-1,0.1-1.5h-0.8c0-0.2,0-0.4,0-0.5
			c0.2-0.1,0.2-0.1,0.3-0.3c-0.2,0-0.4,0-0.6,0h1.2c0-0.5,0-1,0-1.6c-0.6,0-1.2-0.1-1.9-0.1L57.5,15.2L57.5,15.2z M43.1,16
			c2,0.1,4,0.2,6.1,0.3v-1.7c-0.7-0.1-1.5-0.1-2.2-0.2v-1.8c0.1-0.1,0.2,0,0.3-0.2v-0.1L45.5,12c0,0.8,0,1.5,0,2.3
			c-0.8-0.1-1.6-0.2-2.4-0.2L43.1,16L43.1,16z M69.4,20.9c-0.1-0.2-0.3-0.3-0.4-0.5v0c0,0.3,0,0.6-0.1,0.8c-0.1,0.4-0.1,0.9-0.2,1.2
			c0,0,0,0-0.1,0c-0.4,0-0.5-0.7-0.6-1.1c-0.3-1.1-0.5-2.3-0.5-3.6c0.8-0.1,1.6-0.2,2.3-0.2c0-0.6-0.1-1.1-0.1-1.7l0,0
			c-0.8,0-1.6,0.1-2.4,0.1c0-1,0-2.1-0.1-3.1c0.1,0,0.2,0,0.2,0c0,0,0.1-0.1,0.1-0.1v-0.1c-0.6-0.1-1.2-0.3-1.8-0.4
			c0,1.3,0.1,2.6,0.1,3.9c-0.7,0-1.4,0.1-2.1,0.1c0.1,0.7,0.1,1.3,0.2,2c0.7-0.1,1.4-0.2,2-0.2h0c0,0.7,0.1,1.3,0.2,2
			c0.2,1.1,0.3,2.2,0.8,3.1c0.2,0.5,0.5,1.2,1.2,1.3c0.2,0,0.4-0.1,0.5-0.1c0.8-0.3,0.9-1.2,1.1-2.1c0-0.3,0.1-0.5,0.1-0.8
			C69.8,21.3,69.6,21.1,69.4,20.9z M68.9,15.8c0.3-0.2,0.6-0.4,0.9-0.7l0.2-0.1c-0.1-0.1-0.1-0.3-0.2-0.4c-0.2-0.5-0.4-0.9-0.7-1.3
			c-0.1-0.2-0.2-0.4-0.3-0.5c-0.3,0.2-0.6,0.4-1,0.7l0,0c0.2,0.2,0.2,0.4,0.4,0.6C68.4,14.6,68.8,15.1,68.9,15.8z M45.8,21.6
			c0-0.8-0.1-1.6-0.2-2.3c-0.1-0.5-0.1-1.1-0.2-1.6c-0.1-0.4-0.2-0.8-0.2-1.2h-0.1c-0.5,0.1-0.9,0.2-1.4,0.3
			c0.2,0.7,0.2,1.4,0.3,2.1c0.2,1,0.3,2.1,0.3,3.2C44.8,22,45.3,21.8,45.8,21.6z M46.7,20.4c-0.1,0.4-0.2,0.8-0.3,1.2
			c0.4,0.1,0.8,0.2,1.2,0.4c0.1-0.6,0.3-1.2,0.4-1.9c0.1-0.5,0.2-1.1,0.3-1.6c0.1-0.4,0.1-0.7,0.2-1.1c0.1,0,0.2-0.1,0.3-0.2
			c-0.5-0.2-1.1-0.4-1.6-0.6c-0.1,0.6-0.1,1.2-0.2,1.8C46.9,19,46.8,19.7,46.7,20.4z M55.4,20.3c-0.4,0.3-0.8,0.6-1.2,1
			c0.4,0.6,0.9,1.3,1.1,2.1c0.4-0.3,0.8-0.7,1.2-1C56.4,21.8,55.7,20.5,55.4,20.3z M42.9,24.6c2.1-0.3,4.3-0.6,6.4-0.9V22
			c-2.1,0.2-4.3,0.4-6.4,0.6V24.6z"/>
	</g>
	<g>
		<path class="st31" d="M5.3,13.8H4.8v1.9c0.1,0,0.3,0,0.5,0c0.6,0,1.2-0.3,1.2-1C6.5,14.1,5.9,13.8,5.3,13.8z M6.3,12.6L6.3,12.6
			c0-0.6-0.4-0.8-1-0.8c-0.3,0-0.4,0-0.5,0v1.6h0.5C5.9,13.4,6.3,13,6.3,12.6z M19.7,13c-0.6,0-0.9,0.6-0.9,1h1.8
			C20.5,13.6,20.3,13,19.7,13z M24.4,13.5c0,0.3,0.2,0.4,0.6,0.6c0.4,0.2,0.7,0.4,0.8,0.7l-0.5-1.7c-0.1,0-0.2-0.1-0.4-0.1
			C24.6,13,24.4,13.3,24.4,13.5z M25.9,15c0,0.1,0,0.1,0,0.2c0,0.6-0.5,1-1.2,1c-0.3,0-0.7-0.1-0.9-0.2l0.1-0.4
			c0.2,0.1,0.5,0.2,0.8,0.2c0.4,0,0.7-0.2,0.7-0.5c0-0.3-0.2-0.5-0.6-0.7c-0.6-0.2-0.9-0.5-0.9-1c0-0.5,0.4-1,1.1-1
			c0.1,0,0.2,0,0.2,0L21.9,0L0,5.9l4.3,16v-5.2h2.1l1.5,2.8c0.4,0.7,0.8,1.7,1.2,2.5h0c-0.1-0.9-0.2-2.2-0.2-3.5v-1.9h1.7v7.9H8.6
			l-1.5-2.9C6.8,21,6.3,19.9,6,19.1h0C6,20.1,6,21.3,6,22.7v1.9H5l1.2,4.6l17.4-4.7c-0.9-0.4-0.9-1.5-0.9-2v-2.4h-0.8v-1.3l-1.7,2.7
			l1.8,3h-2.2l-0.5-1c-0.1-0.3-0.3-0.6-0.4-0.9h0c-0.1,0.3-0.2,0.6-0.4,0.9l-0.4,1H16l1.8-2.9l-1.7-2.8h2.1l0.5,0.9l0.4,0.9h0
			c0.1-0.3,0.2-0.6,0.4-0.9l0.4-0.9h2.8v-1.1l1.9-0.5v1.6h1.3v1.3h-1.3v2.2c0,0.7,0.2,0.9,0.7,0.9c0.2,0,0.3,0,0.5-0.1l0,0.7
			l2.3-0.6L25.9,15z M6.7,15.7c-0.3,0.3-0.8,0.4-1.5,0.4c-0.4,0-0.7,0-0.9,0v-4.6c0.3-0.1,0.6-0.1,1-0.1c0.6,0,1,0.1,1.2,0.3
			c0.2,0.2,0.3,0.5,0.3,0.8c0,0.5-0.3,0.9-0.8,1v0c0.4,0.1,1,0.5,1,1.2C7,15.2,6.9,15.5,6.7,15.7z M9.8,16.1l0-0.5h0
			c-0.2,0.3-0.5,0.6-1.1,0.6c-0.5,0-1.1-0.3-1.1-1.5v-2h0.5v1.9c0,0.7,0.2,1.1,0.7,1.1c0.4,0,0.9-0.3,0.9-0.9v-2.1h0.5v2.5
			c0,0.3,0,0.6,0,0.9L9.8,16.1L9.8,16.1z M13.8,11.4c0.2,0,0.3,0.2,0.3,0.3c0,0.2-0.1,0.4-0.3,0.4c-0.2,0-0.3-0.2-0.3-0.4
			C13.5,11.6,13.6,11.4,13.8,11.4z M14.1,12.7v3.4h-0.5v-3.4L14.1,12.7z M11.8,14.6c-0.6-0.2-0.9-0.5-0.9-1c0-0.5,0.4-1,1.1-1
			c0.3,0,0.6,0.1,0.8,0.2l-0.1,0.4C12.6,13.2,12.3,13,12,13c-0.4,0-0.6,0.2-0.6,0.5c0,0.3,0.2,0.4,0.6,0.6c0.5,0.2,0.9,0.5,0.9,1
			c0,0.6-0.5,1-1.2,1c-0.3,0-0.7-0.1-0.9-0.2l0.1-0.4c0.2,0.1,0.5,0.2,0.8,0.2c0.4,0,0.7-0.2,0.7-0.5C12.5,14.9,12.3,14.7,11.8,14.6
			z M16.2,21.6c0,0.3,0,0.6-0.1,0.8h-3.5c0,0.7,0.7,1,1.5,1c0.6,0,1-0.1,1.5-0.2l0.3,1.2c-0.6,0.2-1.3,0.3-2.1,0.3
			c-2,0-3.1-1.1-3.1-2.9c0-1.6,1-3.1,2.9-3.1C15.1,18.7,16.2,19.7,16.2,21.6z M17.6,16.1h-0.5v-2c0-0.5-0.2-1-0.8-1
			c-0.4,0-0.9,0.4-0.9,1v2.1h-0.5v-2.5c0-0.3,0-0.6,0-0.9h0.5l0,0.5h0c0.2-0.3,0.6-0.6,1.1-0.6c0.4,0,1.1,0.3,1.1,1.4L17.6,16.1
			L17.6,16.1z M21,14.5h-2.3c0,0.9,0.5,1.3,1.1,1.3c0.4,0,0.7-0.1,0.9-0.2l0.1,0.4c-0.2,0.1-0.5,0.2-1,0.2c-1,0-1.6-0.7-1.6-1.7
			c0-1.1,0.6-1.8,1.5-1.8c1,0,1.3,1,1.3,1.5C21,14.3,21,14.4,21,14.5z M22.2,16.2c-0.3,0-0.7-0.1-0.9-0.2l0.1-0.4
			c0.2,0.1,0.5,0.2,0.8,0.2c0.4,0,0.7-0.2,0.7-0.5c0-0.3-0.2-0.5-0.6-0.7c-0.6-0.2-0.9-0.5-0.9-1c0-0.5,0.4-1,1.1-1
			c0.3,0,0.6,0.1,0.8,0.2l-0.1,0.4C23,13.2,22.8,13,22.5,13c-0.4,0-0.6,0.2-0.6,0.5c0,0.3,0.2,0.4,0.6,0.6c0.5,0.2,0.9,0.5,0.9,1
			C23.4,15.8,23,16.2,22.2,16.2z M13.6,20c-0.7,0-0.9,0.7-0.9,1.2h1.8C14.4,20.6,14.2,20,13.6,20z"/>
		<g>
			<path class="st31" d="M6.8,30.2L7,30.6c0,0.1,0.1,0.2,0.1,0.3l0,0c0-0.1,0-0.2,0-0.3l0-0.5l0.1,0l0.2,0.4
				c0.1,0.1,0.1,0.2,0.1,0.3l0,0c0-0.1,0-0.2,0-0.3l0-0.5l0.2,0l0,0.9l-0.1,0l-0.2-0.4c-0.1-0.1-0.1-0.2-0.1-0.3l0,0
				c0,0.1,0,0.2,0,0.3l0,0.4l-0.1,0l-0.5-0.8L6.8,30.2z"/>
			<path class="st31" d="M8,29.8l0.2,0.4c0,0.1,0.1,0.2,0.1,0.3l0,0c0-0.1,0-0.2,0-0.3l0-0.5l0.1,0l0.2,0.4c0.1,0.1,0.1,0.2,0.1,0.3
				l0,0c0-0.1,0-0.2,0-0.3l0-0.5l0.2,0l0,0.9l-0.1,0l-0.2-0.4c-0.1-0.1-0.1-0.2-0.1-0.3l0,0c0,0.1,0,0.2,0,0.3l0,0.4l-0.1,0
				l-0.5-0.8L8,29.8z"/>
			<path class="st31" d="M9.3,29.5l0.2,0.4c0,0.1,0.1,0.2,0.1,0.3l0,0c0-0.1,0-0.2,0-0.3l0-0.5l0.1,0l0.2,0.4
				c0.1,0.1,0.1,0.2,0.1,0.3l0,0c0-0.1,0-0.2,0-0.3l0-0.5l0.2,0l0,0.9l-0.1,0l-0.2-0.4c-0.1-0.1-0.1-0.2-0.1-0.3l0,0
				c0,0.1,0,0.2,0,0.3l0,0.4l-0.1,0l-0.5-0.8L9.3,29.5z"/>
			<path class="st31" d="M10.7,30.1c-0.1,0-0.1,0-0.1-0.1c0-0.1,0-0.1,0.1-0.1c0.1,0,0.1,0,0.1,0.1C10.8,30,10.8,30,10.7,30.1
				L10.7,30.1z"/>
			<path class="st31" d="M10.6,28.7l0.2,0l0.1,0.5l0,0c0-0.1,0.1-0.2,0.2-0.2c0.2-0.1,0.4,0.1,0.5,0.3c0.1,0.3-0.1,0.5-0.3,0.6
				c-0.1,0-0.2,0-0.3-0.1l0,0l0,0.1l-0.1,0c0-0.1,0-0.1-0.1-0.2L10.6,28.7z M11,29.6C11,29.6,11,29.6,11,29.6
				c0.1,0.2,0.2,0.2,0.3,0.2c0.2,0,0.2-0.2,0.2-0.4c0-0.2-0.2-0.3-0.3-0.2c-0.1,0-0.2,0.1-0.2,0.3c0,0,0,0,0,0.1L11,29.6z"/>
			<path class="st31" d="M11.7,29.1c0-0.1,0-0.2-0.1-0.2l0.1,0l0,0.1l0,0c0-0.1,0.1-0.2,0.2-0.2c0.1,0,0.3,0,0.4,0.3l0.1,0.5l-0.2,0
				l-0.1-0.5c0-0.1-0.1-0.2-0.3-0.2c-0.1,0-0.2,0.1-0.2,0.2c0,0,0,0,0,0.1l0.1,0.5l-0.2,0L11.7,29.1z"/>
			<path class="st31" d="M12.8,29c0.1,0.2,0.2,0.3,0.4,0.2c0.1,0,0.2-0.1,0.2-0.1l0.1,0.1c0,0-0.1,0.1-0.3,0.1
				c-0.3,0.1-0.5-0.1-0.5-0.3c-0.1-0.3,0-0.5,0.3-0.6c0.3-0.1,0.4,0.1,0.5,0.3c0,0,0,0.1,0,0.1L12.8,29z M13.2,28.8
				c0-0.1-0.1-0.2-0.3-0.2c-0.2,0-0.2,0.2-0.2,0.3L13.2,28.8z"/>
			<path class="st31" d="M13.5,28.4l0.2,0.1c0,0,0.1,0.1,0.1,0.1l0,0c0-0.1,0-0.1,0-0.2l0.1-0.2l0.2,0l-0.2,0.5l0.4,0.4l-0.2,0
				L13.9,29c0,0-0.1-0.1-0.1-0.1l0,0c0,0.1,0,0.1,0,0.2l-0.1,0.2l-0.2,0l0.2-0.5l-0.4-0.3L13.5,28.4z"/>
			<path class="st31" d="M14.3,27.9l0.1,0.2l0.2-0.1l0,0.1l-0.2,0.1l0.1,0.5c0,0.1,0.1,0.2,0.2,0.1c0,0,0.1,0,0.1,0l0,0.1
				c0,0-0.1,0-0.1,0.1c-0.1,0-0.1,0-0.2,0c-0.1,0-0.1-0.1-0.1-0.2l-0.1-0.5l-0.1,0l0-0.1l0.1,0l0-0.2L14.3,27.9z"/>
			<path class="st31" d="M15,28.9c-0.1,0-0.1,0-0.1-0.1c0-0.1,0-0.1,0.1-0.1c0.1,0,0.1,0,0.1,0.1C15.1,28.8,15.1,28.9,15,28.9
				L15,28.9z"/>
			<path class="st31" d="M15.8,28.6c0,0-0.1,0.1-0.2,0.1c-0.3,0.1-0.5-0.1-0.5-0.3c-0.1-0.3,0.1-0.5,0.3-0.6c0.1,0,0.2,0,0.2,0
				l0,0.1c0,0-0.1,0-0.2,0c-0.2,0.1-0.3,0.2-0.2,0.4c0.1,0.2,0.2,0.3,0.4,0.2c0.1,0,0.1-0.1,0.2-0.1L15.8,28.6z"/>
			<path class="st31" d="M16.6,28c0.1,0.3-0.1,0.5-0.3,0.6c-0.2,0.1-0.4-0.1-0.5-0.3c-0.1-0.3,0.1-0.5,0.3-0.6
				C16.3,27.6,16.5,27.7,16.6,28z M16,28.2c0,0.2,0.2,0.3,0.3,0.3c0.1,0,0.2-0.2,0.2-0.4c0-0.1-0.2-0.3-0.3-0.3
				C15.9,27.8,15.9,28,16,28.2z"/>
			<path class="st31" d="M16.7,27.7c0-0.1,0-0.2-0.1-0.2l0.1,0l0,0.1l0,0c0-0.1,0.1-0.2,0.2-0.2c0.1,0,0.2,0,0.3,0.1l0,0
				c0-0.1,0-0.1,0.1-0.1c0-0.1,0.1-0.1,0.2-0.1c0.1,0,0.3,0,0.4,0.3l0.1,0.5l-0.1,0l-0.1-0.5c0-0.2-0.1-0.2-0.3-0.2
				c-0.1,0-0.1,0.1-0.1,0.2c0,0,0,0.1,0,0.1l0.1,0.5l-0.1,0l-0.1-0.5c0-0.1-0.1-0.2-0.2-0.2c-0.1,0-0.1,0.1-0.1,0.2c0,0,0,0.1,0,0.1
				l0.1,0.5l-0.1,0L16.7,27.7z"/>
			<path class="st31" d="M18.4,28c-0.1,0-0.1,0-0.1-0.1c0-0.1,0-0.1,0.1-0.1c0.1,0,0.1,0,0.1,0.1C18.4,27.9,18.4,28,18.4,28L18.4,28
				z"/>
			<path class="st31" d="M18.5,26.8l0.1,0.2l0.2-0.1l0,0.1l-0.2,0.1l0.1,0.5c0,0.1,0.1,0.2,0.2,0.1c0,0,0.1,0,0.1,0l0,0.1
				c0,0-0.1,0-0.1,0.1c-0.1,0-0.1,0-0.2,0c-0.1,0-0.1-0.1-0.1-0.2l-0.1-0.5l-0.1,0l0-0.1l0.1,0l0-0.2L18.5,26.8z"/>
			<path class="st31" d="M19,26.9l0.2,0.4c0,0.1,0.1,0.2,0.1,0.3l0,0c0-0.1,0-0.2,0-0.3l0-0.5l0.1,0l0.2,0.4
				c0.1,0.1,0.1,0.2,0.1,0.3l0,0c0-0.1,0-0.2,0-0.3l0-0.5l0.2,0l0,0.9l-0.1,0l-0.2-0.4c-0.1-0.1-0.1-0.2-0.1-0.3l0,0
				c0,0.1,0,0.2,0,0.3l0,0.4l-0.1,0l-0.5-0.8L19,26.9z"/>
		</g>
	</g>
</g>
</svg>
