<?xml version="1.0" encoding="utf-8"?>
<!-- Generator: Adobe Illustrator 25.2.1, SVG Export Plug-In . SVG Version: 6.00 Build 0)  -->
<svg version="1.1" id="圖層_1" xmlns="http://www.w3.org/2000/svg" xmlns:xlink="http://www.w3.org/1999/xlink" x="0px" y="0px"
	 width="160px" height="35px" viewBox="0 0 160 35" style="enable-background:new 0 0 160 35;" xml:space="preserve">
<style type="text/css">
	.st0{fill:#FFFFFF;}
	.st1{fill:url(#SVGID_1_);}
	.st2{fill:url(#SVGID_2_);}
	.st3{fill:url(#SVGID_3_);}
	.st4{fill:#0396DF;}
	.st5{fill:#ECA200;}
	.st6{fill:url(#SVGID_4_);}
	.st7{fill:#231815;}
	.st8{filter:url(#Adobe_OpacityMaskFilter);}
	.st9{fill-rule:evenodd;clip-rule:evenodd;fill:#FFFFFF;}
	.st10{mask:url(#mask0_outline_2_);}
	.st11{fill-rule:evenodd;clip-rule:evenodd;fill:#0065A3;}
	.st12{fill-rule:evenodd;clip-rule:evenodd;fill:#231916;}
	.st13{filter:url(#Adobe_OpacityMaskFilter_1_);}
	.st14{mask:url(#mask1_outline_2_);}
	.st15{fill:#024F8D;}
	.st16{fill:#0280FF;}
	.st17{fill-rule:evenodd;clip-rule:evenodd;fill:#0280FF;}
	.st18{fill:#F08C00;}
	.st19{fill:#00AFAA;}
	.st20{fill:#0069A7;}
	.st21{fill:none;stroke:#FFFFFF;stroke-width:0.9458;stroke-miterlimit:10;}
	.st22{fill:#C01334;}
	.st23{fill:#0D131A;}
	.st24{fill:#004F81;}
	.st25{filter:url(#Adobe_OpacityMaskFilter_2_);}
	.st26{mask:url(#mask0_outline_1_);}
	.st27{fill-rule:evenodd;clip-rule:evenodd;fill:#026097;}
	.st28{fill-rule:evenodd;clip-rule:evenodd;fill:#0D131A;}
	.st29{filter:url(#Adobe_OpacityMaskFilter_3_);}
	.st30{mask:url(#mask1_outline_1_);}
	.st31{fill:#E05519;}
	.st32{fill:#DA007F;}
	.st33{fill:#252F3E;}
	.st34{fill:#FF9000;}
	.st35{fill:#1C9951;}
</style>
<g id="mjZRbr_3_">
	<g>
		<g id="Layer_2_2_" transform="matrix(0.76502312,0,0,0.83256304,-88.30701,-201.38867)">
			<g id="g5_2_">
				<path id="path7-0_2_" class="st22" d="M138,241.9c-2.8,0-5,2.2-5,4.9l4.5,14.7l5.6-14.7C143,244.1,140.7,241.9,138,241.9
					L138,241.9z"/>
			</g>
			<g id="g9_2_">
				<path id="path11-9_2_" class="st22" d="M151.8,246.4c-2.2-1.6-5.4-1.2-7,1l-5.4,14.3l13.4-8.3C154.4,251.1,154,248,151.8,246.4z
					"/>
			</g>
			<g id="g13_2_">
				<path id="path15-4_2_" class="st22" d="M130.8,247.4c-1.6-2.2-4.7-2.8-7-1.2c-2.3,1.6-2.8,4.7-1.2,6.9l13.1,8.7L130.8,247.4z"/>
			</g>
			<path id="path17-8_2_" class="st22" d="M140.3,263.1l14.1-8.4c0,0,3.5-1.1,5.4,2.5c1.9,3.7-2.5,5.9-2.5,5.9H140.3z"/>
			<path id="path19-8_2_" class="st22" d="M135.4,263.1l-14.1-8.4c0,0-3.5-1.1-5.4,2.5c-1.9,3.7,2.5,5.9,2.5,5.9H135.4z"/>
		</g>
		<g>
			<path class="st23" d="M45.6,21.7c0-0.2-0.1-0.5-0.1-0.7c-3.1,0.4-3.6,0.6-3.9,0.7c-0.1-0.3-0.3-0.9-0.4-1.2
				c0.3-0.1,0.7-0.4,1.1-1c0.2-0.2,0.6-0.8,1.1-1.5c-1.3,0.2-1.7,0.3-1.9,0.3c-0.1-0.3-0.3-0.8-0.4-1.2c0.3-0.1,0.5-0.4,0.8-0.8
				c0.3-0.4,1.3-2.1,1.9-3.7l1.2,0.5c-0.6,1.3-1.4,2.7-2.2,3.7l1.3-0.1c0.4-0.6,0.8-1.3,1.1-1.9l1.2,0.7c-0.9,1.6-2,3.3-3.2,4.6
				l2-0.3c-0.1-0.4-0.3-0.9-0.5-1.3l1-0.3c0.4,1,0.8,2.3,1,3L45.6,21.7z M42.9,22.4c-0.2,1.3-0.4,2.8-0.7,3.7
				c-0.2-0.1-0.8-0.3-1.1-0.4c0.3-0.9,0.6-2.3,0.7-3.5L42.9,22.4z M44.4,22.2c0.2,1,0.4,2.2,0.4,3.1l-1.1,0.2c0-0.8-0.2-2.1-0.4-3.1
				L44.4,22.2z M45.8,21.8c0.3,0.8,0.6,1.7,0.7,2.4l-1,0.3c-0.1-0.7-0.4-1.7-0.7-2.4L45.8,21.8z M54.9,24.7V26h-8.5v-1.3H50v-2.5
				h-2.9V21h7.2v1.2h-2.9v2.5H54.9z M48.4,20.6c-0.3-0.8-1-1.9-1.8-2.9c0.6-0.9,1.2-2,1.6-2.7l1.2,0.3c-0.4,0.8-1,1.7-1.5,2.4
				c0.6,0.8,1.3,1.8,1.6,2.5L48.4,20.6z M54.7,14.6h-7.9v-1.2h7.9V14.6z M51.9,15.3c-0.4,0.8-1,1.6-1.5,2.3c0.6,0.8,1.3,1.8,1.6,2.4
				l-1.1,0.5c-0.3-0.8-1.1-1.9-1.9-2.9c0.6-0.9,1.3-2,1.6-2.7L51.9,15.3z M53.6,20.6c-0.4-0.8-1.1-1.9-2-2.9c0.6-0.9,1.3-2,1.7-2.7
				l1.2,0.3c-0.5,0.8-1,1.6-1.5,2.4c0.7,0.8,1.4,1.8,1.7,2.4L53.6,20.6z"/>
			<path class="st23" d="M58.3,19.5c-0.5-0.5-1.5-1.2-2.3-1.7l0.7-0.8c0.8,0.4,1.8,1.1,2.3,1.6L58.3,19.5z M56.2,25.4
				c0.5-1.1,1.3-3,1.9-4.6l0.9,0.7c-0.5,1.5-1.2,3.3-1.8,4.6L56.2,25.4z M58.6,15.6c-0.4-0.6-1.4-1.4-2.2-2l0.7-0.8
				c0.8,0.5,1.7,1.3,2.2,1.9L58.6,15.6z M67,20.1h1.3v6.3H67v-2.2h-5.2c-0.3,0.8-0.8,1.6-1.6,2.2c-0.2-0.2-0.7-0.6-1-0.7
				c1.5-1,1.7-2.6,1.7-3.6v-1.9h1.3v0.9H67V20.1z M61.6,17.2c-0.2,1.3-0.7,2.3-1.7,2.9c-0.1-0.2-0.4-0.6-0.6-0.7
				c0.8-0.5,1.2-1.2,1.3-2.2h-0.8v-0.9h3.4v0.4c-0.1,1.8-0.1,2.6-0.3,2.8c-0.2,0.2-0.3,0.3-0.6,0.3c-0.2,0-0.5,0-0.8,0
				c0-0.3-0.1-0.7-0.2-0.9c0.3,0,0.5,0,0.6,0c0.1,0,0.2,0,0.3-0.1c0.1-0.1,0.1-0.6,0.2-1.7H61.6z M63.7,15.2h-3.9v-1.1h4.1
				c-0.1-0.4-0.2-0.9-0.3-1.3l1.3-0.2c0.2,0.5,0.3,1.1,0.4,1.5h4.4v1.1h-4l0.9,0.3c-0.5,0.5-1,1-1.5,1.4h0V20h-1v-3.1h0l0,0
				c0.5-0.5,1.1-1.2,1.5-1.7H63.7c0.3,0.4,0.6,0.8,0.7,1.1l-0.8,0.4c-0.1-0.3-0.4-0.8-0.6-1.2L63.7,15.2z M67,23.1v-1h-4.9
				c0,0.3,0,0.7-0.1,1H67z M69.3,16.4c-0.3,0.1-0.6,0.3-0.9,0.4c0.3,1,0.8,1.9,1.5,2.4c-0.2,0.1-0.5,0.5-0.6,0.7
				c-0.8-0.6-1.3-1.7-1.6-2.9c-0.2,0.1-0.5,0.1-0.7,0.2v1.6l1-0.3c0,0.2,0.1,0.6,0.1,0.7c-1.4,0.5-1.7,0.6-1.9,0.8v0
				c-0.1-0.2-0.3-0.7-0.4-0.8c0.2-0.1,0.4-0.4,0.4-0.9v-1.6h0l0,0c0.9-0.2,1.8-0.6,2.4-0.9L69.3,16.4z"/>
			<path class="st23" d="M78.2,15.9c-0.3,0.8-0.7,1.7-1,2.4h2v1.2h-7.8v-1.2h2.1c-0.1-0.7-0.5-1.6-0.9-2.4l1.2-0.3
				c0.4,0.7,0.8,1.7,0.9,2.4l-1.1,0.3h2.2c0.4-0.8,0.8-1.9,1-2.7L78.2,15.9z M78.8,15.6h-7.1v-1.2h3c-0.1-0.5-0.4-1-0.6-1.4l1.3-0.4
				c0.3,0.6,0.6,1.3,0.8,1.8h2.7V15.6z M72.1,20.8h6.4v5.3h-1.4v-0.6h-3.7v0.7h-1.3V20.8z M73.4,22.1v2.3h3.7v-2.3H73.4z M84.8,14
				c-0.5,1.4-1.2,3.1-1.8,4.4c1.3,1.3,1.6,2.5,1.6,3.5c0,0.9-0.2,1.7-0.7,2c-0.3,0.2-0.6,0.3-0.9,0.3c-0.4,0-0.8,0-1.2,0
				c0-0.4-0.1-0.9-0.3-1.3c0.4,0,0.8,0,1,0c0.2,0,0.4-0.1,0.6-0.1c0.3-0.2,0.4-0.6,0.4-1.1c0-0.9-0.4-1.9-1.6-3.2
				c0.5-1.2,1.1-2.7,1.4-3.9h-2.1v11.5h-1.2V13.5h3.8l0.2-0.1L84.8,14z"/>
			<path class="st23" d="M99.1,15.3v7.1h-1.5v-0.8h-3.9v4.7h-1.5v-4.7h-3.9v0.9H87v-7.2h5.3v-2.6h1.5v2.6H99.1z M92.3,20.2v-3.6
				h-3.9v3.6H92.3z M97.6,20.2v-3.6h-3.9v3.6H97.6z"/>
			<path class="st23" d="M105,16.6c-0.5,2.2-1.3,4.8-2.6,6.5c-0.3-0.3-1-0.6-1.3-0.7c1.3-1.5,2.1-4.1,2.4-6L105,16.6z M108.8,12.9
				v11.6c0,0.9-0.2,1.3-0.8,1.6c-0.6,0.2-1.6,0.3-3,0.3c-0.1-0.4-0.3-1-0.6-1.4c1,0,2.1,0,2.4,0c0.3,0,0.4-0.1,0.4-0.4V12.9H108.8z
				 M112.3,16.2c1.3,2.1,2.5,4.8,2.9,6.5l-1.5,0.6c-0.3-1.7-1.5-4.5-2.7-6.6L112.3,16.2z"/>
			<path class="st23" d="M124.2,13.2c-0.1,0.2-0.2,0.3-0.3,0.5c1.9,2.1,4.1,3.2,6.3,4.1c-0.3,0.3-0.7,0.8-0.9,1.2
				c-2.2-1-4.2-2.2-6.2-4.4c-1.6,1.8-3.8,3.3-6.1,4.3c-0.2-0.4-0.6-0.8-1-1.2c2.7-1.1,5.4-3,6.9-5.2L124.2,13.2z M123.9,24.6h5.5
				v1.3h-12.7v-1.3h1.8v-5.3h1.4v5.3h2.5v-7.8h1.5V20h4.2v1.2h-4.2V24.6z"/>
			<path class="st23" d="M136.8,24c-1.1,0.8-2.9,1.6-4.5,1.9c-0.2-0.3-0.6-0.8-0.8-1c1.5-0.2,3.3-0.8,4.3-1.4L136.8,24z M144.6,21.7
				v1.2h-5.9v3.4h-1.4v-3.4h-5.8v-1.2h5.8v-0.9h-4.4v-1h4.4v-0.9h-5.2v-1.1h3c-0.2-0.4-0.4-0.9-0.7-1.3l0.9-0.2h-3.8v-1.1h2.2
				c-0.2-0.6-0.7-1.4-1.1-2l1.2-0.4c0.5,0.6,1,1.5,1.2,2.1l-0.8,0.3h1.7v-2.5h1.3v2.5h1.5v-2.5h1.3v2.5h1.6l-0.6-0.2
				c0.4-0.6,0.8-1.5,1.1-2.2l1.4,0.4c-0.4,0.7-0.9,1.5-1.2,2h2.1v1.1h-3.9l1.2,0.3c-0.3,0.4-0.7,0.8-1,1.2h3.2v1.1h-5.3v0.9h4.6v1
				h-4.6v0.9H144.6z M135.9,16.3c0.3,0.4,0.6,1,0.7,1.3l-0.7,0.2h4.1l-0.5-0.2c0.3-0.4,0.6-0.9,0.8-1.3H135.9z M140.4,23.4
				c1.3,0.5,3.2,1.2,4.2,1.7l-0.9,0.8c-0.9-0.5-2.8-1.2-4.1-1.8L140.4,23.4z"/>
			<path class="st23" d="M153.5,20.6c-0.3,1.4-0.8,2.5-1.4,3.4c1,0.8,2.4,0.9,4,0.9c0.5,0,3.3,0,4,0c-0.2,0.3-0.4,0.8-0.4,1.1H156
				c-2,0-3.5-0.3-4.6-1.2c-0.7,0.7-1.6,1.2-2.6,1.5c-0.1-0.3-0.4-0.7-0.6-1c0.9-0.3,1.8-0.7,2.5-1.4c-0.3-0.4-0.5-0.8-0.7-1.4
				c-0.3,0.3-0.6,0.6-0.8,0.9c-0.1-0.2-0.4-0.4-0.6-0.6c-0.2,1.2-0.6,2.5-1.2,3.4c-0.2-0.3-0.8-0.7-1.1-0.8c1.2-1.9,1.3-4.6,1.3-6.6
				v-3.5h4.8v-2.7h1.4v0.9h5v1h-5v0.8h4.9l0.2-0.1l1,0.3c-0.3,0.9-0.7,1.9-1,2.5l-1.2-0.3c0.2-0.3,0.4-0.8,0.5-1.3h-4.5v0.7l3.6-0.2
				l0,0.9l-3.7,0.2v0.2c0,0.4,0.1,0.5,0.6,0.5h3.2c0.5,0,1.4,0,1.7-0.1c0,0.4,0.1,0.7,0.1,1c-0.3,0.1-1,0.1-1.7,0.1H154
				c-1.4,0-1.8-0.5-1.8-1.6v-0.1l-2.7,0.2l-0.1-0.9l2.8-0.2v-0.8h-3.5v2.5c0,1,0,2.3-0.3,3.6c0.9-0.8,1.6-2,2-3.2l1.1,0.3
				c-0.1,0.3-0.2,0.6-0.4,0.9h1.4l0.2,0L153.5,20.6z M150.5,21.7c0.2,0.6,0.5,1.1,0.8,1.5c0.4-0.5,0.7-1.1,0.9-1.8h-1.5L150.5,21.7z
				 M157.7,24.3c-0.8,0-1.1-0.3-1.1-1.1v-1.7h-1.2v0.1c0,1-0.3,2.2-1.4,3c-0.2-0.2-0.6-0.6-0.9-0.8c1-0.7,1.1-1.6,1.1-2.3v-1.1h3.4
				v2.7c0,0.3,0,0.3,0.2,0.3h0.5c0.2,0,0.2-0.2,0.3-1c0.2,0.2,0.6,0.3,0.8,0.3c-0.1,1.1-0.3,1.4-1,1.4H157.7z"/>
		</g>
		<g id="Layer_3_2_" transform="matrix(0.76502312,0,0,1.0335583,-88.30701,-278.96056)">
			<path id="path22_2_" class="st24" d="M133.2,303.8c0,0,0-7.2,0-10c-4.5-2.3-5.1-5.3-5.1-5.3s-1.2,0-2,0c0.4,3.7,5.2,6.1,5.2,6.1
				v9.2H133.2z"/>
			<path id="path24_2_" class="st24" d="M136.1,303.8c0,0,0-9.1,0-11.8c-3.7-1.1-5.1-3.5-5.1-3.5s-0.4,0-2,0
				c0.8,2.8,5.3,4.9,5.3,4.9v10.4H136.1z"/>
			<path id="path26_2_" class="st24" d="M140.6,303.8c0,0,0-7.2,0-10c4.5-2.3,5.1-5.3,5.1-5.3s1.2,0,2,0c-0.4,3.7-5.2,6.1-5.2,6.1
				v9.2H140.6z"/>
			<path id="path28_2_" class="st24" d="M137.6,303.8c0,0,0-9.1,0-11.8c3.7-1.1,5.1-3.5,5.1-3.5s0.4,0,2,0c-0.8,2.8-5.3,4.9-5.3,4.9
				v10.4H137.6z"/>
		</g>
	</g>
</g>
</svg>
