<?xml version="1.0" encoding="utf-8"?>
<!-- Generator: Adobe Illustrator 25.2.1, SVG Export Plug-In . SVG Version: 6.00 Build 0)  -->
<svg version="1.1" id="圖層_1" xmlns="http://www.w3.org/2000/svg" xmlns:xlink="http://www.w3.org/1999/xlink" x="0px" y="0px"
	 width="1920px" height="600px" viewBox="0 0 1920 600" style="enable-background:new 0 0 1920 600;" xml:space="preserve">
<style type="text/css">
	.st0{fill:#EFEFEF;}
	.st1{fill:#8CB7D9;}
	.st2{fill:#CFDDEB;}
	.st3{fill:#EEF2F4;}
	.st4{fill:#E68000;}
	.st5{fill:#A9CC85;}
	.st6{fill:#0076B1;}
	.st7{fill:#F0C180;}
	.st8{fill:#00953D;}
	.st9{fill:#C4D8AF;}
	.st10{fill:#E4ECDE;}
	.st11{fill:url(#SVGID_1_);}
</style>
<g>
	<rect x="-1" y="-1" class="st0" width="1922" height="602"/>
	<g>
		<polygon class="st1" points="961.4,207.8 959.5,207.8 924.2,-1 931.4,-1 		"/>
		<polygon class="st2" points="991.9,207.8 989.9,207.8 1036.3,-1 1043.5,-1 		"/>
		<polygon class="st1" points="973.4,207.8 969.8,207.8 962.4,-1 975.5,-1 		"/>
		<polygon class="st2" points="977,207.8 973.4,207.8 975.5,-1 988.6,-1 		"/>
		<polygon class="st3" points="963.4,207.8 961.4,207.8 931.4,-1 938.5,-1 		"/>
		<polygon class="st4" points="1012.6,207.8 1010.6,207.8 1112.6,-1 1119.8,-1 		"/>
		<polygon class="st5" points="998.3,207.8 996.4,207.8 1060.2,-1 1067.3,-1 		"/>
		<polygon class="st2" points="983.4,207.8 981.5,207.8 1005.3,-1 1012.5,-1 		"/>
		<polygon class="st3" points="1014.5,207.8 1012.6,207.8 1119.8,-1 1126.9,-1 		"/>
		<polygon class="st6" points="965.3,207.8 963.4,207.8 938.5,-1 945.7,-1 		"/>
		<polygon class="st2" points="1006.2,207.8 998.3,207.8 1067.3,-1 1096.3,-1 		"/>
		<polygon class="st6" points="989.9,207.8 988,207.8 1029.2,-1 1036.3,-1 		"/>
		<polygon class="st2" points="969.8,207.8 965.3,207.8 945.7,-1 962.4,-1 		"/>
		<polygon class="st3" points="1010.6,207.8 1006.1,207.8 1095.9,-1 1112.6,-1 		"/>
		<polygon class="st3" points="996.4,207.8 991.9,207.8 1043.5,-1 1060.2,-1 		"/>
		<polygon class="st1" points="988,207.8 983.4,207.8 1012.5,-1 1029.2,-1 		"/>
		<polygon class="st6" points="1041.1,207.8 1036.5,207.8 1208,-1 1224.7,-1 		"/>
		<polygon class="st3" points="981.5,207.8 977,207.8 988.6,-1 1005.3,-1 		"/>
		<polygon class="st3" points="1056.6,207.8 1052.1,207.8 1265.3,-1 1281.9,-1 		"/>
		<polygon class="st2" points="1047.6,207.8 1045.6,207.8 1241.4,-1 1248.6,-1 		"/>
		<polygon class="st1" points="1052.1,207.8 1047.6,207.8 1248.6,-1 1265.3,-1 		"/>
		<polygon class="st3" points="1045.6,207.8 1041.1,207.8 1224.7,-1 1241.4,-1 		"/>
		<polygon class="st3" points="1036.5,207.8 1034.6,207.8 1200.9,-1 1208,-1 		"/>
		<polygon class="st7" points="1018.1,207.8 1014.5,207.8 1126.9,-1 1140.1,-1 		"/>
		<polygon class="st3" points="1021.7,207.8 1018.1,207.8 1140.1,-1 1153.2,-1 		"/>
		<polygon class="st8" points="1028.1,207.8 1026.2,207.8 1169.9,-1 1177,-1 		"/>
		<polygon class="st6" points="1034.6,207.8 1032.7,207.8 1193.7,-1 1200.9,-1 		"/>
		<polygon class="st1" points="1032.7,207.8 1028.1,207.8 1177,-1 1193.7,-1 		"/>
		<polygon class="st5" points="1026.2,207.8 1021.7,207.8 1153.2,-1 1169.9,-1 		"/>
		<polygon class="st4" points="1058.6,207.8 1056.6,207.8 1281.9,-1 1289.1,-1 		"/>
		<polygon class="st9" points="910.3,207.8 908.3,207.8 735.8,-1 743,-1 		"/>
		<polygon class="st2" points="891.8,207.8 888.3,207.8 661.9,-1 675,-1 		"/>
		<polygon class="st3" points="895.4,207.8 891.8,207.8 675,-1 688.1,-1 		"/>
		<polygon class="st8" points="881.8,207.8 879.8,207.8 630.9,-1 638.1,-1 		"/>
		<polygon class="st2" points="931,207.8 929.1,207.8 812.2,-1 819.3,-1 		"/>
		<polygon class="st1" points="916.7,207.8 914.8,207.8 759.7,-1 766.8,-1 		"/>
		<polygon class="st8" points="901.9,207.8 899.9,207.8 704.8,-1 712,-1 		"/>
		<polygon class="st3" points="932.9,207.8 931,207.8 819.3,-1 826.5,-1 		"/>
		<polygon class="st6" points="883.7,207.8 881.8,207.8 638.1,-1 645.2,-1 		"/>
		<polygon class="st6" points="924.6,207.8 916.7,207.8 766.8,-1 795.8,-1 		"/>
		<polygon class="st10" points="908.3,207.8 906.4,207.8 728.7,-1 735.8,-1 		"/>
		<polygon class="st1" points="888.3,207.8 883.7,207.8 645.2,-1 661.9,-1 		"/>
		<polygon class="st1" points="929.1,207.8 924.5,207.8 795.5,-1 812.2,-1 		"/>
		<polygon class="st3" points="914.8,207.8 910.3,207.8 743,-1 759.7,-1 		"/>
		<polygon class="st9" points="906.4,207.8 901.9,207.8 712,-1 728.7,-1 		"/>
		<polygon class="st3" points="959.5,207.8 955,207.8 907.5,-1 924.2,-1 		"/>
		<polygon class="st5" points="899.9,207.8 895.4,207.8 688.1,-1 704.8,-1 		"/>
		<polygon class="st4" points="955,207.8 953,207.8 900.4,-1 907.5,-1 		"/>
		<polygon class="st2" points="936.5,207.8 932.9,207.8 826.5,-1 839.6,-1 		"/>
		<polygon class="st6" points="940.1,207.8 936.5,207.8 839.6,-1 852.7,-1 		"/>
		<polygon class="st8" points="946.5,207.8 944.6,207.8 869.4,-1 876.5,-1 		"/>
		<polygon class="st7" points="953,207.8 951.1,207.8 893.2,-1 900.4,-1 		"/>
		<polygon class="st10" points="951.1,207.8 946.5,207.8 876.5,-1 893.2,-1 		"/>
		<polygon class="st5" points="944.6,207.8 940.1,207.8 852.7,-1 869.4,-1 		"/>
	</g>
	<g>
		<polygon class="st1" points="958.2,392.2 960.7,392.2 1005.8,601 996.6,601 		"/>
		<polygon class="st2" points="919.2,392.2 921.7,392.2 862.3,601 853.1,601 		"/>
		<polygon class="st1" points="942.8,392.2 947.4,392.2 956.9,601 940.1,601 		"/>
		<polygon class="st2" points="938.3,392.2 942.8,392.2 940.1,601 923.3,601 		"/>
		<polygon class="st3" points="955.7,392.2 958.2,392.2 996.6,601 987.5,601 		"/>
		<polygon class="st4" points="892.7,392.2 895.2,392.2 764.6,601 755.4,601 		"/>
		<polygon class="st5" points="910.9,392.2 913.4,392.2 831.8,601 822.6,601 		"/>
		<polygon class="st2" points="930,392.2 932.5,392.2 902,601 892.8,601 		"/>
		<polygon class="st3" points="890.2,392.2 892.7,392.2 755.4,601 746.2,601 		"/>
		<polygon class="st6" points="953.2,392.2 955.7,392.2 987.5,601 978.3,601 		"/>
		<polygon class="st2" points="900.8,392.2 910.9,392.2 822.6,601 785.5,601 		"/>
		<polygon class="st6" points="921.7,392.2 924.2,392.2 871.4,601 862.3,601 		"/>
		<polygon class="st2" points="947.4,392.2 953.2,392.2 978.3,601 956.9,601 		"/>
		<polygon class="st3" points="895.2,392.2 901,392.2 785.9,601 764.6,601 		"/>
		<polygon class="st3" points="913.4,392.2 919.2,392.2 853.1,601 831.8,601 		"/>
		<polygon class="st1" points="924.2,392.2 930,392.2 892.8,601 871.4,601 		"/>
		<polygon class="st6" points="856.2,392.2 862,392.2 642.4,601 621,601 		"/>
		<polygon class="st3" points="932.5,392.2 938.3,392.2 923.3,601 902,601 		"/>
		<polygon class="st3" points="836.3,392.2 842.1,392.2 569.1,601 547.8,601 		"/>
		<polygon class="st2" points="847.9,392.2 850.4,392.2 599.7,601 590.5,601 		"/>
		<polygon class="st1" points="842.1,392.2 847.9,392.2 590.5,601 569.1,601 		"/>
		<polygon class="st3" points="850.4,392.2 856.2,392.2 621,601 599.7,601 		"/>
		<polygon class="st3" points="862,392.2 864.5,392.2 651.6,601 642.4,601 		"/>
		<polygon class="st7" points="885.6,392.2 890.2,392.2 746.2,601 729.4,601 		"/>
		<polygon class="st3" points="881.1,392.2 885.6,392.2 729.4,601 712.6,601 		"/>
		<polygon class="st8" points="872.8,392.2 875.3,392.2 691.3,601 682.1,601 		"/>
		<polygon class="st6" points="864.5,392.2 867,392.2 660.7,601 651.6,601 		"/>
		<polygon class="st1" points="867,392.2 872.8,392.2 682.1,601 660.7,601 		"/>
		<polygon class="st5" points="875.3,392.2 881.1,392.2 712.6,601 691.3,601 		"/>
		<polygon class="st4" points="833.8,392.2 836.3,392.2 547.8,601 538.6,601 		"/>
		<polygon class="st9" points="1023.7,392.2 1026.2,392.2 1247,601 1237.9,601 		"/>
		<polygon class="st2" points="1047.3,392.2 1051.9,392.2 1341.7,601 1324.9,601 		"/>
		<polygon class="st3" points="1042.7,392.2 1047.3,392.2 1324.9,601 1308.1,601 		"/>
		<polygon class="st8" points="1060.2,392.2 1062.6,392.2 1381.4,601 1372.2,601 		"/>
		<polygon class="st2" points="997.1,392.2 999.6,392.2 1149.3,601 1140.1,601 		"/>
		<polygon class="st1" points="1015.4,392.2 1017.9,392.2 1216.5,601 1207.3,601 		"/>
		<polygon class="st8" points="1034.4,392.2 1036.9,392.2 1286.7,601 1277.6,601 		"/>
		<polygon class="st3" points="994.7,392.2 997.1,392.2 1140.1,601 1131,601 		"/>
		<polygon class="st6" points="1057.7,392.2 1060.2,392.2 1372.2,601 1363.1,601 		"/>
		<polygon class="st6" points="1005.3,392.2 1015.4,392.2 1207.3,601 1170.2,601 		"/>
		<polygon class="st10" points="1026.2,392.2 1028.6,392.2 1256.2,601 1247,601 		"/>
		<polygon class="st1" points="1051.9,392.2 1057.7,392.2 1363.1,601 1341.7,601 		"/>
		<polygon class="st1" points="999.6,392.2 1005.4,392.2 1170.7,601 1149.3,601 		"/>
		<polygon class="st3" points="1017.9,392.2 1023.7,392.2 1237.9,601 1216.5,601 		"/>
		<polygon class="st9" points="1028.6,392.2 1034.4,392.2 1277.6,601 1256.2,601 		"/>
		<polygon class="st3" points="960.7,392.2 966.5,392.2 1027.2,601 1005.8,601 		"/>
		<polygon class="st5" points="1036.9,392.2 1042.7,392.2 1308.1,601 1286.7,601 		"/>
		<polygon class="st4" points="966.5,392.2 968.9,392.2 1036.3,601 1027.2,601 		"/>
		<polygon class="st2" points="990.1,392.2 994.7,392.2 1131,601 1114.2,601 		"/>
		<polygon class="st6" points="985.5,392.2 990.1,392.2 1114.2,601 1097.4,601 		"/>
		<polygon class="st8" points="977.2,392.2 979.7,392.2 1076,601 1066.9,601 		"/>
		<polygon class="st7" points="968.9,392.2 971.4,392.2 1045.5,601 1036.3,601 		"/>
		<polygon class="st10" points="971.4,392.2 977.2,392.2 1066.9,601 1045.5,601 		"/>
		<polygon class="st5" points="979.7,392.2 985.5,392.2 1097.4,601 1076,601 		"/>
	</g>
	<linearGradient id="SVGID_1_" gradientUnits="userSpaceOnUse" x1="960" y1="28.4218" x2="960" y2="584.821">
		<stop  offset="0" style="stop-color:#EFEFEF;stop-opacity:0"/>
		<stop  offset="0.1579" style="stop-color:#EFEFEF"/>
		<stop  offset="0.8411" style="stop-color:#EFEFEF"/>
		<stop  offset="1" style="stop-color:#EFEFEF;stop-opacity:4.552491e-02"/>
	</linearGradient>
	<rect x="359.4" y="-1" class="st11" width="1201.2" height="602"/>
</g>
</svg>
