<?xml version="1.0" encoding="utf-8"?>
<!-- Generator: Adobe Illustrator 25.2.1, SVG Export Plug-In . SVG Version: 6.00 Build 0)  -->
<svg version="1.1" id="圖層_1" xmlns="http://www.w3.org/2000/svg" xmlns:xlink="http://www.w3.org/1999/xlink" x="0px" y="0px"
	 width="150px" height="150px" viewBox="0 0 150 150" style="enable-background:new 0 0 150 150;" xml:space="preserve">
<style type="text/css">
	.st0{fill:#FFFFFF;}
	.st1{fill:url(#SVGID_1_);}
	.st2{fill:url(#SVGID_2_);}
	.st3{fill:url(#SVGID_3_);}
	.st4{fill:#0396DF;}
	.st5{fill:#ECA200;}
	.st6{fill:url(#SVGID_4_);}
	.st7{fill:#231815;}
	.st8{filter:url(#Adobe_OpacityMaskFilter);}
	.st9{fill-rule:evenodd;clip-rule:evenodd;fill:#FFFFFF;}
	.st10{mask:url(#mask0_outline_2_);}
	.st11{fill-rule:evenodd;clip-rule:evenodd;fill:#0065A3;}
	.st12{fill-rule:evenodd;clip-rule:evenodd;fill:#231916;}
	.st13{filter:url(#Adobe_OpacityMaskFilter_1_);}
	.st14{mask:url(#mask1_outline_2_);}
	.st15{fill:#024F8D;}
	.st16{fill:#0280FF;}
	.st17{fill-rule:evenodd;clip-rule:evenodd;fill:#0280FF;}
	.st18{fill:#F08C00;}
	.st19{fill:#00AFAA;}
	.st20{fill:#0069A7;}
	.st21{fill:none;stroke:#FFFFFF;stroke-width:0.9458;stroke-miterlimit:10;}
	.st22{fill:#C01334;}
	.st23{fill:#0D131A;}
	.st24{fill:#004F81;}
	.st25{filter:url(#Adobe_OpacityMaskFilter_2_);}
	.st26{mask:url(#mask0_outline_1_);}
	.st27{fill-rule:evenodd;clip-rule:evenodd;fill:#026097;}
	.st28{fill-rule:evenodd;clip-rule:evenodd;fill:#0D131A;}
	.st29{filter:url(#Adobe_OpacityMaskFilter_3_);}
	.st30{mask:url(#mask1_outline_1_);}
	.st31{fill:#E05519;}
	.st32{fill:#DA007F;}
	.st33{fill:#252F3E;}
	.st34{fill:#FF9000;}
	.st35{fill:#1C9951;}
</style>
<g>
	<circle class="st0" cx="75" cy="75" r="75"/>
	<g>
		<path class="st15" d="M110.7,58.3H95.6V45.4h1.3c1.2,0,2.1-1,2.1-2.1c0-1.2-1-2.1-2.1-2.1h-3.4H48.8h-3.4c-1.2,0-2.1,0.9-2.1,2.1
			c0,1.2,1,2.1,2.1,2.1h1.3v12.9H31.7c-1.2,0-2.1,1-2.1,2.1v41.2c0,1.2,0.9,2.1,2.1,2.1h17.2h44.7h17.2c1.2,0,2.1-1,2.1-2.1V60.5
			C112.8,59.3,111.8,58.3,110.7,58.3z M108.5,62.6v37H95.6v-37H108.5z M50.9,45.4h40.4v15.1v39.1h-6.1V84.5c0-1.2-0.9-2.1-2.1-2.1
			h-24c-1.2,0-2.1,0.9-2.1,2.1v15.1h-6.1V60.5V45.4z M61.3,86h19.8v13.6H61.3V86z M33.8,99.6v-37h12.9v37H33.8z"/>
		<path class="st15" d="M59.1,58.8h24c1.2,0,2.1-1,2.1-2.1c0-1.2-0.9-2.1-2.1-2.1h-24c-1.2,0-2.1,1-2.1,2.1
			C57,57.8,58,58.8,59.1,58.8z"/>
		<path class="st15" d="M34.1,80.3h13.9c1.2,0,2.1-0.9,2.1-2.1c0-1.2-0.9-2.1-2.1-2.1H34.1c-1.2,0-2.1,0.9-2.1,2.1
			C32,79.4,32.9,80.3,34.1,80.3z"/>
		<path class="st15" d="M96,80.3h13.9c1.2,0,2.1-0.9,2.1-2.1c0-1.2-0.9-2.1-2.1-2.1H96c-1.2,0-2.1,0.9-2.1,2.1
			C93.9,79.4,94.9,80.3,96,80.3z"/>
		<path class="st15" d="M59.1,73.1h24c1.2,0,2.1-1,2.1-2.1c0-1.2-0.9-2.1-2.1-2.1h-24c-1.2,0-2.1,1-2.1,2.1
			C57,72.2,58,73.1,59.1,73.1z"/>
	</g>
</g>
</svg>
