<?xml version="1.0" encoding="utf-8"?>
<!-- Generator: Adobe Illustrator 25.2.1, SVG Export Plug-In . SVG Version: 6.00 Build 0)  -->
<svg version="1.1" id="圖層_1" xmlns="http://www.w3.org/2000/svg" xmlns:xlink="http://www.w3.org/1999/xlink" x="0px" y="0px"
	 width="45px" height="38px" viewBox="0 0 45 38" style="enable-background:new 0 0 45 38;" xml:space="preserve">
<style type="text/css">
	.st0{fill:#FFFFFF;}
	.st1{fill:url(#SVGID_1_);}
	.st2{fill:url(#SVGID_2_);}
	.st3{fill:url(#SVGID_3_);}
	.st4{fill:#0396DF;}
	.st5{fill:#ECA200;}
	.st6{fill:url(#SVGID_4_);}
	.st7{fill:#231815;}
	.st8{filter:url(#Adobe_OpacityMaskFilter);}
	.st9{fill-rule:evenodd;clip-rule:evenodd;fill:#FFFFFF;}
	.st10{mask:url(#mask0_outline_2_);}
	.st11{fill-rule:evenodd;clip-rule:evenodd;fill:#0065A3;}
	.st12{fill-rule:evenodd;clip-rule:evenodd;fill:#231916;}
	.st13{filter:url(#Adobe_OpacityMaskFilter_1_);}
	.st14{mask:url(#mask1_outline_2_);}
	.st15{fill:#024F8D;}
	.st16{fill:#0280FF;}
	.st17{fill-rule:evenodd;clip-rule:evenodd;fill:#0280FF;}
	.st18{fill:#F08C00;}
	.st19{fill:#00AFAA;}
	.st20{fill:#0069A7;}
	.st21{fill:none;stroke:#FFFFFF;stroke-width:0.9458;stroke-miterlimit:10;}
	.st22{fill:#C01334;}
	.st23{fill:#0D131A;}
	.st24{fill:#004F81;}
	.st25{filter:url(#Adobe_OpacityMaskFilter_2_);}
	.st26{mask:url(#mask0_outline_1_);}
	.st27{fill-rule:evenodd;clip-rule:evenodd;fill:#026097;}
	.st28{fill-rule:evenodd;clip-rule:evenodd;fill:#0D131A;}
	.st29{filter:url(#Adobe_OpacityMaskFilter_3_);}
	.st30{mask:url(#mask1_outline_1_);}
	.st31{fill:#E05519;}
	.st32{fill:#DA007F;}
	.st33{fill:#252F3E;}
	.st34{fill:#FF9000;}
	.st35{fill:#1C9951;}
</style>
<g>
	<g>
		<g>
			<path class="st35" d="M12.3,23.2H7.4v14.5H4.8V23.2H0v-2.2h12.3V23.2z"/>
			<path class="st35" d="M13.7,29.5c0-2.6,0.7-4.8,2.2-6.4c1.5-1.6,3.5-2.5,6-2.5c2.4,0,4.3,0.8,5.7,2.4c1.4,1.6,2.1,3.6,2.1,6.1
				c0,2.6-0.7,4.8-2.2,6.4c-1.5,1.6-3.4,2.4-5.9,2.4c-2.4,0-4.3-0.8-5.8-2.4C14.5,34.1,13.7,32,13.7,29.5z M16.4,29.4
				c0,1.8,0.5,3.4,1.4,4.6s2.2,1.8,3.8,1.8c1.7,0,3-0.6,3.9-1.7c0.9-1.1,1.4-2.7,1.4-4.6c0-2-0.5-3.5-1.4-4.7
				c-0.9-1.2-2.2-1.7-3.9-1.7c-1.6,0-2.9,0.6-3.9,1.8C16.9,26,16.4,27.5,16.4,29.4z"/>
			<path class="st35" d="M36.6,31.6v6.1H34V20.9h5.1c1.9,0,3.4,0.4,4.4,1.3c1,0.9,1.5,2.1,1.5,3.8c0,1.7-0.6,3-1.8,4.1
				c-1.2,1-2.7,1.5-4.5,1.4H36.6z M36.6,23.1v6.3h1.9c2.5,0,3.8-1.1,3.8-3.2c0-2-1.2-3.1-3.6-3.1H36.6z"/>
		</g>
		<g>
			<g>
				<path class="st35" d="M12.3,11.8L21.1,0h2l9.6,11.8H29l-6.8-8.7h-0.1L16,11.8H12.3z"/>
			</g>
		</g>
	</g>
</g>
</svg>
