<?xml version="1.0" encoding="utf-8"?>
<!-- Generator: Adobe Illustrator 25.2.1, SVG Export Plug-In . SVG Version: 6.00 Build 0)  -->
<svg version="1.1" id="圖層_1" xmlns="http://www.w3.org/2000/svg" xmlns:xlink="http://www.w3.org/1999/xlink" x="0px" y="0px"
	 width="121px" height="45px" viewBox="0 0 121 45" style="enable-background:new 0 0 121 45;" xml:space="preserve">
<style type="text/css">
	.st0{fill:#FFFFFF;}
	.st1{fill:url(#SVGID_1_);}
	.st2{fill:url(#SVGID_2_);}
	.st3{fill:url(#SVGID_3_);}
	.st4{fill:#0396DF;}
	.st5{fill:#ECA200;}
	.st6{fill:url(#SVGID_4_);}
	.st7{fill:#231815;}
	.st8{filter:url(#Adobe_OpacityMaskFilter);}
	.st9{fill-rule:evenodd;clip-rule:evenodd;fill:#FFFFFF;}
	.st10{mask:url(#mask0_outline_2_);}
	.st11{fill-rule:evenodd;clip-rule:evenodd;fill:#0065A3;}
	.st12{fill-rule:evenodd;clip-rule:evenodd;fill:#231916;}
	.st13{filter:url(#Adobe_OpacityMaskFilter_1_);}
	.st14{mask:url(#mask1_outline_2_);}
	.st15{fill:#024F8D;}
	.st16{fill:#0280FF;}
	.st17{fill-rule:evenodd;clip-rule:evenodd;fill:#0280FF;}
	.st18{fill:#F08C00;}
	.st19{fill:#00AFAA;}
	.st20{fill:#0069A7;}
	.st21{fill:none;stroke:#FFFFFF;stroke-width:0.9458;stroke-miterlimit:10;}
	.st22{fill:#C01334;}
	.st23{fill:#0D131A;}
	.st24{fill:#004F81;}
	.st25{filter:url(#Adobe_OpacityMaskFilter_2_);}
	.st26{mask:url(#mask0_outline_1_);}
	.st27{fill-rule:evenodd;clip-rule:evenodd;fill:#026097;}
	.st28{fill-rule:evenodd;clip-rule:evenodd;fill:#0D131A;}
	.st29{filter:url(#Adobe_OpacityMaskFilter_3_);}
	.st30{mask:url(#mask1_outline_1_);}
	.st31{fill:#E05519;}
	.st32{fill:#DA007F;}
	.st33{fill:#252F3E;}
	.st34{fill:#FF9000;}
	.st35{fill:#1C9951;}
</style>
<g>
	<path class="st0" d="M9.5,10.2l-4.4,14c0,0-0.2,0.7,0.3,0.8c0.5,0.1,2.8-1.4,6.7-1s5.3,1.5,5.2,3.3c0,1.8-0.7,6.3-7.3,6.5
		s-7.6-1.2-8-1.2c-0.5,0-0.7,0.4-0.8,0.7C1,33.6-0.1,36.6,0,37s0.4,0.5,0.7,0.6s13.5,3.9,20.3-4.3c0,0,0.8,4.5,7.9,5.1
		C36,39,42.3,36.7,42.8,36c0.6-0.7,1.5-4,1.5-4l1.7-5.4c0,0,0.5-1.1-0.3-1.1s-10.3,0-10.3,0s-1.2,0.1-1.4,0.7s-0.8,2.6-0.8,2.6
		s0,0.9,0.6,0.8c0.7,0,6.1-0.1,6.1-0.1l-1.2,4.2c0,0-8.7,2.1-10.9-0.5s-2.7-4.7,0.4-10.3s11.1-5,12.2-4.7s3.7,1,4.9,1.8
		c1.1,0.8,1.4,1.2,2,1.1c0.6-0.2,2-3.9,1.6-4.6c-0.4-0.7-16.5-7.5-26.1,6.6c0,0-2.2-5-10.4-3.7c0,0-0.8,0-0.7-0.6
		c0.1-0.6,1.2-3.8,1.2-3.8s0.1-0.7,1-0.7s10.6,0,10.6,0s1.1,0.2,1.4-0.6s1.1-3.3,1.1-3.3s0.3-1.1-0.5-1.1s-16,0-16,0
		S9.7,9.5,9.5,10.2z"/>
	<path class="st0" d="M48.8,9.9c-3.4,0.3-6.7,0.1-9.3,0.3C32.9,10.6,27.6,16,27.6,16c6.4-5.2,15-4.3,17.2-4.1
		c2.2,0.2,8.1,2.1,13.3,1.5c4.4-0.5,9.4-4.1,9.4-4.1C58.4,13.4,52.8,11.5,48.8,9.9z"/>
	<path class="st0" d="M37.8,10c0,0,3.7-2.2,7.8-1.2c0.9,0.2,2,0.7,3.1,1.1c4.9-0.4,10-1.6,14.3-6.1c0,0-6.2,4-11.2,3.7
		C49.7,7.4,47.7,7.2,46,7c-2.8,1.2-7.2,1.8-11.4,2.9c-4.7,1.3-6.9,6.1-6.9,6.1S30.5,10.6,37.8,10z"/>
	<path class="st0" d="M39.5,10.2c2.7-0.2,5.9,0,9.3-0.3c-1.2-0.5-2.2-0.9-3.1-1.1c-4.1-1-7.8,1.2-7.8,1.2c-7.4,0.6-10.2,6-10.2,6
		S32.9,10.6,39.5,10.2z"/>
	<path class="st0" d="M36.9,8.8c0,0,1.7-1.6,3.7-2c1.2-0.2,3.1,0,5.4,0.3c0.4-0.2,0.7-0.3,1.1-0.5C49.7,5,52.4,3.1,53.5,0
		c0,0-2.5,3.6-6.2,4.5c-3.7,0.9-9.9,0.2-11.9,3.4c0,0-7.3,2.8-7.8,8.1C30.4,9.1,36.9,8.8,36.9,8.8z"/>
	<path class="st0" d="M34.6,9.9C38.7,8.7,43.2,8.1,46,7c-2.3-0.3-4.2-0.5-5.4-0.3c-2,0.4-3.7,2-3.7,2s-6.5,0.4-9.3,7.2
		C27.6,16,29.8,11.2,34.6,9.9z"/>
	<polygon class="st0" points="65.2,17.2 61.3,17.2 50.5,36.3 54.4,36.3 	"/>
	<polygon class="st0" points="67.3,23.5 63.4,23.5 51.2,45 55.1,45 	"/>
	<polygon class="st0" points="70.1,36.8 77.6,23.5 73.7,23.5 66.2,36.8 	"/>
	<polygon class="st0" points="64.8,36.8 72.4,23.5 68.4,23.5 60.9,36.8 	"/>
	<polygon class="st0" points="78.5,32.1 82,26 78.1,26 74.6,32.1 	"/>
	<polygon class="st0" points="74.9,42.2 80.6,32.1 76.7,32.1 71,42.2 	"/>
	<polygon class="st0" points="84,35 89.1,26 85,26 79.8,35 	"/>
	<polygon class="st0" points="103.9,28.6 107.9,21.6 104.1,21.6 100.1,28.6 	"/>
	<polygon class="st0" points="115.9,30.8 116.6,29.4 99.8,29.4 99,30.8 	"/>
	<polygon class="st0" points="108.3,28.6 112.3,21.6 108.6,21.6 104.6,28.6 	"/>
	<polygon class="st0" points="112.6,28.6 116.6,21.6 112.8,21.6 108.8,28.6 	"/>
	<polygon class="st0" points="117,28.6 121,21.6 117.3,21.6 113.3,28.6 	"/>
	<polygon class="st0" points="94.1,35 99.2,26 95.1,26 90,35 	"/>
	<polygon class="st0" points="84.8,42.2 96.4,21.6 93,21.6 81.3,42.2 	"/>
	<rect x="85" y="26" class="st0" width="12.8" height="1.3"/>
	<rect x="80.6" y="33.7" class="st0" width="12.8" height="1.3"/>
	<polygon class="st0" points="85.5,36 81.3,36 76.9,39.5 81.2,39.5 	"/>
	<polygon class="st0" points="55.6,23.5 54.7,25 63.3,25 64.4,23.5 	"/>
	<polygon class="st0" points="86.4,23.5 85.5,25 99.8,25 100.6,23.5 	"/>
	<polygon class="st0" points="74.2,40.7 73.4,42.2 90.2,42.2 91,40.7 	"/>
	<polygon class="st0" points="71.8,23.5 70.9,25 75.2,25 76.3,23.5 	"/>
	<polygon class="st0" points="64.4,35.3 63.5,36.8 67.8,36.8 68.8,35.3 	"/>
	<polygon class="st0" points="98.3,44 89.4,33.9 87.6,35 87,36.4 87.7,36.9 94.1,44 	"/>
	<rect x="102.6" y="27.5" class="st0" width="4.6" height="1.1"/>
	<rect x="112" y="27.5" class="st0" width="4.6" height="1.1"/>
	<rect x="106.2" y="21.6" class="st0" width="4.6" height="1.1"/>
	<rect x="115.6" y="21.6" class="st0" width="4.6" height="1.1"/>
	<polygon class="st0" points="97.3,42.1 101.3,35 97.6,35 93.6,42.1 	"/>
	<polygon class="st0" points="101.8,42.1 105.7,35 102,35 98,42.1 	"/>
	<polygon class="st0" points="106,42.1 110,35 106.3,35 102.3,42.1 	"/>
	<polygon class="st0" points="110.5,42.1 114.4,35 110.7,35 106.7,42.1 	"/>
	<rect x="96" y="40.9" class="st0" width="4.6" height="1.1"/>
	<rect x="105.4" y="40.9" class="st0" width="4.6" height="1.1"/>
	<rect x="99.6" y="35" class="st0" width="4.6" height="1.1"/>
	<rect x="109" y="35" class="st0" width="4.6" height="1.1"/>
	<polygon class="st0" points="96.1,35.6 101.7,35.6 111.6,28.4 111.6,28.2 106.3,28.2 106,28.6 	"/>
	<polygon class="st0" points="115.8,36.2 110.5,30.1 107.6,30.5 107.5,31.4 111.8,36.2 	"/>
</g>
</svg>
