<?xml version="1.0" encoding="utf-8"?>
<!-- Generator: Adobe Illustrator 25.2.1, SVG Export Plug-In . SVG Version: 6.00 Build 0)  -->
<svg version="1.1" id="圖層_1" xmlns="http://www.w3.org/2000/svg" xmlns:xlink="http://www.w3.org/1999/xlink" x="0px" y="0px"
	 width="150px" height="150px" viewBox="0 0 150 150" style="enable-background:new 0 0 150 150;" xml:space="preserve">
<style type="text/css">
	.st0{fill:#FFFFFF;}
	.st1{fill:url(#SVGID_1_);}
	.st2{fill:url(#SVGID_2_);}
	.st3{fill:url(#SVGID_3_);}
	.st4{fill:#0396DF;}
	.st5{fill:#ECA200;}
	.st6{fill:url(#SVGID_4_);}
	.st7{fill:#231815;}
	.st8{filter:url(#Adobe_OpacityMaskFilter);}
	.st9{fill-rule:evenodd;clip-rule:evenodd;fill:#FFFFFF;}
	.st10{mask:url(#mask0_outline_2_);}
	.st11{fill-rule:evenodd;clip-rule:evenodd;fill:#0065A3;}
	.st12{fill-rule:evenodd;clip-rule:evenodd;fill:#231916;}
	.st13{filter:url(#Adobe_OpacityMaskFilter_1_);}
	.st14{mask:url(#mask1_outline_2_);}
	.st15{fill:#024F8D;}
	.st16{fill:#0280FF;}
	.st17{fill-rule:evenodd;clip-rule:evenodd;fill:#0280FF;}
	.st18{fill:#F08C00;}
	.st19{fill:#00AFAA;}
	.st20{fill:#0069A7;}
	.st21{fill:none;stroke:#FFFFFF;stroke-width:0.9458;stroke-miterlimit:10;}
	.st22{fill:#C01334;}
	.st23{fill:#0D131A;}
	.st24{fill:#004F81;}
	.st25{filter:url(#Adobe_OpacityMaskFilter_2_);}
	.st26{mask:url(#mask0_outline_1_);}
	.st27{fill-rule:evenodd;clip-rule:evenodd;fill:#026097;}
	.st28{fill-rule:evenodd;clip-rule:evenodd;fill:#0D131A;}
	.st29{filter:url(#Adobe_OpacityMaskFilter_3_);}
	.st30{mask:url(#mask1_outline_1_);}
	.st31{fill:#E05519;}
	.st32{fill:#DA007F;}
	.st33{fill:#252F3E;}
	.st34{fill:#FF9000;}
	.st35{fill:#1C9951;}
</style>
<g>
	<circle class="st0" cx="75" cy="75" r="75"/>
	<g>
		<path class="st16" d="M110.3,44.9c-0.1-2.7-2.3-4.8-5-5c-5.4-0.3-16,0-26.2,5.2c-5.2,2.7-10.6,7.2-15,12.5
			c-0.1,0.1-0.1,0.1-0.2,0.2l-9.9,0.8c-1.6,0.1-3.1,1-4,2.3l-6.8,10.2c-0.7,1-0.8,2.3-0.3,3.5c0.5,1.1,1.5,1.9,2.8,2.1l8.4,1.3
			c0,0.2-0.1,0.3-0.1,0.5c-0.3,1.7,0.3,3.4,1.5,4.6l11.6,11.6c1,1,2.3,1.5,3.7,1.5c0.3,0,0.6,0,0.9-0.1c0.2,0,0.3-0.1,0.5-0.1
			l1.3,8.4c0.2,1.2,1,2.3,2.1,2.8c0.5,0.2,1,0.3,1.5,0.3c0.7,0,1.4-0.2,2-0.6l10.2-6.8c1.4-0.9,2.2-2.4,2.3-4l0.8-9.9
			c0.1-0.1,0.1-0.1,0.2-0.2c5.2-4.4,9.8-9.8,12.5-15C110.3,60.9,110.6,50.3,110.3,44.9L110.3,44.9z M87.1,96.8l-9.8,6.5l-1.3-8.1
			c4.1-1.2,8.2-3.2,12.1-5.8l-0.5,6.5C87.7,96.3,87.5,96.6,87.1,96.8L87.1,96.8z M70,91.9L58.3,80.3C58,80,57.9,79.5,58,79.1
			c0.3-2.1,0.9-4,1.5-5.9L77,90.7c-2.2,0.8-4.2,1.3-5.9,1.6C70.7,92.3,70.3,92.2,70,91.9L70,91.9z M54.4,62.5l6.5-0.5
			c-2.6,3.9-4.6,8-5.8,12.1l-8.1-1.3l6.5-9.8C53.6,62.7,54,62.5,54.4,62.5z M90.1,83c-3.2,2.7-6.3,4.6-9.2,6L61.2,69.3
			c1.8-3.7,4.1-6.9,6-9.2c4-4.8,9.1-9,13.8-11.5c9.3-4.8,19.1-5.1,24.2-4.8c0.7,0,1.2,0.6,1.2,1.2c0.3,5,0,14.8-4.8,24.2
			C99.1,74,94.9,79,90.1,83L90.1,83z"/>
		<path class="st16" d="M89.1,71c2.5,0,5.1-1,7-2.9c1.9-1.9,2.9-4.4,2.9-7s-1-5.1-2.9-7c-3.9-3.9-10.2-3.9-14,0
			c-1.9,1.9-2.9,4.4-2.9,7s1,5.1,2.9,7C84,70.1,86.6,71,89.1,71L89.1,71z M84.9,56.9c1.2-1.2,2.7-1.7,4.2-1.7c1.5,0,3,0.6,4.2,1.7
			c1.1,1.1,1.7,2.6,1.7,4.2s-0.6,3.1-1.7,4.2c-2.3,2.3-6.1,2.3-8.4,0c-1.1-1.1-1.7-2.6-1.7-4.2S83.8,58.1,84.9,56.9z"/>
		<path class="st16" d="M44.7,95.6c0.5,0,1-0.2,1.4-0.6l6.5-6.5c0.8-0.8,0.8-2,0-2.8c-0.8-0.8-2-0.8-2.8,0l-6.5,6.5
			c-0.8,0.8-0.8,2,0,2.8C43.7,95.4,44.2,95.6,44.7,95.6z"/>
		<path class="st16" d="M58.6,91.7c-0.8-0.8-2-0.8-2.8,0l-12.4,12.4c-0.8,0.8-0.8,2,0,2.8c0.4,0.4,0.9,0.6,1.4,0.6
			c0.5,0,1-0.2,1.4-0.6l12.4-12.4C59.3,93.7,59.3,92.4,58.6,91.7L58.6,91.7z"/>
		<path class="st16" d="M61.7,97.6l-6.5,6.5c-0.8,0.8-0.8,2,0,2.8c0.4,0.4,0.9,0.6,1.4,0.6s1-0.2,1.4-0.6l6.5-6.5
			c0.8-0.8,0.8-2,0-2.8C63.7,96.8,62.5,96.8,61.7,97.6z"/>
	</g>
</g>
</svg>
