<?xml version="1.0" encoding="utf-8"?>
<!-- Generator: Adobe Illustrator 25.2.1, SVG Export Plug-In . SVG Version: 6.00 Build 0)  -->
<svg version="1.1" id="圖層_1" xmlns="http://www.w3.org/2000/svg" xmlns:xlink="http://www.w3.org/1999/xlink" x="0px" y="0px"
	 width="55px" height="33px" viewBox="0 0 55 33" style="enable-background:new 0 0 55 33;" xml:space="preserve">
<style type="text/css">
	.st0{fill:#FFFFFF;}
	.st1{fill:url(#SVGID_1_);}
	.st2{fill:url(#SVGID_2_);}
	.st3{fill:url(#SVGID_3_);}
	.st4{fill:#0396DF;}
	.st5{fill:#ECA200;}
	.st6{fill:url(#SVGID_4_);}
	.st7{fill:#231815;}
	.st8{filter:url(#Adobe_OpacityMaskFilter);}
	.st9{fill-rule:evenodd;clip-rule:evenodd;fill:#FFFFFF;}
	.st10{mask:url(#mask0_outline_2_);}
	.st11{fill-rule:evenodd;clip-rule:evenodd;fill:#0065A3;}
	.st12{fill-rule:evenodd;clip-rule:evenodd;fill:#231916;}
	.st13{filter:url(#Adobe_OpacityMaskFilter_1_);}
	.st14{mask:url(#mask1_outline_2_);}
	.st15{fill:#024F8D;}
	.st16{fill:#0280FF;}
	.st17{fill-rule:evenodd;clip-rule:evenodd;fill:#0280FF;}
	.st18{fill:#F08C00;}
	.st19{fill:#00AFAA;}
	.st20{fill:#0069A7;}
	.st21{fill:none;stroke:#FFFFFF;stroke-width:0.9458;stroke-miterlimit:10;}
	.st22{fill:#C01334;}
	.st23{fill:#0D131A;}
	.st24{fill:#004F81;}
	.st25{filter:url(#Adobe_OpacityMaskFilter_2_);}
	.st26{mask:url(#mask0_outline_1_);}
	.st27{fill-rule:evenodd;clip-rule:evenodd;fill:#026097;}
	.st28{fill-rule:evenodd;clip-rule:evenodd;fill:#0D131A;}
	.st29{filter:url(#Adobe_OpacityMaskFilter_3_);}
	.st30{mask:url(#mask1_outline_1_);}
	.st31{fill:#E05519;}
	.st32{fill:#DA007F;}
	.st33{fill:#252F3E;}
	.st34{fill:#FF9000;}
	.st35{fill:#1C9951;}
</style>
<g>
	<path class="st33" d="M15.5,12c0,0.7,0.1,1.2,0.2,1.6c0.1,0.4,0.3,0.8,0.6,1.3c0.1,0.1,0.1,0.3,0.1,0.4c0,0.2-0.1,0.4-0.3,0.6
		l-1.2,0.8c-0.2,0.1-0.3,0.2-0.5,0.2c-0.2,0-0.4-0.1-0.5-0.3c-0.3-0.3-0.5-0.6-0.7-0.9c-0.2-0.3-0.4-0.7-0.6-1.1
		c-1.4,1.7-3.2,2.5-5.4,2.5c-1.5,0-2.8-0.4-3.7-1.3c-0.9-0.9-1.4-2.1-1.4-3.5c0-1.6,0.5-2.8,1.7-3.8s2.6-1.4,4.5-1.4
		c0.6,0,1.3,0.1,1.9,0.1c0.7,0.1,1.4,0.2,2.1,0.4V6.3c0-1.4-0.3-2.4-0.9-2.9C11,2.8,10,2.6,8.6,2.6c-0.6,0-1.3,0.1-2,0.2
		s-1.3,0.4-2,0.6C4.4,3.5,4.2,3.6,4,3.7c-0.1,0-0.2,0.1-0.3,0.1c-0.3,0-0.4-0.2-0.4-0.6V2.2c0-0.3,0-0.5,0.1-0.6S3.7,1.3,4,1.2
		c0.6-0.3,1.4-0.6,2.3-0.8C7.2,0.1,8.1,0,9.2,0c2.2,0,3.8,0.5,4.8,1.5c1,1,1.5,2.5,1.5,4.5L15.5,12L15.5,12z M8.1,14.8
		c0.6,0,1.2-0.1,1.9-0.3s1.2-0.6,1.7-1.2c0.3-0.3,0.5-0.7,0.6-1.2c0.1-0.4,0.2-1,0.2-1.6V9.7c-0.5-0.1-1.1-0.2-1.7-0.3
		S9.7,9.3,9.1,9.3C7.9,9.3,7,9.5,6.4,10c-0.6,0.5-0.9,1.2-0.9,2.1c0,0.9,0.2,1.5,0.7,1.9C6.6,14.6,7.2,14.8,8.1,14.8z M22.8,16.8
		c-0.3,0-0.5-0.1-0.7-0.2c-0.1-0.1-0.3-0.4-0.4-0.7L17.4,1.7c-0.1-0.4-0.2-0.6-0.2-0.7c0-0.3,0.1-0.5,0.4-0.5h1.8
		c0.3,0,0.6,0.1,0.7,0.2c0.1,0.1,0.3,0.4,0.4,0.7l3.1,12.2l2.9-12.2c0.1-0.4,0.2-0.6,0.3-0.7s0.4-0.2,0.7-0.2H29
		c0.3,0,0.6,0.1,0.7,0.2C29.9,0.8,30,1,30.1,1.4L33,13.7l3.2-12.3c0.1-0.4,0.2-0.6,0.4-0.7c0.1-0.1,0.4-0.2,0.7-0.2h1.7
		c0.3,0,0.5,0.1,0.5,0.5c0,0.1,0,0.2,0,0.3c0,0.1-0.1,0.3-0.1,0.5l-4.4,14.2c-0.1,0.4-0.2,0.6-0.4,0.7s-0.4,0.2-0.7,0.2h-1.6
		c-0.3,0-0.6-0.1-0.7-0.2c-0.1-0.1-0.3-0.4-0.3-0.7L28.2,4l-2.8,11.8c-0.1,0.4-0.2,0.6-0.3,0.7c-0.1,0.1-0.4,0.2-0.7,0.2H22.8z
		 M46.3,17.3c-1,0-1.9-0.1-2.8-0.3c-0.9-0.2-1.6-0.5-2.1-0.7c-0.3-0.2-0.5-0.3-0.6-0.5c-0.1-0.2-0.1-0.3-0.1-0.5v-0.9
		c0-0.4,0.1-0.6,0.4-0.6c0.1,0,0.2,0,0.3,0.1c0.1,0,0.3,0.1,0.5,0.2c0.6,0.3,1.3,0.5,2,0.6c0.7,0.1,1.4,0.2,2.2,0.2
		c1.2,0,2-0.2,2.7-0.6c0.6-0.4,1-1,1-1.7c0-0.5-0.2-0.9-0.5-1.3c-0.3-0.3-1-0.7-1.8-1l-2.7-0.8c-1.3-0.4-2.3-1-2.9-1.9
		c-0.6-0.8-0.9-1.7-0.9-2.7c0-0.8,0.2-1.4,0.5-2c0.3-0.6,0.8-1.1,1.3-1.5c0.5-0.4,1.2-0.7,1.9-1S46.1,0,46.9,0c0.4,0,0.8,0,1.2,0.1
		c0.4,0.1,0.8,0.1,1.2,0.2c0.4,0.1,0.7,0.2,1,0.3c0.3,0.1,0.6,0.2,0.8,0.3c0.3,0.1,0.4,0.3,0.5,0.5c0.1,0.1,0.2,0.3,0.2,0.6v0.9
		c0,0.4-0.1,0.6-0.4,0.6c-0.1,0-0.4-0.1-0.7-0.2c-1-0.5-2.2-0.7-3.5-0.7c-1,0-1.9,0.2-2.4,0.5c-0.6,0.3-0.9,0.9-0.9,1.6
		c0,0.5,0.2,1,0.5,1.3c0.4,0.3,1,0.7,2,1L49,7.8c1.3,0.4,2.3,1,2.8,1.8c0.6,0.8,0.8,1.6,0.8,2.6c0,0.8-0.2,1.5-0.5,2.1
		c-0.3,0.6-0.8,1.2-1.3,1.6c-0.6,0.5-1.2,0.8-2,1C48.1,17.1,47.2,17.3,46.3,17.3z"/>
	<path class="st34" d="M49.7,26.2C43.7,30.6,35,33,27.4,33c-10.5,0-20-3.9-27.2-10.4c-0.6-0.5-0.1-1.2,0.6-0.8
		C8.6,26.3,18.2,29,28.1,29c6.7,0,14-1.4,20.8-4.3C49.9,24.3,50.7,25.4,49.7,26.2z M52.2,23.3c-0.8-1-5.1-0.5-7-0.2
		c-0.6,0.1-0.7-0.4-0.1-0.8c3.4-2.4,9.1-1.7,9.7-0.9c0.7,0.8-0.2,6.5-3.4,9.2c-0.5,0.4-1,0.2-0.7-0.3C51.4,28.4,53,24.3,52.2,23.3z"
		/>
</g>
</svg>
