<?xml version="1.0" encoding="utf-8"?>
<!-- Generator: Adobe Illustrator 25.2.1, SVG Export Plug-In . SVG Version: 6.00 Build 0)  -->
<svg version="1.1" id="圖層_1" xmlns="http://www.w3.org/2000/svg" xmlns:xlink="http://www.w3.org/1999/xlink" x="0px" y="0px"
	 width="150px" height="150px" viewBox="0 0 150 150" style="enable-background:new 0 0 150 150;" xml:space="preserve">
<style type="text/css">
	.st0{fill:#FFFFFF;}
	.st1{fill:url(#SVGID_1_);}
	.st2{fill:url(#SVGID_2_);}
	.st3{fill:url(#SVGID_3_);}
	.st4{fill:#0396DF;}
	.st5{fill:#ECA200;}
	.st6{fill:url(#SVGID_4_);}
	.st7{fill:#231815;}
	.st8{filter:url(#Adobe_OpacityMaskFilter);}
	.st9{fill-rule:evenodd;clip-rule:evenodd;fill:#FFFFFF;}
	.st10{mask:url(#mask0_outline_2_);}
	.st11{fill-rule:evenodd;clip-rule:evenodd;fill:#0065A3;}
	.st12{fill-rule:evenodd;clip-rule:evenodd;fill:#231916;}
	.st13{filter:url(#Adobe_OpacityMaskFilter_1_);}
	.st14{mask:url(#mask1_outline_2_);}
	.st15{fill:#024F8D;}
	.st16{fill:#0280FF;}
	.st17{fill-rule:evenodd;clip-rule:evenodd;fill:#0280FF;}
	.st18{fill:#F08C00;}
	.st19{fill:#00AFAA;}
	.st20{fill:#0069A7;}
	.st21{fill:none;stroke:#FFFFFF;stroke-width:0.9458;stroke-miterlimit:10;}
	.st22{fill:#C01334;}
	.st23{fill:#0D131A;}
	.st24{fill:#004F81;}
	.st25{filter:url(#Adobe_OpacityMaskFilter_2_);}
	.st26{mask:url(#mask0_outline_1_);}
	.st27{fill-rule:evenodd;clip-rule:evenodd;fill:#026097;}
	.st28{fill-rule:evenodd;clip-rule:evenodd;fill:#0D131A;}
	.st29{filter:url(#Adobe_OpacityMaskFilter_3_);}
	.st30{mask:url(#mask1_outline_1_);}
	.st31{fill:#E05519;}
	.st32{fill:#DA007F;}
	.st33{fill:#252F3E;}
	.st34{fill:#FF9000;}
	.st35{fill:#1C9951;}
</style>
<g>
	<circle class="st0" cx="75" cy="75" r="75"/>
	<g>
		<path class="st17" d="M101,86.7c0.1-0.1,0.1-0.2,0.1-0.3c1.7-3.7,2.7-7.8,2.7-12.2c0-4.3-1-8.5-2.7-12.2c0-0.1-0.1-0.2-0.1-0.3
			c-4.7-9.7-14.5-16.3-26-16.3s-21.3,6.7-26,16.3c-0.1,0.1-0.1,0.2-0.1,0.3c-1.7,3.7-2.7,7.8-2.7,12.2c0,4.3,1,8.5,2.7,12.2
			c0,0.1,0.1,0.2,0.1,0.3c4.7,9.7,14.5,16.3,26,16.3S96.3,96.4,101,86.7z M49.6,74.3c0-3.5,0.7-6.9,2-9.9h8.6
			c-0.9,3.3-1.4,6.6-1.4,9.9c0,3.3,0.5,6.7,1.4,9.9h-8.6C50.3,81.1,49.6,77.8,49.6,74.3z M62.2,74.3c0-3.2,0.5-6.6,1.5-9.9h9.6v19.8
			h-9.6C62.7,80.9,62.2,77.5,62.2,74.3z M100.4,74.3c0,3.5-0.7,6.9-2,9.9h-8.6c0.9-3.3,1.4-6.6,1.4-9.9c0-3.3-0.5-6.7-1.4-9.9h8.6
			C99.7,67.4,100.4,70.8,100.4,74.3z M87.8,74.3c0,3.2-0.5,6.6-1.5,9.9h-9.6V64.4h9.6C87.3,67.7,87.8,71.1,87.8,74.3z M76.7,98.6
			v-11h8.4C83.2,92.2,80.3,96.3,76.7,98.6z M76.7,61V50c3.6,2.3,6.5,6.4,8.4,11H76.7z M73.3,50v11h-8.4C66.8,56.4,69.7,52.3,73.3,50
			z M73.3,87.6v11c-3.6-2.3-6.5-6.4-8.4-11H73.3z M81.8,98.8c2-2,3.8-4.5,5.3-7.4c0.6-1.2,1.2-2.5,1.7-3.8h7.9
			C93.3,93,88,97,81.8,98.8z M96.6,61h-7.9c-0.5-1.3-1.1-2.6-1.7-3.8c-1.5-2.9-3.3-5.4-5.3-7.4C88,51.5,93.3,55.6,96.6,61z
			 M68.2,49.8c-2,2-3.8,4.5-5.3,7.4c-0.6,1.2-1.2,2.5-1.7,3.8h-7.9C56.7,55.6,62,51.5,68.2,49.8z M53.4,87.6h7.9
			c0.5,1.3,1.1,2.6,1.7,3.8c1.5,2.9,3.3,5.4,5.3,7.4C62,97,56.7,93,53.4,87.6z"/>
		<path class="st17" d="M37.1,76C37.1,76,37.1,76,37.1,76C37.1,76,37.2,76,37.1,76c0.5,0,0.9-0.2,1.2-0.4c0,0,0,0,0,0c0,0,0,0,0,0
			c0,0,0,0,0,0h0c0,0,0.1-0.1,0.1-0.1c0,0,0,0,0,0c0,0,0,0,0,0c0,0,0,0,0,0l4.6-5c0.6-0.7,0.6-1.8-0.1-2.4c-0.7-0.6-1.8-0.6-2.4,0.1
			l-1.4,1.5c2-15.1,13.4-27.6,28.6-30.8c0.9-0.2,1.5-1.1,1.3-2c-0.2-0.9-1.1-1.5-2-1.3c-8.8,1.8-16.8,6.6-22.6,13.6
			c-4.7,5.7-7.7,12.7-8.7,20l-0.9-1.5c-0.5-0.8-1.6-1-2.3-0.5c-0.8,0.5-1,1.6-0.5,2.3l3.7,5.7c0.1,0.1,0.1,0.2,0.2,0.2c0,0,0,0,0,0
			c0,0,0,0,0,0c0,0,0.1,0.1,0.1,0.1c0,0,0,0,0,0C36.3,75.8,36.7,76,37.1,76L37.1,76z"/>
		<path class="st17" d="M39.5,81.6c-0.2-0.9-1.1-1.5-2-1.3c-0.9,0.2-1.5,1.1-1.3,2c1.3,6.5,4.3,12.7,8.7,17.8
			c0.3,0.4,0.8,0.6,1.3,0.6c0.4,0,0.8-0.1,1.1-0.4c0.7-0.6,0.8-1.7,0.2-2.4C43.5,93.2,40.8,87.6,39.5,81.6z"/>
		<path class="st17" d="M73.3,36.5L73.3,36.5c0,0.4,0.2,0.8,0.4,1.1c0,0,0.1,0.1,0.1,0.1l0,0c0,0,0,0,0,0c0,0,0,0,0,0l5,4.6
			c0.7,0.6,1.8,0.6,2.4-0.1c0.6-0.7,0.6-1.8-0.1-2.4l-1.5-1.4c4.5,0.6,8.9,2,12.8,4.2c0.3,0.1,0.5,0.2,0.8,0.2
			c0.6,0,1.2-0.3,1.5-0.9c0.5-0.8,0.2-1.8-0.7-2.3c-4.3-2.4-9.1-3.9-14-4.6l1.5-0.9c0.8-0.5,1-1.6,0.5-2.3c-0.5-0.8-1.6-1-2.3-0.5
			L74.1,35c-0.1,0.1-0.2,0.1-0.2,0.2c0,0,0,0,0,0c0,0,0,0,0,0c0,0-0.1,0.1-0.1,0.1c0,0,0,0,0,0c0,0,0,0,0,0
			C73.5,35.6,73.3,35.9,73.3,36.5C73.3,36.4,73.3,36.4,73.3,36.5L73.3,36.5z"/>
		<path class="st17" d="M110.5,67c0.2,0.8,0.9,1.4,1.7,1.4c0.1,0,0.2,0,0.3,0c0.9-0.2,1.5-1.1,1.3-2c-1.3-6.5-4.3-12.7-8.7-17.8
			c-0.6-0.7-1.7-0.8-2.4-0.2c-0.7,0.6-0.8,1.7-0.2,2.4C106.5,55.4,109.2,61,110.5,67z"/>
		<path class="st17" d="M118,79.1l-3.7-5.7c0,0,0-0.1-0.1-0.1c0,0,0,0,0,0c-0.1-0.1-0.2-0.3-0.4-0.4c-0.3-0.2-0.6-0.3-1-0.3
			c0,0,0,0,0,0c0,0-0.1,0-0.1,0c0,0,0,0,0,0c-0.5,0-0.9,0.2-1.2,0.6l-4.6,5c-0.6,0.7-0.6,1.8,0.1,2.4c0.7,0.6,1.8,0.6,2.4-0.1
			l1.4-1.5c-2,15.1-13.4,27.6-28.6,30.8c-0.9,0.2-1.5,1.1-1.3,2c0.2,0.8,0.9,1.4,1.7,1.4c0.1,0,0.2,0,0.3,0
			c8.8-1.8,16.8-6.6,22.6-13.6c4.7-5.7,7.7-12.7,8.7-20l0.9,1.5c0.5,0.8,1.6,1,2.3,0.5C118.3,80.9,118.5,79.9,118,79.1z"/>
		<path class="st17" d="M76.7,112.1c0-0.4-0.1-0.7-0.3-0.9c-0.1-0.1-0.1-0.2-0.2-0.2l-5-4.6c-0.7-0.6-1.8-0.6-2.4,0.1
			c-0.6,0.7-0.6,1.8,0.1,2.4l1.5,1.4c-4.5-0.6-8.9-2-12.8-4.2c-0.8-0.5-1.8-0.2-2.3,0.7c-0.5,0.8-0.2,1.8,0.7,2.3
			c4.3,2.4,9.1,3.9,14,4.6l-1.5,0.9c-0.8,0.5-1,1.6-0.5,2.3c0.3,0.5,0.9,0.8,1.4,0.8c0.3,0,0.6-0.1,0.9-0.3l5.7-3.7
			C76.4,113.3,76.7,112.8,76.7,112.1L76.7,112.1C76.7,112.2,76.7,112.2,76.7,112.1C76.7,112.2,76.7,112.1,76.7,112.1
			C76.7,112.1,76.7,112.1,76.7,112.1z"/>
		<path class="st17" d="M51.1,102c-0.9,0-1.7,0.8-1.7,1.7s0.8,1.7,1.7,1.7c0.9,0,1.7-0.8,1.7-1.7S52,102,51.1,102z"/>
		<path class="st17" d="M98.9,46.6c0.9,0,1.7-0.8,1.7-1.7c0-0.9-0.8-1.7-1.7-1.7s-1.7,0.8-1.7,1.7C97.2,45.9,98,46.6,98.9,46.6z"/>
	</g>
</g>
</svg>
