<?xml version="1.0" encoding="utf-8"?>
<!-- Generator: Adobe Illustrator 25.2.1, SVG Export Plug-In . SVG Version: 6.00 Build 0)  -->
<svg version="1.1" id="圖層_1" xmlns="http://www.w3.org/2000/svg" xmlns:xlink="http://www.w3.org/1999/xlink" x="0px" y="0px"
	 width="150px" height="150px" viewBox="0 0 150 150" style="enable-background:new 0 0 150 150;" xml:space="preserve">
<style type="text/css">
	.st0{fill:#FFFFFF;}
	.st1{fill:url(#SVGID_1_);}
	.st2{fill:url(#SVGID_2_);}
	.st3{fill:url(#SVGID_3_);}
	.st4{fill:#0396DF;}
	.st5{fill:#ECA200;}
	.st6{fill:url(#SVGID_4_);}
	.st7{fill:#231815;}
	.st8{filter:url(#Adobe_OpacityMaskFilter);}
	.st9{fill-rule:evenodd;clip-rule:evenodd;fill:#FFFFFF;}
	.st10{mask:url(#mask0_outline_2_);}
	.st11{fill-rule:evenodd;clip-rule:evenodd;fill:#0065A3;}
	.st12{fill-rule:evenodd;clip-rule:evenodd;fill:#231916;}
	.st13{filter:url(#Adobe_OpacityMaskFilter_1_);}
	.st14{mask:url(#mask1_outline_2_);}
	.st15{fill:#024F8D;}
	.st16{fill:#0280FF;}
	.st17{fill-rule:evenodd;clip-rule:evenodd;fill:#0280FF;}
	.st18{fill:#F08C00;}
	.st19{fill:#00AFAA;}
	.st20{fill:#0069A7;}
	.st21{fill:none;stroke:#FFFFFF;stroke-width:0.9458;stroke-miterlimit:10;}
	.st22{fill:#C01334;}
	.st23{fill:#0D131A;}
	.st24{fill:#004F81;}
	.st25{filter:url(#Adobe_OpacityMaskFilter_2_);}
	.st26{mask:url(#mask0_outline_1_);}
	.st27{fill-rule:evenodd;clip-rule:evenodd;fill:#026097;}
	.st28{fill-rule:evenodd;clip-rule:evenodd;fill:#0D131A;}
	.st29{filter:url(#Adobe_OpacityMaskFilter_3_);}
	.st30{mask:url(#mask1_outline_1_);}
	.st31{fill:#E05519;}
	.st32{fill:#DA007F;}
	.st33{fill:#252F3E;}
	.st34{fill:#FF9000;}
	.st35{fill:#1C9951;}
</style>
<g>
	<circle class="st0" cx="75" cy="75" r="75"/>
	<path class="st15" d="M106.2,71.9H105v-0.1c0-4.8-2.7-8.7-6.3-10.7c1.9-1.7,3.2-4.2,3.2-6.9c0-5.1-4.1-9.2-9.2-9.2
		c-5.1,0-9.2,4.1-9.2,9.2c0,2.8,1.2,5.2,3.2,6.9c-3.6,2-6.3,5.9-6.3,10.7v0.1H63.2c-1.8-1.3-4-2.1-6.3-2.1
		c-5.9,0-10.8,4.8-10.8,10.8c0,3.5,1.7,6.6,4.3,8.6c-5,2.6-8.4,7.8-8.4,13.8v2.1c0,1.1,0.9,1.9,1.9,1.9h27c1.1,0,1.9-0.9,1.9-1.9
		v-2.1c0-1.5-0.2-2.9-0.6-4.3h32.1v2.2c0,1.1,0.9,1.9,1.9,1.9c1.1,0,1.9-0.9,1.9-1.9v-27C108.1,72.8,107.2,71.9,106.2,71.9z
		 M87.3,54.1c0-2.9,2.4-5.3,5.3-5.3c2.9,0,5.3,2.4,5.3,5.3c0,2.9-2.4,5.3-5.3,5.3C89.7,59.4,87.3,57,87.3,54.1z M84.2,71.8
		c0-4.7,3.9-8.5,8.5-8.5c4.6,0,8.5,3.7,8.5,8.5v0.1H84.2V71.8z M56.8,73.7c3.8,0,6.9,3.1,6.9,6.9c0,3.8-3.1,6.9-6.9,6.9
		c-3.8,0-6.9-3.1-6.9-6.9C49.9,76.8,53,73.7,56.8,73.7z M68.9,103.1H45.8v-0.1c0-6.4,5.2-11.6,11.6-11.6s11.6,5.2,11.6,11.6V103.1z
		 M63.7,88.9c2.4-2,3.9-4.9,3.9-8.3c0-1.7-0.4-3.4-1.1-4.8h37.8v19H70.4C68.8,92.2,66.5,90.1,63.7,88.9z"/>
	<path class="st15" d="M49,66.4h28.1c1.5,0,2.5-1.7,1.6-3l-3.8-5.7v-9.8c0-3.9-3.2-7.1-7.1-7.1H49c-4,0-7.1,3.2-7.1,7.1v11.4
		C41.9,63.2,45.1,66.4,49,66.4z M45.8,47.9c0-1.8,1.4-3.3,3.3-3.3h18.7c1.8,0,3.3,1.5,3.3,3.3v10.4c0,0.4,0.1,0.8,0.3,1.1l2.1,3.2
		H49c-1.8,0-3.3-1.5-3.3-3.3V47.9z"/>
	<path class="st15" d="M52.1,51.9h12.5c1.1,0,1.9-0.9,1.9-1.9c0-1.1-0.9-1.9-1.9-1.9H52.1c-1.1,0-1.9,0.9-1.9,1.9
		C50.2,51,51.1,51.9,52.1,51.9z"/>
	<path class="st15" d="M52.1,59.2h6.2c1.1,0,1.9-0.9,1.9-1.9c0-1.1-0.9-1.9-1.9-1.9h-6.2c-1.1,0-1.9,0.9-1.9,1.9
		C50.2,58.3,51.1,59.2,52.1,59.2z"/>
</g>
</svg>
