<?xml version="1.0" encoding="utf-8"?>
<!-- Generator: Adobe Illustrator 25.2.1, SVG Export Plug-In . SVG Version: 6.00 Build 0)  -->
<svg version="1.1" id="圖層_1" xmlns="http://www.w3.org/2000/svg" xmlns:xlink="http://www.w3.org/1999/xlink" x="0px" y="0px"
	 width="80px" height="80px" viewBox="0 0 80 80" style="enable-background:new 0 0 80 80;" xml:space="preserve">
<style type="text/css">
	.st0{fill:#FFFFFF;}
	.st1{fill:url(#SVGID_1_);}
	.st2{fill:url(#SVGID_2_);}
	.st3{fill:url(#SVGID_3_);}
	.st4{fill:#0396DF;}
	.st5{fill:#ECA200;}
	.st6{fill:url(#SVGID_4_);}
	.st7{fill:#231815;}
	.st8{filter:url(#Adobe_OpacityMaskFilter);}
	.st9{fill-rule:evenodd;clip-rule:evenodd;fill:#FFFFFF;}
	.st10{mask:url(#mask0_outline_2_);}
	.st11{fill-rule:evenodd;clip-rule:evenodd;fill:#0065A3;}
	.st12{fill-rule:evenodd;clip-rule:evenodd;fill:#231916;}
	.st13{filter:url(#Adobe_OpacityMaskFilter_1_);}
	.st14{mask:url(#mask1_outline_2_);}
	.st15{fill:#024F8D;}
	.st16{fill:#0280FF;}
	.st17{fill-rule:evenodd;clip-rule:evenodd;fill:#0280FF;}
	.st18{fill:#F08C00;}
	.st19{fill:#00AFAA;}
	.st20{fill:#0069A7;}
	.st21{fill:none;stroke:#FFFFFF;stroke-width:0.9458;stroke-miterlimit:10;}
	.st22{fill:#C01334;}
	.st23{fill:#0D131A;}
	.st24{fill:#004F81;}
	.st25{filter:url(#Adobe_OpacityMaskFilter_2_);}
	.st26{mask:url(#mask0_outline_1_);}
	.st27{fill-rule:evenodd;clip-rule:evenodd;fill:#026097;}
	.st28{fill-rule:evenodd;clip-rule:evenodd;fill:#0D131A;}
	.st29{filter:url(#Adobe_OpacityMaskFilter_3_);}
	.st30{mask:url(#mask1_outline_1_);}
	.st31{fill:#E05519;}
	.st32{fill:#DA007F;}
	.st33{fill:#252F3E;}
	.st34{fill:#FF9000;}
	.st35{fill:#1C9951;}
</style>
<g>
	<path class="st35" d="M62.9,80H17.1C7.7,80,0,72.3,0,62.9V17.1C0,7.7,7.7,0,17.1,0h45.9C72.3,0,80,7.7,80,17.1v45.9
		C80,72.3,72.3,80,62.9,80z"/>
	<g>
		<g>
			<path class="st0" d="M36.5,35.2H15.3v-2.2h6.2c-0.8-4.3-1.8-8.1-3-11.2l1.7-1.2h-4v-2.2H25c-0.4-1.1-0.9-2.3-1.6-3.4l2.3-0.8
				c0.7,1.3,1.3,2.7,1.8,4.2h8.3v2.2h-4.3l1.8,1.2c-0.5,3.3-1.4,7-2.9,11.2h6.1V35.2z M31.2,20.7H20.5c1.4,3.7,2.5,7.8,3.2,12.4h4.3
				C29.7,28.5,30.7,24.4,31.2,20.7z"/>
			<path class="st0" d="M51.8,34.1l-1.9,0.7c-0.3-1-0.6-1.8-0.9-2.5c-2.6,1.1-5,2-7.1,2.7l-0.7-1.9c0.4-0.2,0.6-0.5,0.6-0.9V15h9.1
				v11.3h-7v5.9c1.4-0.5,2.8-1,4.4-1.7c-0.4-0.9-0.8-1.7-1.2-2.5l1.9-0.8C50.2,29.6,51.1,31.9,51.8,34.1z M48.7,19.6V17h-4.8v2.6
				H48.7z M48.7,24.3v-2.8h-4.8v2.8H48.7z M61.5,30.9c0,1.1-0.3,1.9-0.8,2.2c-0.5,0.4-1.5,0.5-2.7,0.5c-0.5,0-1,0-1.6,0l-0.6-2.2
				c1,0,2,0.1,3,0.1c0.2,0,0.3-0.1,0.4-0.2c0.1-0.1,0.2-0.3,0.2-0.5V17.2h-4.2v18.7H53V15.1h8.5V30.9z"/>
			<path class="st0" d="M25.4,60.8h-3.8V65h-2v-4.3h-4.2v-1.9h4.2v-1.9H16V55h1.9c-0.2-1.1-0.5-2.1-0.8-3.1h-1.5v-2h4.1v-1.8h-3.4
				v-1.9h3.4v-2.3h2v2.3h3.2v1.9h-3.2v1.8h3.7v2h-1.1c-0.2,0.8-0.5,1.8-0.9,3.1h1.7v1.9h-3.3v1.9h3.8V60.8z M22.2,51.9h-3
				c0.2,0.8,0.4,1.9,0.7,3.1h1.3C21.6,54,21.9,53,22.2,51.9z M36.9,63.4l-1.3,1.7c-1.4-1.1-2.5-2-3.1-2.7c-0.8,1-1.6,1.9-2.5,2.7
				l-1.3-1.6c1.1-0.9,2-1.8,2.6-2.7c-1.2-1.9-2-4.3-2.4-7.1h-0.6V65h-2.1V44.2h9.7c0,1.2,0,2.4-0.1,3.4c-0.1,1-0.2,1.7-0.5,1.9
				c-0.2,0.3-0.4,0.5-0.7,0.7c-0.3,0.2-1,0.3-2.1,0.3c-0.4,0-0.7,0-1.2,0l-0.7-1.9c0.4,0,1.2,0,2.4,0c0.2,0,0.3-0.1,0.5-0.3
				c0.1-0.2,0.2-0.9,0.2-2.1h-5.4v5.4h7.6c-0.3,3.6-1,6.5-2.1,8.9C34.5,61.6,35.6,62.5,36.9,63.4z M33.5,53.7h-2.7
				c0.3,2,0.8,3.7,1.5,5C32.9,57.4,33.3,55.7,33.5,53.7z"/>
			<path class="st0" d="M60.6,65.1h-2.3v-1.3h-10v1.2h-2.2v-7.9c-1.6,0.6-3,1.1-4.1,1.3l-1.3-2c3.7-1,6.8-2.1,9.4-3.4
				c-0.9-1.1-2-2.3-3.4-3.5c-1.3,0.8-2.5,1.5-3.8,2.2l-1.5-1.7c3.7-1.7,6.7-3.9,9-6.5l2.3,0.6c-0.3,0.4-0.7,0.8-1.2,1.3h8.6v2.1
				c-2.4,3.1-5.4,5.6-9,7.4h9.5V65.1z M58.4,61.7v-4.5h-10v4.5H58.4z M57.2,47.7h-7.8c-0.3,0.3-0.5,0.5-0.8,0.6
				c1.4,1.2,2.5,2.5,3.5,3.7C54.1,50.8,55.8,49.3,57.2,47.7z"/>
		</g>
	</g>
</g>
</svg>
