<?xml version="1.0" encoding="utf-8"?>
<!-- Generator: Adobe Illustrator 25.2.1, SVG Export Plug-In . SVG Version: 6.00 Build 0)  -->
<svg version="1.1" id="圖層_1" xmlns="http://www.w3.org/2000/svg" xmlns:xlink="http://www.w3.org/1999/xlink" x="0px" y="0px"
	 width="94.9px" height="31px" viewBox="0 0 94.9 31" style="enable-background:new 0 0 94.9 31;" xml:space="preserve">
<style type="text/css">
	.st0{fill:#FFFFFF;}
	.st1{fill:url(#SVGID_1_);}
	.st2{fill:url(#SVGID_2_);}
	.st3{fill:url(#SVGID_3_);}
	.st4{fill:#0396DF;}
	.st5{fill:#ECA200;}
	.st6{fill:url(#SVGID_4_);}
	.st7{fill:#231815;}
	.st8{filter:url(#Adobe_OpacityMaskFilter);}
	.st9{fill-rule:evenodd;clip-rule:evenodd;fill:#FFFFFF;}
	.st10{mask:url(#mask0_outline_2_);}
	.st11{fill-rule:evenodd;clip-rule:evenodd;fill:#0065A3;}
	.st12{fill-rule:evenodd;clip-rule:evenodd;fill:#231916;}
	.st13{filter:url(#Adobe_OpacityMaskFilter_1_);}
	.st14{mask:url(#mask1_outline_2_);}
	.st15{fill:#024F8D;}
	.st16{fill:#0280FF;}
	.st17{fill-rule:evenodd;clip-rule:evenodd;fill:#0280FF;}
	.st18{fill:#F08C00;}
	.st19{fill:#00AFAA;}
	.st20{fill:#0069A7;}
	.st21{fill:none;stroke:#FFFFFF;stroke-width:0.9458;stroke-miterlimit:10;}
	.st22{fill:#C01334;}
	.st23{fill:#0D131A;}
	.st24{fill:#004F81;}
	.st25{filter:url(#Adobe_OpacityMaskFilter_2_);}
	.st26{mask:url(#mask0_outline_1_);}
	.st27{fill-rule:evenodd;clip-rule:evenodd;fill:#026097;}
	.st28{fill-rule:evenodd;clip-rule:evenodd;fill:#0D131A;}
	.st29{filter:url(#Adobe_OpacityMaskFilter_3_);}
	.st30{mask:url(#mask1_outline_1_);}
	.st31{fill:#E05519;}
	.st32{fill:#DA007F;}
	.st33{fill:#252F3E;}
	.st34{fill:#FF9000;}
	.st35{fill:#1C9951;}
</style>
<g id="Canvas_5_" transform="translate(1105 -7993)">
	<g id="logo_x2F_logo-text_5_">
		<g id="Group_3_5_">
			<defs>
				<filter id="Adobe_OpacityMaskFilter" filterUnits="userSpaceOnUse" x="-1105" y="7993" width="31" height="31">
					<feColorMatrix  type="matrix" values="1 0 0 0 0  0 1 0 0 0  0 0 1 0 0  0 0 0 1 0"/>
				</filter>
			</defs>
			<mask maskUnits="userSpaceOnUse" x="-1105" y="7993" width="31" height="31" id="mask0_outline_1_">
				<g id="Clip_2_1_" class="st8">
					<g transform="translate(-1105 7993)">
						<path id="path0_fill_1_" class="st9" d="M-1074,7993h-31v31h31V7993z"/>
					</g>
				</g>
			</mask>
			<g id="Fill_1_5_" class="st26">
				<g transform="translate(-1105 7993)">
					<path id="path1_fill_5_" class="st27" d="M-1100.5,8007.8h-4.5c0,0.2,0,0.5,0,0.7c0,0.2,0,0.5,0,0.7h4.8
						C-1100.3,8008.8-1100.4,8008.3-1100.5,8007.8L-1100.5,8007.8z M-1099.7,8001.9h-3.8c-0.2,0.5-0.4,1-0.6,1.5h3.9
						C-1100,8002.8-1099.9,8002.3-1099.7,8001.9L-1099.7,8001.9z M-1100.5,8006.3c0-0.5,0-1,0.1-1.5h-4.1c-0.1,0.5-0.2,1-0.3,1.5
						H-1100.5z M-1099.7,8010.7h-5.2c0.1,0.5,0.2,1,0.3,1.5h5.6C-1099.2,8011.7-1099.5,8011.2-1099.7,8010.7L-1099.7,8010.7z
						 M-1098,8013.7h-6.2c0.2,0.5,0.4,1,0.6,1.5h7C-1097.1,8014.7-1097.5,8014.2-1098,8013.7L-1098,8013.7z M-1074,8008.5
						c0-0.2,0-0.5,0-0.7h-5.3c-0.2-0.5-0.5-1-0.7-1.5h5.9c-0.1-0.5-0.2-1-0.3-1.5h-6.7c-0.4-0.5-0.9-1-1.4-1.5h7.6
						c-0.2-0.5-0.4-1-0.6-1.5h-17v7.4h6v7.4h-16.2c0.3,0.5,0.7,1,1,1.5h9.2v1.5h-7.8c0.5,0.5,1.1,1,1.7,1.5h6.1v1.5h-3.6
						c2,1,4.2,1.5,6.6,1.5s4.6-0.5,6.6-1.5h-1.7c0.7-0.4,1.4-0.9,2.1-1.5h2.1c0.6-0.4,1.2-0.9,1.7-1.5h-2.4c0.4-0.5,0.7-1,1-1.5h2.7
						c0.4-0.5,0.7-1,1-1.5h-3.1c0.2-0.5,0.4-1,0.5-1.5h3.4c0.2-0.5,0.4-1,0.6-1.5h-3.7c0.1-0.5,0.1-1,0.1-1.5v0h4.1
						c0.1-0.5,0.2-1,0.3-1.5h-4.4c-0.1-0.5-0.2-1-0.3-1.5h4.9C-1074,8009-1074,8008.7-1074,8008.5L-1074,8008.5z M-1086.5,7997.4
						h7.9c-0.5-0.5-1.1-1-1.7-1.5h-6.1V7997.4z M-1098,7998.9h-3.7c-0.4,0.5-0.7,1-1,1.5h3.7
						C-1098.7,7999.9-1098.3,7999.4-1098,7998.9L-1098,7998.9z M-1086.5,8000.4h10.2c-0.3-0.5-0.7-1-1-1.5h-9.2V8000.4z
						 M-1094.5,7996h-4.1c-0.6,0.4-1.2,0.9-1.7,1.5h3.8C-1095.9,7996.9-1095.2,7996.4-1094.5,7996L-1094.5,7996z M-1089.5,7993
						c-2.4,0-4.6,0.5-6.6,1.5h13.2C-1084.9,7993.5-1087.1,7993-1089.5,7993L-1089.5,7993z"/>
				</g>
			</g>
		</g>
		<g id="Group_5_">
			<g id="Fill_4_5_">
				<g transform="translate(-1043 8026.06)">
					<path id="path2_fill_5_" class="st28" d="M-1011.1,8018.5h-0.8v-2.1c0-0.3-0.1-0.6-0.5-0.6c-0.3,0-0.5,0.2-0.7,0.3v2.4h-0.8
						v-2.1c0-0.3-0.1-0.6-0.5-0.6c-0.3,0-0.5,0.2-0.7,0.3v2.4h-0.8v-3l0.7-0.2l0,0.3c0.2-0.1,0.5-0.4,1-0.4c0.4,0,0.7,0.2,0.8,0.4
						c0.2-0.2,0.5-0.4,1.1-0.4c0.6,0,1,0.4,1,1V8018.5z M-1019.1,8016.9c0,0.7,0.4,1.2,0.9,1.2c0.5,0,0.9-0.5,0.9-1.2
						c0-0.7-0.4-1.2-0.9-1.2C-1018.8,8015.7-1019.1,8016.2-1019.1,8016.9L-1019.1,8016.9z M-1016.5,8016.9c0,1-0.8,1.7-1.8,1.7
						c-1,0-1.7-0.7-1.7-1.7c0-1,0.8-1.7,1.7-1.7C-1017.2,8015.2-1016.5,8015.8-1016.5,8016.9L-1016.5,8016.9z M-1021.4,8015.2
						c0.6,0,0.9,0.1,1.1,0.2l-0.2,0.5c-0.2-0.1-0.4-0.2-0.8-0.2c-0.4,0-1,0.4-1,1.2c0,0.7,0.5,1.2,1,1.2c0.5,0,0.7-0.1,0.8-0.1
						l0.2,0.5c-0.2,0.1-0.5,0.2-1.1,0.2c-1,0-1.7-0.7-1.7-1.7C-1023.1,8015.9-1022.3,8015.2-1021.4,8015.2L-1021.4,8015.2z
						 M-1025.1,8015.7c-0.4,0-0.6,0.3-0.7,0.8h1.4C-1024.4,8016-1024.7,8015.7-1025.1,8015.7L-1025.1,8015.7z M-1024.7,8018
						c0.5,0,0.7-0.1,0.9-0.2l0.2,0.4c-0.2,0.1-0.5,0.3-1.3,0.3c-1,0-1.6-0.6-1.6-1.7c0-1,0.7-1.7,1.6-1.7c0.8,0,1.5,0.5,1.5,1.8
						h-2.2C-1025.8,8017.6-1025.4,8018-1024.7,8018L-1024.7,8018z M-1028.1,8013.8l0.8-0.2v4.9h-0.8V8013.8z M-1030.2,8015.7
						c-0.4,0-0.6,0.3-0.7,0.8h1.4C-1029.6,8016-1029.8,8015.7-1030.2,8015.7L-1030.2,8015.7z M-1029.9,8018c0.5,0,0.7-0.1,0.9-0.2
						l0.2,0.4c-0.2,0.1-0.5,0.3-1.3,0.3c-1,0-1.6-0.6-1.6-1.7c0-1,0.7-1.7,1.6-1.7c0.8,0,1.5,0.5,1.5,1.8h-2.2
						C-1030.9,8017.6-1030.6,8018-1029.9,8018L-1029.9,8018z M-1035,8013.6h4v0.6h-1.6v4.3h-0.8v-4.3h-1.6V8013.6z M-1057.2,8015.3
						v2.1c0,0.3,0.1,0.6,0.5,0.6c0.4,0,0.6-0.2,0.8-0.3v-2.4h0.8v3l-0.7,0.2l0-0.3c-0.1,0.1-0.5,0.4-1.1,0.4c-0.6,0-0.9-0.4-0.9-1
						v-2.3H-1057.2z M-1036.9,8017l-0.5,0c-0.4,0-0.8,0.2-0.8,0.5c0,0.3,0.3,0.4,0.5,0.4c0.3,0,0.5-0.2,0.7-0.3V8017z
						 M-1037.8,8018.6c-0.6,0-1-0.4-1-0.9c0-0.6,0.4-1,1.3-1.1l0.7,0v-0.3c0-0.3-0.1-0.6-0.6-0.6c-0.4,0-0.8,0.1-0.9,0.2l-0.2-0.4
						c0.2-0.1,0.7-0.3,1.3-0.3c0.7,0,1.1,0.4,1.1,1v1.9c0,0.2,0.1,0.4,0.1,0.5h-0.8c0-0.1-0.1-0.2-0.1-0.3
						C-1037,8018.3-1037.3,8018.6-1037.8,8018.6L-1037.8,8018.6z M-1041.8,8015.3h0.7l0.7,2.1l0.7-2.1h0.7l-1.3,3.3h-0.4l-0.6-1.7
						l-0.6,1.7h-0.4l-1.2-3.3h0.8l0.7,2.2l0.5-1.3L-1041.8,8015.3z M-1049.9,8016.2c0,0.3,0.2,0.6,0.6,0.6c0.4,0,0.6-0.2,0.6-0.6
						c0-0.3-0.2-0.6-0.6-0.6C-1049.6,8015.7-1049.9,8016-1049.9,8016.2L-1049.9,8016.2z M-1050.3,8019.3c0,0.4,0.6,0.5,1,0.5
						c0.5,0,1-0.3,1-0.7c0.1-0.4-0.2-0.5-0.5-0.5h-1.1C-1049.9,8018.7-1050.3,8018.9-1050.3,8019.3L-1050.3,8019.3z M-1049.5,8017.3
						c-0.2,0-0.6,0.1-0.6,0.3c0,0.3,0.3,0.3,0.6,0.3h0.9c0.7,0,1.2,0.4,1.1,1.1c-0.1,0.7-0.9,1.2-1.7,1.2c-0.8,0-1.8-0.2-1.8-0.9
						c0-0.5,0.4-0.8,0.6-0.9c-0.1-0.1-0.4-0.3-0.4-0.7c0-0.4,0.3-0.7,0.6-0.8c-0.2-0.1-0.4-0.3-0.4-0.7c0-0.5,0.4-1,1.2-1
						c0.3,0,0.5,0,0.6,0.1h1.2v0.4h-0.7c0.1,0.1,0.2,0.3,0.2,0.5c0,0.7-0.6,1-1.3,1H-1049.5z M-1052.2,8018.5v-2.1
						c0-0.3-0.1-0.6-0.5-0.6c-0.4,0-0.7,0.2-0.8,0.3v2.4h-0.8v-3l0.7-0.2l0,0.3c0.1-0.1,0.5-0.4,1.1-0.4c0.6,0,1,0.4,1,1v2.3
						H-1052.2z M-1044.7,8018.5v-2.1c0-0.3-0.1-0.6-0.5-0.6c-0.4,0-0.7,0.2-0.8,0.3v2.4h-0.8v-4.7l0.8-0.2v2
						c0.1-0.1,0.5-0.4,1.2-0.4c0.6,0,1,0.4,1,1v2.3H-1044.7z M-1059.6,8018.5v-2.1c0-0.3-0.1-0.6-0.5-0.6c-0.4,0-0.7,0.2-0.8,0.3
						v2.4h-0.8v-4.7l0.8-0.2v2c0.1-0.1,0.5-0.4,1.2-0.4c0.6,0,1,0.4,1,1v2.3H-1059.6z M-1062.3,8018.2c-0.3,0.2-0.8,0.4-1.7,0.4
						c-1.5,0-2.5-1.2-2.5-2.5c0-1.4,1-2.6,2.5-2.6c1,0,1.4,0.2,1.6,0.4l-0.2,0.6c-0.2-0.1-0.6-0.3-1.3-0.3c-0.9,0-1.7,0.8-1.7,1.9
						c0,1.1,0.8,1.9,1.7,1.9c0.8,0,1.1-0.2,1.3-0.3L-1062.3,8018.2z"/>
				</g>
			</g>
			<g id="Group_8_5_">
				<defs>
					<filter id="Adobe_OpacityMaskFilter_1_" filterUnits="userSpaceOnUse" x="-1022.6" y="7998.8" width="12.4" height="11.6">
						<feColorMatrix  type="matrix" values="1 0 0 0 0  0 1 0 0 0  0 0 1 0 0  0 0 0 1 0"/>
					</filter>
				</defs>
				<mask maskUnits="userSpaceOnUse" x="-1022.6" y="7998.8" width="12.4" height="11.6" id="mask1_outline_1_">
					<g id="Clip_7_1_" class="st13">
						<g transform="translate(-972.069 8002.41)">
							<path id="path3_fill_1_" class="st9" d="M-1010.1,8010.5v-11.6h-12.4v11.6H-1010.1L-1010.1,8010.5z"/>
						</g>
					</g>
				</mask>
				<g id="Fill_6_5_" class="st30">
					<g transform="translate(-972.069 8002.41)">
						<path id="path4_fill_5_" class="st28" d="M-1018.1,7999.2c-0.2,0-0.3,0.1-0.4,0.2c-0.1,0.1-0.1,0.2-0.1,0.4
							c0,0.2,0.1,0.3,0.1,0.4c0.1,0.1,0.2,0.2,0.4,0.2h6.6c0.2,0,0.3-0.1,0.4-0.2c0.1-0.1,0.1-0.2,0.1-0.4c0-0.2,0-0.3-0.1-0.4
							c-0.1-0.1-0.2-0.2-0.4-0.2H-1018.1z M-1018.9,8000.9c-0.2,0-0.3,0.1-0.4,0.2c-0.1,0.1-0.1,0.3-0.1,0.4c0,0.1,0.1,0.3,0.1,0.4
							c0.1,0.1,0.2,0.2,0.4,0.2h8.3c0.2,0,0.3-0.1,0.4-0.2c0.1-0.1,0.1-0.3,0.1-0.4c0-0.1-0.1-0.3-0.1-0.4c-0.1-0.1-0.2-0.2-0.4-0.2
							H-1018.9z M-1018.1,8002.6c-0.2,0-0.3,0-0.4,0.2c-0.1,0.1-0.1,0.3-0.1,0.4c0,0.1,0,0.3,0.1,0.4c0.1,0.1,0.2,0.2,0.4,0.2h6.6
							c0.2,0,0.3-0.1,0.4-0.2c0.1-0.1,0.1-0.2,0.1-0.4c0-0.1,0-0.3-0.1-0.4c-0.1-0.1-0.2-0.2-0.4-0.2H-1018.1z M-1018.1,8004.4
							c-0.2,0-0.3,0.1-0.4,0.2c-0.1,0.1-0.1,0.3-0.1,0.4c0,0.1,0,0.3,0.1,0.4c0.1,0.1,0.2,0.2,0.4,0.2h6.6c0.2,0,0.3-0.1,0.4-0.2
							c0.1-0.1,0.1-0.3,0.1-0.4c0-0.1,0-0.3-0.1-0.4c-0.1-0.1-0.2-0.1-0.4-0.1H-1018.1z M-1017.3,8007.3c-0.2,0-0.2,0-0.3,0.1
							c0,0-0.1,0.1-0.1,0.2v1.2c0,0.1,0,0.2,0.1,0.3c0.1,0.1,0.2,0.1,0.3,0.1h5c0.1,0,0.2,0,0.3-0.1c0.1,0,0.1-0.1,0.1-0.3v-1.2
							c0-0.1,0-0.2-0.1-0.3c-0.1-0.1-0.2-0.1-0.3-0.1H-1017.3z M-1018.1,8006.2h6.4c0.3,0,0.5,0.1,0.6,0.2c0.2,0.2,0.2,0.3,0.2,0.5
							v2.5c0,0.2-0.1,0.4-0.3,0.6c-0.2,0.2-0.4,0.3-0.6,0.3h-6.4c-0.2,0-0.4-0.1-0.5-0.3c-0.2-0.2-0.2-0.4-0.2-0.6v-2.5
							c0-0.2,0.1-0.4,0.2-0.5C-1018.5,8006.3-1018.3,8006.2-1018.1,8006.2L-1018.1,8006.2z M-1020,7998.8c0.2,0,0.3,0.1,0.4,0.2
							c0.1,0.1,0.1,0.3,0.1,0.5c-0.2,1-0.4,1.8-0.7,2.5v7.8c0,0.2-0.1,0.3-0.2,0.4c-0.1,0.1-0.2,0.2-0.4,0.2c-0.2,0-0.3-0.1-0.4-0.2
							c-0.1-0.1-0.2-0.3-0.2-0.5v-5.6c-0.3,0.4-0.5,0.5-0.6,0.5c-0.1,0-0.3,0-0.4-0.1c-0.1-0.1-0.2-0.3-0.2-0.4
							c0-0.1,0.1-0.3,0.2-0.5c0.9-1.4,1.5-2.8,1.8-4.4c0-0.2,0.1-0.3,0.2-0.4C-1020.3,7998.9-1020.1,7998.8-1020,7998.8
							L-1020,7998.8z"/>
					</g>
				</g>
			</g>
			<g id="Fill_9_5_">
				<g transform="translate(-1019.02 8002)">
					<path id="path5_fill_5_" class="st28" d="M-1043.3,8005v-0.2h-1.7v1.1h4.4c0.2,0,0.3,0,0.4,0.1c0.1,0.1,0.1,0.3,0.1,0.4
						c0,0.1,0,0.3-0.1,0.4c-0.1,0.1-0.2,0.2-0.4,0.2h-4.4v0.9h4.7c0.2,0,0.3,0.1,0.4,0.1c0.1,0.1,0.1,0.3,0.1,0.4
						c0,0.1-0.1,0.3-0.1,0.4c-0.1,0.1-0.2,0.1-0.4,0.1h-4.7v1.2c0,0.2,0,0.3-0.2,0.5c-0.1,0.1-0.2,0.2-0.4,0.2
						c-0.2,0-0.3-0.1-0.4-0.2c-0.1-0.1-0.2-0.3-0.2-0.5v-1.2h-4.7c-0.2,0-0.3,0-0.4-0.2c-0.1-0.1-0.1-0.3-0.1-0.4
						c0-0.1,0-0.3,0.1-0.4c0.1-0.1,0.2-0.2,0.4-0.2h4.7v-0.9h-4.4c-0.2,0-0.3-0.1-0.4-0.2c-0.1-0.1-0.1-0.3-0.1-0.4
						c0-0.1,0-0.3,0.1-0.4c0.1-0.1,0.2-0.2,0.4-0.2h1.5v-1.1h-2.2c-0.2,0-0.3-0.1-0.4-0.1c-0.1-0.1-0.1-0.3-0.1-0.4
						c0-0.1,0.1-0.3,0.1-0.4c0.1-0.1,0.2-0.2,0.4-0.2h2.2v-0.1c0-0.2,0-0.3,0.2-0.5c0.1-0.1,0.2-0.2,0.4-0.2c0.2,0,0.3,0.1,0.4,0.2
						c0.1,0.1,0.2,0.3,0.2,0.5l0,0.1h1.7v-1.1h-4.4c-0.2,0-0.3-0.1-0.4-0.2c-0.1-0.1-0.1-0.3-0.1-0.4c0-0.1,0.1-0.3,0.1-0.4
						c0.1-0.1,0.2-0.2,0.4-0.2h9.9c0.2,0,0.3,0,0.4,0.1c0.1,0.1,0.1,0.3,0.1,0.4c0,0.1-0.1,0.3-0.1,0.4c-0.1,0.1-0.2,0.2-0.4,0.2
						h-1.5v1.1h2.2c0.2,0,0.3,0,0.4,0.1c0.1,0.1,0.1,0.3,0.1,0.4c0,0.1,0,0.3-0.1,0.4c-0.1,0.1-0.2,0.2-0.4,0.2h-2.2l0,0.2
						c0,0.2-0.1,0.3-0.2,0.4c-0.1,0.1-0.2,0.2-0.4,0.2c-0.2,0-0.3-0.1-0.4-0.2C-1043.3,8005.3-1043.3,8005.1-1043.3,8005
						L-1043.3,8005z M-1045,8003.7h1.7v-1.1h-1.7V8003.7z M-1047.9,8005.9h1.7v-1.1h-1.7V8005.9z M-1039.9,8000
						c0,0.1-0.1,0.3-0.1,0.4c-0.1,0.1-0.2,0.2-0.4,0.2h-2.5v0c0,0.2,0,0.3-0.2,0.5c-0.1,0.1-0.2,0.2-0.4,0.2c-0.2,0-0.3-0.1-0.4-0.2
						c-0.1-0.1-0.2-0.3-0.2-0.5v0h-3.2v0c0,0.2,0,0.3-0.2,0.5c-0.1,0.1-0.2,0.2-0.4,0.2c-0.2,0-0.3-0.1-0.4-0.2
						c-0.1-0.1-0.2-0.3-0.2-0.5v0h-2.5c-0.2,0-0.3-0.1-0.4-0.2c-0.1-0.1-0.1-0.3-0.1-0.4c0-0.1,0.1-0.3,0.1-0.4
						c0.1-0.1,0.2-0.2,0.4-0.2h2.5v-0.3c0-0.2,0-0.3,0.2-0.5c0.1-0.1,0.2-0.2,0.4-0.2c0.2,0,0.3,0.1,0.4,0.2
						c0.1,0.1,0.2,0.3,0.2,0.5v0.3h3.2v-0.3c0-0.2,0-0.3,0.2-0.5c0.1-0.1,0.2-0.2,0.4-0.2c0.2,0,0.3,0.1,0.4,0.2
						c0.1,0.1,0.2,0.3,0.2,0.5v0.3h2.5c0.2,0,0.3,0.1,0.4,0.2C-1039.9,7999.7-1039.9,7999.9-1039.9,8000L-1039.9,8000z"/>
				</g>
			</g>
			<g id="Fill_11_5_">
				<g transform="translate(-1043 8002)">
					<path id="path6_fill_5_" class="st28" d="M-1056,8001.4c0.1,0,0.2,0,0.3,0.1c0.1,0.1,0.1,0.2,0.1,0.3v5.2
						c0,0.1-0.1,0.2-0.1,0.3c-0.1,0.1-0.1,0.1-0.3,0.1h-3.9v-6H-1056z M-1065.2,8007.3c-0.1-0.1-0.1-0.2-0.1-0.3v-5.2
						c0-0.1,0-0.2,0.1-0.3c0.1-0.1,0.2-0.1,0.3-0.1h3.8v6h-3.8C-1065.1,8007.4-1065.1,8007.3-1065.2,8007.3L-1065.2,8007.3z
						 M-1061,7998.8c-0.1,0.1-0.2,0.3-0.2,0.5v0.9h-4.3c-0.3,0-0.6,0.1-0.8,0.3c-0.2,0.2-0.3,0.5-0.3,0.8v6.2c0,0.3,0.1,0.6,0.3,0.8
						c0.2,0.2,0.5,0.3,0.8,0.3h4.3v1.5c0,0.2,0.1,0.4,0.2,0.5c0.1,0.1,0.2,0.2,0.5,0.2c0.2,0,0.4-0.1,0.4-0.2
						c0.1-0.1,0.2-0.3,0.2-0.5v-1.5h4.3c0.3,0,0.6-0.2,0.8-0.3c0.2-0.2,0.3-0.5,0.3-0.8v-6.2c0-0.3-0.1-0.6-0.3-0.8
						c-0.2-0.2-0.5-0.4-0.8-0.4h-4.3v-0.9c0-0.2-0.1-0.4-0.2-0.5c-0.1-0.1-0.3-0.2-0.5-0.2
						C-1060.6,7998.6-1060.8,7998.6-1061,7998.8L-1061,7998.8z"/>
				</g>
			</g>
			<g id="Fill_13_5_">
				<g transform="translate(-995.042 8003.09)">
					<path id="path7_fill_5_" class="st28" d="M-1026,8001.8c0.1,0,0.1,0,0.2,0.1c0,0,0.1,0.1,0.1,0.2v1.7c0,0.2,0.1,0.4,0.2,0.5
						c0.1,0.1,0.2,0.1,0.4,0.1c0.1,0,0.3-0.1,0.4-0.2c0.1-0.1,0.2-0.3,0.2-0.4v-2.1c0-0.2-0.1-0.5-0.3-0.7c-0.2-0.2-0.4-0.3-0.6-0.3
						h-4.6v-0.6h4c0.1,0,0.3-0.1,0.3-0.2c0.1-0.1,0.1-0.2,0.1-0.3c0-0.1-0.1-0.3-0.1-0.4c-0.1-0.1-0.2-0.1-0.3-0.1h-9
						c-0.1,0-0.3,0-0.3,0.1c-0.1,0.1-0.1,0.2-0.1,0.3c0,0.1,0.1,0.3,0.1,0.4c0.1,0.1,0.2,0.1,0.3,0.1h4v0.6h-4.6
						c-0.2,0-0.5,0.1-0.6,0.3c-0.2,0.2-0.3,0.4-0.3,0.7v2.1c0,0.2,0.1,0.4,0.2,0.4c0.1,0.1,0.3,0.2,0.4,0.2c0.1,0,0.3,0,0.4-0.1
						c0.1-0.1,0.2-0.3,0.2-0.5v-1.7c0-0.1,0-0.2,0.1-0.2c0,0,0.1-0.1,0.2-0.1h4.2v2.1c0,0.2,0.1,0.4,0.2,0.5
						c0.1,0.1,0.3,0.2,0.4,0.2c0.1,0,0.3-0.1,0.4-0.2c0.1-0.1,0.2-0.3,0.2-0.5v-2.1H-1026z M-1025.7,8009.8h-4c-0.1,0-0.3,0-0.4-0.1
						c-0.1-0.1-0.1-0.3-0.1-0.6h3.7c0.2,0,0.4-0.1,0.5-0.2c0.2-0.2,0.2-0.4,0.3-0.6v-2.7c0-0.2-0.1-0.4-0.2-0.5
						c-0.2-0.1-0.4-0.2-0.6-0.2h-8.8c-0.2,0-0.3,0.1-0.5,0.2c-0.1,0.1-0.2,0.3-0.2,0.5v2.7c0,0.2,0.1,0.4,0.2,0.6
						c0.1,0.1,0.3,0.2,0.5,0.2h3.9v0.4c0,0.5,0.2,0.8,0.5,1c0.2,0.2,0.6,0.3,0.8,0.3h4.4c0.3,0,0.5-0.2,0.5-0.5
						C-1025.2,8010-1025.4,8009.8-1025.7,8009.8L-1025.7,8009.8z M-1026.7,8007.4v0.4c0,0.1,0,0.2-0.1,0.2c0,0.1-0.1,0.1-0.2,0.1
						h-3.1v-0.7H-1026.7z M-1027,8005.8c0.1,0,0.2,0,0.2,0.1c0,0,0.1,0.1,0.1,0.2v0.4h-3.4v-0.7H-1027z M-1031.3,8007.4v0.7h-3.1
						c-0.1,0-0.2,0-0.2-0.1c0,0-0.1-0.1-0.1-0.2v-0.4H-1031.3z M-1034.7,8006.1c0-0.1,0-0.2,0.1-0.2c0,0,0.1-0.1,0.2-0.1h3.1v0.7
						h-3.4C-1034.7,8006.5-1034.7,8006.1-1034.7,8006.1L-1034.7,8006.1z M-1026.7,8003.6c0.1,0,0.2,0,0.3,0.1
						c0.1,0.1,0.1,0.2,0.1,0.3c0,0.1,0,0.2-0.1,0.3c-0.1,0.1-0.2,0.1-0.3,0.1h-2c-0.1,0-0.2,0-0.3-0.1c-0.1-0.1-0.1-0.2-0.1-0.3
						c0-0.1,0-0.2,0.1-0.3c0.1-0.1,0.2-0.1,0.3-0.1H-1026.7z M-1027.4,8002.3c0.1,0,0.2,0,0.3,0.1c0.1,0.1,0.1,0.2,0.1,0.3
						c0,0.1,0,0.2-0.1,0.3c-0.1,0.1-0.2,0.1-0.3,0.1h-2c-0.1,0-0.2,0-0.3-0.1c-0.1-0.1-0.1-0.2-0.1-0.3c0-0.1,0-0.2,0.1-0.3
						c0.1-0.1,0.2-0.1,0.3-0.1H-1027.4z M-1032.1,8003.6c0.1,0,0.2,0,0.3,0.1c0.1,0.1,0.1,0.2,0.1,0.3c0,0.1,0,0.2-0.1,0.3
						c-0.1,0.1-0.2,0.1-0.3,0.1h-2c-0.1,0-0.2,0-0.3-0.1c-0.1-0.1-0.1-0.2-0.1-0.3c0-0.1,0-0.2,0.1-0.3c0.1-0.1,0.2-0.1,0.3-0.1
						H-1032.1z M-1032.8,8002.3c0.1,0,0.2,0,0.3,0.1c0.1,0.1,0.1,0.2,0.1,0.3c0,0.1,0,0.2-0.1,0.3c-0.1,0.1-0.2,0.1-0.3,0.1h-2
						c-0.1,0-0.2,0-0.3-0.1c-0.1-0.1-0.1-0.2-0.1-0.3c0-0.1,0-0.2,0.1-0.3c0.1-0.1,0.2-0.1,0.3-0.1H-1032.8z"/>
				</g>
			</g>
		</g>
	</g>
</g>
</svg>
