<?xml version="1.0" encoding="utf-8"?>
<!-- Generator: Adobe Illustrator 25.2.1, SVG Export Plug-In . SVG Version: 6.00 Build 0)  -->
<svg version="1.1" id="圖層_1" xmlns="http://www.w3.org/2000/svg" xmlns:xlink="http://www.w3.org/1999/xlink" x="0px" y="0px"
	 width="546.2px" height="250.8px" viewBox="0 0 546.2 250.8" style="enable-background:new 0 0 546.2 250.8;" xml:space="preserve"
	>
<style type="text/css">
	.st0{fill:#231815;}
	.st1{fill:url(#SVGID_1_);}
	.st2{fill:url(#SVGID_2_);}
	.st3{fill:url(#SVGID_3_);}
	.st4{fill:#0397E0;}
	.st5{fill:#EDA300;}
	.st6{fill:url(#SVGID_4_);}
	.st7{fill-rule:evenodd;clip-rule:evenodd;fill:#0065A4;}
	.st8{fill-rule:evenodd;clip-rule:evenodd;fill:#231916;}
</style>
<g>
	<path class="st0" d="M62.8,244.4l2.4-3.4c1.5,1.5,3.4,2.7,5.9,2.7c2.8,0,4.7-1.8,4.7-4.9c0-3.1-1.8-4.8-4.5-4.8
		c-1.6,0-2.4,0.4-4,1.4l-2.4-1.6l0.7-12.9h14.3v4.4h-9.7l-0.5,5.7c1-0.5,2-0.8,3.2-0.8c4.5,0,8.2,2.7,8.2,8.5c0,5.9-4.4,9.4-9.3,9.4
		C67.6,248.1,64.8,246.4,62.8,244.4z"/>
	<path class="st0" d="M88.7,234.4c0-8.8,5.7-13.9,12.8-13.9c3.9,0,6.5,1.7,8.2,3.4l-2.8,3.4c-1.3-1.3-2.8-2.2-5.2-2.2
		c-4.4,0-7.5,3.5-7.5,9.2c0,5.8,2.7,9.3,7.9,9.3c1.3,0,2.6-0.4,3.3-1v-5.3h-4.7v-4.4h9.5v12c-1.8,1.8-4.9,3.2-8.6,3.2
		C94.2,248.1,88.7,243.2,88.7,234.4z"/>
	<path class="st0" d="M124.3,242.7c-0.9,3-2.5,6.1-4.2,8.1c-0.8-0.6-2.3-1.7-3.2-2.1c1.6-1.7,3-4.3,3.6-6.8L124.3,242.7z
		 M129.3,241.6h-10.4v-23.2h10.4V241.6z M125.6,221.8h-3.2v3.3h3.2V221.8z M125.6,228.3h-3.2v3.3h3.2V228.3z M125.6,234.8h-3.2v3.4
		h3.2V234.8z M142.4,243.2l0.3,3.2c-4.2,1.1-8.7,2.1-12.2,2.9l-0.7-1.7l-2.8,1.2c-0.4-1.6-1.5-4-2.4-5.9l3-1.2
		c0.7,1.2,1.4,2.5,1.9,3.8l1.5-0.3v-13.5h3.1v13l1.7-0.3v-15.2h3.3v5.5h2.7v3.2h-2.7v5.8L142.4,243.2z M145.8,228.8
		c0.3,9.6,1.1,16.7,2.2,16.7c0.4,0,0.7-1.7,0.9-4.5c0.6,0.9,2.2,2,2.8,2.4c-0.9,6-2.6,7.3-3.9,7.3c-3.9-0.1-5.3-8.4-5.7-21.8h-12.1
		v-3.5h12c0-2.6-0.1-5.3-0.1-8.2h3.9c0,2.8,0,5.5,0,8.2h5.2v3.5H145.8z M140.7,222.8h-9.4v-3.3h9.4V222.8z M148.3,224.5
		c-0.4-1.3-1.5-3.5-2.6-5l2.8-1.3c1.1,1.5,2.3,3.5,2.7,4.8L148.3,224.5z"/>
	<path class="st0" d="M172.8,246.7c0,1.8-0.3,2.7-1.5,3.2c-1.2,0.5-2.8,0.6-5,0.6c-0.2-1-0.8-2.4-1.3-3.3c1.3,0.1,2.7,0.1,3.1,0.1
		c0.5,0,0.6-0.1,0.6-0.6V243c-1.8,1.3-3.6,2.5-5.2,3.6l-0.9-2.5c-0.4,2.4-1.2,4.9-2.6,6.8c-0.6-0.8-2.2-2.4-3-2.9
		c1.9-2.8,2.1-6.8,2.1-9.9V230h13.6V246.7z M170.8,219.7c1.5,2.6,3.4,6.1,4.3,8.3l-3.7,1.5c-0.2-0.6-0.5-1.4-0.9-2.3
		c-9.1,0.9-10.6,1.1-11.6,1.5c-0.2-0.8-0.9-2.8-1.3-3.9c0.6-0.1,1.3-0.6,2-1.4c0.7-0.8,2.9-3.6,4.2-6.4l4.3,1.2
		c-1.2,2.1-2.8,4.2-4.4,6l5.3-0.4c-0.5-1-1-2.1-1.5-2.9L170.8,219.7z M163.1,238.1c0,1.4-0.1,3-0.3,4.6c1.6-0.7,3.7-1.8,5.9-3v-1.2
		l-1.7,1.7c-0.9-0.9-2.6-2.3-3.9-3.5V238.1z M163.1,233.6v2.6l1.8-1.5c1.2,0.9,2.8,2.1,3.9,3.1v-4.1H163.1z M180.9,233
		c-4.3,0-5.5-1.6-5.5-5.6v-10.2h4.2v4.2h8.9v3.7h-8.9v2.4c0,1.3,0.2,1.8,1.4,1.8h5.3c1,0,2.5-0.1,3.3-0.3c0.1,1.1,0.3,2.7,0.4,3.6
		c-0.8,0.3-2.3,0.3-3.6,0.3H180.9z M185.4,246.7c1.2,0,1.5-0.6,1.7-3.9c0.9,0.6,2.6,1.3,3.7,1.5c-0.4,4.7-1.5,6.1-5,6.1h-5.1
		c-4.2,0-5.3-1.3-5.3-5.2V234h4.2v3.6h9.1v3.8h-9.1v3.9c0,1.3,0.3,1.4,1.7,1.4H185.4z"/>
	<path class="st0" d="M202.8,240.6c-0.9,2.6-2.4,5.5-3.6,7.4c-0.6-0.5-2-1.5-2.8-1.9c1.2-1.7,2.4-4.1,3.2-6.4L202.8,240.6z
		 M207.8,238.5v12h-4.1v-12H197v-3.6h6.7v-2.8h-6.9v-3.5h3.5c-0.2-1.1-0.6-2.6-1-3.7l3-0.7h-4.9v-3.5h6.2c-0.3-1-0.7-2-1.1-2.8
		l4.3-1c0.5,1.2,1.2,2.7,1.6,3.9h5.1v3.5H209l2.9,0.6c-0.5,1.4-1.1,2.8-1.6,3.9h3.7v3.5h-6.2v2.8h5.6v3.6H207.8z M202.7,224.1
		c0.5,1.2,1,2.7,1.2,3.7l-2.6,0.7h5.2c0.5-1.3,1.2-3.1,1.5-4.5H202.7z M230.1,232.9h-3.3v17.7h-4.2v-17.7h-3.3v0.4
		c0,5.3-0.5,12.7-3.5,17.3c-0.7-0.8-2.4-2.1-3.3-2.6c0.7-1,1.2-2.2,1.6-3.5l-2.6,1.6c-0.6-1.4-1.8-3.7-2.8-5.4l2.8-1.5
		c1,1.4,2.1,3.3,2.7,4.7c1-3.5,1.1-7.3,1.1-10.7v-12.8c3.9-0.7,8.3-1.8,10.9-3.1l3.3,3.1c-3,1.2-6.7,2.1-10.2,2.7v5.7h10.9V232.9z"
		/>
	<path class="st0" d="M243.6,227.2v-1.4c-1.3,0.9-2.5,1.8-3.9,2.6H255v11.3h-12.5c-0.1,0.4-0.1,0.8-0.2,1.1h13.5v9.6h-3.7v-1h-6.7
		v1.1h-3.6v-7.5c-0.5,2.3-1.3,4.5-2.3,6.3c-0.8-0.5-2.7-1.3-3.7-1.7c2.8-4.6,3.1-11,3.1-15.2v-3.6l-0.8,0.4c-0.4-1-1.5-3.2-2.2-4.1
		c4.2-1.8,8.4-4.7,10.7-8.2l3.9,1.5c-0.2,0.3-0.4,0.6-0.6,0.9c2.7,1.5,5.7,3.3,7.3,4.5l-2.2,3.6c-1-0.8-2.4-1.7-3.9-2.7v2.3H243.6z
		 M251.1,236.7v-1.5h-8.2c0,0.5,0,1-0.1,1.5H251.1z M242.9,231.3v1.2v0.2h8.2v-1.4H242.9z M250.8,224.7c-1.2-0.7-2.3-1.5-3.4-2.2
		c-0.8,0.7-1.5,1.5-2.3,2.2H250.8z M245.4,243.7v2.6h6.7v-2.6H245.4z M261.9,240.9h-4v-20.1h4V240.9z M268.5,217.2v28.4
		c0,2.3-0.4,3.5-1.8,4.1c-1.3,0.7-3.3,0.9-6.2,0.9c-0.2-1.2-0.7-3.1-1.3-4.3c1.8,0,3.7,0,4.3,0c0.6,0,0.8-0.2,0.8-0.8v-28.3H268.5z"
		/>
	<path class="st0" d="M299.1,231c0.8,2.4,1.6,5.6,1.9,7.6l-3.1,1c-0.1-0.5-0.1-1-0.3-1.7c-6.8,1-8.1,1.4-8.9,1.7
		c-0.2-0.7-0.8-2.5-1.2-3.5c0.9-0.2,1.7-1,2.7-2.4c0.5-0.5,1.3-1.7,2.3-3.2c-2.8,0.3-3.6,0.5-4.1,0.8c-0.2-0.7-0.8-2.5-1.2-3.4
		c0.7-0.2,1.3-0.9,1.9-2c0.7-1,2.9-5.1,4.1-8.9l3.6,1.4c-1.2,3-2.8,6.2-4.6,8.7l2.6-0.2c0.8-1.5,1.7-3,2.3-4.6l3.3,2.1
		c-1.9,3.7-4.5,7.5-7.2,10.7l3.6-0.4c-0.2-1-0.5-1.9-0.8-2.8L299.1,231z M292,241.2c-0.3,3.3-0.9,6.9-1.6,9.2
		c-0.7-0.4-2.2-0.8-3.1-1c0.9-2.2,1.3-5.6,1.5-8.7L292,241.2z M295.6,240.7c0.4,2.7,0.8,6,0.9,8.2l-3.1,0.6c0-2.2-0.4-5.7-0.7-8.2
		L295.6,240.7z M299.1,239.7c0.8,2.3,1.5,5.2,1.8,7.1l-2.9,0.9c-0.3-1.9-1-4.9-1.7-7.2L299.1,239.7z M320.6,227.4v6.2h-3.7v-3h-12.7
		v3.1h-3.6v-6.2h4.3c-0.2-1-0.5-2.2-0.9-3.2l1.9-0.5h-4.8v-3.6h7.1c-0.3-0.8-0.5-1.6-0.9-2.2l3.6-1c0.5,1,1,2.1,1.3,3.2h7.9v3.6
		h-5.4l2.3,0.6c-0.5,1.1-1,2.1-1.4,3.1H320.6z M319.2,243.7c0,1.6-0.2,2.6-1.2,3.2c-1,0.6-2.3,0.7-4,0.7c-0.1-1.1-0.5-2.6-1-3.6
		c0.9,0,1.8,0,2.1,0c0.3,0,0.4-0.1,0.4-0.4v-5.3h-3.2v12.3h-3.9v-12.3h-2.8v8.9H302v-12.3h6.4v-3.4h3.9v3.4h6.9V243.7z M307.4,223.7
		c0.5,1.2,0.9,2.5,1.1,3.5l-0.8,0.2h4.4c0.4-1.2,0.9-2.5,1.2-3.7H307.4z"/>
	<path class="st0" d="M338.1,233.8c-0.8,3.5-1.9,7-3.4,9.8c0.5,0.3,1,0.7,1.7,1.1c2.4,1.5,5.8,1.7,10,1.7c4.1,0,10.6-0.4,14.6-0.9
		c-0.5,1.2-1.2,3.2-1.2,4.4c-3,0.2-9.3,0.4-13.5,0.4c-4.8,0-7.8-0.4-10.4-1.9c-1.5-0.8-2.8-2-3.5-2c-0.8,0-2,2.4-2.8,4.5l-2.8-4.1
		c1.5-1.9,3.1-3.2,4.4-3.9c0.9-1.7,1.6-3.9,2.2-6h-4.8c0.8-2,1.8-4.9,2.7-7.6h-3.8v-3.8h8.9c-0.8,2.4-1.7,5.3-2.6,7.7h2.1l0.6-0.2
		L338.1,233.8z M331.3,224.6c-0.5-1.6-1.3-4.1-2-6l3.9-1.2c0.7,1.9,1.5,4.3,2.1,5.8L331.3,224.6z M339.7,227.8
		c-0.9-0.7-2.6-1.5-3.5-2c2.2-2,4.1-5.2,5.1-8.4l4,0.9c-0.3,0.9-0.7,1.9-1.1,2.8h2.5v-4h4.2v4h7.8v3.6h-7.8v3h9.3v3.6h-23.1v-3.6
		H339.7z M353.6,244.5v-1h-9.7v1.1h-4.1v-11.4h18.1v11.3H353.6z M342.1,224.8c-0.7,1.2-1.5,2.2-2.3,3h6.8v-3H342.1z M353.6,239.9
		v-3.3h-9.7v3.3H353.6z"/>
	<path class="st0" d="M373,240.6c-0.9,2.6-2.4,5.5-3.6,7.4c-0.6-0.5-2-1.5-2.8-1.9c1.2-1.7,2.4-4.1,3.2-6.4L373,240.6z M378,238.5
		v12h-4.1v-12h-6.7v-3.6h6.7v-2.8H367v-3.5h3.5c-0.2-1.1-0.6-2.6-1-3.7l3-0.7h-4.9v-3.5h6.2c-0.3-1-0.7-2-1.1-2.8l4.3-1
		c0.5,1.2,1.2,2.7,1.6,3.9h5.1v3.5h-4.5l2.9,0.6c-0.5,1.4-1.1,2.8-1.6,3.9h3.7v3.5H378v2.8h5.6v3.6H378z M372.8,224.1
		c0.5,1.2,1,2.7,1.2,3.7l-2.6,0.7h5.2c0.5-1.3,1.2-3.1,1.5-4.5H372.8z M400.2,232.9h-3.3v17.7h-4.2v-17.7h-3.3v0.4
		c0,5.3-0.5,12.7-3.5,17.3c-0.7-0.8-2.4-2.1-3.3-2.6c0.7-1,1.2-2.2,1.6-3.5l-2.6,1.6c-0.6-1.4-1.8-3.7-2.8-5.4l2.8-1.5
		c1,1.4,2.1,3.3,2.7,4.7c1-3.5,1.1-7.3,1.1-10.7v-12.8c3.9-0.7,8.3-1.8,10.9-3.1l3.3,3.1c-3,1.2-6.7,2.1-10.2,2.7v5.7h10.9V232.9z"
		/>
	<path class="st0" d="M427.3,235.6c3.1,4,8,7.8,12.8,9.9c-1,0.9-2.4,2.6-3.1,3.7c-4.2-2.2-8.4-5.8-11.7-9.9v11.4h-4.6v-11.2
		c-3.3,4-7.5,7.5-11.7,9.6c-0.7-1.1-2.1-2.8-3.2-3.7c4.8-2.1,9.7-5.9,12.9-9.9h-11.7v-4.2h13.6v-4.6h-10.9v-4.2h10.9v-5.4h4.6v5.4
		h11.3v4.2h-11.3v4.6h13.9v4.2H427.3z"/>
	<path class="st0" d="M475.8,238.3c-1-1.1-2.8-2.7-4.6-4.2c-0.7,1.2-1.5,2.2-2.4,3.1c-0.6-0.5-1.8-1.3-2.8-1.8
		c3.2,4.2,8.4,8.1,13.8,10c-1,0.9-2.4,2.7-3.2,3.9c-4.4-2-8.4-5.3-11.7-9.1v10.5h-4.5v-10.3c-3.2,3.8-7.3,6.9-11.6,8.9
		c-0.7-1-2.1-2.8-3-3.7c5.8-2.3,11.4-6.7,14.6-11.6v-8.3h-13.1v-4.2h13.1v-4.4h4.5v4.4h13.6v4.2h-13.6v8.1c0.2,0.3,0.4,0.5,0.5,0.8
		c2.3-2.1,3.8-5.3,4.5-8.7l4.2,0.8c-0.3,1.3-0.7,2.6-1.2,3.9c2.1,1.6,4.5,3.5,5.9,4.7L475.8,238.3z M457.2,226.8
		c-0.4,1.3-0.8,2.6-1.3,3.9c1.3,1.1,2.7,2.3,3.5,3.2l-2.9,3c-0.5-0.7-1.4-1.6-2.4-2.5c-1.2,1.9-2.6,3.6-4.1,4.9
		c-0.7-0.8-2.4-2.2-3.3-2.8c3.2-2.3,5.4-6,6.4-10.4L457.2,226.8z"/>
	<linearGradient id="SVGID_1_" gradientUnits="userSpaceOnUse" x1="1.818989e-12" y1="108.1864" x2="220.9118" y2="108.1864">
		<stop  offset="8.266130e-02" style="stop-color:#08559D"/>
		<stop  offset="1" style="stop-color:#2D9ED8"/>
	</linearGradient>
	<path class="st1" d="M42.8,45.9l-19.9,63.1c0,0-0.9,3.2,1.3,3.8s12.6-6.2,30-4.7c17.5,1.5,23.8,6.9,23.7,15
		c-0.2,8.1-3.4,28.3-32.8,29.3c-29.5,0.9-34.2-5.6-36.2-5.4s-3.2,1.7-3.8,3.4c-0.6,1.7-5.7,15-5,16.9c0.7,1.9,1.6,2.2,3.2,2.7
		c1.6,0.6,60.7,17.6,91.5-19.6c0,0,3.8,20.3,35.7,23.1s60.3-7.5,62.9-10.5c2.6-3,6.6-18.2,6.6-18.2l7.7-24.2c0,0,2.4-5.1-1.5-5.1
		c-3.9,0-46.4,0.2-46.4,0.2s-5.4,0.4-6.2,3c-0.8,2.6-3.6,11.6-3.6,11.6s-0.2,3.9,2.8,3.8c3-0.2,27.6-0.6,27.6-0.6l-5.6,19.1
		c0,0-39.2,9.4-49-2.4c-9.8-11.8-12.2-21.4,1.7-46.7s50.3-22.5,55-21.4c4.7,1.1,16.9,4.7,22,8.3c5.1,3.6,6.4,5.6,9,4.9
		s9-17.8,7.1-21c-1.9-3.2-74.5-34-117.9,30c0,0-10.1-22.7-47.1-16.7c0,0-3.8,0.2-3.2-2.6c0.6-2.8,5.4-17.1,5.4-17.1s0.4-3.2,4.7-3.2
		c4.3,0,47.9,0,47.9,0s5,0.8,6.1-2.6s5.1-15,5.1-15s1.3-4.9-2.3-4.9s-72.1,0-72.1,0S43.8,42.9,42.8,45.9z"/>
	<linearGradient id="SVGID_2_" gradientUnits="userSpaceOnUse" x1="165.6769" y1="58.6304" x2="270.4171" y2="55.2517">
		<stop  offset="0" style="stop-color:#1880C2"/>
		<stop  offset="0.2306" style="stop-color:#1B81C3"/>
		<stop  offset="0.4187" style="stop-color:#2586C5"/>
		<stop  offset="0.5918" style="stop-color:#368EC9"/>
		<stop  offset="0.7559" style="stop-color:#4E99CE"/>
		<stop  offset="0.9123" style="stop-color:#6DA7D4"/>
		<stop  offset="1" style="stop-color:#82B1D9"/>
	</linearGradient>
	<path class="st2" d="M220.3,44.8c-15.4,1.2-30,0.4-42.2,1.2c-29.5,1.9-53.5,26.3-53.5,26.3c28.8-23.5,67.6-19.5,77.5-18.4
		c9.9,1.1,36.7,9.4,60.1,6.8C282,58.4,304.9,42,304.9,42C263.4,60.6,238.2,51.9,220.3,44.8z"/>
	<linearGradient id="SVGID_3_" gradientUnits="userSpaceOnUse" x1="124.6578" y1="44.8619" x2="284.7715" y2="44.8619">
		<stop  offset="0" style="stop-color:#169543"/>
		<stop  offset="0.2063" style="stop-color:#199645"/>
		<stop  offset="0.3747" style="stop-color:#239A49"/>
		<stop  offset="0.5296" style="stop-color:#34A151"/>
		<stop  offset="0.6765" style="stop-color:#4CAA5D"/>
		<stop  offset="0.8178" style="stop-color:#6CB66B"/>
		<stop  offset="0.9531" style="stop-color:#91C57D"/>
		<stop  offset="1" style="stop-color:#A0CB84"/>
	</linearGradient>
	<path class="st3" d="M170.8,45.2c0,0,16.7-9.9,35.3-5.4c4.2,1,8.9,3,14.2,5c22-1.7,45.3-7.4,64.5-27.4c0,0-27.8,18-50.5,16.7
		c-9.7-0.6-18.8-1.7-26.7-2.6c-12.7,5.2-32.7,8-51.6,13.3c-21.4,6-31.3,27.4-31.3,27.4S137.6,48.1,170.8,45.2z"/>
	<path class="st4" d="M178.2,46c12.1-0.8,26.8,0,42.2-1.2c-5.3-2.1-9.9-4-14.2-5c-18.6-4.5-35.3,5.4-35.3,5.4
		c-33.2,2.8-46.2,27-46.2,27S148.7,47.9,178.2,46z"/>
	<path class="st5" d="M166.5,39.6c0,0,7.5-7.3,16.7-9.2c5.3-1.1,13.8-0.1,24.3,1.1c1.7-0.7,3.3-1.5,4.8-2.3
		c12-6.8,24.4-15.4,29.3-29.3c0,0-11.5,16.3-28.2,20.3c-16.7,3.9-44.7,1.1-53.5,15.4c0,0-33,12.6-35.3,36.6
		C137.2,41.3,166.5,39.6,166.5,39.6z"/>
	<linearGradient id="SVGID_4_" gradientUnits="userSpaceOnUse" x1="156.419" y1="49.9445" x2="202.8764" y2="29.6722">
		<stop  offset="0" style="stop-color:#169543"/>
		<stop  offset="0.1842" style="stop-color:#3DA333"/>
		<stop  offset="0.4547" style="stop-color:#70B51F"/>
		<stop  offset="0.6906" style="stop-color:#96C210"/>
		<stop  offset="0.8803" style="stop-color:#ADCA06"/>
		<stop  offset="1" style="stop-color:#B5CD03"/>
	</linearGradient>
	<path class="st6" d="M156,44.9c18.8-5.3,38.8-8.1,51.6-13.3c-10.6-1.3-19.1-2.2-24.3-1.1c-9.2,1.9-16.7,9.2-16.7,9.2
		s-29.3,1.7-41.9,32.7C124.7,72.3,134.6,50.9,156,44.9z"/>
	<polygon class="st0" points="294.3,77.8 276.7,77.8 227.9,164.1 245.5,164.1 	"/>
	<polygon class="st0" points="303.7,106.3 286.1,106.3 231.1,203.6 248.7,203.6 	"/>
	<polygon class="st0" points="316.3,166.4 350.3,106.3 332.6,106.3 298.7,166.4 	"/>
	<polygon class="st0" points="292.7,166.4 326.6,106.3 309,106.3 275,166.4 	"/>
	<polygon class="st0" points="354.5,145.3 370.2,117.6 352.5,117.6 336.8,145.3 	"/>
	<polygon class="st0" points="338.2,190.7 363.8,145.3 346.2,145.3 320.6,190.7 	"/>
	<polygon class="st0" points="379,158.4 402.1,117.6 383.5,117.6 360.4,158.4 	"/>
	<polygon class="st0" points="468.9,129.6 486.9,97.7 470.1,97.7 452.1,129.6 	"/>
	<polygon class="st0" points="523,139.4 526.2,133.1 450.6,133.1 447.1,139.4 	"/>
	<polygon class="st0" points="488.9,129.6 506.9,97.7 490,97.7 472.1,129.6 	"/>
	<polygon class="st0" points="508.2,129.6 526.2,97.7 509.3,97.7 491.3,129.6 	"/>
	<polygon class="st0" points="528.2,129.6 546.2,97.7 529.3,97.7 511.3,129.6 	"/>
	<polygon class="st0" points="424.8,158.4 447.9,117.6 429.2,117.6 406.1,158.4 	"/>
	<polygon class="st0" points="382.6,190.7 435.1,97.7 419.7,97.7 367.2,190.7 	"/>
	<rect x="383.5" y="117.6" class="st0" width="57.7" height="6"/>
	<rect x="363.8" y="152.5" class="st0" width="57.7" height="6"/>
	<polygon class="st0" points="386,163.1 367.2,163.1 347.2,178.6 366.6,178.6 	"/>
	<polygon class="st0" points="251,106.3 247.1,113 285.9,113 290.7,106.3 	"/>
	<polygon class="st0" points="389.9,106.3 386,113 450.5,113 454.2,106.3 	"/>
	<polygon class="st0" points="335.1,184 331.2,190.7 407.1,190.7 410.9,184 	"/>
	<polygon class="st0" points="324.1,106.3 320.2,113 339.6,113 344.4,106.3 	"/>
	<polygon class="st0" points="290.5,159.7 286.6,166.4 306,166.4 310.8,159.7 	"/>
	<polygon class="st0" points="443.7,199.2 403.3,153.2 395.6,158.4 392.7,164.9 395.9,167.1 424.7,199.2 	"/>
	<rect x="462.9" y="124.4" class="st0" width="20.7" height="5.2"/>
	<rect x="505.5" y="124.4" class="st0" width="20.7" height="5.2"/>
	<rect x="479.2" y="97.7" class="st0" width="20.7" height="5.2"/>
	<rect x="521.7" y="97.7" class="st0" width="20.7" height="5.2"/>
	<polygon class="st0" points="439.3,190.2 457.3,158.4 440.4,158.4 422.4,190.2 	"/>
	<polygon class="st0" points="459.3,190.2 477.3,158.4 460.4,158.4 442.4,190.2 	"/>
	<polygon class="st0" points="478.6,190.2 496.6,158.4 479.7,158.4 461.7,190.2 	"/>
	<polygon class="st0" points="498.6,190.2 516.6,158.4 499.7,158.4 481.7,190.2 	"/>
	<rect x="433.3" y="185.1" class="st0" width="20.7" height="5.2"/>
	<rect x="475.8" y="185.1" class="st0" width="20.7" height="5.2"/>
	<rect x="449.5" y="158.4" class="st0" width="20.7" height="5.2"/>
	<rect x="492.1" y="158.4" class="st0" width="20.7" height="5.2"/>
	<polygon class="st0" points="433.9,160.8 458.9,160.8 503.7,128.6 503.7,127.8 479.9,127.8 478.3,129.6 	"/>
	<polygon class="st0" points="522.7,163.9 498.7,136.3 485.8,138 485.3,141.8 504.7,163.9 	"/>
	<path id="path1_fill_1_" class="st7" d="M326.6,44.4H316c0,0.6,0,1.2,0,1.7c0,0.6,0,1.2,0,1.7h11.3C327,46.7,326.7,45.6,326.6,44.4
		L326.6,44.4z M328.4,30.5h-9c-0.5,1.1-1,2.3-1.4,3.5h9.3C327.5,32.8,327.9,31.6,328.4,30.5L328.4,30.5z M326.4,40.9
		c0-1.2,0.1-2.3,0.2-3.5H317c-0.3,1.1-0.5,2.3-0.7,3.5H326.4z M328.4,51.3h-12.1c0.2,1.2,0.4,2.3,0.7,3.5h13.1
		C329.4,53.6,328.9,52.5,328.4,51.3L328.4,51.3z M332.4,58.2H318c0.4,1.2,0.9,2.3,1.4,3.5h16.3C334.6,60.6,333.4,59.5,332.4,58.2
		L332.4,58.2z M388.7,46.1c0-0.6,0-1.2,0-1.7h-12.5c-0.5-1.2-1.1-2.4-1.7-3.5h13.9c-0.2-1.2-0.4-2.3-0.7-3.5H372
		c-1-1.3-2.1-2.4-3.3-3.5h17.9c-0.4-1.2-0.9-2.3-1.4-3.5h-39.9v17.3h14v17.3h-38c0.7,1.2,1.6,2.4,2.4,3.5h21.5v3.5h-18.4
		c1.3,1.3,2.6,2.4,4.1,3.5h14.3V79h-8.5c4.7,2.2,10,3.5,15.5,3.5c5.5,0,10.8-1.2,15.5-3.5h-3.9c1.8-1,3.4-2.1,4.9-3.5h4.9
		c1.4-1,2.8-2.2,4.1-3.5H372c0.9-1.1,1.7-2.2,2.4-3.5h6.4c0.9-1.1,1.7-2.3,2.4-3.5h-7.2c0.5-1.1,0.8-2.3,1.1-3.5h7.9
		c0.5-1.1,1-2.3,1.4-3.5h-8.7c0.1-1.1,0.2-2.3,0.2-3.4v0h9.5c0.3-1.1,0.5-2.3,0.7-3.5h-10.4c-0.2-1.2-0.4-2.3-0.7-3.5h11.4
		C388.6,47.3,388.7,46.7,388.7,46.1L388.7,46.1z M359.3,20.1h18.5c-1.3-1.3-2.7-2.4-4.1-3.5h-14.4V20.1z M332.4,23.6h-8.7
		c-0.9,1.1-1.7,2.3-2.4,3.5h8.8C330.8,25.8,331.6,24.7,332.4,23.6L332.4,23.6z M359.3,27.1h24c-0.7-1.2-1.6-2.4-2.4-3.5h-21.6V27.1z
		 M340.7,16.7h-9.7c-1.5,1-2.8,2.2-4.1,3.5h8.9C337.3,18.8,338.9,17.6,340.7,16.7L340.7,16.7z M352.3,9.7c-5.5,0-10.8,1.2-15.5,3.5
		h31C363.1,11,357.8,9.7,352.3,9.7L352.3,9.7z"/>
	<path id="path2_fill_1_" class="st8" d="M536.1,69.6h-1.8v-5c0-0.8-0.3-1.3-1.1-1.3c-0.7,0-1.3,0.5-1.6,0.7v5.7h-1.8v-5
		c0-0.8-0.2-1.3-1.1-1.3c-0.6,0-1.3,0.5-1.6,0.7v5.6h-1.8v-7.1l1.7-0.5l0.1,0.8c0.4-0.3,1.2-1,2.4-1c1,0,1.6,0.4,2,1
		c0.4-0.4,1.2-1,2.5-1c1.5,0,2.3,1,2.3,2.3V69.6z M517.4,65.8c0,1.6,0.8,2.7,2.1,2.7c1.2,0,2.1-1.2,2.1-2.7c0-1.6-0.9-2.8-2.1-2.8
		C518.1,63,517.4,64.2,517.4,65.8L517.4,65.8z M523.6,65.8c0,2.4-1.8,4-4.1,4c-2.3,0-4.1-1.5-4.1-4c0-2.4,1.8-4,4.1-4
		C521.8,61.8,523.6,63.3,523.6,65.8L523.6,65.8z M512.1,61.8c1.5,0,2.2,0.3,2.6,0.5l-0.4,1.1c-0.4-0.2-0.9-0.4-1.9-0.4
		c-1,0-2.3,0.9-2.3,2.7c0,1.7,1.3,2.7,2.3,2.7c1.1,0,1.6-0.2,2-0.3l0.4,1.1c-0.4,0.2-1.1,0.5-2.7,0.5c-2.4,0-4-1.6-4-4
		C508.1,63.4,510.1,61.8,512.1,61.8L512.1,61.8z M503.5,63.1c-1,0-1.5,0.8-1.6,1.8h3.2C504.9,63.7,504.4,63.1,503.5,63.1L503.5,63.1
		z M504.2,68.5c1.2,0,1.7-0.2,2.1-0.4l0.4,1c-0.4,0.2-1.2,0.6-3,0.6c-2.3,0-3.8-1.5-3.8-3.9c0-2.3,1.6-4,3.7-4
		c1.8,0,3.5,1.2,3.5,4.2h-5.2C501.8,67.5,502.6,68.5,504.2,68.5L504.2,68.5z M496.4,58.6l1.9-0.5v11.5h-1.9V58.6z M491.4,63.1
		c-1,0-1.5,0.8-1.6,1.8h3.2C492.8,63.7,492.3,63.1,491.4,63.1L491.4,63.1z M492.1,68.5c1.2,0,1.7-0.2,2.1-0.4l0.4,1
		c-0.5,0.2-1.2,0.6-3,0.6c-2.3,0-3.8-1.5-3.8-3.9c0-2.3,1.6-4,3.7-4c1.8,0,3.5,1.2,3.5,4.2h-5.2C489.7,67.5,490.5,68.5,492.1,68.5
		L492.1,68.5z M480.2,58.1h9.3v1.5h-3.6v10.1h-2V59.5h-3.7V58.1z M428,62v5c0,0.8,0.3,1.3,1.1,1.3c0.8,0,1.5-0.5,1.8-0.7V62h1.8v7.1
		l-1.8,0.5l-0.1-0.8c-0.3,0.3-1.2,1-2.7,1c-1.5,0-2.2-0.9-2.2-2.3V62H428z M475.8,66.1l-1.1,0.1c-1,0.1-1.8,0.4-1.8,1.3
		c0,0.8,0.6,1,1.3,1c0.7,0,1.2-0.4,1.6-0.7V66.1z M473.6,69.8c-1.4,0-2.3-0.8-2.3-2.1c0-1.3,1-2.5,2.9-2.6l1.6-0.1v-0.6
		c0-0.7-0.2-1.3-1.4-1.3c-1,0-1.8,0.3-2.1,0.5l-0.4-1c0.5-0.2,1.5-0.7,3.1-0.7c1.7,0,2.7,0.9,2.7,2.2v4.3c0,0.4,0.2,1,0.3,1.2H476
		c-0.1-0.2-0.2-0.5-0.2-0.7C475.4,69.2,474.7,69.8,473.6,69.8L473.6,69.8z M464.1,62h1.7l1.6,5l1.7-5h1.5l-2.9,7.7h-1l-1.4-3.9
		l-1.5,3.9h-1l-2.7-7.7h1.8l1.7,5.1l1.1-3L464.1,62z M445.3,64.3c0,0.7,0.5,1.3,1.4,1.3c0.9,0,1.4-0.6,1.4-1.3
		c0-0.6-0.4-1.4-1.4-1.4C445.8,62.9,445.3,63.6,445.3,64.3L445.3,64.3z M444.3,71.4c0,0.9,1.4,1.2,2.4,1.2c1.2,0,2.3-0.7,2.4-1.5
		c0.1-0.9-0.5-1.3-1.2-1.3h-2.5C445.1,70,444.3,70.6,444.3,71.4L444.3,71.4z M446,66.7c-0.5,0-1.3,0.1-1.3,0.8
		c0,0.7,0.8,0.7,1.3,0.7h2.2c1.7,0,2.9,1,2.7,2.6c-0.2,1.7-2.1,2.9-3.9,2.9c-2,0-4.1-0.5-4.1-2.2c0-1.2,0.9-1.8,1.4-2
		c-0.3-0.2-0.9-0.6-0.9-1.7c0-0.9,0.7-1.7,1.3-1.9c-0.4-0.2-0.9-0.7-0.9-1.7c0-1.1,0.9-2.4,2.9-2.4c0.8,0,1.2,0.1,1.5,0.2h2.9v1
		h-1.6c0.2,0.2,0.5,0.6,0.5,1.3c0,1.6-1.5,2.5-3,2.5H446z M439.8,69.6v-5c0-0.8-0.3-1.3-1.2-1.3c-0.9,0-1.6,0.5-1.9,0.7v5.6h-1.8
		v-7.1l1.8-0.5l0.1,0.8c0.3-0.3,1.2-1,2.7-1c1.5,0,2.3,0.9,2.3,2.3v5.5H439.8z M457.3,69.6v-5c0-0.8-0.3-1.3-1.2-1.3
		c-0.8,0-1.6,0.5-1.9,0.7v5.6h-1.8v-11l1.8-0.5v4.7c0.3-0.3,1.1-1,2.7-1c1.5,0,2.2,1,2.2,2.3v5.5H457.3z M422.4,69.6v-5
		c0-0.8-0.3-1.3-1.2-1.3c-0.8,0-1.6,0.5-1.9,0.7v5.6h-1.8v-11l1.8-0.5v4.7c0.3-0.3,1.1-1,2.7-1c1.5,0,2.2,1,2.2,2.3v5.5H422.4z
		 M416,68.9c-0.8,0.5-1.9,0.9-4,0.9c-3.5,0-5.9-2.7-5.9-6c0-3.3,2.4-6,5.9-6c2.3,0,3.4,0.6,3.9,0.9l-0.6,1.4
		c-0.4-0.2-1.3-0.7-3.1-0.7c-2,0-3.9,1.9-3.9,4.5c0,2.5,1.9,4.4,4,4.4c1.8,0,2.6-0.4,3.1-0.7L416,68.9z"/>
	<path id="path4_fill_1_" class="st8" d="M519.7,24.2c-0.4,0-0.7,0.1-1,0.4c-0.2,0.2-0.3,0.5-0.3,0.9c0,0.4,0.1,0.7,0.3,0.9
		c0.2,0.2,0.5,0.4,1,0.4h15.6c0.4,0,0.7-0.1,0.9-0.4c0.2-0.2,0.3-0.5,0.3-0.9c0-0.4-0.1-0.7-0.3-0.9c-0.2-0.2-0.5-0.4-0.9-0.4H519.7
		z M517.8,28.2c-0.5,0-0.7,0.1-1,0.4c-0.2,0.2-0.3,0.6-0.3,0.9c0,0.3,0.1,0.7,0.3,0.9c0.2,0.2,0.5,0.4,1,0.4h19.4
		c0.4,0,0.7-0.2,0.9-0.4c0.2-0.2,0.3-0.6,0.3-0.9c0-0.3-0.1-0.7-0.3-0.9c-0.2-0.2-0.5-0.4-0.9-0.4H517.8z M519.7,32.4
		c-0.4,0-0.7,0.1-1,0.4c-0.2,0.2-0.3,0.6-0.3,0.9c0,0.3,0.1,0.7,0.3,0.9c0.2,0.2,0.5,0.4,1,0.4h15.6c0.4,0,0.7-0.2,0.9-0.4
		c0.2-0.2,0.3-0.6,0.3-0.9c0-0.3-0.1-0.7-0.3-0.9c-0.2-0.2-0.5-0.4-0.9-0.4H519.7z M519.7,36.4c-0.4,0-0.7,0.1-1,0.4
		c-0.2,0.2-0.3,0.6-0.3,0.9c0,0.3,0.1,0.7,0.3,0.9c0.2,0.2,0.6,0.4,1,0.4h15.6c0.4,0,0.7-0.2,0.9-0.4c0.2-0.2,0.3-0.6,0.3-0.9
		c0-0.3-0.1-0.7-0.3-0.9c-0.2-0.2-0.5-0.3-0.9-0.3H519.7z M521.6,43.3c-0.4,0-0.5,0.1-0.6,0.2c-0.1,0.1-0.2,0.3-0.2,0.6v2.8
		c0,0.3,0.1,0.5,0.2,0.6c0.1,0.1,0.4,0.2,0.7,0.2h11.7c0.3,0,0.6-0.1,0.7-0.2c0.1-0.1,0.2-0.3,0.2-0.6v-2.8c0-0.3-0.1-0.5-0.2-0.6
		c-0.2-0.2-0.4-0.2-0.7-0.2H521.6z M519.9,40.8h15c0.6,0,1.1,0.2,1.5,0.5c0.4,0.4,0.5,0.7,0.5,1.2v5.7c0,0.5-0.2,1-0.7,1.4
		c-0.4,0.4-0.9,0.6-1.4,0.6h-15c-0.5,0-0.9-0.2-1.3-0.6c-0.4-0.4-0.5-0.9-0.5-1.5v-5.7c0-0.5,0.2-0.9,0.5-1.2
		C518.9,41,519.4,40.8,519.9,40.8L519.9,40.8z M515.5,23.5c0.4,0.1,0.7,0.3,0.8,0.5c0.2,0.3,0.3,0.7,0.2,1.1c-0.5,2.3-1,4.3-1.6,5.9
		v18.3c0,0.4-0.1,0.8-0.4,1c-0.2,0.2-0.6,0.4-1,0.4c-0.4,0-0.7-0.1-1-0.4c-0.2-0.3-0.4-0.6-0.4-1.1V36.1c-0.7,1-1.1,1.1-1.4,1.1
		c-0.3,0-0.7,0-0.9-0.3c-0.3-0.2-0.5-0.6-0.5-0.9c0-0.3,0.1-0.7,0.4-1.1c2.2-3.2,3.6-6.7,4.2-10.3c0.1-0.4,0.3-0.8,0.6-1
		C514.6,23.5,515.1,23.4,515.5,23.5L515.5,23.5z"/>
	<path id="path5_fill_1_" class="st8" d="M460.7,37.8v-0.4h-4.1V40h10.3c0.4,0,0.6,0.1,0.9,0.3c0.2,0.2,0.3,0.7,0.3,0.9
		c0,0.3-0.1,0.6-0.3,0.9c-0.2,0.2-0.5,0.4-0.9,0.4h-10.3v2.1h11c0.4,0,0.6,0.1,0.9,0.3c0.2,0.2,0.3,0.6,0.3,0.9
		c0,0.3-0.1,0.7-0.3,0.9c-0.2,0.3-0.5,0.3-0.9,0.3h-11V50c0,0.4-0.1,0.8-0.4,1.1c-0.2,0.3-0.6,0.4-0.9,0.4c-0.4,0-0.7-0.1-0.9-0.4
		c-0.3-0.3-0.4-0.6-0.4-1.1v-2.8h-11c-0.4,0-0.6-0.1-0.9-0.4c-0.2-0.2-0.3-0.7-0.3-0.9c0-0.2,0.1-0.7,0.3-0.9
		c0.2-0.2,0.5-0.4,0.9-0.4h11v-2.1h-10.3c-0.4,0-0.7-0.1-0.9-0.4c-0.2-0.2-0.3-0.6-0.3-0.9c0-0.2,0.1-0.7,0.3-0.9
		c0.2-0.2,0.5-0.4,0.9-0.4h3.6v-2.6h-5.1c-0.4,0-0.6-0.1-0.9-0.3c-0.2-0.2-0.3-0.6-0.3-0.9c0-0.3,0.1-0.6,0.3-0.9
		c0.2-0.2,0.5-0.4,0.9-0.4h5.1v-0.3c0-0.4,0.1-0.8,0.4-1.1c0.3-0.3,0.6-0.4,0.9-0.4c0.4,0,0.7,0.1,0.9,0.4c0.3,0.3,0.4,0.6,0.4,1.1
		l0,0.3h4.1v-2.7h-10.3c-0.4,0-0.7-0.1-0.9-0.4c-0.2-0.2-0.3-0.7-0.3-0.9c0-0.2,0.1-0.7,0.3-0.9c0.2-0.2,0.5-0.4,0.9-0.4h23.1
		c0.4,0,0.6,0.1,0.9,0.3c0.2,0.2,0.3,0.6,0.3,0.9c0,0.3-0.1,0.6-0.3,0.9c-0.2,0.3-0.5,0.4-0.9,0.4h-3.6v2.7h5.1
		c0.4,0,0.6,0.1,0.8,0.3c0.2,0.3,0.3,0.6,0.3,0.9c0,0.3-0.1,0.6-0.3,0.9c-0.2,0.2-0.5,0.4-0.9,0.4h-5.1l0,0.4c0,0.4-0.1,0.7-0.4,1
		c-0.2,0.3-0.6,0.4-0.9,0.4c-0.4,0-0.7-0.1-0.9-0.4C460.8,38.6,460.7,38.2,460.7,37.8L460.7,37.8z M456.6,34.9h4.1v-2.7h-4.1V34.9z
		 M449.9,40h4.1v-2.6h-4.1V40z M468.8,26.2c0,0.3-0.1,0.7-0.3,0.9c-0.2,0.2-0.5,0.4-0.9,0.4h-6v0.1c0,0.4-0.1,0.8-0.4,1.1
		c-0.2,0.3-0.6,0.4-0.9,0.4c-0.4,0-0.7-0.1-0.9-0.4c-0.3-0.3-0.4-0.6-0.4-1.1v-0.1h-7.5v0.1c0,0.4-0.1,0.8-0.4,1.1
		c-0.2,0.3-0.6,0.4-0.9,0.4c-0.4,0-0.7-0.1-0.9-0.4c-0.3-0.3-0.4-0.6-0.4-1.1v-0.1H443c-0.4,0-0.7-0.1-0.9-0.4
		c-0.2-0.2-0.3-0.6-0.3-0.9c0-0.3,0.1-0.7,0.3-0.9c0.2-0.2,0.5-0.4,0.9-0.4h5.9v-0.6c0-0.4,0.1-0.8,0.4-1.1c0.2-0.3,0.6-0.4,0.9-0.4
		c0.4,0,0.7,0.2,0.9,0.4c0.3,0.3,0.4,0.6,0.4,1.1v0.6h7.5v-0.6c0-0.4,0.1-0.8,0.4-1.1c0.3-0.3,0.6-0.4,0.9-0.4
		c0.4,0,0.7,0.2,0.9,0.4c0.3,0.3,0.4,0.7,0.4,1.1v0.6h6c0.4,0,0.7,0.2,0.9,0.4C468.6,25.5,468.8,25.9,468.8,26.2L468.8,26.2z"/>
	<path id="path6_fill_1_" class="st8" d="M430.8,29.4c0.3,0,0.5,0.1,0.7,0.3c0.2,0.2,0.3,0.4,0.3,0.6v12.3c0,0.2-0.1,0.5-0.3,0.6
		c-0.1,0.1-0.3,0.3-0.6,0.3h-9V29.4H430.8z M409.2,43.2c-0.2-0.2-0.3-0.4-0.3-0.6V30.3c0-0.3,0.1-0.4,0.3-0.6
		c0.2-0.2,0.4-0.3,0.6-0.3h9v14.1h-9C409.6,43.4,409.4,43.4,409.2,43.2L409.2,43.2z M419.3,23.2c-0.3,0.3-0.4,0.7-0.4,1.1v2.1h-10.1
		c-0.7,0-1.4,0.3-1.9,0.8c-0.5,0.5-0.8,1.2-0.8,1.9v14.6c0,0.7,0.3,1.3,0.8,1.8c0.5,0.5,1.2,0.8,1.9,0.8h10.1v3.5
		c0,0.6,0.2,1,0.4,1.2c0.2,0.2,0.6,0.4,1.1,0.4c0.5,0,0.9-0.2,1-0.4c0.2-0.2,0.4-0.7,0.4-1.2v-3.5H432c0.8,0,1.5-0.4,1.9-0.8
		c0.4-0.4,0.8-1.2,0.8-1.9V29.2c0-0.7-0.3-1.4-0.7-1.9c-0.5-0.6-1.2-0.8-2-0.8h-10.1v-2.1c0-0.5-0.1-0.9-0.4-1.1
		c-0.2-0.2-0.7-0.4-1.1-0.4C420,22.8,419.5,23,419.3,23.2L419.3,23.2z"/>
	<path id="path7_fill_1_" class="st8" d="M501.2,30.5c0.2,0,0.3,0.1,0.4,0.2c0.1,0.1,0.2,0.3,0.2,0.5v4.1c0,0.4,0.2,0.9,0.4,1.1
		c0.2,0.2,0.6,0.4,0.9,0.4c0.3,0,0.7-0.2,0.9-0.4c0.2-0.2,0.4-0.6,0.4-1v-4.9c0-0.6-0.2-1.1-0.6-1.6c-0.4-0.4-0.9-0.7-1.5-0.6h-10.9
		v-1.4h9.3c0.3,0,0.6-0.2,0.8-0.4c0.2-0.2,0.3-0.5,0.3-0.8c0-0.2-0.1-0.6-0.3-0.8c-0.2-0.2-0.5-0.3-0.8-0.3h-21.2
		c-0.3,0-0.6,0.1-0.8,0.3c-0.2,0.2-0.3,0.5-0.3,0.8c0,0.3,0.1,0.7,0.3,0.8c0.2,0.2,0.5,0.3,0.8,0.3h9.3v1.4h-10.9
		c-0.5,0-1.1,0.2-1.5,0.6c-0.4,0.4-0.6,1-0.6,1.6v4.9c0,0.4,0.2,0.8,0.4,1c0.2,0.2,0.6,0.4,0.9,0.4c0.3,0,0.7-0.1,0.9-0.4
		c0.2-0.2,0.4-0.6,0.4-1.1v-4.1c0-0.2,0.1-0.4,0.2-0.5c0.1-0.1,0.3-0.2,0.4-0.2h9.8v5c0,0.5,0.2,0.8,0.4,1.1
		c0.2,0.2,0.6,0.4,0.9,0.4c0.3,0,0.7-0.1,0.9-0.4c0.2-0.2,0.4-0.6,0.4-1.1v-5H501.2z M502,49.2h-9.4c-0.3,0-0.7-0.1-1-0.3
		c-0.2-0.3-0.2-0.8-0.2-1.4h8.8c0.4,0,0.9-0.2,1.2-0.6c0.4-0.4,0.6-0.8,0.6-1.3v-6.3c0-0.5-0.2-0.8-0.5-1.1
		c-0.4-0.3-0.8-0.5-1.3-0.5h-20.5c-0.4,0-0.8,0.2-1.1,0.5c-0.3,0.3-0.5,0.7-0.4,1.2v6.3c0,0.5,0.1,0.9,0.4,1.3
		c0.3,0.3,0.6,0.5,1.1,0.6h9.1v1c0,1.1,0.6,1.9,1.1,2.4c0.6,0.5,1.3,0.6,1.9,0.6H502c0.6,0,1.1-0.5,1.1-1.2
		C503.1,49.7,502.6,49.2,502,49.2L502,49.2z M499.5,43.6v0.9c0,0.2-0.1,0.4-0.2,0.5c-0.1,0.1-0.3,0.2-0.5,0.2h-7.4v-1.6H499.5z
		 M498.8,39.8c0.2,0,0.4,0.1,0.6,0.2c0.1,0.1,0.1,0.3,0.1,0.5v0.9h-8.1v-1.7H498.8z M488.8,43.6v1.6h-7.4c-0.2,0-0.4-0.1-0.5-0.2
		c-0.1-0.1-0.2-0.3-0.2-0.5v-0.9H488.8z M480.8,40.4c0-0.2,0-0.4,0.2-0.5c0.1-0.1,0.3-0.2,0.5-0.2h7.4v1.7h-8.1
		C480.7,41.4,480.8,40.5,480.8,40.4L480.8,40.4z M499.7,34.5c0.3,0,0.5,0.1,0.7,0.3c0.2,0.2,0.3,0.4,0.3,0.7c0,0.3-0.1,0.5-0.3,0.7
		c-0.2,0.2-0.4,0.3-0.7,0.3H495c-0.3,0-0.5-0.1-0.7-0.3c-0.2-0.2-0.3-0.4-0.3-0.7c0-0.3,0.1-0.5,0.3-0.7c0.2-0.2,0.4-0.3,0.7-0.3
		H499.7z M498.1,31.6c0.3,0,0.5,0.1,0.7,0.3c0.2,0.2,0.2,0.4,0.2,0.7c0,0.3-0.1,0.5-0.2,0.7c-0.2,0.2-0.4,0.3-0.7,0.3h-4.7
		c-0.3,0-0.5-0.1-0.7-0.3c-0.2-0.2-0.3-0.4-0.3-0.7c0-0.3,0.1-0.5,0.3-0.7c0.2-0.2,0.4-0.3,0.7-0.3H498.1z M487,34.5
		c0.3,0,0.5,0.1,0.7,0.3c0.2,0.2,0.3,0.4,0.3,0.7c0,0.3-0.1,0.5-0.3,0.7c-0.2,0.2-0.4,0.3-0.7,0.3h-4.7c-0.3,0-0.5-0.1-0.7-0.3
		c-0.2-0.2-0.2-0.4-0.2-0.7c0-0.3,0.1-0.5,0.2-0.7c0.2-0.2,0.4-0.3,0.7-0.3H487z M485.3,31.6c0.3,0,0.5,0.1,0.7,0.3
		c0.2,0.2,0.2,0.4,0.2,0.7c0,0.3-0.1,0.5-0.2,0.7c-0.2,0.2-0.4,0.3-0.7,0.3h-4.7c-0.3,0-0.5-0.1-0.7-0.3c-0.2-0.2-0.3-0.4-0.3-0.7
		c0-0.3,0.1-0.5,0.3-0.7c0.2-0.2,0.4-0.3,0.7-0.3H485.3z"/>
</g>
</svg>
