<?xml version="1.0" encoding="utf-8"?>
<!-- Generator: Adobe Illustrator 25.2.1, SVG Export Plug-In . SVG Version: 6.00 Build 0)  -->
<svg version="1.1" id="圖層_1" xmlns="http://www.w3.org/2000/svg" xmlns:xlink="http://www.w3.org/1999/xlink" x="0px" y="0px"
	 width="94px" height="25px" viewBox="0 0 94 25" style="enable-background:new 0 0 94 25;" xml:space="preserve">
<style type="text/css">
	.st0{fill:#FFFFFF;}
	.st1{fill:url(#SVGID_1_);}
	.st2{fill:url(#SVGID_2_);}
	.st3{fill:url(#SVGID_3_);}
	.st4{fill:#0396DF;}
	.st5{fill:#ECA200;}
	.st6{fill:url(#SVGID_4_);}
	.st7{fill:#231815;}
	.st8{filter:url(#Adobe_OpacityMaskFilter);}
	.st9{fill-rule:evenodd;clip-rule:evenodd;fill:#FFFFFF;}
	.st10{mask:url(#mask0_outline_2_);}
	.st11{fill-rule:evenodd;clip-rule:evenodd;fill:#0065A3;}
	.st12{fill-rule:evenodd;clip-rule:evenodd;fill:#231916;}
	.st13{filter:url(#Adobe_OpacityMaskFilter_1_);}
	.st14{mask:url(#mask1_outline_2_);}
	.st15{fill:#024F8D;}
	.st16{fill:#0280FF;}
	.st17{fill-rule:evenodd;clip-rule:evenodd;fill:#0280FF;}
	.st18{fill:#F08C00;}
	.st19{fill:#00AFAA;}
	.st20{fill:#0069A7;}
	.st21{fill:none;stroke:#FFFFFF;stroke-width:0.9458;stroke-miterlimit:10;}
	.st22{fill:#C01334;}
	.st23{fill:#0D131A;}
	.st24{fill:#004F81;}
	.st25{filter:url(#Adobe_OpacityMaskFilter_2_);}
	.st26{mask:url(#mask0_outline_1_);}
	.st27{fill-rule:evenodd;clip-rule:evenodd;fill:#026097;}
	.st28{fill-rule:evenodd;clip-rule:evenodd;fill:#0D131A;}
	.st29{filter:url(#Adobe_OpacityMaskFilter_3_);}
	.st30{mask:url(#mask1_outline_1_);}
	.st31{fill:#E05519;}
	.st32{fill:#DA007F;}
	.st33{fill:#252F3E;}
	.st34{fill:#FF9000;}
	.st35{fill:#1C9951;}
</style>
<g>
	<path class="st18" d="M23.1,1.7c-0.3,0-0.6,0.1-0.9,0.1C21.6,0.7,20.4,0,18.9,0c-1.2,0-2.3,0.7-2.9,1.6c-0.2,0-0.4,0-0.7,0
		c-1.8,0.1-3.2,1.4-3.1,3.1c0.1,1.6,1.6,2.9,3.4,2.9c0.4,0,0.7-0.1,1.1-0.2c0.5,1.1,1.7,1.8,3.1,1.7c1.1,0,2.1-0.6,2.6-1.4
		c0.3,0.1,0.7,0.1,1.1,0.1c1.9-0.1,3.3-1.5,3.3-3.2C26.5,3,25,1.7,23.1,1.7 M12.9,4.7c0,0-0.1-2.6,3-2.6l0.6,1.4
		C16.5,3.5,14.6,2.6,12.9,4.7 M21.1,3.2c0,0-1.3-2.8-4.5-1.4c0,0,0.7-1.4,2.8-1.3c0,0,1.6,0.2,2.3,1.6L21.1,3.2z M23,2.8
		c0,0,2-0.6,2.9,1.6c0,0,0.2,0.4-0.1,1.1C25.6,6,25,6.2,24.9,6.3C24.9,6.3,25.3,4,23,2.8"/>
	<path class="st19" d="M15,23.1c0,0.6-0.2,1-0.5,1.4c-0.4,0.4-0.8,0.5-1.4,0.5c-1.2,0-1.8-0.7-1.8-2v-5.7c0-1.1-0.3-1.9-0.9-2.5
		C9.8,14.3,9,14,7.9,14c-0.7,0-1.4,0.3-2.2,0.9c-0.7,0.5-1.3,1.1-1.7,1.8c-0.2,0.4-0.3,0.7-0.3,0.8V23c0,1.3-0.6,2-1.8,2
		c-0.5,0-1-0.2-1.3-0.6C0.2,24,0,23.6,0,23V5.9c0-1.2,0.6-1.8,1.8-1.8c1.2,0,1.9,0.6,1.9,1.8v7.1c1.3-1.4,3-2.1,5-2.1
		c2,0,3.5,0.5,4.6,1.4c1.2,1,1.7,2.5,1.7,4.4V23.1z"/>
	<path class="st19" d="M21.1,23.1c0,1.2-0.6,1.8-1.8,1.8c-1.2,0-1.8-0.6-1.8-1.9V12.7c0-0.6,0.2-1,0.5-1.3c0.3-0.3,0.8-0.5,1.3-0.5
		c1.2,0,1.8,0.6,1.8,1.8V23.1z"/>
	<path class="st20" d="M38.1,21.2c0,1-0.8,1.9-2.3,2.7c-1.4,0.7-3,1.1-4.9,1.1c-2.2,0-4.1-0.6-5.5-1.7c-1.6-1.2-2.4-3-2.4-5.2
		c0-2.3,0.8-4.1,2.5-5.4c1.5-1.2,3.5-1.8,5.9-1.8c1.5,0,2.9,0.2,4.2,0.7c1.7,0.6,2.5,1.6,2.5,2.9c0,0.4-0.2,0.8-0.5,1.1
		c-0.3,0.3-0.7,0.5-1.1,0.5c-0.5,0-1-0.2-1.5-0.6c-0.9-0.6-1.4-1-1.5-1c-0.7-0.4-1.5-0.6-2.3-0.6c-1.2,0-2.3,0.4-3.1,1.2
		c-0.9,0.8-1.3,1.8-1.3,3c0,1.1,0.5,2,1.4,2.8c0.9,0.7,1.8,1.1,3,1.1c1.1,0,2.1-0.4,3.2-1.1c1-0.8,1.8-1.1,2.4-1.1
		c0.4,0,0.8,0.1,1.1,0.4C38,20.4,38.1,20.8,38.1,21.2"/>
	<path class="st20" d="M43.3,23c0,1.3-0.6,2-1.8,2c-1.2,0-1.8-0.7-1.8-2V6.1c0-1.3,0.6-2,1.8-2c0.6,0,1,0.2,1.4,0.6
		c0.3,0.4,0.5,0.8,0.5,1.4V23z"/>
	<path class="st20" d="M60.7,17.9c0,2-0.8,3.7-2.5,5.1c-1.5,1.3-3.4,1.9-5.4,1.9c-2.1,0-3.9-0.6-5.4-1.9c-1.7-1.4-2.5-3.1-2.5-5.1
		c0-2,0.8-3.7,2.5-5.1c1.5-1.3,3.4-1.9,5.4-1.9c2.1,0,3.9,0.6,5.4,1.9C59.9,14.2,60.7,15.9,60.7,17.9 M57,18c0-1.1-0.4-2.1-1.3-2.9
		c-0.8-0.8-1.8-1.2-2.9-1.2c-1.2,0-2.1,0.4-3,1.2c-0.8,0.8-1.2,1.8-1.2,2.9c0,1.1,0.4,2.1,1.3,2.9c0.8,0.8,1.8,1.2,3,1.2
		c1.1,0,2.1-0.4,3-1.2C56.6,20.1,57,19.1,57,18"/>
	<path class="st20" d="M77,23c0,0.6-0.2,1-0.5,1.4c-0.3,0.4-0.8,0.6-1.3,0.6c-1.3,0-1.9-0.7-1.9-2.1c-1.1,1.4-2.6,2.1-4.5,2.1
		c-4.3,0-6.4-1.8-6.4-5.4v-6.7c0-1.3,0.6-1.9,1.8-1.9c1.3,0,1.9,0.6,1.9,1.9v6c0,2.2,1.1,3.2,3.4,3.2c0.8,0,1.7-0.4,2.5-1.1
		c0.9-0.7,1.3-1.5,1.3-2.3v-5.8c0-1.3,0.6-1.9,1.8-1.9c1.3,0,1.9,0.6,1.9,1.9V23z"/>
	<path class="st20" d="M94,23c0,1.3-0.6,2-1.9,2c-1.2,0-1.8-0.8-1.8-2.5c-0.9,1.7-2.5,2.5-4.8,2.5c-2.1,0-3.8-0.7-5-2
		c-1.2-1.3-1.8-3-1.8-5.2c0-2,0.6-3.7,1.9-5c1.2-1.3,2.9-2,4.9-2c1.8,0,3.5,0.7,4.8,2V5.9c0-1.2,0.6-1.8,1.8-1.8
		c0.6,0,1.1,0.2,1.4,0.5C93.8,4.9,94,5.4,94,6V23z M90.3,17.8c0-1-0.4-1.9-1.2-2.7c-0.8-0.8-1.7-1.2-2.7-1.2c-1.1,0-2.1,0.4-2.9,1.2
		c-0.8,0.8-1.2,1.7-1.2,2.8c0,1.3,0.4,2.3,1.1,3.1c0.7,0.7,1.7,1.1,3,1.1c1.1,0,2-0.4,2.8-1.3C89.9,20,90.3,19,90.3,17.8"/>
</g>
</svg>
