<?xml version="1.0" encoding="utf-8"?>
<!-- Generator: Adobe Illustrator 25.2.1, SVG Export Plug-In . SVG Version: 6.00 Build 0)  -->
<svg version="1.1" id="圖層_1" xmlns="http://www.w3.org/2000/svg" xmlns:xlink="http://www.w3.org/1999/xlink" x="0px" y="0px"
	 width="70px" height="23px" viewBox="0 0 70 23" style="enable-background:new 0 0 70 23;" xml:space="preserve">
<style type="text/css">
	.st0{fill:#FFFFFF;}
	.st1{fill:url(#SVGID_1_);}
	.st2{fill:url(#SVGID_2_);}
	.st3{fill:url(#SVGID_3_);}
	.st4{fill:#0396DF;}
	.st5{fill:#ECA200;}
	.st6{fill:url(#SVGID_4_);}
	.st7{fill:#231815;}
	.st8{filter:url(#Adobe_OpacityMaskFilter);}
	.st9{fill-rule:evenodd;clip-rule:evenodd;fill:#FFFFFF;}
	.st10{mask:url(#mask0_outline_2_);}
	.st11{fill-rule:evenodd;clip-rule:evenodd;fill:#0065A3;}
	.st12{fill-rule:evenodd;clip-rule:evenodd;fill:#231916;}
	.st13{filter:url(#Adobe_OpacityMaskFilter_1_);}
	.st14{mask:url(#mask1_outline_2_);}
	.st15{fill:#024F8D;}
	.st16{fill:#0280FF;}
	.st17{fill-rule:evenodd;clip-rule:evenodd;fill:#0280FF;}
	.st18{fill:#F08C00;}
	.st19{fill:#00AFAA;}
	.st20{fill:#0069A7;}
	.st21{fill:none;stroke:#FFFFFF;stroke-width:0.9458;stroke-miterlimit:10;}
	.st22{fill:#C01334;}
	.st23{fill:#0D131A;}
	.st24{fill:#004F81;}
	.st25{filter:url(#Adobe_OpacityMaskFilter_2_);}
	.st26{mask:url(#mask0_outline_1_);}
	.st27{fill-rule:evenodd;clip-rule:evenodd;fill:#026097;}
	.st28{fill-rule:evenodd;clip-rule:evenodd;fill:#0D131A;}
	.st29{filter:url(#Adobe_OpacityMaskFilter_3_);}
	.st30{mask:url(#mask1_outline_1_);}
	.st31{fill:#E05519;}
	.st32{fill:#DA007F;}
	.st33{fill:#252F3E;}
	.st34{fill:#FF9000;}
	.st35{fill:#1C9951;}
</style>
<g>
	<g>
		<path class="st32" d="M43.1,1.5v4.2h2.3v3.1h-2.3v3.9c0,0.5,0,0.8,0.1,0.9c0.1,0.2,0.4,0.4,0.7,0.4c0.3,0,1-0.3,1.6-0.4v3.1
			c-1,0.2-2,0.3-2.9,0.3c-1,0-1.8-0.1-2.3-0.4c-0.5-0.3-0.8-0.7-1.1-1.2c-0.2-0.6-0.4-1.4-0.4-2.7V8.8h-1.5V5.7h1.5v-2L43.1,1.5z"/>
		<g>
			<path class="st32" d="M0,19.3h0.7c0.6,0,0.8,0.3,0.8,0.7v0.1c0,0.3-0.1,0.4-0.3,0.5c0.2,0.1,0.3,0.3,0.3,0.6v0.2
				c0,0.5-0.3,0.8-0.8,0.8H0V19.3z M0.5,20.5h0.2c0.3,0,0.4-0.1,0.4-0.4c0-0.3-0.1-0.4-0.4-0.4H0.5V20.5z M0.5,21.8h0.2
				c0.4,0,0.4-0.2,0.4-0.5c0-0.3-0.1-0.4-0.4-0.4H0.5V21.8z"/>
			<path class="st32" d="M2.6,20.2l0.3,1.3h0l0.3-1.3h0.5l-0.6,2.4C3,22.9,2.7,23,2.4,23H2.3v-0.4h0.1c0.2,0,0.2-0.1,0.3-0.5
				l-0.6-1.9H2.6z"/>
			<path class="st32" d="M7.1,20.2H6.6v-0.1c0-0.2-0.1-0.3-0.3-0.3C6,19.7,6,19.9,6,20.1c0,0.2,0,0.3,0.3,0.4l0.3,0.1
				C7,20.7,7.1,21,7.1,21.4c0,0.5-0.2,0.8-0.8,0.8c-0.4,0-0.8-0.3-0.8-0.7v-0.2H6v0.1c0,0.1,0.1,0.3,0.3,0.3c0.3,0,0.3-0.2,0.3-0.4
				c0-0.3,0-0.4-0.3-0.4L6,20.8c-0.4-0.1-0.5-0.4-0.5-0.7c0-0.4,0.3-0.8,0.8-0.8c0.5,0,0.8,0.3,0.8,0.6V20.2z"/>
			<path class="st32" d="M7.8,19.5h0.5v0.6h0.3v0.3H8.2v1.1c0,0.2,0.1,0.2,0.3,0.2v0.4H8.3c-0.4,0-0.5-0.3-0.5-0.5v-1.2H7.6v-0.3
				h0.2V19.5z"/>
			<path class="st32" d="M10,22L10,22c-0.1,0.1-0.2,0.2-0.4,0.2c-0.2,0-0.5-0.1-0.5-0.5C9,21.2,9.2,21,9.8,21c0.1,0,0.1,0,0.2,0
				v-0.2c0-0.1-0.1-0.2-0.2-0.2c-0.1,0-0.2,0.1-0.3,0.2H9.1c0-0.2,0.1-0.3,0.2-0.4c0.1-0.1,0.3-0.2,0.5-0.2c0.4,0,0.7,0.2,0.7,0.6
				v1.4H10V22z M10,21.3c0,0-0.1,0-0.1,0c-0.2,0-0.4,0.1-0.4,0.3c0,0.2,0.1,0.3,0.2,0.3c0.2,0,0.2-0.1,0.2-0.3V21.3z"/>
			<path class="st32" d="M11.2,20.2h0.5v0.2c0.2-0.1,0.3-0.2,0.6-0.2v0.4c0,0-0.1,0-0.1,0c-0.2,0-0.5,0.1-0.5,0.4v1.2h-0.5V20.2z"/>
			<path class="st32" d="M12.9,19.5h0.5v0.6h0.3v0.3h-0.3v1.1c0,0.2,0.1,0.2,0.3,0.2v0.4h-0.2c-0.4,0-0.5-0.3-0.5-0.5v-1.2h-0.2
				v-0.3h0.2V19.5z"/>
			<path class="st32" d="M15.5,22.2h-0.5V22h0c-0.1,0.1-0.2,0.2-0.4,0.2c-0.2,0-0.5-0.1-0.5-0.5v-1.6h0.5v1.4c0,0.1,0.1,0.2,0.2,0.2
				c0.2,0,0.2-0.1,0.2-0.3v-1.4h0.5V22.2z"/>
			<path class="st32" d="M16.3,20.2h0.5v0.2c0.1-0.1,0.2-0.2,0.4-0.2c0.2,0,0.3,0.1,0.4,0.2c0.1,0.1,0.1,0.2,0.1,0.4v0.8
				c0,0.3,0,0.4-0.1,0.5c-0.1,0.1-0.2,0.2-0.4,0.2c-0.2,0-0.3-0.1-0.4-0.2h0v1h-0.5V20.2z M17.2,20.8c0-0.2-0.1-0.3-0.2-0.3
				c-0.1,0-0.2,0.1-0.2,0.3v0.8c0,0.1,0.1,0.2,0.2,0.2c0.2,0,0.2-0.1,0.2-0.2V20.8z"/>
			<path class="st32" d="M19.3,20.7c0-0.1-0.1-0.2-0.2-0.2c-0.1,0-0.2,0.1-0.2,0.2c0,0.1,0,0.1,0.2,0.2l0.3,0.1
				c0.3,0.1,0.4,0.3,0.4,0.6c0,0.3-0.3,0.6-0.7,0.6c-0.4,0-0.7-0.2-0.7-0.6h0.4c0,0.1,0.1,0.2,0.2,0.2c0.1,0,0.3-0.1,0.3-0.2
				c0-0.1-0.1-0.2-0.2-0.2l-0.2-0.1c-0.3-0.1-0.5-0.3-0.5-0.6c0-0.3,0.3-0.6,0.7-0.6c0.4,0,0.6,0.3,0.6,0.6H19.3z"/>
			<path class="st32" d="M20.5,21.8h0.5v0.4h-0.5V21.8z"/>
			<path class="st32" d="M23,19.3h1.4v0.4h-0.9v0.9h0.8V21h-0.8v1.2H23V19.3z"/>
			<path class="st32" d="M24.9,20.8c0-0.2,0-0.3,0.1-0.4c0.1-0.2,0.3-0.3,0.6-0.3c0.3,0,0.5,0.1,0.6,0.3c0.1,0.1,0.1,0.2,0.1,0.4
				v0.7c0,0.2,0,0.3-0.1,0.4c-0.1,0.2-0.3,0.3-0.6,0.3c-0.3,0-0.5-0.1-0.6-0.3c-0.1-0.1-0.1-0.2-0.1-0.4V20.8z M25.4,21.6
				c0,0.2,0.1,0.2,0.2,0.2s0.2-0.1,0.2-0.2v-0.8c0-0.2-0.1-0.2-0.2-0.2s-0.2,0.1-0.2,0.2V21.6z"/>
			<path class="st32" d="M27,20.2h0.5v0.2c0.2-0.1,0.3-0.2,0.6-0.2v0.4c0,0-0.1,0-0.1,0c-0.2,0-0.5,0.1-0.5,0.4v1.2H27V20.2z"/>
			<path class="st32" d="M31.4,20.2H31v-0.1c0-0.2-0.1-0.3-0.3-0.3c-0.2,0-0.3,0.2-0.3,0.4c0,0.2,0,0.3,0.3,0.4l0.3,0.1
				c0.4,0.1,0.5,0.4,0.5,0.8c0,0.5-0.2,0.8-0.8,0.8c-0.4,0-0.8-0.3-0.8-0.7v-0.2h0.5v0.1c0,0.1,0.1,0.3,0.3,0.3
				c0.3,0,0.3-0.2,0.3-0.4c0-0.3,0-0.4-0.3-0.4l-0.3-0.1c-0.4-0.1-0.5-0.4-0.5-0.7c0-0.4,0.3-0.8,0.8-0.8c0.5,0,0.8,0.3,0.8,0.6
				V20.2z"/>
			<path class="st32" d="M32.2,19.5h0.5v0.6h0.3v0.3h-0.3v1.1c0,0.2,0.1,0.2,0.3,0.2v0.4h-0.2c-0.4,0-0.5-0.3-0.5-0.5v-1.2h-0.2
				v-0.3h0.2V19.5z"/>
			<path class="st32" d="M34.4,22L34.4,22c-0.1,0.1-0.2,0.2-0.4,0.2c-0.2,0-0.5-0.1-0.5-0.5c0-0.5,0.1-0.7,0.7-0.7
				c0.1,0,0.1,0,0.2,0v-0.2c0-0.1-0.1-0.2-0.2-0.2c-0.1,0-0.2,0.1-0.3,0.2h-0.4c0-0.2,0.1-0.3,0.2-0.4c0.1-0.1,0.3-0.2,0.5-0.2
				c0.4,0,0.7,0.2,0.7,0.6v1.4h-0.5V22z M34.4,21.3c0,0-0.1,0-0.1,0c-0.2,0-0.4,0.1-0.4,0.3c0,0.2,0.1,0.3,0.2,0.3
				c0.2,0,0.2-0.1,0.2-0.3V21.3z"/>
			<path class="st32" d="M35.6,20.2H36v0.2c0.2-0.1,0.3-0.2,0.6-0.2v0.4c0,0-0.1,0-0.1,0c-0.2,0-0.5,0.1-0.5,0.4v1.2h-0.5V20.2z"/>
			<path class="st32" d="M37.2,19.5h0.5v0.6H38v0.3h-0.3v1.1c0,0.2,0.1,0.2,0.3,0.2v0.4h-0.2c-0.4,0-0.5-0.3-0.5-0.5v-1.2H37v-0.3
				h0.2V19.5z"/>
			<path class="st32" d="M39.9,22.2h-0.5V22h0c-0.1,0.1-0.2,0.2-0.4,0.2c-0.2,0-0.5-0.1-0.5-0.5v-1.6H39v1.4c0,0.1,0.1,0.2,0.2,0.2
				c0.2,0,0.2-0.1,0.2-0.3v-1.4h0.5V22.2z"/>
			<path class="st32" d="M40.7,20.2h0.5v0.2c0.1-0.1,0.2-0.2,0.4-0.2c0.2,0,0.3,0.1,0.4,0.2c0.1,0.1,0.1,0.2,0.1,0.4v0.8
				c0,0.3,0,0.4-0.1,0.5c-0.1,0.1-0.2,0.2-0.4,0.2c-0.2,0-0.3-0.1-0.4-0.2h0v1h-0.5V20.2z M41.6,20.8c0-0.2-0.1-0.3-0.2-0.3
				c-0.1,0-0.2,0.1-0.2,0.3v0.8c0,0.1,0.1,0.2,0.2,0.2c0.2,0,0.2-0.1,0.2-0.2V20.8z"/>
			<path class="st32" d="M43.7,20.7c0-0.1-0.1-0.2-0.2-0.2c-0.1,0-0.2,0.1-0.2,0.2c0,0.1,0,0.1,0.2,0.2l0.3,0.1
				c0.3,0.1,0.4,0.3,0.4,0.6c0,0.3-0.3,0.6-0.7,0.6c-0.4,0-0.7-0.2-0.7-0.6h0.4c0,0.1,0.1,0.2,0.2,0.2c0.1,0,0.3-0.1,0.3-0.2
				c0-0.1-0.1-0.2-0.2-0.2l-0.2-0.1c-0.3-0.1-0.5-0.3-0.5-0.6c0-0.3,0.3-0.6,0.7-0.6c0.4,0,0.6,0.3,0.6,0.6H43.7z"/>
			<path class="st32" d="M44.8,21.8h0.5v0.4h-0.5V21.8z"/>
		</g>
		<polygon class="st32" points="10.7,1.5 8.4,10.9 6.1,1.5 0,1.5 0,17 3.8,17 3.8,5.2 6.7,17 10.1,17 13,5.2 13,17 16.8,17 
			16.8,1.5 		"/>
		<path class="st32" d="M26.8,7.3h-6.2c0.1,0.5,0.2,0.9,0.4,1.2c0.3,0.4,0.7,0.6,1.2,0.6c0.3,0,0.6-0.1,0.9-0.2
			c0.2-0.1,0.3-0.3,0.5-0.5l3.1,0.3c-0.5,0.9-1,1.5-1.7,1.9C24.2,10.8,23.3,11,22,11c-1.1,0-1.9-0.2-2.5-0.5
			C18.9,10.2,18.4,9.7,18,9c-0.4-0.7-0.6-1.5-0.6-2.5c0-1.3,0.4-2.4,1.2-3.3C19.4,2.4,20.5,2,21.9,2c1.2,0,2.1,0.2,2.7,0.6
			c0.7,0.4,1.2,0.9,1.5,1.6c0.4,0.7,0.5,1.6,0.5,2.8V7.3z M23.6,5.8c-0.1-0.6-0.2-1.1-0.5-1.4c-0.3-0.3-0.6-0.4-1-0.4
			c-0.5,0-0.9,0.2-1.2,0.6c-0.2,0.3-0.3,0.6-0.4,1.2H23.6z"/>
		<path class="st32" d="M36.9,7.3h-6.2c0.1,0.5,0.2,0.9,0.4,1.2c0.3,0.4,0.7,0.6,1.2,0.6c0.3,0,0.6-0.1,0.9-0.2
			c0.2-0.1,0.3-0.3,0.5-0.5l3.1,0.3c-0.5,0.9-1,1.5-1.7,1.9c-0.7,0.4-1.6,0.6-2.8,0.6c-1.1,0-1.9-0.2-2.5-0.5
			C29,10.2,28.5,9.7,28.1,9c-0.4-0.7-0.6-1.5-0.6-2.5c0-1.3,0.4-2.4,1.2-3.3C29.5,2.4,30.6,2,32.1,2c1.2,0,2.1,0.2,2.7,0.6
			C35.5,3,36,3.5,36.3,4.2c0.4,0.7,0.5,1.6,0.5,2.8V7.3z M33.7,5.8c-0.1-0.6-0.2-1.1-0.5-1.4C33,4.1,32.6,4,32.2,4
			c-0.5,0-0.9,0.2-1.2,0.6c-0.2,0.3-0.3,0.6-0.4,1.2H33.7z"/>
		<path class="st32" d="M27.1,17c-5.6,0-9-3.6-9.2-3.8c-0.3-0.3-0.3-0.8,0.1-1.1c0.3-0.3,0.9-0.3,1.2,0.1c0.1,0.1,3.1,3.2,7.9,3.2
			c4.8,0,8-3.2,8-3.3c0.3-0.3,0.8-0.4,1.2-0.1c0.3,0.3,0.4,0.8,0.1,1.1C36.2,13.3,32.7,17,27.1,17z"/>
	</g>
	<g>
		<g>
			<path class="st32" d="M70,7.2C70,7.7,69.7,8,69.2,8H47.6c-0.4,0-0.8-0.4-0.8-0.8V0.8c0-0.4,0.3-0.8,0.8-0.8h21.7
				C69.7,0,70,0.4,70,0.8V7.2z"/>
			<path class="st32" d="M46.9,5.9c0,0-0.9,2.7-0.8,2.9C46.3,8.9,49,8,49,8L46.9,5.9z"/>
		</g>
		<g>
			<path class="st0" d="M49.2,4.8c0,0.1,0,0.1,0,0.2h1.9v1.4h-0.4V6.2h-1.1v0.2h-0.4V5.1c-0.1,0.4-0.2,0.8-0.4,1.1
				c-0.1-0.1-0.3-0.2-0.4-0.2c0.4-0.6,0.4-1.5,0.4-2.1V3.2h2.2v1.6H49.2z M50.2,1.8c0,0-0.1,0.1-0.1,0.1c0.4,0.2,0.8,0.5,1.1,0.7
				L51,3.1c-0.2-0.2-0.7-0.5-1.1-0.8c-0.1,0.1-0.3,0.3-0.4,0.4h1V3h-1.1V2.8c-0.3,0.2-0.5,0.4-0.8,0.5c0-0.1-0.2-0.4-0.3-0.5
				c0.6-0.3,1.2-0.7,1.5-1.2L50.2,1.8z M50.5,4.5V4.2h-1.3c0,0.1,0,0.2,0,0.3H50.5z M49.2,3.6v0.3h1.3V3.6H49.2z M49.5,5.4v0.5h1.1
				V5.4H49.5z M51.9,5.1h-0.4V2.2h0.4V5.1z M52.9,1.6v4.2c0,0.3-0.1,0.4-0.2,0.5c-0.2,0.1-0.4,0.1-0.8,0.1c0-0.1-0.1-0.4-0.2-0.5
				c0.3,0,0.6,0,0.6,0c0.1,0,0.1,0,0.1-0.1V1.6H52.9z"/>
			<path class="st0" d="M55.4,5.6c-0.4,0.3-1,0.6-1.5,0.7c-0.1-0.1-0.2-0.3-0.3-0.4c0.5-0.1,1.1-0.3,1.5-0.5L55.4,5.6z M58.1,4.8
				v0.4h-2v1.2h-0.5V5.2h-2V4.8h2V4.5h-1.5V4.1h1.5V3.8h-1.8V3.4h1c-0.1-0.1-0.1-0.3-0.2-0.5L55,2.9h-1.3V2.5h0.8
				C54.3,2.3,54.2,2,54,1.8l0.4-0.1c0.2,0.2,0.3,0.5,0.4,0.8l-0.3,0.1h0.6V1.6h0.4v0.9h0.5V1.6h0.5v0.9h0.6l-0.2-0.1
				c0.1-0.2,0.3-0.5,0.4-0.8l0.5,0.1c-0.1,0.3-0.3,0.5-0.4,0.7h0.7v0.4h-1.3L57.2,3c-0.1,0.2-0.2,0.3-0.3,0.4h1.1v0.4h-1.8v0.3h1.6
				v0.4h-1.6v0.3H58.1z M55.1,2.9c0.1,0.1,0.2,0.3,0.2,0.5l-0.2,0.1h1.4l-0.2-0.1c0.1-0.1,0.2-0.3,0.3-0.5H55.1z M56.7,5.4
				c0.5,0.2,1.1,0.4,1.4,0.6l-0.3,0.3c-0.3-0.2-0.9-0.4-1.4-0.6L56.7,5.4z"/>
			<path class="st0" d="M60,3c-0.2,0.8-0.5,1.7-0.9,2.3c-0.1-0.1-0.3-0.2-0.4-0.3c0.4-0.5,0.7-1.5,0.8-2.2L60,3z M61.3,1.7v4.1
				c0,0.3-0.1,0.5-0.3,0.6c-0.2,0.1-0.5,0.1-1,0.1c0-0.1-0.1-0.4-0.2-0.5c0.4,0,0.7,0,0.8,0c0.1,0,0.1,0,0.1-0.1V1.7H61.3z
				 M62.4,2.8c0.4,0.7,0.9,1.7,1,2.3l-0.5,0.2C62.8,4.7,62.4,3.8,62,3L62.4,2.8z"/>
			<path class="st0" d="M65.6,3.6c-0.6,0.1-1.3,0.1-1.7,0.2l-0.1-0.4c0.1,0,0.3,0,0.5,0V2.1h-0.4V1.7h2.5v0.4H66v1.8h-0.4V3.6z
				 M65.2,4.7c0,0.1-0.1,0.2-0.1,0.4c0.2,0.2,0.5,0.5,0.6,0.7L65.4,6c-0.1-0.2-0.3-0.4-0.5-0.6c-0.2,0.3-0.5,0.6-0.8,0.8
				c0-0.1-0.1-0.3-0.2-0.5c0.4-0.2,0.8-0.6,0.9-1.1L65.2,4.7z M67.9,4.1c-0.4,0.1-1,0.2-1.6,0.2v2h-0.5v-2c-0.5,0.1-1,0.1-1.5,0.1
				c-0.1-0.1-0.2-0.3-0.3-0.4c1.1,0,2.6-0.1,3.4-0.3L67.9,4.1z M64.7,2.1v0.2h0.9V2.1H64.7z M64.7,2.8h0.9V2.6h-0.9V2.8z M65.6,3.3
				V3.1h-0.9v0.3L65.6,3.3z M66.6,2.4c0.2,0.1,0.5,0.2,0.7,0.4c0.2-0.1,0.3-0.3,0.4-0.5h-1.3V1.9h1.5l0.1,0L68.3,2
				c-0.1,0.4-0.4,0.7-0.6,1c0.3,0.2,0.6,0.4,0.7,0.5l-0.3,0.3c-0.2-0.2-0.4-0.4-0.7-0.6c-0.3,0.2-0.6,0.4-1,0.5
				c-0.1-0.1-0.2-0.3-0.3-0.3C66.4,3.4,66.7,3.2,67,3c-0.2-0.1-0.5-0.3-0.7-0.4L66.6,2.4z M67.8,4.5c0,0.1-0.1,0.3-0.1,0.4
				c0.2,0.3,0.5,0.6,0.8,0.8c-0.1,0.1-0.2,0.2-0.3,0.3c-0.3-0.2-0.5-0.5-0.7-0.8c-0.2,0.3-0.5,0.6-0.8,0.8c0-0.1-0.1-0.3-0.2-0.5
				c0.4-0.3,0.8-0.7,0.9-1.3L67.8,4.5z"/>
		</g>
	</g>
</g>
</svg>
