<?xml version="1.0" encoding="utf-8"?>
<!-- Generator: Adobe Illustrator 25.2.3, SVG Export Plug-In . SVG Version: 6.00 Build 0)  -->
<svg version="1.1" id="圖層_1" xmlns="http://www.w3.org/2000/svg" xmlns:xlink="http://www.w3.org/1999/xlink" x="0px" y="0px"
	 width="80px" height="80px" viewBox="0 0 80 80" style="enable-background:new 0 0 80 80;" xml:space="preserve">
<style type="text/css">
	.st0{fill:#1C9951;}
	.st1{fill:#FFFFFF;}
</style>
<g>
	<path class="st0" d="M62.9,80H17.1C7.7,80,0,72.3,0,62.9V17.1C0,7.7,7.7,0,17.1,0H63c9.3,0,17,7.7,17,17.1V63
		C80,72.3,72.3,80,62.9,80z"/>
	<g>
		<path class="st1" d="M6.7,25.9H12c0.5,0,1,0.1,1.4,0.2c0.4,0.1,0.8,0.3,1.2,0.5c0.3,0.2,0.6,0.5,0.8,0.9c0.2,0.4,0.3,0.8,0.3,1.2
			c0,0.7-0.2,1.4-0.5,1.8s-0.9,0.8-1.6,1v0c0.2,0.1,0.4,0.2,0.6,0.3c0.1,0.1,0.3,0.3,0.4,0.5s0.2,0.4,0.3,0.7
			c0.1,0.3,0.2,0.6,0.3,0.9l1.1,3H13l-0.6-2c-0.1-0.5-0.3-0.9-0.4-1.2c-0.1-0.3-0.3-0.6-0.4-0.7s-0.3-0.3-0.5-0.4
			c-0.2-0.1-0.4-0.1-0.7-0.1H9.6V37h-3V25.9z M9.6,30.5h0.8c0.2,0,0.5,0,0.7,0c0.3,0,0.5-0.1,0.7-0.2s0.4-0.2,0.5-0.4
			s0.2-0.4,0.2-0.7c0-0.3-0.1-0.5-0.2-0.6c-0.1-0.2-0.3-0.3-0.5-0.4c-0.2-0.1-0.4-0.1-0.7-0.2c-0.3,0-0.5,0-0.8,0H9.6V30.5z"/>
		<path class="st1" d="M19.8,33.7c0.1,0.6,0.3,1,0.8,1.2c0.4,0.2,1,0.4,1.7,0.4c0.4,0,0.8,0,1.2-0.1c0.4-0.1,0.9-0.3,1.3-0.5v2
			c-0.5,0.2-1,0.3-1.5,0.4c-0.5,0.1-1,0.1-1.6,0.1c-0.7,0-1.3-0.1-1.9-0.3c-0.6-0.2-1.1-0.5-1.5-0.9c-0.4-0.4-0.8-0.8-1-1.4
			c-0.2-0.5-0.4-1.2-0.4-1.9c0-0.7,0.1-1.3,0.3-1.8c0.2-0.5,0.5-1,0.9-1.4s0.9-0.7,1.4-0.8c0.5-0.2,1.1-0.3,1.8-0.3
			c0.8,0,1.4,0.1,2,0.4s1,0.6,1.3,1c0.3,0.4,0.6,0.9,0.7,1.5c0.1,0.6,0.2,1.2,0.2,1.8v0.5H19.8z M23,32.1c0-0.5-0.1-0.9-0.4-1.2
			c-0.2-0.3-0.7-0.5-1.2-0.5c-0.5,0-0.9,0.2-1.2,0.5c-0.3,0.3-0.4,0.8-0.4,1.2H23z"/>
		<path class="st1" d="M35.9,36.1c0,0.9-0.1,1.6-0.3,2.2s-0.5,1-0.9,1.4c-0.4,0.4-0.9,0.6-1.6,0.8c-0.6,0.1-1.4,0.2-2.2,0.2
			c-0.7,0-1.3-0.1-1.9-0.2s-1-0.2-1.3-0.4l0.1-2.3c0.4,0.2,0.9,0.4,1.3,0.5s0.9,0.2,1.5,0.2c0.8,0,1.5-0.2,1.9-0.6
			c0.4-0.4,0.7-1,0.7-1.8v-0.4h0c-0.3,0.5-0.8,0.9-1.2,1.1c-0.5,0.2-1,0.3-1.6,0.3c-0.6,0-1.1-0.1-1.6-0.3s-0.8-0.5-1.2-0.9
			c-0.3-0.4-0.6-0.8-0.7-1.3c-0.2-0.5-0.3-1.1-0.3-1.7c0-0.6,0.1-1.2,0.2-1.7c0.1-0.5,0.4-1,0.7-1.4s0.7-0.7,1.2-0.9
			c0.5-0.2,1-0.3,1.7-0.3c0.6,0,1.2,0.2,1.7,0.5c0.5,0.3,0.9,0.7,1.2,1.2h0v-1.5h2.6V36.1z M29.8,33.7c0.1,0.3,0.2,0.5,0.4,0.6
			c0.1,0.2,0.3,0.3,0.5,0.4c0.2,0.1,0.4,0.1,0.6,0.1c0.3,0,0.5-0.1,0.7-0.2c0.2-0.1,0.4-0.2,0.6-0.4c0.2-0.2,0.3-0.4,0.4-0.7
			c0.1-0.3,0.1-0.6,0.1-0.9c0-0.2,0-0.5-0.1-0.7c-0.1-0.2-0.2-0.4-0.3-0.6c-0.1-0.2-0.3-0.3-0.6-0.5c-0.2-0.1-0.5-0.2-0.8-0.2
			c-0.3,0-0.5,0.1-0.7,0.2c-0.2,0.1-0.4,0.3-0.5,0.4c-0.1,0.2-0.2,0.4-0.3,0.7c-0.1,0.3-0.1,0.5-0.1,0.8
			C29.7,33.1,29.7,33.4,29.8,33.7z"/>
		<path class="st1" d="M41,27.3h-2.9v-2.1H41V27.3z M38.1,28.7H41V37h-2.9V28.7z"/>
		<path class="st1" d="M43,34.7c0.3,0.1,0.7,0.3,1.2,0.4c0.5,0.1,1,0.2,1.5,0.2c0.3,0,0.6,0,0.8-0.1c0.2-0.1,0.4-0.3,0.4-0.6
			c0-0.2-0.1-0.4-0.3-0.5c-0.2-0.1-0.5-0.2-0.8-0.3c-0.3-0.1-0.6-0.2-1-0.3c-0.4-0.1-0.7-0.2-1-0.4s-0.6-0.4-0.8-0.7
			s-0.3-0.7-0.3-1.2c0-0.5,0.1-0.9,0.3-1.2c0.2-0.3,0.5-0.6,0.8-0.8c0.3-0.2,0.7-0.4,1.1-0.5c0.4-0.1,0.8-0.2,1.3-0.2
			c0.5,0,1,0,1.5,0.1s1,0.2,1.4,0.4L49,31c-0.3-0.2-0.7-0.3-1.1-0.4c-0.4-0.1-0.8-0.1-1.2-0.1c-0.2,0-0.3,0-0.5,0
			c-0.2,0-0.3,0-0.4,0.1c-0.1,0-0.2,0.1-0.3,0.2s-0.1,0.2-0.1,0.3c0,0.2,0.1,0.4,0.3,0.5s0.5,0.2,0.8,0.3s0.7,0.2,1,0.3
			s0.7,0.2,1,0.4c0.3,0.2,0.6,0.4,0.8,0.8c0.2,0.3,0.3,0.7,0.3,1.3c0,0.6-0.1,1-0.3,1.4c-0.2,0.4-0.5,0.6-0.9,0.9
			c-0.4,0.2-0.8,0.4-1.2,0.4s-0.9,0.1-1.4,0.1c-0.7,0-1.2,0-1.7-0.1c-0.5-0.1-0.9-0.2-1.3-0.3L43,34.7z"/>
		<path class="st1" d="M50.4,28.7h1.7v-1.9l2.8-0.9v2.8h2v2h-2v3.1c0,0.5,0.1,0.9,0.2,1.1c0.2,0.3,0.5,0.4,0.9,0.4
			c0.1,0,0.3,0,0.4,0c0.1,0,0.3-0.1,0.4-0.1l0.1,1.8c-0.3,0-0.6,0.1-0.8,0.1s-0.6,0.1-1,0.1c-0.6,0-1.2-0.1-1.6-0.2s-0.7-0.3-1-0.6
			c-0.2-0.3-0.4-0.6-0.5-1s-0.1-0.8-0.1-1.3v-3.4h-1.7V28.7z"/>
		<path class="st1" d="M60.8,33.7c0.1,0.6,0.3,1,0.8,1.2c0.4,0.2,1,0.4,1.7,0.4c0.4,0,0.8,0,1.2-0.1s0.9-0.3,1.3-0.5v2
			c-0.5,0.2-1,0.3-1.5,0.4s-1,0.1-1.6,0.1c-0.7,0-1.3-0.1-1.9-0.3c-0.6-0.2-1.1-0.5-1.5-0.9c-0.4-0.4-0.8-0.8-1-1.4
			c-0.2-0.5-0.4-1.2-0.4-1.9c0-0.7,0.1-1.3,0.3-1.8c0.2-0.5,0.5-1,0.9-1.4c0.4-0.4,0.9-0.7,1.4-0.8s1.1-0.3,1.8-0.3
			c0.8,0,1.4,0.1,2,0.4c0.5,0.3,1,0.6,1.3,1c0.3,0.4,0.6,0.9,0.7,1.5s0.2,1.2,0.2,1.8v0.5H60.8z M64,32.1c0-0.5-0.1-0.9-0.4-1.2
			c-0.2-0.3-0.7-0.5-1.2-0.5c-0.5,0-0.9,0.2-1.2,0.5c-0.3,0.3-0.4,0.8-0.4,1.2H64z"/>
		<path class="st1" d="M74,31c-0.2-0.1-0.3-0.1-0.5-0.1c-0.2,0-0.3,0-0.5,0c-0.7,0-1.2,0.2-1.6,0.7S71,32.7,71,33.5V37h-2.9v-8.4
			h2.6v1.5h0c0.2-0.5,0.6-1,0.9-1.3c0.4-0.3,0.9-0.5,1.5-0.5c0.2,0,0.3,0,0.5,0s0.3,0,0.5,0.1L74,31z"/>
		<path class="st1" d="M21.9,45.1h3.8l3.8,7.6h0l0-7.6h2.7v11.2h-3.7l-3.9-7.6h0l0.1,7.6h-2.7V45.1z"/>
		<path class="st1" d="M36.7,56.2c-0.6-0.2-1.1-0.5-1.5-0.8c-0.4-0.4-0.8-0.8-1-1.4c-0.2-0.5-0.4-1.2-0.4-1.9c0-0.7,0.1-1.3,0.4-1.9
			c0.2-0.5,0.6-1,1-1.4c0.4-0.4,1-0.7,1.5-0.9c0.6-0.2,1.2-0.3,1.9-0.3c0.7,0,1.3,0.1,1.9,0.3c0.6,0.2,1.1,0.5,1.5,0.9
			c0.4,0.4,0.8,0.8,1,1.4c0.2,0.5,0.4,1.2,0.4,1.9c0,0.7-0.1,1.3-0.4,1.9c-0.2,0.5-0.6,1-1,1.4c-0.4,0.4-1,0.7-1.5,0.8
			c-0.6,0.2-1.2,0.3-1.9,0.3C38,56.5,37.3,56.4,36.7,56.2z M39.5,54.3c0.2-0.1,0.4-0.3,0.6-0.5c0.2-0.2,0.3-0.5,0.3-0.7
			c0.1-0.3,0.1-0.6,0.1-0.9c0-0.3,0-0.6-0.1-0.9c-0.1-0.3-0.2-0.5-0.3-0.8c-0.2-0.2-0.4-0.4-0.6-0.5c-0.2-0.1-0.5-0.2-0.9-0.2
			c-0.3,0-0.6,0.1-0.8,0.2c-0.2,0.1-0.4,0.3-0.6,0.5c-0.2,0.2-0.3,0.5-0.3,0.8c-0.1,0.3-0.1,0.6-0.1,0.9c0,0.3,0,0.6,0.1,0.9
			c0.1,0.3,0.2,0.5,0.3,0.7c0.2,0.2,0.4,0.4,0.6,0.5c0.2,0.1,0.5,0.2,0.8,0.2C39,54.5,39.3,54.4,39.5,54.3z"/>
		<path class="st1" d="M44.2,47.9h3l1.3,6h0l1.4-6h3.5l1.4,6h0l1.3-6H59l-2.5,8.4h-3.4l-1.4-6h0l-1.6,6h-3.4L44.2,47.9z"/>
	</g>
</g>
</svg>
