<?xml version="1.0" encoding="utf-8"?>
<!-- Generator: Adobe Illustrator 16.0.0, SVG Export Plug-In . SVG Version: 6.00 Build 0)  -->
<!DOCTYPE svg PUBLIC "-//W3C//DTD SVG 1.1//EN" "http://www.w3.org/Graphics/SVG/1.1/DTD/svg11.dtd">
<svg version="1.1" id="圖層_1" xmlns="http://www.w3.org/2000/svg" xmlns:xlink="http://www.w3.org/1999/xlink" x="0px" y="0px"
	 width="546.199px" height="279.233px" viewBox="0 0 546.199 279.233" enable-background="new 0 0 546.199 279.233"
	 xml:space="preserve">
<linearGradient id="SVGID_1_" gradientUnits="userSpaceOnUse" x1="0.054" y1="698.2007" x2="220.967" y2="698.2007" gradientTransform="matrix(1 0 0 1 -0.02 -589.9053)">
	<stop  offset="0.0827" style="stop-color:#08559D"/>
	<stop  offset="1" style="stop-color:#2D9ED8"/>
</linearGradient>
<path fill="url(#SVGID_1_)" d="M42.8,45.9L22.9,109c0,0-0.899,3.2,1.301,3.8c2.199,0.6,12.6-6.2,30-4.7c17.5,1.5,23.8,6.9,23.699,15
	c-0.199,8.101-3.399,28.3-32.8,29.3c-29.5,0.9-34.2-5.6-36.2-5.4c-2,0.201-3.199,1.701-3.8,3.4c-0.6,1.7-5.7,15-5,16.9
	S1.7,169.5,3.3,170C4.9,170.6,64,187.6,94.8,150.4c0,0,3.8,20.301,35.7,23.1C162.4,176.3,190.8,166,193.4,163
	C196,160,200,144.8,200,144.8l7.7-24.2c0,0,2.399-5.1-1.5-5.1c-3.9,0-46.4,0.2-46.4,0.2s-5.4,0.4-6.2,3c-0.8,2.6-3.6,11.6-3.6,11.6
	s-0.2,3.9,2.8,3.8c3-0.2,27.6-0.601,27.6-0.601l-5.6,19.101c0,0-39.2,9.399-49-2.399c-9.8-11.801-12.2-21.4,1.7-46.701
	c13.899-25.3,50.3-22.5,55-21.4s16.899,4.7,22,8.3c5.1,3.6,6.399,5.6,9,4.9c2.6-0.7,9-17.8,7.1-21c-1.899-3.2-74.5-34-117.899,30
	c0,0-10.101-22.7-47.101-16.7c0,0-3.8,0.2-3.2-2.6c0.601-2.8,5.4-17.1,5.4-17.1s0.4-3.2,4.7-3.2s47.899,0,47.899,0s5,0.8,6.101-2.6
	c1.1-3.4,5.1-15,5.1-15s1.3-4.9-2.3-4.9s-72.1,0-72.1,0S43.8,42.9,42.8,45.9z"/>
<linearGradient id="SVGID_2_" gradientUnits="userSpaceOnUse" x1="165.6975" y1="648.5522" x2="270.438" y2="645.1735" gradientTransform="matrix(1 0 0 1 -0.02 -589.9053)">
	<stop  offset="0" style="stop-color:#1880C2"/>
	<stop  offset="0.2306" style="stop-color:#1B81C3"/>
	<stop  offset="0.4187" style="stop-color:#2586C5"/>
	<stop  offset="0.5918" style="stop-color:#368EC9"/>
	<stop  offset="0.7559" style="stop-color:#4E99CE"/>
	<stop  offset="0.9123" style="stop-color:#6DA7D4"/>
	<stop  offset="1" style="stop-color:#82B1D9"/>
</linearGradient>
<path fill="url(#SVGID_2_)" d="M220.3,44.8c-15.4,1.2-30,0.4-42.2,1.2c-29.5,1.9-53.5,26.3-53.5,26.3
	c28.8-23.5,67.601-19.5,77.5-18.4c9.9,1.1,36.7,9.4,60.101,6.8C282,58.4,304.9,42,304.9,42C263.4,60.6,238.2,51.9,220.3,44.8z"/>
<linearGradient id="SVGID_3_" gradientUnits="userSpaceOnUse" x1="124.7205" y1="634.7046" x2="284.8206" y2="634.7046" gradientTransform="matrix(1 0 0 1 -0.02 -589.9053)">
	<stop  offset="0" style="stop-color:#169543"/>
	<stop  offset="0.2063" style="stop-color:#199645"/>
	<stop  offset="0.3747" style="stop-color:#239A49"/>
	<stop  offset="0.5296" style="stop-color:#34A151"/>
	<stop  offset="0.6765" style="stop-color:#4CAA5D"/>
	<stop  offset="0.8178" style="stop-color:#6CB66B"/>
	<stop  offset="0.9531" style="stop-color:#91C57D"/>
	<stop  offset="1" style="stop-color:#A0CB84"/>
</linearGradient>
<path fill="url(#SVGID_3_)" d="M170.8,45.2c0,0,16.7-9.9,35.3-5.4c4.2,1,8.9,3,14.2,5c22-1.7,45.3-7.4,64.5-27.4
	c0,0-27.8,18-50.5,16.7c-9.7-0.6-18.8-1.7-26.7-2.6c-12.7,5.2-32.7,8-51.6,13.3c-21.4,6-31.3,27.4-31.3,27.4S137.6,48.1,170.8,45.2z
	"/>
<path fill="#0397E0" d="M178.2,46c12.1-0.8,26.8,0,42.199-1.2c-5.3-2.1-9.899-4-14.199-5C187.6,35.3,170.9,45.2,170.9,45.2
	C137.7,48,124.7,72.2,124.7,72.2S148.7,47.9,178.2,46z"/>
<path fill="#EDA300" d="M166.5,39.6c0,0,7.5-7.3,16.7-9.2c5.3-1.1,13.8-0.1,24.3,1.1c1.7-0.7,3.3-1.5,4.8-2.3
	c12-6.8,24.4-15.4,29.3-29.3c0,0-11.5,16.3-28.2,20.3c-16.699,3.9-44.699,1.1-53.5,15.4c0,0-33,12.6-35.3,36.6
	C137.2,41.3,166.5,39.6,166.5,39.6z"/>
<linearGradient id="SVGID_4_" gradientUnits="userSpaceOnUse" x1="156.491" y1="639.9692" x2="202.9481" y2="619.697" gradientTransform="matrix(1 0 0 1 -0.02 -589.9053)">
	<stop  offset="0" style="stop-color:#169543"/>
	<stop  offset="0.1842" style="stop-color:#3DA333"/>
	<stop  offset="0.4547" style="stop-color:#70B51F"/>
	<stop  offset="0.6906" style="stop-color:#96C210"/>
	<stop  offset="0.8803" style="stop-color:#ADCA06"/>
	<stop  offset="1" style="stop-color:#B5CD03"/>
</linearGradient>
<path fill="url(#SVGID_4_)" d="M156,44.9c18.8-5.3,38.8-8.1,51.6-13.3c-10.6-1.3-19.1-2.2-24.3-1.1c-9.2,1.9-16.7,9.2-16.7,9.2
	s-29.3,1.7-41.899,32.7C124.7,72.3,134.6,50.9,156,44.9z"/>
<polygon fill="#231815" points="294.3,77.8 276.7,77.8 227.9,164.1 245.5,164.1 "/>
<polygon fill="#231815" points="303.699,106.3 286.1,106.3 231.1,203.6 248.7,203.6 "/>
<polygon fill="#231815" points="316.3,166.4 350.3,106.3 332.6,106.3 298.699,166.4 "/>
<polygon fill="#231815" points="292.7,166.4 326.6,106.3 309,106.3 275,166.4 "/>
<polygon fill="#231815" points="354.5,145.3 370.199,117.6 352.5,117.6 336.8,145.3 "/>
<polygon fill="#231815" points="338.199,190.701 363.8,145.3 346.199,145.3 320.6,190.701 "/>
<polygon fill="#231815" points="379,158.4 402.1,117.6 383.5,117.6 360.4,158.4 "/>
<polygon fill="#231815" points="468.9,129.6 486.9,97.7 470.1,97.7 452.1,129.6 "/>
<polygon fill="#231815" points="523,139.4 526.199,133.1 450.6,133.1 447.1,139.4 "/>
<polygon fill="#231815" points="488.9,129.6 506.9,97.7 490,97.7 472.1,129.6 "/>
<polygon fill="#231815" points="508.199,129.6 526.199,97.7 509.3,97.7 491.3,129.6 "/>
<polygon fill="#231815" points="528.199,129.6 546.199,97.7 529.3,97.7 511.3,129.6 "/>
<polygon fill="#231815" points="424.8,158.4 447.9,117.6 429.199,117.6 406.1,158.4 "/>
<polygon fill="#231815" points="382.6,190.701 435.1,97.7 419.699,97.7 367.199,190.701 "/>
<rect x="383.5" y="117.6" fill="#231815" width="57.699" height="6"/>
<rect x="363.8" y="152.5" fill="#231815" width="57.7" height="6"/>
<polygon fill="#231815" points="386,163.1 367.199,163.1 347.199,178.6 366.6,178.6 "/>
<polygon fill="#231815" points="251,106.3 247.1,113 285.9,113 290.7,106.3 "/>
<polygon fill="#231815" points="389.9,106.3 386,113 450.5,113 454.199,106.3 "/>
<polygon fill="#231815" points="335.1,184 331.199,190.701 407.1,190.701 410.9,184 "/>
<polygon fill="#231815" points="324.1,106.3 320.199,113 339.6,113 344.4,106.3 "/>
<polygon fill="#231815" points="290.5,159.701 286.6,166.4 306,166.4 310.8,159.701 "/>
<polygon fill="#231815" points="443.699,199.201 403.3,153.201 395.6,158.4 392.699,164.9 395.9,167.1 424.699,199.201 "/>
<rect x="462.9" y="124.4" fill="#231815" width="20.7" height="5.2"/>
<rect x="505.5" y="124.4" fill="#231815" width="20.699" height="5.2"/>
<rect x="479.199" y="97.7" fill="#231815" width="20.7" height="5.2"/>
<rect x="521.699" y="97.7" fill="#231815" width="20.7" height="5.2"/>
<polygon fill="#231815" points="439.3,190.201 457.3,158.4 440.4,158.4 422.4,190.201 "/>
<polygon fill="#231815" points="459.3,190.201 477.3,158.4 460.4,158.4 442.4,190.201 "/>
<polygon fill="#231815" points="478.6,190.201 496.6,158.4 479.699,158.4 461.699,190.201 "/>
<polygon fill="#231815" points="498.6,190.201 516.6,158.4 499.699,158.4 481.699,190.201 "/>
<rect x="433.3" y="185.1" fill="#231815" width="20.7" height="5.2"/>
<rect x="475.8" y="185.1" fill="#231815" width="20.7" height="5.2"/>
<rect x="449.5" y="158.4" fill="#231815" width="20.699" height="5.2"/>
<rect x="492.1" y="158.4" fill="#231815" width="20.7" height="5.2"/>
<polygon fill="#231815" points="433.9,160.8 458.9,160.8 503.699,128.6 503.699,127.8 479.9,127.8 478.3,129.6 "/>
<polygon fill="#231815" points="522.699,163.9 498.699,136.3 485.8,138 485.3,141.8 504.699,163.9 "/>
<path id="path1_fill_1_" fill="#0065A4" d="M326.6,44.4H316c0,0.6,0,1.2,0,1.7c0,0.6,0,1.2,0,1.7h11.3
	C327,46.7,326.699,45.6,326.6,44.4L326.6,44.4z M328.4,30.5h-9c-0.5,1.1-1,2.3-1.399,3.5h9.3C327.5,32.8,327.9,31.6,328.4,30.5
	L328.4,30.5z M326.4,40.9c0-1.2,0.101-2.3,0.2-3.5H317c-0.301,1.1-0.5,2.3-0.7,3.5H326.4z M328.4,51.3h-12.1
	c0.2,1.2,0.399,2.3,0.7,3.5h13.1C329.4,53.6,328.9,52.5,328.4,51.3L328.4,51.3z M332.4,58.2H318c0.399,1.2,0.899,2.3,1.399,3.5h16.3
	C334.6,60.6,333.4,59.5,332.4,58.2L332.4,58.2z M388.699,46.1c0-0.6,0-1.2,0-1.7h-12.5c-0.5-1.2-1.1-2.4-1.699-3.5H388.4
	c-0.2-1.2-0.399-2.3-0.7-3.5H372c-1-1.3-2.101-2.4-3.301-3.5h17.9c-0.4-1.2-0.9-2.3-1.4-3.5H345.3v17.3h14V65h-38
	c0.7,1.2,1.6,2.4,2.399,3.5h21.5V72H326.8c1.3,1.3,2.6,2.4,4.1,3.5h14.3V79h-8.5c4.7,2.2,10,3.5,15.5,3.5s10.801-1.2,15.5-3.5H363.8
	c1.8-1,3.399-2.1,4.899-3.5h4.9c1.4-1,2.8-2.2,4.1-3.5H372c0.899-1.1,1.699-2.2,2.399-3.5h6.4c0.899-1.1,1.7-2.3,2.399-3.5H376
	c0.5-1.1,0.8-2.3,1.1-3.5h7.9c0.5-1.1,1-2.3,1.399-3.5h-8.7c0.101-1.1,0.2-2.3,0.2-3.4l0,0h9.5c0.3-1.1,0.5-2.3,0.7-3.5h-10.4
	c-0.199-1.2-0.399-2.3-0.699-3.5H388.4C388.6,47.3,388.699,46.7,388.699,46.1L388.699,46.1z M359.3,20.1h18.5
	c-1.3-1.3-2.7-2.4-4.101-3.5H359.3V20.1z M332.4,23.6h-8.7c-0.899,1.1-1.7,2.3-2.399,3.5h8.8C330.8,25.8,331.6,24.7,332.4,23.6
	L332.4,23.6z M359.3,27.1h24c-0.7-1.2-1.601-2.4-2.4-3.5h-21.6V27.1z M340.699,16.7H331c-1.5,1-2.801,2.2-4.101,3.5h8.9
	C337.3,18.8,338.9,17.6,340.699,16.7L340.699,16.7z M352.3,9.7c-5.5,0-10.8,1.2-15.5,3.5h31C363.1,11,357.8,9.7,352.3,9.7L352.3,9.7
	z"/>
<path id="path2_fill_1_" fill="#231916" d="M536.1,69.6h-1.8v-5c0-0.8-0.3-1.3-1.101-1.3c-0.699,0-1.3,0.5-1.6,0.7v5.7h-1.8v-5
	c0-0.8-0.2-1.3-1.101-1.3c-0.6,0-1.3,0.5-1.6,0.7v5.6h-1.8v-7.1l1.7-0.5l0.1,0.8c0.4-0.3,1.2-1,2.4-1c1,0,1.6,0.4,2,1
	c0.399-0.4,1.199-1,2.5-1c1.5,0,2.3,1,2.3,2.3v5.4H536.1z M517.4,65.8c0,1.6,0.8,2.7,2.101,2.7c1.199,0,2.1-1.2,2.1-2.7
	c0-1.6-0.9-2.8-2.1-2.8C518.1,63,517.4,64.2,517.4,65.8L517.4,65.8z M523.6,65.8c0,2.4-1.8,4-4.1,4c-2.301,0-4.101-1.5-4.101-4
	c0-2.4,1.8-4,4.101-4C521.8,61.8,523.6,63.3,523.6,65.8L523.6,65.8z M512.1,61.8c1.5,0,2.2,0.3,2.6,0.5l-0.399,1.1
	c-0.4-0.2-0.9-0.4-1.9-0.4s-2.3,0.9-2.3,2.7c0,1.7,1.3,2.7,2.3,2.7c1.1,0,1.6-0.2,2-0.3l0.4,1.1c-0.4,0.2-1.101,0.5-2.7,0.5
	c-2.4,0-4-1.6-4-4C508.1,63.4,510.1,61.8,512.1,61.8L512.1,61.8z M503.5,63.1c-1,0-1.5,0.8-1.601,1.8h3.2
	C504.9,63.7,504.4,63.1,503.5,63.1L503.5,63.1z M504.199,68.5c1.2,0,1.7-0.2,2.101-0.4l0.399,1c-0.399,0.2-1.199,0.6-3,0.6
	c-2.3,0-3.8-1.5-3.8-3.9c0-2.3,1.601-4,3.7-4c1.8,0,3.5,1.2,3.5,4.2h-5.2C501.8,67.5,502.6,68.5,504.199,68.5L504.199,68.5z
	 M496.4,58.6l1.9-0.5v11.5h-1.9V58.6z M491.4,63.1c-1,0-1.5,0.8-1.6,1.8h3.2C492.8,63.7,492.3,63.1,491.4,63.1L491.4,63.1z
	 M492.1,68.5c1.2,0,1.7-0.2,2.1-0.4l0.4,1c-0.5,0.2-1.2,0.6-3,0.6c-2.3,0-3.8-1.5-3.8-3.9c0-2.3,1.6-4,3.7-4c1.8,0,3.5,1.2,3.5,4.2
	h-5.2C489.699,67.5,490.5,68.5,492.1,68.5L492.1,68.5z M480.199,58.1h9.301v1.5H485.9v10.1h-2V59.5h-3.7V58.1L480.199,58.1z M428,62
	v5c0,0.8,0.3,1.3,1.1,1.3s1.5-0.5,1.8-0.7V62h1.8v7.1l-1.8,0.5l-0.1-0.8c-0.3,0.3-1.2,1-2.7,1s-2.2-0.9-2.2-2.3V62H428z M475.8,66.1
	l-1.101,0.1c-1,0.1-1.8,0.4-1.8,1.3c0,0.8,0.601,1,1.3,1c0.7,0,1.2-0.4,1.601-0.7V66.1z M473.6,69.8c-1.4,0-2.3-0.8-2.3-2.1
	c0-1.3,1-2.5,2.899-2.6L475.8,65v-0.6c0-0.7-0.2-1.3-1.4-1.3c-1,0-1.8,0.3-2.1,0.5l-0.4-1c0.5-0.2,1.5-0.7,3.101-0.7
	c1.699,0,2.699,0.9,2.699,2.2v4.3c0,0.4,0.2,1,0.301,1.2h-2c-0.101-0.2-0.2-0.5-0.2-0.7C475.4,69.2,474.699,69.8,473.6,69.8
	L473.6,69.8z M464.1,62h1.7l1.6,5l1.7-5h1.5l-2.9,7.7h-1l-1.399-3.9l-1.5,3.9h-1l-2.7-7.7h1.8l1.7,5.1l1.1-3L464.1,62z M445.3,64.3
	c0,0.7,0.5,1.3,1.399,1.3c0.9,0,1.4-0.6,1.4-1.3c0-0.6-0.4-1.4-1.4-1.4C445.8,62.9,445.3,63.6,445.3,64.3L445.3,64.3z M444.3,71.4
	c0,0.9,1.399,1.2,2.399,1.2c1.2,0,2.3-0.7,2.4-1.5c0.1-0.9-0.5-1.3-1.2-1.3h-2.5C445.1,70,444.3,70.6,444.3,71.4L444.3,71.4z
	 M446,66.7c-0.5,0-1.301,0.1-1.301,0.8s0.801,0.7,1.301,0.7h2.199c1.7,0,2.9,1,2.7,2.6c-0.2,1.7-2.1,2.9-3.899,2.9
	c-2,0-4.101-0.5-4.101-2.2c0-1.2,0.9-1.8,1.4-2c-0.3-0.2-0.9-0.6-0.9-1.7c0-0.9,0.7-1.7,1.3-1.9c-0.399-0.2-0.899-0.7-0.899-1.7
	c0-1.1,0.899-2.4,2.899-2.4c0.801,0,1.2,0.1,1.5,0.2h2.9v1h-1.6c0.199,0.2,0.5,0.6,0.5,1.3c0,1.6-1.5,2.5-3,2.5h-1V66.7z
	 M439.8,69.6v-5c0-0.8-0.3-1.3-1.2-1.3s-1.601,0.5-1.9,0.7v5.6h-1.8v-7.1l1.8-0.5l0.101,0.8c0.3-0.3,1.2-1,2.7-1s2.3,0.9,2.3,2.3
	v5.5H439.8z M457.3,69.6v-5c0-0.8-0.3-1.3-1.2-1.3c-0.8,0-1.601,0.5-1.9,0.7v5.6h-1.8v-11l1.8-0.5v4.7c0.3-0.3,1.101-1,2.7-1
	c1.5,0,2.2,1,2.2,2.3v5.5H457.3z M422.4,69.6v-5c0-0.8-0.3-1.3-1.2-1.3c-0.8,0-1.6,0.5-1.899,0.7v5.6h-1.8v-11l1.8-0.5v4.7
	c0.3-0.3,1.1-1,2.7-1c1.5,0,2.199,1,2.199,2.3v5.5H422.4z M416,68.9c-0.801,0.5-1.9,0.9-4,0.9c-3.5,0-5.9-2.7-5.9-6
	c0-3.3,2.4-6,5.9-6c2.3,0,3.399,0.6,3.899,0.9l-0.6,1.4c-0.4-0.2-1.3-0.7-3.101-0.7c-2,0-3.899,1.9-3.899,4.5c0,2.5,1.899,4.4,4,4.4
	c1.8,0,2.6-0.4,3.1-0.7L416,68.9z"/>
<path id="path4_fill_1_" fill="#231916" d="M519.699,24.2c-0.399,0-0.699,0.1-1,0.4c-0.199,0.2-0.3,0.5-0.3,0.9s0.101,0.7,0.3,0.9
	c0.2,0.2,0.5,0.4,1,0.4H535.3c0.399,0,0.7-0.1,0.899-0.4c0.2-0.2,0.301-0.5,0.301-0.9s-0.101-0.7-0.301-0.9
	c-0.199-0.2-0.5-0.4-0.899-0.4H519.699z M517.8,28.2c-0.5,0-0.7,0.1-1,0.4c-0.2,0.2-0.3,0.6-0.3,0.9s0.1,0.7,0.3,0.9
	c0.2,0.2,0.5,0.4,1,0.4h19.399c0.4,0,0.7-0.2,0.9-0.4c0.2-0.2,0.3-0.6,0.3-0.9s-0.1-0.7-0.3-0.9c-0.2-0.2-0.5-0.4-0.9-0.4H517.8z
	 M519.699,32.4c-0.399,0-0.699,0.1-1,0.4c-0.199,0.2-0.3,0.6-0.3,0.9c0,0.3,0.101,0.7,0.3,0.9c0.2,0.2,0.5,0.4,1,0.4H535.3
	c0.399,0,0.7-0.2,0.899-0.4c0.2-0.2,0.301-0.6,0.301-0.9c0-0.3-0.101-0.7-0.301-0.9c-0.199-0.2-0.5-0.4-0.899-0.4H519.699z
	 M519.699,36.4c-0.399,0-0.699,0.1-1,0.4c-0.199,0.2-0.3,0.6-0.3,0.9c0,0.3,0.101,0.7,0.3,0.9c0.2,0.2,0.601,0.4,1,0.4H535.3
	c0.399,0,0.7-0.2,0.899-0.4c0.2-0.2,0.301-0.6,0.301-0.9c0-0.3-0.101-0.7-0.301-0.9c-0.199-0.2-0.5-0.3-0.899-0.3h-15.601V36.4z
	 M521.6,43.3c-0.4,0-0.5,0.1-0.6,0.2c-0.101,0.1-0.2,0.3-0.2,0.6v2.8c0,0.3,0.1,0.5,0.2,0.6c0.1,0.1,0.399,0.2,0.699,0.2h11.7
	c0.3,0,0.601-0.1,0.7-0.2s0.2-0.3,0.2-0.6v-2.8c0-0.3-0.101-0.5-0.2-0.6c-0.2-0.2-0.4-0.2-0.7-0.2H521.6z M519.9,40.8h15
	c0.601,0,1.101,0.2,1.5,0.5c0.4,0.4,0.5,0.7,0.5,1.2v5.7c0,0.5-0.2,1-0.7,1.4c-0.399,0.4-0.899,0.6-1.399,0.6h-15
	c-0.5,0-0.9-0.2-1.3-0.6c-0.4-0.4-0.5-0.9-0.5-1.5v-5.7c0-0.5,0.199-0.9,0.5-1.2C518.9,41,519.4,40.8,519.9,40.8L519.9,40.8z
	 M515.5,23.5c0.399,0.1,0.699,0.3,0.8,0.5c0.2,0.3,0.3,0.7,0.2,1.1c-0.5,2.3-1,4.3-1.601,5.9v18.3c0,0.4-0.1,0.8-0.399,1
	c-0.2,0.2-0.601,0.4-1,0.4c-0.4,0-0.7-0.1-1-0.4c-0.2-0.3-0.4-0.6-0.4-1.1V36.1c-0.7,1-1.101,1.1-1.4,1.1s-0.7,0-0.899-0.3
	c-0.3-0.2-0.5-0.6-0.5-0.9s0.1-0.7,0.399-1.1c2.2-3.2,3.601-6.7,4.2-10.3c0.1-0.4,0.3-0.8,0.6-1C514.6,23.5,515.1,23.4,515.5,23.5
	L515.5,23.5z"/>
<path id="path5_fill_1_" fill="#231916" d="M460.699,37.8v-0.4h-4.1V40h10.3c0.4,0,0.601,0.1,0.9,0.3c0.2,0.2,0.3,0.7,0.3,0.9
	c0,0.3-0.101,0.6-0.3,0.9c-0.2,0.2-0.5,0.4-0.9,0.4h-10.3v2.1h11c0.4,0,0.6,0.1,0.9,0.3c0.199,0.2,0.3,0.6,0.3,0.9
	c0,0.3-0.101,0.7-0.3,0.9c-0.2,0.3-0.5,0.3-0.9,0.3h-11v3c0,0.4-0.1,0.8-0.4,1.1c-0.199,0.3-0.6,0.4-0.899,0.4
	c-0.4,0-0.7-0.1-0.9-0.4C454.1,50.8,454,50.5,454,50v-2.8h-11c-0.4,0-0.601-0.1-0.9-0.4c-0.2-0.2-0.3-0.7-0.3-0.9
	c0-0.2,0.1-0.7,0.3-0.9s0.5-0.4,0.9-0.4h11v-2.1h-10.301c-0.399,0-0.699-0.1-0.899-0.4c-0.2-0.2-0.3-0.6-0.3-0.9
	c0-0.2,0.1-0.7,0.3-0.9c0.2-0.2,0.5-0.4,0.899-0.4h3.601v-2.6h-5.101c-0.399,0-0.6-0.1-0.899-0.3c-0.2-0.2-0.3-0.6-0.3-0.9
	c0-0.3,0.1-0.6,0.3-0.9c0.2-0.2,0.5-0.4,0.899-0.4h5.101v-0.3c0-0.4,0.1-0.8,0.399-1.1C448,33.1,448.3,33,448.6,33
	c0.4,0,0.7,0.1,0.9,0.4c0.3,0.3,0.399,0.6,0.399,1.1v0.3H454v-2.7h-10.301c-0.399,0-0.699-0.1-0.899-0.4c-0.2-0.2-0.3-0.7-0.3-0.9
	c0-0.2,0.1-0.7,0.3-0.9c0.2-0.2,0.5-0.4,0.899-0.4H466.8c0.399,0,0.6,0.1,0.899,0.3C467.9,30,468,30.4,468,30.7
	c0,0.3-0.101,0.6-0.301,0.9c-0.199,0.3-0.5,0.4-0.899,0.4h-3.601v2.7h5.101c0.399,0,0.6,0.1,0.8,0.3c0.2,0.3,0.3,0.6,0.3,0.9
	c0,0.3-0.1,0.6-0.3,0.9c-0.2,0.2-0.5,0.4-0.9,0.4h-5.1v0.4c0,0.4-0.1,0.7-0.4,1c-0.199,0.3-0.6,0.4-0.899,0.4
	c-0.4,0-0.7-0.1-0.9-0.4C460.8,38.6,460.699,38.2,460.699,37.8L460.699,37.8z M456.6,34.9h4.1v-2.7h-4.1V34.9z M449.9,40H454v-2.6
	H449.9V40z M468.8,26.2c0,0.3-0.101,0.7-0.3,0.9c-0.2,0.2-0.5,0.4-0.9,0.4h-6v0.1c0,0.4-0.1,0.8-0.4,1.1
	c-0.199,0.3-0.6,0.4-0.899,0.4c-0.4,0-0.7-0.1-0.9-0.4c-0.3-0.3-0.399-0.6-0.399-1.1v-0.1h-7.5v0.1c0,0.4-0.101,0.8-0.4,1.1
	c-0.2,0.3-0.6,0.4-0.9,0.4c-0.399,0-0.699-0.1-0.899-0.4c-0.3-0.3-0.4-0.6-0.4-1.1v-0.1H443c-0.4,0-0.7-0.1-0.9-0.4
	c-0.2-0.2-0.3-0.6-0.3-0.9c0-0.3,0.1-0.7,0.3-0.9c0.2-0.2,0.5-0.4,0.9-0.4h5.899v-0.6c0-0.4,0.101-0.8,0.4-1.1
	c0.2-0.3,0.6-0.4,0.899-0.4c0.4,0,0.7,0.2,0.9,0.4c0.3,0.3,0.399,0.6,0.399,1.1v0.6h7.5v-0.6c0-0.4,0.101-0.8,0.4-1.1
	c0.3-0.3,0.6-0.4,0.9-0.4c0.399,0,0.699,0.2,0.899,0.4c0.3,0.3,0.4,0.7,0.4,1.1v0.6h6c0.399,0,0.7,0.2,0.899,0.4
	C468.6,25.5,468.8,25.9,468.8,26.2L468.8,26.2z"/>
<path id="path6_fill_1_" fill="#231916" d="M430.8,29.4c0.3,0,0.5,0.1,0.7,0.3c0.199,0.2,0.3,0.4,0.3,0.6v12.3
	c0,0.2-0.101,0.5-0.3,0.6c-0.101,0.1-0.301,0.3-0.601,0.3h-9V29.4H430.8z M409.199,43.2c-0.199-0.2-0.3-0.4-0.3-0.6V30.3
	c0-0.3,0.101-0.4,0.3-0.6c0.2-0.2,0.4-0.3,0.601-0.3h9v14.1h-9C409.6,43.4,409.4,43.4,409.199,43.2L409.199,43.2z M419.3,23.2
	c-0.3,0.3-0.4,0.7-0.4,1.1v2.1h-10.1c-0.7,0-1.4,0.3-1.9,0.8s-0.8,1.2-0.8,1.9v14.6c0,0.7,0.3,1.3,0.8,1.8s1.2,0.8,1.9,0.8h10.1v3.5
	c0,0.6,0.2,1,0.4,1.2s0.6,0.4,1.1,0.4s0.9-0.2,1-0.4c0.2-0.2,0.4-0.7,0.4-1.2v-3.5H432c0.8,0,1.5-0.4,1.899-0.8
	c0.4-0.4,0.8-1.2,0.8-1.9V29.2c0-0.7-0.3-1.4-0.7-1.9c-0.5-0.6-1.199-0.8-2-0.8h-10.1v-2.1c0-0.5-0.1-0.9-0.4-1.1
	c-0.199-0.2-0.699-0.4-1.1-0.4C420,22.8,419.5,23,419.3,23.2L419.3,23.2z"/>
<path id="path7_fill_1_" fill="#231916" d="M501.199,30.5c0.2,0,0.301,0.1,0.4,0.2c0.1,0.1,0.2,0.3,0.2,0.5v4.1
	c0,0.4,0.2,0.9,0.399,1.1c0.2,0.2,0.601,0.4,0.9,0.4s0.7-0.2,0.9-0.4c0.199-0.2,0.399-0.6,0.399-1v-4.9c0-0.6-0.2-1.1-0.6-1.6
	c-0.4-0.4-0.9-0.7-1.5-0.6h-10.9v-1.4h9.3c0.3,0,0.601-0.2,0.8-0.4c0.2-0.2,0.301-0.5,0.301-0.8c0-0.2-0.101-0.6-0.301-0.8
	c-0.199-0.2-0.5-0.3-0.8-0.3h-21.2c-0.3,0-0.6,0.1-0.8,0.3c-0.2,0.2-0.3,0.5-0.3,0.8c0,0.3,0.101,0.7,0.3,0.8
	c0.2,0.2,0.5,0.3,0.8,0.3h9.301v1.4h-10.9c-0.5,0-1.1,0.2-1.5,0.6c-0.4,0.4-0.6,1-0.6,1.6v4.9c0,0.4,0.199,0.8,0.399,1
	c0.2,0.2,0.601,0.4,0.9,0.4s0.7-0.1,0.899-0.4c0.2-0.2,0.4-0.6,0.4-1.1v-4.1c0-0.2,0.1-0.4,0.2-0.5c0.1-0.1,0.3-0.2,0.399-0.2h9.801
	v5c0,0.5,0.199,0.8,0.399,1.1c0.2,0.2,0.601,0.4,0.9,0.4s0.7-0.1,0.899-0.4c0.2-0.2,0.4-0.6,0.4-1.1v-5L501.199,30.5L501.199,30.5z
	 M502,49.2h-9.4c-0.3,0-0.7-0.1-1-0.3c-0.2-0.3-0.2-0.8-0.2-1.4h8.8c0.4,0,0.9-0.2,1.2-0.6c0.4-0.4,0.601-0.8,0.601-1.3v-6.3
	c0-0.5-0.2-0.8-0.5-1.1c-0.4-0.3-0.801-0.5-1.301-0.5h-20.5c-0.399,0-0.8,0.2-1.1,0.5c-0.3,0.3-0.5,0.7-0.4,1.2v6.3
	c0,0.5,0.101,0.9,0.4,1.3c0.3,0.3,0.6,0.5,1.1,0.6h9.101v1c0,1.1,0.6,1.9,1.1,2.4c0.601,0.5,1.3,0.6,1.9,0.6H502
	c0.6,0,1.1-0.5,1.1-1.2C503.1,49.7,502.6,49.2,502,49.2L502,49.2z M499.5,43.6v0.9c0,0.2-0.101,0.4-0.2,0.5
	c-0.101,0.1-0.3,0.2-0.5,0.2h-7.4v-1.6H499.5z M498.8,39.8c0.2,0,0.399,0.1,0.6,0.2c0.101,0.1,0.101,0.3,0.101,0.5v0.9H491.4v-1.7
	L498.8,39.8L498.8,39.8z M488.8,43.6v1.6h-7.4c-0.2,0-0.399-0.1-0.5-0.2c-0.1-0.1-0.2-0.3-0.2-0.5v-0.9H488.8z M480.8,40.4
	c0-0.2,0-0.4,0.2-0.5c0.1-0.1,0.3-0.2,0.5-0.2h7.399v1.7h-8.1C480.699,41.4,480.8,40.5,480.8,40.4L480.8,40.4z M499.699,34.5
	c0.301,0,0.5,0.1,0.7,0.3c0.2,0.2,0.3,0.4,0.3,0.7s-0.1,0.5-0.3,0.7c-0.2,0.2-0.399,0.3-0.7,0.3H495c-0.301,0-0.5-0.1-0.7-0.3
	c-0.2-0.2-0.3-0.4-0.3-0.7s0.1-0.5,0.3-0.7c0.2-0.2,0.399-0.3,0.7-0.3H499.699z M498.1,31.6c0.3,0,0.5,0.1,0.7,0.3
	c0.2,0.2,0.2,0.4,0.2,0.7c0,0.3-0.101,0.5-0.2,0.7c-0.2,0.2-0.4,0.3-0.7,0.3h-4.7c-0.3,0-0.5-0.1-0.7-0.3c-0.2-0.2-0.3-0.4-0.3-0.7
	c0-0.3,0.101-0.5,0.3-0.7c0.2-0.2,0.4-0.3,0.7-0.3H498.1z M487,34.5c0.3,0,0.5,0.1,0.699,0.3C487.9,35,488,35.2,488,35.5
	s-0.101,0.5-0.301,0.7c-0.199,0.2-0.399,0.3-0.699,0.3h-4.7c-0.3,0-0.5-0.1-0.7-0.3c-0.2-0.2-0.2-0.4-0.2-0.7s0.1-0.5,0.2-0.7
	c0.2-0.2,0.399-0.3,0.7-0.3H487z M485.3,31.6c0.3,0,0.5,0.1,0.7,0.3c0.199,0.2,0.199,0.4,0.199,0.7c0,0.3-0.1,0.5-0.199,0.7
	c-0.2,0.2-0.4,0.3-0.7,0.3h-4.7c-0.3,0-0.5-0.1-0.7-0.3c-0.2-0.2-0.3-0.4-0.3-0.7c0-0.3,0.1-0.5,0.3-0.7c0.2-0.2,0.4-0.3,0.7-0.3
	H485.3z"/>
<g>
	<path d="M29.8,223.5h-7.9l-0.6,3c2.2,0,4,0.4,5.2,1.301c1.3,0.9,1.899,2.3,1.899,4.199c0,1.101-0.3,2.101-0.8,3
		c-0.5,0.9-1.2,1.601-2,2.201c-0.8,0.6-1.7,1-2.8,1.299c-1,0.301-2,0.4-3.1,0.4c-0.4,0-0.9,0-1.301-0.1c-0.5,0-1-0.1-1.399-0.2
		c-0.5-0.101-0.9-0.2-1.4-0.3S14.7,238,14.3,237.8l0.7-3.6c0.7,0.399,1.5,0.699,2.2,0.799c0.699,0.101,1.399,0.201,2,0.201
		c0.5,0,1.1-0.101,1.6-0.201c0.5-0.1,0.9-0.299,1.3-0.5c0.4-0.199,0.7-0.5,0.9-0.899s0.3-0.8,0.3-1.399c0-0.5-0.1-0.9-0.3-1.301
		c-0.2-0.3-0.5-0.6-0.8-0.8c-0.301-0.2-0.7-0.399-1.2-0.399c-0.4-0.101-0.9-0.101-1.4-0.101c-0.6,0-1.2,0-1.8,0.101
		c-0.6,0.1-1.2,0.199-1.7,0.299L18.2,220.1h12.1L29.8,223.5z"/>
	<path d="M48.8,224.5c-0.8-0.399-1.6-0.6-2.5-0.799c-0.8-0.201-1.8-0.201-2.9-0.201c-1.199,0-2.3,0.201-3.199,0.601
		C39.3,224.5,38.6,225,38,225.701c-0.601,0.699-1,1.399-1.2,2.199c-0.3,0.801-0.4,1.7-0.4,2.6c0,0.801,0.101,1.5,0.4,2.101
		c0.2,0.601,0.6,1.101,1,1.5s0.9,0.7,1.5,0.899c0.6,0.201,1.1,0.301,1.8,0.301c0.601,0,1.3-0.1,2-0.301l0.8-3.6H41l0.7-3.5H49.4
		L47.2,238.201c-0.5,0.1-1,0.299-1.601,0.399c-0.6,0.101-1.2,0.2-1.8,0.3s-1.2,0.1-1.7,0.1s-1,0.101-1.399,0.101
		c-1.5,0-2.801-0.2-4-0.601c-1.2-0.399-2.101-1-2.9-1.799C33,236,32.4,235,32,234c-0.4-1-0.601-2.199-0.601-3.5
		c0-1.5,0.2-2.899,0.7-4.199c0.5-1.301,1.2-2.4,2.2-3.301c1-0.899,2.3-1.6,3.8-2.199c1.5-0.5,3.4-0.801,5.5-0.801
		c1.101,0,2.2,0.101,3.2,0.301c1,0.199,2,0.4,3,0.6L48.8,224.5z"/>
	<path d="M62.7,220.201h13l-0.7,3.5H66.9l-0.8,3.799h7.7L73,231h-7.7l-0.9,4.201h8.4l-0.7,3.5H58.8L62.7,220.201z"/>
	<path d="M76.9,228.5c0.101-0.6,0.2-1.199,0.301-1.799c0.1-0.601,0.199-1.201,0.3-1.801H81.9l-0.399,2.2h0.1c0.3-0.399,0.7-0.7,1-1
		c0.4-0.3,0.8-0.601,1.2-0.8c0.4-0.2,0.9-0.4,1.4-0.5s1.1-0.2,1.699-0.2c0.7,0,1.301,0.101,1.801,0.399c0.5,0.201,1,0.601,1.3,1
		c0.3,0.4,0.6,0.9,0.8,1.5c0.2,0.601,0.3,1.201,0.3,1.9c0,0.2,0,0.4,0,0.6c0,0.201,0,0.4-0.1,0.601c0,0.2-0.101,0.5-0.101,0.7
		c-0.1,0.3-0.1,0.6-0.199,0.9L89.4,238.6H84.5l1.3-6.5c0.1-0.399,0.1-0.7,0.2-1c0.1-0.3,0.1-0.7,0.1-1c0-0.399-0.1-0.8-0.399-1.101
		c-0.301-0.299-0.801-0.5-1.4-0.5c-0.5,0-1,0.101-1.4,0.301c-0.399,0.199-0.699,0.5-1,0.8c-0.3,0.3-0.5,0.7-0.699,1.2
		c-0.2,0.5-0.301,0.9-0.4,1.5l-1.3,6.3h-4.8L76.9,228.5z"/>
	<path d="M101.9,236.701L101.9,236.701L101.9,236.701c-0.6,0.799-1.199,1.399-2,1.699c-0.8,0.4-1.699,0.5-2.6,0.5
		c-1.5,0-2.6-0.3-3.4-1c-0.8-0.699-1.199-1.699-1.199-3c0-0.8,0.199-1.6,0.6-2.199c0.4-0.601,0.9-1.201,1.6-1.601
		c0.7-0.399,1.5-0.7,2.4-0.899c0.9-0.201,1.9-0.301,3-0.301c0.5,0,0.9,0,1.4,0c0.399,0,0.8,0.1,1.199,0.1
		c0-0.1,0.101-0.199,0.101-0.299c0-0.101,0-0.201,0-0.301c0-0.5-0.2-0.9-0.7-1.3c-0.4-0.3-1.1-0.5-1.9-0.5
		c-0.899,0-1.6,0.101-2.3,0.2c-0.7,0.199-1.399,0.4-2.2,0.8l0.5-3.5c0.7-0.2,1.5-0.399,2.2-0.601c0.8-0.1,1.7-0.199,2.8-0.199
		c0.801,0,1.601,0.1,2.301,0.3c0.699,0.2,1.399,0.399,1.899,0.8s1,0.9,1.3,1.5c0.301,0.6,0.5,1.301,0.5,2.2c0,0.5-0.1,1.2-0.199,1.8
		c-0.101,0.6-0.301,1.4-0.5,2.2c-0.2,0.8-0.4,1.601-0.601,2.5s-0.399,1.899-0.5,2.899H101.7L101.9,236.701z M97.5,235.3
		c0.3,0.3,0.7,0.4,1.2,0.4c1,0,1.8-0.301,2.399-0.9c0.601-0.6,1-1.4,1.2-2.301c-0.2,0-0.4-0.1-0.7-0.1s-0.5,0-0.6,0
		c-1.101,0-2.101,0.1-2.8,0.5c-0.7,0.4-1.101,0.9-1.101,1.5C97.1,234.701,97.2,235,97.5,235.3z"/>
	<path d="M107.9,238.6c0.2-0.399,0.301-1,0.5-1.5c0.2-0.601,0.301-1.2,0.5-1.899l3.601-16.4h4.7l-1.7,7.699h0.1
		c0.601-0.6,1.3-1.1,2-1.5c0.7-0.299,1.5-0.5,2.4-0.5c0.8,0,1.6,0.101,2.2,0.4c0.6,0.301,1.199,0.7,1.6,1.2s0.7,1.101,1,1.8
		c0.2,0.7,0.3,1.4,0.3,2.2c0,1.101-0.1,2.2-0.399,3.3c-0.301,1-0.7,2-1.301,2.801c-0.6,0.799-1.3,1.5-2.3,1.899
		c-0.899,0.5-2,0.7-3.2,0.7c-2.3,0-3.899-1-4.8-2.9H113l-0.7,2.6h-4.4V238.6z M114.5,233.5c0.1,0.301,0.2,0.601,0.399,0.9
		c0.2,0.301,0.4,0.5,0.7,0.6c0.3,0.201,0.601,0.201,1,0.201c0.601,0,1.101-0.101,1.5-0.4c0.4-0.2,0.8-0.6,1.101-1
		c0.3-0.4,0.5-0.9,0.699-1.4c0.2-0.5,0.301-1,0.301-1.6c0-0.801-0.2-1.5-0.601-2C119.2,228.3,118.7,228,117.9,228
		c-0.6,0-1.1,0.101-1.5,0.4c-0.399,0.301-0.8,0.6-1.1,1.1c-0.3,0.4-0.5,0.9-0.7,1.4s-0.3,1-0.3,1.4
		C114.3,232.9,114.4,233.201,114.5,233.5z"/>
	<path d="M130.8,218.8h4.8l-4.1,19.8h-4.8L130.8,218.8z"/>
	<path d="M147.5,238.201c-0.8,0.199-1.7,0.399-2.5,0.6c-0.8,0.1-1.601,0.199-2.3,0.199c-1.101,0-2.2-0.199-3-0.5
		c-0.9-0.299-1.601-0.799-2.2-1.299c-0.601-0.5-1.101-1.201-1.4-2c-0.3-0.801-0.5-1.601-0.5-2.4c0-0.801,0.101-1.7,0.4-2.6
		c0.3-1,0.7-1.801,1.399-2.601c0.7-0.8,1.5-1.5,2.601-2c1-0.5,2.3-0.8,3.899-0.8c0.9,0,1.7,0.1,2.5,0.4c0.801,0.199,1.4,0.6,2,1.1
		c0.601,0.5,1,1.1,1.301,1.9c0.3,0.799,0.5,1.699,0.5,2.699c0,0.1,0,0.301,0,0.5c0,0.2,0,0.4-0.101,0.7c-0.1,0.3-0.1,0.5-0.1,0.7
		c0,0.199-0.101,0.5-0.101,0.699h-9.8c0,0.4,0.101,0.701,0.2,1c0.1,0.301,0.3,0.601,0.6,0.801c0.301,0.199,0.601,0.4,1.101,0.6
		c0.5,0.1,1.1,0.2,1.8,0.2c0.6,0,1.3-0.101,2.1-0.2c0.801-0.199,1.5-0.4,2.2-0.699L147.5,238.201z M146.2,230.4
		c0-0.4,0-0.699-0.101-1c-0.1-0.3-0.2-0.6-0.399-0.9c-0.2-0.299-0.4-0.5-0.7-0.6s-0.7-0.199-1.101-0.199c-0.5,0-1,0.1-1.399,0.199
		c-0.4,0.2-0.7,0.4-1,0.6c-0.3,0.301-0.5,0.5-0.7,0.9c-0.2,0.301-0.3,0.7-0.4,1H146.2z"/>
	<path d="M151.8,235c1.2,0.5,2.5,0.801,3.9,0.801c0.199,0,0.399,0,0.699,0c0.301,0,0.601-0.1,0.9-0.1s0.5-0.201,0.7-0.4
		c0.2-0.2,0.3-0.4,0.3-0.7s-0.1-0.601-0.4-0.8c-0.3-0.2-0.6-0.4-1.1-0.5c-0.4-0.1-0.9-0.301-1.4-0.5c-0.5-0.2-0.899-0.4-1.399-0.7
		c-0.4-0.3-0.8-0.7-1.101-1.2c-0.3-0.5-0.399-1.1-0.399-1.9c0-0.799,0.2-1.5,0.6-2.1c0.4-0.6,1-1,1.601-1.4
		c0.699-0.399,1.399-0.6,2.199-0.799c0.801-0.201,1.601-0.301,2.4-0.301c0.6,0,1.3,0.1,2.1,0.2c0.801,0.101,1.601,0.3,2.5,0.601
		l-1,3.1c-0.6-0.2-1.199-0.4-1.8-0.6c-0.6-0.201-1.3-0.201-2-0.201c-0.3,0-0.5,0-0.8,0.101c-0.3,0-0.5,0.101-0.7,0.2
		s-0.399,0.199-0.5,0.4c-0.1,0.199-0.2,0.399-0.2,0.6c0,0.3,0.101,0.5,0.4,0.699c0.3,0.201,0.7,0.301,1.1,0.5
		c0.4,0.201,0.9,0.301,1.4,0.5c0.5,0.201,1,0.4,1.4,0.701c0.399,0.299,0.8,0.6,1.1,1c0.3,0.399,0.4,0.899,0.4,1.5
		c0,0.799-0.2,1.6-0.5,2.199c-0.301,0.6-0.801,1.2-1.4,1.6c-0.6,0.4-1.3,0.701-2,1c-0.8,0.201-1.6,0.301-2.5,0.4
		c-1.1,0-2.1,0-3.1-0.199c-1-0.101-1.9-0.301-2.7-0.5L151.8,235z"/>
	<path d="M187.6,224.4c-0.5-0.199-1-0.4-1.7-0.6c-0.699-0.2-1.5-0.301-2.399-0.301c-0.5,0-1,0-1.4,0.101c-0.399,0-0.8,0.101-1.1,0.3
		c-0.3,0.1-0.601,0.301-0.8,0.5c-0.2,0.2-0.301,0.5-0.301,0.9s0.2,0.8,0.5,1.1c0.301,0.301,0.801,0.5,1.301,0.7s1.1,0.5,1.699,0.7
		c0.601,0.199,1.2,0.6,1.7,1s1,0.9,1.3,1.5c0.4,0.6,0.5,1.4,0.5,2.3c0,1.3-0.3,2.3-0.8,3.101c-0.5,0.799-1.2,1.5-2.1,2
		c-0.9,0.5-1.8,0.799-2.9,1C180,238.9,179,239,177.9,239c-1,0-1.899-0.1-3-0.299c-1-0.201-1.899-0.4-2.8-0.701l1.2-3.799
		c0.2,0.199,0.5,0.299,0.9,0.399c0.399,0.101,0.699,0.2,1.1,0.3s0.8,0.2,1.3,0.2c0.4,0.101,0.9,0.101,1.3,0.101
		c0.4,0,0.801,0,1.301-0.101s0.899-0.2,1.3-0.3c0.399-0.1,0.7-0.4,1-0.7s0.399-0.7,0.399-1.2s-0.199-0.9-0.5-1.199
		c-0.399-0.301-0.8-0.601-1.3-0.801c-0.5-0.199-1.1-0.5-1.7-0.699c-0.6-0.201-1.199-0.5-1.699-0.9s-1-0.801-1.301-1.4
		c-0.399-0.6-0.5-1.3-0.5-2.1c0-1.2,0.2-2.2,0.7-3c0.5-0.801,1.101-1.4,1.9-1.9s1.7-0.8,2.6-1c1-0.199,2-0.3,3-0.3
		c1.101,0,2.2,0.101,3.2,0.2s1.8,0.3,2.4,0.6L187.6,224.4z"/>
	<path d="M190.3,224.9h2.7l0.7-3l5-1.3l-1,4.3h3.3l-0.601,3.301H197L196.2,232c-0.101,0.5-0.2,1-0.301,1.301
		c-0.1,0.3-0.1,0.699-0.1,1.1c0,0.5,0.1,0.801,0.4,1.1c0.3,0.301,0.699,0.4,1.1,0.4c0.2,0,0.5,0,0.8-0.1s0.5-0.2,0.8-0.301
		l-0.5,3.101c-0.5,0.101-1,0.2-1.5,0.2s-1,0.1-1.5,0.1c-0.6,0-1.199-0.1-1.699-0.199c-0.5-0.101-1-0.4-1.4-0.701
		c-0.4-0.299-0.7-0.799-0.9-1.299c-0.199-0.5-0.3-1.101-0.3-1.9c0-0.4,0-0.7,0.101-1.1c0.1-0.4,0.199-1,0.3-1.701l0.8-3.899h-2.5
		L190.3,224.9z"/>
	<path d="M209.8,236.701L209.8,236.701L209.8,236.701c-0.6,0.799-1.2,1.399-2,1.699c-0.8,0.4-1.7,0.5-2.6,0.5
		c-1.5,0-2.601-0.3-3.4-1c-0.8-0.699-1.2-1.699-1.2-3c0-0.8,0.2-1.6,0.601-2.199c0.399-0.601,0.899-1.201,1.6-1.601
		s1.5-0.7,2.4-0.899c0.899-0.201,1.899-0.301,3-0.301c0.5,0,0.899,0,1.399,0s0.8,0.1,1.2,0.1c0-0.1,0.1-0.199,0.1-0.299
		c0-0.101,0-0.201,0-0.301c0-0.5-0.199-0.9-0.699-1.3s-1.101-0.5-1.9-0.5c-0.9,0-1.6,0.101-2.3,0.2c-0.7,0.199-1.4,0.4-2.2,0.8
		l0.5-3.5c0.7-0.2,1.5-0.399,2.2-0.601c0.8-0.1,1.7-0.199,2.8-0.199c0.8,0,1.6,0.1,2.3,0.3s1.4,0.399,1.9,0.8s1,0.9,1.3,1.5
		s0.5,1.301,0.5,2.2c0,0.5-0.1,1.2-0.2,1.8c-0.1,0.6-0.3,1.4-0.5,2.2s-0.399,1.601-0.6,2.5s-0.4,1.899-0.5,2.899h-3.9L209.8,236.701
		z M205.5,235.3c0.3,0.3,0.7,0.4,1.2,0.4c1,0,1.8-0.301,2.399-0.9c0.601-0.6,1-1.4,1.2-2.301c-0.2,0-0.4-0.1-0.7-0.1s-0.5,0-0.6,0
		c-1.101,0-2.101,0.1-2.8,0.5c-0.7,0.4-1.101,0.9-1.101,1.5C205,234.701,205.2,235,205.5,235.3z"/>
	<path d="M223.6,224.9l-0.5,2.801h0.101c0.199-0.4,0.399-0.801,0.699-1.201c0.301-0.399,0.601-0.699,1-1
		c0.4-0.299,0.801-0.5,1.2-0.699c0.4-0.2,0.9-0.301,1.4-0.301c0.3,0,0.7,0,1,0.101c0.399,0,0.7,0.101,1,0.3l-1.101,4.2
		c-0.3-0.2-0.6-0.399-1-0.5C227,228.5,226.6,228.5,226.2,228.5c-0.5,0-1,0.101-1.4,0.301c-0.4,0.199-0.7,0.5-1,0.8s-0.5,0.7-0.7,1.2
		s-0.3,0.9-0.399,1.5l-1.301,6.3h-4.8l2.101-10.2c0.1-0.6,0.199-1.199,0.3-1.8c0.1-0.601,0.2-1.2,0.3-1.8h4.3V224.9z"/>
	<path d="M230,224.9h2.7l0.699-3l5-1.3l-1,4.3h3.301l-0.601,3.301h-3.5L235.8,232c-0.1,0.5-0.2,1-0.3,1.301
		c-0.101,0.3-0.101,0.699-0.101,1.1c0,0.5,0.101,0.801,0.4,1.1c0.3,0.301,0.7,0.4,1.1,0.4c0.2,0,0.5,0,0.801-0.1
		c0.3-0.1,0.5-0.2,0.8-0.301L238,238.6c-0.5,0.101-1,0.2-1.5,0.2s-1,0.1-1.5,0.1c-0.601,0-1.2-0.1-1.7-0.199
		c-0.5-0.101-1-0.4-1.4-0.701c-0.399-0.299-0.699-0.799-0.899-1.299s-0.3-1.101-0.3-1.9c0-0.4,0-0.7,0.1-1.1
		c0.1-0.4,0.2-1,0.3-1.701l0.8-3.899h-2.5L230,224.9z"/>
	<path d="M255.1,235c-0.1,0.601-0.2,1.201-0.3,1.801s-0.2,1.199-0.3,1.8h-4.4l0.4-2.2H250.4c-0.699,0.801-1.399,1.4-2.199,1.9
		C247.4,238.8,246.4,239,245.1,239c-0.7,0-1.3-0.1-1.8-0.399c-0.5-0.2-1-0.601-1.3-1c-0.4-0.399-0.601-0.899-0.8-1.5
		c-0.2-0.601-0.301-1.2-0.301-1.899c0-0.201,0-0.4,0-0.601s0-0.399,0.101-0.601c0-0.199,0.1-0.5,0.1-0.699
		c0.101-0.301,0.101-0.6,0.2-0.9l1.3-6.4h4.9l-1.3,6.5c-0.101,0.4-0.101,0.701-0.2,1c-0.101,0.301-0.101,0.701-0.101,1
		c0,0.201,0,0.4,0.101,0.601c0.1,0.2,0.2,0.399,0.3,0.5s0.3,0.3,0.6,0.399c0.2,0.101,0.5,0.101,0.801,0.101
		c0.5,0,0.899-0.101,1.3-0.3c0.399-0.2,0.8-0.5,1-0.801c0.3-0.299,0.5-0.699,0.7-1.199c0.199-0.5,0.3-0.9,0.399-1.5l1.3-6.301h4.801
		L255.1,235z"/>
	<path d="M259.8,226.9c0.1-0.4,0.1-0.8,0.2-1.1c0.1-0.301,0.1-0.7,0.1-0.9h4.4l-0.4,2.2h0.101c0.699-0.899,1.5-1.5,2.399-1.899
		c0.8-0.4,1.7-0.601,2.601-0.601c0.8,0,1.6,0.101,2.199,0.399c0.601,0.301,1.2,0.701,1.601,1.201c0.399,0.5,0.7,1.1,1,1.799
		c0.2,0.701,0.3,1.4,0.3,2.201c0,1.1-0.1,2.199-0.4,3.299c-0.3,1-0.699,2-1.3,2.801c-0.6,0.8-1.3,1.5-2.3,1.9
		c-0.9,0.5-2,0.699-3.2,0.699c-1.1,0-1.899-0.199-2.6-0.699s-1.3-1.101-1.8-2L261,244.1h-4.8L259.8,226.9z M263.5,233.5
		c0.1,0.301,0.2,0.601,0.399,0.9c0.2,0.301,0.4,0.5,0.7,0.6c0.3,0.201,0.601,0.201,1,0.201c0.601,0,1.101-0.101,1.5-0.4
		c0.4-0.2,0.8-0.6,1.101-1c0.3-0.4,0.5-0.9,0.699-1.4c0.2-0.5,0.301-1,0.301-1.6c0-0.801-0.2-1.5-0.601-2
		C268.2,228.3,267.7,228,266.9,228c-0.6,0-1.1,0.101-1.5,0.4c-0.399,0.301-0.8,0.6-1.1,1.1c-0.3,0.4-0.5,0.9-0.7,1.4s-0.3,1-0.3,1.4
		C263.4,232.9,263.4,233.201,263.5,233.5z"/>
	<path d="M275.9,235c1.2,0.5,2.5,0.801,3.9,0.801c0.2,0,0.4,0,0.7,0s0.6-0.1,0.899-0.1c0.301-0.101,0.5-0.201,0.7-0.4
		c0.2-0.2,0.3-0.4,0.3-0.7S282.3,234,282,233.8c-0.3-0.2-0.601-0.4-1.101-0.5c-0.399-0.1-0.899-0.301-1.399-0.5
		c-0.5-0.2-0.9-0.4-1.4-0.7c-0.399-0.3-0.8-0.7-1.1-1.2s-0.4-1.1-0.4-1.9c0-0.799,0.2-1.5,0.601-2.1c0.399-0.6,1-1,1.6-1.4
		c0.7-0.399,1.4-0.6,2.2-0.799c0.8-0.201,1.6-0.301,2.399-0.301c0.601,0,1.301,0.1,2.101,0.2s1.6,0.3,2.5,0.601l-1,3.1
		c-0.601-0.2-1.2-0.4-1.8-0.6c-0.601-0.101-1.301-0.201-2-0.201c-0.301,0-0.5,0-0.801,0.101c-0.3,0-0.5,0.101-0.699,0.2
		c-0.2,0.1-0.4,0.199-0.5,0.4c-0.101,0.199-0.2,0.399-0.2,0.6c0,0.3,0.1,0.5,0.399,0.699c0.301,0.201,0.7,0.301,1.101,0.5
		c0.399,0.201,0.899,0.301,1.399,0.5c0.5,0.201,1,0.4,1.4,0.701c0.4,0.299,0.8,0.6,1.1,1c0.301,0.399,0.4,0.899,0.4,1.5
		c0,0.799-0.2,1.6-0.5,2.199s-0.8,1.2-1.4,1.6c-0.6,0.4-1.3,0.701-2,1c-0.8,0.201-1.6,0.301-2.5,0.4c-1.1,0-2.1,0-3.1-0.199
		c-1-0.101-1.9-0.301-2.7-0.5L275.9,235z"/>
	<path d="M300.5,228.201h-3l0.699-3.301h2.9l0.4-1.699c0.3-1.4,0.899-2.601,1.899-3.4c1-0.801,2.2-1.2,3.8-1.2
		c0.601,0,1.2,0,1.8,0.101c0.601,0.1,1.2,0.199,1.7,0.299L309.8,222.3c-0.2-0.1-0.5-0.2-0.7-0.2C308.9,222,308.6,222,308.3,222
		c-0.601,0-1,0.201-1.4,0.5c-0.399,0.4-0.6,0.9-0.8,1.701L305.9,225h3.5l-0.7,3.301h-3.5l-2.2,10.4h-4.8L300.5,228.201z"/>
	<path d="M324.3,234.4c-0.4,1-1.101,1.9-1.9,2.6c-0.8,0.701-1.7,1.201-2.8,1.5c-1.1,0.301-2.3,0.5-3.6,0.5
		c-1.301,0-2.4-0.199-3.301-0.5c-0.899-0.299-1.699-0.799-2.199-1.299c-0.601-0.601-1-1.201-1.301-2
		c-0.3-0.801-0.399-1.601-0.399-2.4c0-1.2,0.2-2.301,0.6-3.301c0.4-1,1-1.899,1.8-2.6c0.801-0.699,1.7-1.3,2.801-1.699
		c1.1-0.4,2.3-0.601,3.699-0.601c1.2,0,2.2,0.2,3.101,0.5c0.899,0.3,1.6,0.8,2.2,1.3c0.6,0.6,1.1,1.2,1.399,2
		c0.3,0.801,0.5,1.6,0.5,2.4C325,232.1,324.8,233.4,324.3,234.4z M319.9,229.6c-0.1-0.3-0.2-0.601-0.399-0.899
		c-0.2-0.301-0.5-0.5-0.801-0.601c-0.3-0.101-0.699-0.2-1.199-0.2c-0.601,0-1.101,0.1-1.601,0.4c-0.5,0.3-0.8,0.6-1.2,1.1
		c-0.399,0.5-0.6,1-0.7,1.5c-0.199,0.6-0.3,1.1-0.3,1.7c0,0.899,0.2,1.7,0.7,2.2c0.5,0.6,1.101,0.8,1.9,0.8c1.1,0,2-0.399,2.6-1.3
		c0.7-0.9,1-2.1,1-3.7C320.1,230.3,320,230,319.9,229.6z"/>
	<path d="M333,224.9l-0.5,2.801h0.1c0.2-0.4,0.4-0.801,0.7-1.201c0.3-0.399,0.6-0.699,1-1c0.399-0.299,0.8-0.5,1.2-0.699
		c0.399-0.2,0.899-0.301,1.399-0.301c0.3,0,0.7,0,1,0.101c0.4,0,0.7,0.101,1,0.3l-1.1,4.2c-0.3-0.2-0.601-0.399-1-0.5
		c-0.4-0.101-0.8-0.101-1.2-0.101c-0.5,0-1,0.101-1.4,0.301c-0.399,0.199-0.699,0.5-1,0.8c-0.3,0.3-0.5,0.7-0.699,1.2
		c-0.2,0.5-0.301,0.9-0.4,1.5l-1.3,6.3H326l2.1-10.2c0.1-0.6,0.2-1.199,0.3-1.8c0.101-0.601,0.2-1.2,0.3-1.8H333V224.9z"/>
	<path d="M349.8,220.201h8.2c0.5,0,1,0.1,1.6,0.199s1.2,0.301,1.7,0.6c0.5,0.301,1,0.701,1.3,1.301c0.4,0.6,0.5,1.3,0.5,2.1
		c0,0.6-0.1,1.2-0.3,1.7s-0.601,1-1,1.399c-0.4,0.4-0.9,0.701-1.5,1c-0.601,0.301-1.3,0.4-2,0.5v0.101c1.1,0.2,1.899,0.5,2.6,1.101
		c0.7,0.6,1,1.399,1,2.399s-0.2,1.8-0.6,2.601c-0.4,0.699-0.9,1.299-1.601,1.799c-0.699,0.5-1.5,0.801-2.399,1.101
		c-0.9,0.3-1.9,0.399-3,0.399l-8.4,0.101L349.8,220.201z M351.6,235.1h1.3c1.3,0,2.3-0.2,3-0.601c0.7-0.399,1.101-1,1.101-1.899
		c0-0.399-0.101-0.7-0.2-1c-0.101-0.2-0.4-0.399-0.601-0.601c-0.3-0.1-0.6-0.199-1.1-0.299c-0.4,0-0.9-0.101-1.5-0.101h-1.2
		L351.6,235.1z M353.199,227.5h1.9c1,0,1.8-0.199,2.4-0.6c0.6-0.4,0.899-0.9,0.899-1.5c0-0.4-0.1-0.699-0.2-0.9
		c-0.1-0.199-0.399-0.399-0.6-0.5c-0.2-0.1-0.601-0.199-1-0.199c-0.4,0-0.8-0.1-1.3-0.1H354L353.199,227.5z"/>
	<path d="M375.9,238.201c-0.8,0.199-1.7,0.399-2.5,0.6c-0.8,0.1-1.6,0.199-2.3,0.199c-1.1,0-2.2-0.199-3-0.5
		c-0.9-0.299-1.6-0.799-2.2-1.299c-0.6-0.601-1.1-1.201-1.399-2c-0.301-0.801-0.5-1.601-0.5-2.4c0-0.801,0.1-1.7,0.399-2.6
		c0.3-1,0.7-1.801,1.4-2.601s1.5-1.5,2.6-2c1-0.5,2.3-0.8,3.9-0.8c0.899,0,1.7,0.1,2.5,0.4c0.8,0.199,1.5,0.6,2,1.1
		c0.6,0.5,1,1.1,1.3,1.9c0.3,0.799,0.5,1.699,0.5,2.699c0,0.1,0,0.301,0,0.5c0,0.2,0,0.4-0.101,0.7c0,0.2-0.1,0.5-0.1,0.7
		c0,0.199-0.1,0.5-0.1,0.699h-9.801c0,0.4,0.101,0.701,0.2,1c0.101,0.301,0.3,0.601,0.601,0.801c0.3,0.199,0.6,0.4,1.1,0.6
		c0.5,0.1,1.101,0.2,1.8,0.2c0.601,0,1.3-0.101,2.101-0.2c0.8-0.199,1.5-0.4,2.2-0.699L375.9,238.201z M374.699,230.4
		c0-0.4,0-0.699-0.1-1c-0.1-0.3-0.2-0.6-0.4-0.9c-0.199-0.299-0.399-0.5-0.699-0.6c-0.301-0.1-0.7-0.199-1.101-0.199
		c-0.5,0-1,0.1-1.399,0.199c-0.4,0.2-0.7,0.4-1,0.6c-0.301,0.201-0.5,0.5-0.7,0.9c-0.2,0.301-0.3,0.7-0.4,1H374.699z"/>
	<path d="M381.3,224.9h2.7l0.699-3l5-1.3l-1,4.3H392l-0.601,3.301H388L387.199,232c-0.1,0.5-0.199,1-0.3,1.301
		c-0.1,0.3-0.1,0.699-0.1,1.1c0,0.5,0.1,0.801,0.399,1.1c0.301,0.301,0.7,0.4,1.101,0.4c0.2,0,0.5,0,0.8-0.1s0.5-0.2,0.8-0.301
		l-0.5,3.101c-0.5,0.101-1,0.2-1.5,0.2s-1,0.1-1.5,0.1c-0.6,0-1.2-0.1-1.7-0.199c-0.5-0.101-1-0.4-1.399-0.701
		c-0.4-0.299-0.7-0.799-0.9-1.299s-0.3-1.101-0.3-1.9c0-0.4,0-0.7,0.1-1.1c0.101-0.4,0.2-1,0.301-1.701l0.8-3.899h-2.5L381.3,224.9z
		"/>
	<path d="M393,224.9h2.699l0.7-3l5-1.3l-1,4.3h3.3l-0.6,3.301h-3.5L398.8,232c-0.101,0.5-0.2,1-0.3,1.301
		c-0.101,0.3-0.101,0.699-0.101,1.1c0,0.5,0.101,0.801,0.4,1.1c0.3,0.301,0.7,0.4,1.1,0.4c0.2,0,0.5,0,0.8-0.1
		c0.301-0.1,0.5-0.2,0.801-0.301L401,238.6c-0.5,0.101-1,0.2-1.5,0.2s-1,0.1-1.5,0.1c-0.601,0-1.2-0.1-1.7-0.199
		c-0.5-0.101-1-0.4-1.4-0.701c-0.399-0.299-0.7-0.799-0.899-1.299c-0.2-0.5-0.301-1.101-0.301-1.9c0-0.4,0-0.7,0.101-1.1
		c0.1-0.4,0.2-1,0.3-1.701l0.8-3.899h-2.5L393,224.9z"/>
	<path d="M415.6,238.201c-0.8,0.199-1.7,0.399-2.5,0.6c-0.8,0.1-1.6,0.199-2.3,0.199c-1.101,0-2.2-0.199-3-0.5
		c-0.9-0.299-1.601-0.799-2.2-1.299c-0.6-0.601-1.1-1.201-1.4-2c-0.3-0.801-0.5-1.601-0.5-2.4c0-0.801,0.101-1.7,0.4-2.6
		c0.3-1,0.7-1.801,1.4-2.601c0.699-0.8,1.5-1.5,2.6-2c1-0.5,2.3-0.8,3.9-0.8c0.899,0,1.699,0.1,2.5,0.4c0.8,0.199,1.5,0.6,2,1.1
		c0.6,0.5,1,1.1,1.3,1.9c0.3,0.799,0.5,1.699,0.5,2.699c0,0.1,0,0.301,0,0.5c0,0.2,0,0.4-0.101,0.7c0,0.2-0.1,0.5-0.1,0.7
		c0,0.199-0.101,0.5-0.101,0.699h-9.8c0,0.4,0.101,0.701,0.2,1c0.101,0.301,0.3,0.601,0.601,0.801c0.3,0.199,0.6,0.4,1.1,0.6
		c0.5,0.1,1.1,0.2,1.8,0.2c0.601,0,1.3-0.101,2.101-0.2c0.8-0.199,1.5-0.4,2.199-0.699L415.6,238.201z M414.3,230.4
		c0-0.4,0-0.699-0.101-1c-0.1-0.3-0.2-0.6-0.399-0.9c-0.2-0.299-0.4-0.5-0.7-0.6s-0.7-0.199-1.101-0.199c-0.5,0-1,0.1-1.399,0.199
		c-0.4,0.2-0.7,0.4-1,0.6c-0.3,0.201-0.5,0.5-0.7,0.9c-0.2,0.301-0.3,0.7-0.4,1H414.3z"/>
	<path d="M426.3,224.9l-0.5,2.801h0.1c0.2-0.4,0.4-0.801,0.7-1.201c0.3-0.399,0.6-0.699,1-1c0.4-0.299,0.8-0.5,1.2-0.699
		c0.399-0.2,0.899-0.301,1.399-0.301c0.301,0,0.7,0,1,0.101c0.4,0,0.7,0.101,1,0.3l-1.1,4.2c-0.3-0.2-0.6-0.399-1-0.5
		s-0.8-0.101-1.2-0.101c-0.5,0-1,0.101-1.399,0.301c-0.4,0.199-0.7,0.5-1,0.8c-0.301,0.3-0.5,0.7-0.7,1.2s-0.3,0.9-0.4,1.5l-1.3,6.3
		h-4.8l2.1-10.2c0.101-0.6,0.2-1.199,0.3-1.8c0.101-0.601,0.2-1.2,0.301-1.8h4.3V224.9z"/>
	<path d="M442.9,220.201h12.3l-0.7,3.5H447l-0.9,4h7.2l-0.7,3.5h-7.1l-1.601,7.5h-5L442.9,220.201z"/>
	<path d="M468.8,235c-0.101,0.601-0.2,1.201-0.3,1.801c-0.101,0.6-0.2,1.199-0.301,1.8H463.8l0.399-2.2h-0.1
		c-0.7,0.801-1.4,1.4-2.2,1.9S460.1,239,458.8,239c-0.7,0-1.3-0.1-1.8-0.399c-0.5-0.2-1-0.601-1.301-1
		c-0.399-0.399-0.6-0.899-0.8-1.5s-0.3-1.2-0.3-1.899c0-0.201,0-0.4,0-0.601s0-0.399,0.1-0.601c0-0.199,0.101-0.5,0.101-0.699
		c0.1-0.301,0.1-0.6,0.2-0.9l1.3-6.4h4.899l-1.3,6.5c-0.1,0.4-0.1,0.701-0.2,1c-0.1,0.301-0.1,0.701-0.1,1c0,0.201,0,0.4,0.1,0.601
		c0.101,0.2,0.2,0.399,0.301,0.5c0.1,0.101,0.3,0.3,0.6,0.399c0.2,0.101,0.5,0.101,0.8,0.101c0.5,0,0.9-0.101,1.3-0.3
		c0.4-0.2,0.801-0.5,1-0.801c0.301-0.299,0.5-0.699,0.7-1.199s0.3-0.9,0.4-1.5l1.3-6.301h4.8L468.8,235z"/>
	<path d="M473.1,224.9h2.7l0.7-3l5-1.3l-1,4.3h3.3l-0.601,3.301h-3.5L478.9,232c-0.1,0.5-0.2,1-0.3,1.301
		c-0.1,0.3-0.1,0.699-0.1,1.1c0,0.5,0.1,0.801,0.399,1.1c0.3,0.301,0.7,0.4,1.101,0.4c0.199,0,0.5,0,0.8-0.1s0.5-0.2,0.8-0.301
		l-0.5,3.101c-0.5,0.101-1,0.2-1.5,0.2s-1,0.1-1.5,0.1c-0.6,0-1.2-0.1-1.7-0.199c-0.5-0.101-1-0.4-1.399-0.701
		c-0.4-0.299-0.7-0.799-0.9-1.299s-0.3-1.101-0.3-1.9c0-0.4,0-0.7,0.1-1.1c0.101-0.4,0.2-1,0.3-1.701L475,228.1h-2.5L473.1,224.9z"
		/>
	<path d="M498.199,235c-0.1,0.601-0.199,1.201-0.3,1.801c-0.1,0.6-0.2,1.199-0.3,1.8h-4.4l0.4-2.2h-0.1c-0.7,0.801-1.4,1.4-2.2,1.9
		S489.5,239,488.199,239c-0.699,0-1.3-0.1-1.8-0.399c-0.5-0.2-1-0.601-1.3-1c-0.4-0.399-0.6-0.899-0.8-1.5s-0.3-1.2-0.3-1.899
		c0-0.201,0-0.4,0-0.601s0-0.399,0.1-0.601c0-0.199,0.1-0.5,0.1-0.699c0.101-0.301,0.101-0.6,0.2-0.9l1.3-6.4h4.9l-1.3,6.5
		c-0.101,0.4-0.101,0.701-0.2,1c-0.1,0.301-0.1,0.701-0.1,1c0,0.201,0,0.4,0.1,0.601s0.2,0.399,0.3,0.5
		c0.101,0.101,0.3,0.3,0.601,0.399c0.199,0.101,0.5,0.101,0.8,0.101c0.5,0,0.899-0.101,1.3-0.3c0.4-0.2,0.8-0.5,1-0.801
		c0.3-0.299,0.5-0.699,0.7-1.199s0.3-0.9,0.399-1.5L495.5,225h4.8L498.199,235z"/>
	<path d="M507.8,224.9l-0.5,2.801h0.1c0.2-0.4,0.4-0.801,0.7-1.201c0.3-0.399,0.6-0.699,1-1c0.4-0.299,0.8-0.5,1.2-0.699
		c0.399-0.2,0.899-0.301,1.399-0.301c0.301,0,0.7,0,1,0.101c0.4,0,0.7,0.101,1,0.3l-1.1,4.2c-0.3-0.2-0.6-0.399-1-0.5
		s-0.8-0.101-1.2-0.101c-0.5,0-1,0.101-1.399,0.301c-0.4,0.199-0.7,0.5-1,0.8c-0.301,0.3-0.5,0.7-0.7,1.2s-0.3,0.9-0.4,1.5l-1.3,6.3
		h-4.8l2.1-10.2c0.101-0.6,0.2-1.199,0.3-1.8c0.101-0.601,0.2-1.2,0.301-1.8h4.3V224.9z"/>
	<path d="M524.5,238.201c-0.801,0.199-1.7,0.399-2.5,0.6c-0.801,0.1-1.601,0.199-2.301,0.199c-1.1,0-2.199-0.199-3-0.5
		c-0.899-0.299-1.6-0.799-2.199-1.299c-0.601-0.601-1.101-1.201-1.4-2c-0.3-0.801-0.5-1.601-0.5-2.4c0-0.801,0.1-1.7,0.4-2.6
		c0.3-1,0.699-1.801,1.399-2.601s1.5-1.5,2.601-2c1-0.5,2.3-0.8,3.899-0.8c0.9,0,1.7,0.1,2.5,0.4c0.8,0.199,1.5,0.6,2,1.1
		c0.601,0.5,1,1.1,1.3,1.9c0.301,0.799,0.5,1.699,0.5,2.699c0,0.1,0,0.301,0,0.5c0,0.2,0,0.4-0.1,0.7c0,0.2-0.1,0.5-0.1,0.7
		c0,0.199-0.101,0.5-0.101,0.699h-9.8c0,0.4,0.1,0.701,0.2,1c0.1,0.301,0.3,0.601,0.6,0.801c0.3,0.199,0.601,0.4,1.101,0.6
		c0.5,0.1,1.1,0.2,1.8,0.2c0.6,0,1.3-0.101,2.1-0.2c0.8-0.199,1.5-0.4,2.2-0.699L524.5,238.201z M523.3,230.4c0-0.4,0-0.699-0.101-1
		c-0.1-0.3-0.199-0.6-0.399-0.9c-0.2-0.299-0.4-0.5-0.7-0.6s-0.7-0.199-1.1-0.199c-0.5,0-1,0.1-1.4,0.199c-0.4,0.2-0.7,0.4-1,0.6
		c-0.3,0.201-0.5,0.5-0.7,0.9c-0.2,0.301-0.3,0.7-0.4,1H523.3z"/>
</g>
<g>
	<path d="M117.792,250.012l-0.865,3.956h-8.002l-0.877,3.016c0.958-0.356,1.679-0.601,2.163-0.731
		c0.483-0.132,0.992-0.197,1.527-0.197c1.484,0,2.708,0.435,3.67,1.304c0.962,0.869,1.444,2.169,1.444,3.899
		c0,1.357-0.295,2.583-0.884,3.677s-1.525,2.042-2.805,2.844c-1.281,0.801-3.049,1.202-5.305,1.202
		c-2.121,0-3.707-0.422-4.758-1.267c-1.052-0.844-1.696-2.202-1.934-4.077l5.127-0.598v0.076c0,0.856,0.206,1.514,0.617,1.972
		c0.411,0.458,0.973,0.688,1.686,0.688c0.899,0,1.656-0.403,2.271-1.209c0.615-0.806,0.922-1.769,0.922-2.888v-0.051
		c0-1.578-0.674-2.366-2.023-2.366c-0.958,0-1.794,0.406-2.506,1.221l-4.771-0.725l2.786-9.745H117.792z"/>
	<path d="M138.809,255.406l-5.674,0.624c-0.518-1.477-1.569-2.214-3.155-2.214c-1.552,0-2.782,0.784-3.689,2.354
		c-0.907,1.569-1.361,3.248-1.361,5.038c0,1.035,0.337,1.901,1.011,2.602c0.674,0.699,1.533,1.05,2.576,1.05h0.051
		c1.188,0,2.231-0.306,3.13-0.916l0.42-1.998h-3.524l0.84-3.893h8.702l-1.87,8.766c-2.901,1.442-5.776,2.163-8.626,2.163
		c-2.57,0-4.607-0.695-6.113-2.087c-1.506-1.391-2.258-3.346-2.258-5.865c0-2.103,0.479-4.032,1.438-5.788s2.309-3.119,4.052-4.091
		c1.743-0.971,3.742-1.456,5.999-1.456C135.166,249.694,137.851,251.598,138.809,255.406z"/>
	<path d="M166.926,255.19l-5.394,0.292c-0.119-1.619-1.022-2.43-2.71-2.43c-0.687,0-1.215,0.146-1.584,0.439
		c-0.369,0.292-0.554,0.642-0.554,1.049c0,0.297,0.148,0.579,0.445,0.847c0.297,0.267,1.001,0.608,2.112,1.023
		c1.408,0.543,2.553,1.057,3.435,1.54c0.882,0.483,1.603,1.111,2.163,1.883c0.56,0.771,0.84,1.734,0.84,2.888
		c0,1.086-0.304,2.098-0.91,3.034c-0.607,0.938-1.48,1.709-2.621,2.315s-2.763,0.91-4.866,0.91c-2.96,0-5.059-0.568-6.297-1.705
		c-1.239-1.137-1.857-2.596-1.857-4.377v-0.432l5.419-0.369c0,1.162,0.256,1.982,0.77,2.462c0.513,0.479,1.223,0.719,2.131,0.719
		c0.916,0,1.613-0.199,2.093-0.599c0.479-0.398,0.719-0.852,0.719-1.361c0-0.381-0.153-0.733-0.458-1.056s-1.056-0.699-2.252-1.132
		c-2.74-0.984-4.472-1.892-5.197-2.723s-1.088-1.832-1.088-3.003c0-1.068,0.299-2.044,0.897-2.926
		c0.598-0.882,1.467-1.567,2.608-2.055s2.508-0.731,4.103-0.731C163.919,249.694,166.603,251.526,166.926,255.19z"/>
	<path d="M178.529,255.165l-0.789,3.702h-2.71l-0.992,4.771c-0.068,0.204-0.102,0.42-0.102,0.649c0,0.61,0.402,0.915,1.208,0.915
		c0.254,0,0.789-0.08,1.603-0.241l-0.776,3.702c-1.561,0.212-2.706,0.318-3.435,0.318c-1.451,0-2.479-0.348-3.085-1.044
		c-0.606-0.695-0.91-1.454-0.91-2.277c0-0.271,0.123-0.996,0.369-2.175l0.967-4.618h-1.857l0.763-3.702h1.896l0.445-2.112
		l5.789-2.888l-1.069,5H178.529z"/>
	<path d="M180.526,258.867c0.314-1.281,1.028-2.269,2.144-2.965c1.115-0.695,2.844-1.043,5.185-1.043
		c2.654,0,4.446,0.333,5.375,0.999s1.393,1.635,1.393,2.907c0,0.848-0.233,2.243-0.7,4.186c-0.433,1.84-0.649,3.121-0.649,3.842
		c0,0.61,0.11,1.234,0.331,1.87h-5.051c-0.119-0.534-0.178-1.048-0.178-1.539c-1.357,1.238-2.871,1.857-4.542,1.857
		c-1.705,0-2.93-0.398-3.677-1.196c-0.746-0.797-1.119-1.722-1.119-2.773c0-1.196,0.333-2.107,0.999-2.735
		c0.666-0.627,1.486-1.054,2.462-1.278c0.975-0.225,2.307-0.422,3.995-0.592c1.501-0.161,2.502-0.318,3.002-0.471
		c0.102-0.398,0.153-0.704,0.153-0.916c0-0.339-0.172-0.61-0.516-0.814c-0.343-0.203-0.799-0.305-1.367-0.305
		c-0.594,0-1.075,0.095-1.444,0.286c-0.369,0.19-0.693,0.592-0.973,1.202L180.526,258.867z M188.923,262.62
		c-2.384,0.398-3.783,0.751-4.199,1.056c-0.416,0.306-0.623,0.666-0.623,1.082c0,0.432,0.148,0.773,0.445,1.023
		c0.296,0.251,0.678,0.376,1.145,0.376c0.653,0,1.299-0.266,1.94-0.796C188.271,264.832,188.702,263.917,188.923,262.62z"/>
	<path d="M208.986,255.266l-1.908,3.995c-0.399-0.094-0.755-0.141-1.069-0.141c-0.992,0-1.798,0.356-2.417,1.069
		c-0.619,0.712-1.099,1.853-1.438,3.422l-1.069,5.051h-5.191l2.875-13.498h4.847l-0.598,2.658l0.051,0.052
		c0.806-1.196,1.514-1.998,2.125-2.405c0.61-0.407,1.28-0.61,2.01-0.61C207.756,254.859,208.349,254.995,208.986,255.266z"/>
	<path d="M220.13,255.165l-0.789,3.702h-2.71l-0.992,4.771c-0.068,0.204-0.102,0.42-0.102,0.649c0,0.61,0.402,0.915,1.208,0.915
		c0.254,0,0.789-0.08,1.603-0.241l-0.776,3.702c-1.561,0.212-2.706,0.318-3.435,0.318c-1.451,0-2.479-0.348-3.085-1.044
		c-0.606-0.695-0.91-1.454-0.91-2.277c0-0.271,0.123-0.996,0.369-2.175l0.967-4.618h-1.857l0.763-3.702h1.896l0.445-2.112
		l5.789-2.888l-1.069,5H220.13z"/>
	<path d="M237.242,255.165l-2.888,13.498h-4.873l0.471-2.061l-0.063-0.052c-1.408,1.62-3.143,2.431-5.204,2.431
		c-1.238,0-2.165-0.316-2.78-0.948s-0.922-1.393-0.922-2.283c0-0.586,0.178-1.705,0.534-3.359l1.578-7.226h5.178l-1.425,6.59
		c-0.204,0.967-0.32,1.529-0.35,1.686c-0.03,0.157-0.044,0.35-0.044,0.579v0.038c0,0.729,0.331,1.094,0.992,1.094
		c0.78,0,1.457-0.355,2.029-1.068c0.572-0.712,1.003-1.734,1.292-3.066l1.259-5.852H237.242z"/>
	<path d="M244.901,256.577c0.738-0.679,1.399-1.135,1.984-1.368c0.585-0.232,1.289-0.35,2.112-0.35c1.518,0,2.682,0.505,3.492,1.514
		c0.81,1.01,1.215,2.371,1.215,4.084c0,2.29-0.609,4.287-1.826,5.992c-1.217,1.705-2.754,2.558-4.612,2.558
		c-1.892,0-3.321-0.713-4.288-2.138l-1.488,6.959H236.3l4.021-18.663h4.783l-0.254,1.361L244.901,256.577z M245.893,265.507
		c0.755,0,1.403-0.479,1.946-1.438c0.543-0.958,0.814-2.12,0.814-3.486c0-0.831-0.174-1.429-0.521-1.793
		c-0.348-0.365-0.764-0.548-1.247-0.548c-0.958,0-1.694,0.537-2.207,1.609c-0.514,1.073-0.77,2.17-0.77,3.289
		c0,0.797,0.202,1.392,0.604,1.781S245.375,265.507,245.893,265.507z"/>
	<path d="M281.998,268.663h-5.648l-0.254-3.054h-6.082l-1.45,3.054h-6.208l10.534-18.65h6.144L281.998,268.663z M275.727,261.653
		l-0.572-6.794h-0.051l-3.207,6.794H275.727z"/>
	<path d="M300.675,259.859l-4.682,0.254c-0.221-1.179-1.014-1.768-2.379-1.768c-1.264,0-2.235,0.511-2.913,1.532
		c-0.679,1.022-1.019,2.136-1.019,3.34c0,0.729,0.242,1.289,0.726,1.68c0.483,0.39,1.005,0.585,1.564,0.585
		c1.383,0,2.409-0.764,3.079-2.29l4.848,0.521c-1.196,3.512-3.906,5.268-8.13,5.268c-4.758,0-7.138-1.947-7.138-5.84
		c0-2.265,0.785-4.211,2.354-5.84c1.568-1.628,3.778-2.442,6.628-2.442c2.044,0,3.677,0.418,4.898,1.253
		C299.734,256.948,300.454,258.197,300.675,259.859z"/>
	<path d="M318.053,259.859l-4.682,0.254c-0.221-1.179-1.014-1.768-2.379-1.768c-1.264,0-2.235,0.511-2.913,1.532
		c-0.679,1.022-1.019,2.136-1.019,3.34c0,0.729,0.242,1.289,0.726,1.68c0.483,0.39,1.005,0.585,1.564,0.585
		c1.383,0,2.409-0.764,3.079-2.29l4.848,0.521c-1.196,3.512-3.906,5.268-8.13,5.268c-4.758,0-7.138-1.947-7.138-5.84
		c0-2.265,0.785-4.211,2.354-5.84c1.568-1.628,3.778-2.442,6.628-2.442c2.044,0,3.677,0.418,4.898,1.253
		C317.112,256.948,317.832,258.197,318.053,259.859z"/>
	<path d="M334.262,265.202c-0.755,1.341-1.741,2.306-2.958,2.895c-1.218,0.59-2.742,0.885-4.574,0.885
		c-2.663,0-4.557-0.601-5.68-1.801c-1.124-1.2-1.687-2.669-1.687-4.408c0-1.204,0.263-2.339,0.789-3.403s1.238-1.957,2.138-2.678
		c0.898-0.721,1.785-1.206,2.659-1.457c0.873-0.25,1.896-0.375,3.065-0.375c2.52,0,4.326,0.547,5.42,1.642
		c1.094,1.094,1.641,2.438,1.641,4.032c0,0.526-0.114,1.43-0.343,2.71H324.44c0.145,1.807,0.954,2.71,2.431,2.71
		c1,0,1.798-0.407,2.392-1.222L334.262,265.202z M329.936,260.737c0.06-0.187,0.09-0.445,0.09-0.776
		c0-0.687-0.206-1.206-0.617-1.559c-0.412-0.352-0.919-0.527-1.521-0.527c-0.636,0-1.222,0.239-1.756,0.719
		c-0.534,0.479-0.941,1.193-1.222,2.144H329.936z"/>
	<path d="M345.267,250.012l-3.97,18.65h-5.203l3.982-18.65H345.267z"/>
	<path d="M360.317,265.202c-0.755,1.341-1.741,2.306-2.958,2.895c-1.218,0.59-2.742,0.885-4.574,0.885
		c-2.663,0-4.557-0.601-5.68-1.801c-1.124-1.2-1.687-2.669-1.687-4.408c0-1.204,0.263-2.339,0.789-3.403s1.238-1.957,2.138-2.678
		c0.898-0.721,1.785-1.206,2.659-1.457c0.873-0.25,1.896-0.375,3.065-0.375c2.52,0,4.326,0.547,5.42,1.642
		c1.094,1.094,1.641,2.438,1.641,4.032c0,0.526-0.114,1.43-0.343,2.71h-10.293c0.145,1.807,0.954,2.71,2.431,2.71
		c1,0,1.798-0.407,2.392-1.222L360.317,265.202z M355.99,260.737c0.06-0.187,0.09-0.445,0.09-0.776c0-0.687-0.206-1.206-0.617-1.559
		c-0.412-0.352-0.919-0.527-1.521-0.527c-0.636,0-1.222,0.239-1.756,0.719c-0.534,0.479-0.941,1.193-1.222,2.144H355.99z"/>
	<path d="M375.1,255.266l-1.908,3.995c-0.398-0.094-0.755-0.141-1.068-0.141c-0.993,0-1.799,0.356-2.418,1.069
		c-0.619,0.712-1.098,1.853-1.438,3.422l-1.068,5.051h-5.19l2.875-13.498h4.847l-0.598,2.658l0.051,0.052
		c0.806-1.196,1.515-1.998,2.125-2.405s1.28-0.61,2.01-0.61C373.87,254.859,374.464,254.995,375.1,255.266z"/>
	<path d="M375.838,258.867c0.313-1.281,1.028-2.269,2.144-2.965c1.115-0.695,2.844-1.043,5.185-1.043
		c2.654,0,4.446,0.333,5.375,0.999s1.394,1.635,1.394,2.907c0,0.848-0.233,2.243-0.7,4.186c-0.433,1.84-0.648,3.121-0.648,3.842
		c0,0.61,0.109,1.234,0.33,1.87h-5.051c-0.118-0.534-0.178-1.048-0.178-1.539c-1.357,1.238-2.871,1.857-4.542,1.857
		c-1.704,0-2.931-0.398-3.677-1.196c-0.746-0.797-1.119-1.722-1.119-2.773c0-1.196,0.333-2.107,0.998-2.735
		c0.666-0.627,1.486-1.054,2.462-1.278s2.308-0.422,3.995-0.592c1.501-0.161,2.502-0.318,3.003-0.471
		c0.102-0.398,0.152-0.704,0.152-0.916c0-0.339-0.172-0.61-0.516-0.814c-0.344-0.203-0.799-0.305-1.367-0.305
		c-0.594,0-1.075,0.095-1.444,0.286c-0.369,0.19-0.693,0.592-0.973,1.202L375.838,258.867z M384.235,262.62
		c-2.383,0.398-3.782,0.751-4.198,1.056c-0.415,0.306-0.623,0.666-0.623,1.082c0,0.432,0.148,0.773,0.445,1.023
		c0.297,0.251,0.679,0.376,1.145,0.376c0.653,0,1.3-0.266,1.94-0.796C383.584,264.832,384.014,263.917,384.235,262.62z"/>
	<path d="M402.53,255.165l-0.789,3.702h-2.71l-0.992,4.771c-0.068,0.204-0.102,0.42-0.102,0.649c0,0.61,0.402,0.915,1.208,0.915
		c0.255,0,0.789-0.08,1.604-0.241l-0.776,3.702c-1.561,0.212-2.705,0.318-3.435,0.318c-1.45,0-2.479-0.348-3.085-1.044
		c-0.606-0.695-0.91-1.454-0.91-2.277c0-0.271,0.123-0.996,0.369-2.175l0.967-4.618h-1.857l0.764-3.702h1.896l0.445-2.112
		l5.788-2.888l-1.068,5H402.53z"/>
	<path d="M411.804,254.859c2.417,0,4.179,0.61,5.286,1.832c1.106,1.222,1.66,2.65,1.66,4.287c0,1.247-0.318,2.516-0.954,3.805
		c-0.637,1.289-1.593,2.311-2.869,3.065s-2.848,1.133-4.714,1.133c-2.366,0-4.113-0.583-5.241-1.75
		c-1.128-1.166-1.692-2.618-1.692-4.357c0-1.365,0.338-2.684,1.012-3.956s1.651-2.267,2.933-2.983
		C408.504,255.217,410.031,254.859,411.804,254.859z M410.544,265.482c0.967,0,1.734-0.494,2.303-1.482
		c0.568-0.987,0.853-2.084,0.853-3.288c0-0.874-0.217-1.486-0.648-1.839c-0.433-0.352-0.912-0.527-1.438-0.527
		c-1.094,0-1.914,0.496-2.461,1.488c-0.548,0.992-0.821,2.006-0.821,3.04c0,0.747,0.215,1.368,0.643,1.864
		C409.402,265.234,409.925,265.482,410.544,265.482z"/>
	<path d="M432.987,255.266l-1.908,3.995c-0.398-0.094-0.755-0.141-1.068-0.141c-0.993,0-1.799,0.356-2.418,1.069
		c-0.619,0.712-1.098,1.853-1.438,3.422l-1.068,5.051h-5.19l2.875-13.498h4.847l-0.598,2.658l0.051,0.052
		c0.806-1.196,1.515-1.998,2.125-2.405s1.28-0.61,2.01-0.61C431.757,254.859,432.351,254.995,432.987,255.266z"/>
</g>
</svg>
