<?xml version="1.0" encoding="utf-8"?>
<!-- Generator: Adobe Illustrator 25.2.1, SVG Export Plug-In . SVG Version: 6.00 Build 0)  -->
<svg version="1.1" id="圖層_1" xmlns="http://www.w3.org/2000/svg" xmlns:xlink="http://www.w3.org/1999/xlink" x="0px" y="0px"
	 width="101px" height="32px" viewBox="0 0 101 32" style="enable-background:new 0 0 101 32;" xml:space="preserve">
<style type="text/css">
	.st0{fill:#113261;}
</style>
<g>
	<g>
		<path class="st0" d="M36.6,3.5h5.7v18.8h-5.7V3.5z"/>
		<path class="st0" d="M57.7,19.2h-6.4l-0.9,3.1h-5.8l6.9-18.8h6.2l6.9,18.8h-5.9L57.7,19.2z M56.5,15.2l-2-6.8l-2,6.8H56.5z"/>
		<path class="st0" d="M66.3,3.5h9.4c2.1,0,3.6,0.5,4.6,1.5s1.5,2.4,1.5,4.3c0,1.9-0.6,3.4-1.7,4.5c-1.1,1.1-2.8,1.6-5.1,1.6H72v7
			h-5.7V3.5z M72,11.5h1.4c1.1,0,1.9-0.2,2.3-0.6c0.4-0.4,0.7-0.9,0.7-1.5c0-0.6-0.2-1.1-0.6-1.5c-0.4-0.4-1.1-0.6-2.2-0.6H72V11.5z
			"/>
		<path class="st0" d="M83.9,16.1l5.4-0.3c0.1,0.9,0.4,1.6,0.7,2.1c0.6,0.8,1.4,1.1,2.5,1.1c0.8,0,1.4-0.2,1.9-0.6
			C94.8,18,95,17.5,95,17c0-0.5-0.2-0.9-0.6-1.3C94,15.3,93,15,91.5,14.6c-2.5-0.6-4.3-1.3-5.3-2.3c-1.1-0.9-1.6-2.2-1.6-3.6
			c0-1,0.3-1.9,0.8-2.7c0.5-0.9,1.4-1.5,2.5-2c1.1-0.5,2.6-0.7,4.5-0.7c2.3,0,4.1,0.4,5.4,1.3c1.2,0.9,2,2.3,2.2,4.3l-5.4,0.3
			c-0.1-0.8-0.4-1.5-0.9-1.8c-0.5-0.4-1.1-0.6-1.9-0.6c-0.7,0-1.2,0.1-1.5,0.4c-0.3,0.3-0.5,0.6-0.5,1c0,0.3,0.1,0.6,0.4,0.8
			c0.3,0.2,0.9,0.5,1.9,0.7c2.5,0.5,4.3,1.1,5.3,1.7c1.1,0.6,1.9,1.3,2.3,2.1c0.5,0.8,0.7,1.8,0.7,2.8c0,1.2-0.3,2.3-1,3.3
			c-0.7,1-1.6,1.8-2.7,2.3c-1.2,0.5-2.6,0.8-4.4,0.8c-3.1,0-5.3-0.6-6.5-1.8C84.7,19.6,84,18,83.9,16.1z"/>
	</g>
	<g>
		<path class="st0" d="M36.6,28.6v-2.3h0l1.5,1.8v-1.8h0.2v2.3h-0.1l-1.5-1.7v1.7H36.6z"/>
		<path class="st0" d="M40.6,26.9v1.7h-0.2v-0.3c-0.1,0.1-0.2,0.2-0.3,0.3c-0.1,0.1-0.2,0.1-0.4,0.1c-0.2,0-0.4-0.1-0.6-0.3
			c-0.2-0.2-0.3-0.4-0.3-0.6c0-0.2,0.1-0.5,0.3-0.6c0.2-0.2,0.4-0.3,0.6-0.3c0.1,0,0.3,0,0.4,0.1c0.1,0.1,0.2,0.1,0.3,0.3v-0.3H40.6
			z M39.7,27.1c-0.1,0-0.2,0-0.3,0.1c-0.1,0.1-0.2,0.1-0.2,0.3c-0.1,0.1-0.1,0.2-0.1,0.3c0,0.1,0,0.2,0.1,0.3
			c0.1,0.1,0.1,0.2,0.2,0.3s0.2,0.1,0.3,0.1c0.1,0,0.2,0,0.3-0.1c0.1-0.1,0.2-0.1,0.2-0.2c0.1-0.1,0.1-0.2,0.1-0.3
			c0-0.2-0.1-0.4-0.2-0.5C40.1,27.2,39.9,27.1,39.7,27.1z"/>
		<path class="st0" d="M41.3,26.3h0.2v0.6h0.3v0.2h-0.3v1.5h-0.2v-1.5H41v-0.2h0.3V26.3z"/>
		<path class="st0" d="M42.2,26.2c0,0,0.1,0,0.1,0.1c0,0,0.1,0.1,0.1,0.1c0,0,0,0.1-0.1,0.1c0,0-0.1,0.1-0.1,0.1c0,0-0.1,0-0.1-0.1
			c0,0-0.1-0.1-0.1-0.1c0,0,0-0.1,0.1-0.1C42.1,26.3,42.2,26.2,42.2,26.2z M42.1,26.9h0.2v1.7h-0.2V26.9z"/>
		<path class="st0" d="M43.6,26.9c0.3,0,0.5,0.1,0.6,0.3c0.2,0.2,0.2,0.4,0.2,0.6c0,0.2-0.1,0.4-0.2,0.6s-0.4,0.3-0.6,0.3
			c-0.3,0-0.5-0.1-0.6-0.3s-0.2-0.4-0.2-0.6c0-0.2,0.1-0.4,0.2-0.6C43.1,27,43.3,26.9,43.6,26.9z M43.6,27.1c-0.2,0-0.3,0.1-0.5,0.2
			c-0.1,0.1-0.2,0.3-0.2,0.5c0,0.1,0,0.2,0.1,0.3c0.1,0.1,0.1,0.2,0.2,0.2c0.1,0.1,0.2,0.1,0.3,0.1c0.1,0,0.2,0,0.3-0.1
			c0.1-0.1,0.2-0.1,0.2-0.2c0.1-0.1,0.1-0.2,0.1-0.3c0-0.2-0.1-0.4-0.2-0.5C43.9,27.2,43.8,27.1,43.6,27.1z"/>
		<path class="st0" d="M44.9,26.9h0.2v0.3c0.1-0.1,0.2-0.2,0.3-0.3c0.1-0.1,0.2-0.1,0.3-0.1c0.1,0,0.2,0,0.3,0.1
			c0.1,0.1,0.2,0.2,0.2,0.3c0,0.1,0.1,0.3,0.1,0.5v0.9h-0.2v-0.8c0-0.2,0-0.3,0-0.4c0-0.1-0.1-0.2-0.1-0.3c-0.1-0.1-0.2-0.1-0.3-0.1
			c-0.1,0-0.2,0-0.4,0.1c-0.1,0.1-0.2,0.2-0.2,0.3c0,0.1,0,0.2,0,0.5v0.6h-0.2V26.9z"/>
		<path class="st0" d="M48.5,26.9v1.7h-0.2v-0.3c-0.1,0.1-0.2,0.2-0.3,0.3c-0.1,0.1-0.2,0.1-0.4,0.1c-0.2,0-0.4-0.1-0.6-0.3
			c-0.2-0.2-0.3-0.4-0.3-0.6c0-0.2,0.1-0.5,0.3-0.6c0.2-0.2,0.4-0.3,0.6-0.3c0.1,0,0.3,0,0.4,0.1c0.1,0.1,0.2,0.1,0.3,0.3v-0.3H48.5
			z M47.6,27.1c-0.1,0-0.2,0-0.3,0.1c-0.1,0.1-0.2,0.1-0.2,0.3c-0.1,0.1-0.1,0.2-0.1,0.3c0,0.1,0,0.2,0.1,0.3
			c0.1,0.1,0.1,0.2,0.2,0.3s0.2,0.1,0.3,0.1c0.1,0,0.2,0,0.3-0.1s0.2-0.1,0.2-0.2c0.1-0.1,0.1-0.2,0.1-0.3c0-0.2-0.1-0.4-0.2-0.5
			C48,27.2,47.8,27.1,47.6,27.1z"/>
		<path class="st0" d="M48.9,26.3h0.2v2.4h-0.2V26.3z"/>
		<path class="st0" d="M50.3,26.3h0.3l0.6,0.9l0.6-0.9H52l-0.7,1.2v1.1h-0.2v-1.1L50.3,26.3z"/>
		<path class="st0" d="M54,26.9v1.7h-0.2v-0.3c-0.1,0.1-0.2,0.2-0.3,0.3c-0.1,0.1-0.2,0.1-0.4,0.1c-0.2,0-0.4-0.1-0.6-0.3
			c-0.2-0.2-0.3-0.4-0.3-0.6c0-0.2,0.1-0.5,0.3-0.6c0.2-0.2,0.4-0.3,0.6-0.3c0.1,0,0.3,0,0.4,0.1c0.1,0.1,0.2,0.1,0.3,0.3v-0.3H54z
			 M53.2,27.1c-0.1,0-0.2,0-0.3,0.1c-0.1,0.1-0.2,0.1-0.2,0.3c-0.1,0.1-0.1,0.2-0.1,0.3c0,0.1,0,0.2,0.1,0.3
			c0.1,0.1,0.1,0.2,0.2,0.3s0.2,0.1,0.3,0.1c0.1,0,0.2,0,0.3-0.1s0.2-0.1,0.2-0.2c0.1-0.1,0.1-0.2,0.1-0.3c0-0.2-0.1-0.4-0.2-0.5
			C53.5,27.2,53.3,27.1,53.2,27.1z"/>
		<path class="st0" d="M54.5,26.9h0.2v0.3c0.1-0.1,0.2-0.2,0.3-0.3c0.1-0.1,0.2-0.1,0.3-0.1c0.1,0,0.2,0,0.3,0.1
			c0.1,0.1,0.2,0.2,0.2,0.3c0,0.1,0.1,0.3,0.1,0.5v0.9h-0.2v-0.8c0-0.2,0-0.3,0-0.4c0-0.1-0.1-0.2-0.1-0.3c-0.1-0.1-0.2-0.1-0.3-0.1
			c-0.1,0-0.2,0-0.4,0.1c-0.1,0.1-0.2,0.2-0.2,0.3c0,0.1,0,0.2,0,0.5v0.6h-0.2V26.9z"/>
		<path class="st0" d="M57.9,26.9h0.2v1.4c0,0.2,0,0.4-0.1,0.5c-0.1,0.2-0.2,0.3-0.3,0.4c-0.1,0.1-0.3,0.1-0.5,0.1
			c-0.1,0-0.3,0-0.4-0.1c-0.1,0-0.2-0.1-0.3-0.2c-0.1-0.1-0.1-0.2-0.2-0.3h0.2c0.1,0.1,0.1,0.2,0.2,0.2c0.1,0.1,0.2,0.1,0.4,0.1
			c0.1,0,0.3,0,0.4-0.1c0.1-0.1,0.2-0.1,0.2-0.2c0-0.1,0.1-0.2,0.1-0.4v-0.1c-0.1,0.1-0.2,0.2-0.3,0.2c-0.1,0.1-0.2,0.1-0.4,0.1
			c-0.2,0-0.3,0-0.4-0.1c-0.1-0.1-0.2-0.2-0.3-0.3c-0.1-0.1-0.1-0.3-0.1-0.4s0-0.3,0.1-0.4c0.1-0.1,0.2-0.2,0.3-0.3
			c0.1-0.1,0.3-0.1,0.4-0.1c0.1,0,0.2,0,0.4,0.1c0.1,0.1,0.2,0.1,0.3,0.3V26.9z M57.3,27.1c-0.1,0-0.2,0-0.3,0.1
			c-0.1,0.1-0.2,0.1-0.2,0.2c-0.1,0.1-0.1,0.2-0.1,0.3c0,0.2,0.1,0.3,0.2,0.5c0.1,0.1,0.3,0.2,0.5,0.2c0.2,0,0.4-0.1,0.5-0.2
			c0.1-0.1,0.2-0.3,0.2-0.5c0-0.1,0-0.2-0.1-0.3c-0.1-0.1-0.1-0.2-0.2-0.2C57.5,27.1,57.4,27.1,57.3,27.1z"/>
		<path class="st0" d="M59.4,28.6l0.3-2.3h0l0.9,1.9l0.9-1.9h0l0.3,2.3h-0.2L61.5,27l-0.8,1.6h-0.1L59.8,27l-0.2,1.7H59.4z"/>
		<path class="st0" d="M62.4,26.2c0,0,0.1,0,0.1,0.1c0,0,0.1,0.1,0.1,0.1c0,0,0,0.1-0.1,0.1c0,0-0.1,0.1-0.1,0.1c0,0-0.1,0-0.1-0.1
			c0,0-0.1-0.1-0.1-0.1c0,0,0-0.1,0.1-0.1C62.4,26.3,62.4,26.2,62.4,26.2z M62.3,26.9h0.2v1.7h-0.2V26.9z"/>
		<path class="st0" d="M63,26.9h0.2v0.3c0.1-0.1,0.2-0.2,0.3-0.3c0.1-0.1,0.2-0.1,0.3-0.1c0.1,0,0.2,0,0.3,0.1
			c0.1,0.1,0.2,0.2,0.2,0.3c0,0.1,0.1,0.3,0.1,0.5v0.9h-0.2v-0.8c0-0.2,0-0.3,0-0.4c0-0.1-0.1-0.2-0.1-0.3c-0.1-0.1-0.2-0.1-0.3-0.1
			c-0.1,0-0.2,0-0.4,0.1c-0.1,0.1-0.2,0.2-0.2,0.3c0,0.1,0,0.2,0,0.5v0.6H63V26.9z"/>
		<path class="st0" d="M66.4,26.9h0.2v1.4c0,0.2,0,0.4-0.1,0.5c-0.1,0.2-0.2,0.3-0.3,0.4c-0.1,0.1-0.3,0.1-0.5,0.1
			c-0.1,0-0.3,0-0.4-0.1c-0.1,0-0.2-0.1-0.3-0.2c-0.1-0.1-0.1-0.2-0.2-0.3h0.2c0.1,0.1,0.1,0.2,0.2,0.2s0.2,0.1,0.4,0.1
			c0.1,0,0.3,0,0.4-0.1c0.1-0.1,0.2-0.1,0.2-0.2c0-0.1,0.1-0.2,0.1-0.4v-0.1c-0.1,0.1-0.2,0.2-0.3,0.2c-0.1,0.1-0.2,0.1-0.4,0.1
			c-0.2,0-0.3,0-0.4-0.1c-0.1-0.1-0.2-0.2-0.3-0.3c-0.1-0.1-0.1-0.3-0.1-0.4s0-0.3,0.1-0.4c0.1-0.1,0.2-0.2,0.3-0.3
			c0.1-0.1,0.3-0.1,0.4-0.1c0.1,0,0.2,0,0.4,0.1c0.1,0.1,0.2,0.1,0.3,0.3V26.9z M65.8,27.1c-0.1,0-0.2,0-0.3,0.1
			c-0.1,0.1-0.2,0.1-0.2,0.2c-0.1,0.1-0.1,0.2-0.1,0.3c0,0.2,0.1,0.3,0.2,0.5c0.1,0.1,0.3,0.2,0.5,0.2c0.2,0,0.4-0.1,0.5-0.2
			c0.1-0.1,0.2-0.3,0.2-0.5c0-0.1,0-0.2-0.1-0.3c-0.1-0.1-0.1-0.2-0.2-0.2C66,27.1,65.9,27.1,65.8,27.1z"/>
		<path class="st0" d="M70.1,26.8l-0.2,0.1c-0.1-0.1-0.2-0.2-0.4-0.3c-0.1-0.1-0.3-0.1-0.5-0.1c-0.2,0-0.3,0-0.5,0.1
			c-0.2,0.1-0.3,0.2-0.4,0.4c-0.1,0.1-0.1,0.3-0.1,0.5c0,0.3,0.1,0.5,0.3,0.7c0.2,0.2,0.4,0.3,0.7,0.3c0.3,0,0.6-0.1,0.8-0.4
			l0.2,0.1c-0.1,0.1-0.3,0.3-0.4,0.3c-0.2,0.1-0.4,0.1-0.6,0.1c-0.4,0-0.7-0.1-0.9-0.4c-0.2-0.2-0.3-0.5-0.3-0.8
			c0-0.3,0.1-0.6,0.4-0.8c0.2-0.2,0.5-0.3,0.9-0.3c0.2,0,0.4,0,0.6,0.1C69.9,26.5,70,26.6,70.1,26.8z"/>
		<path class="st0" d="M70.5,26.3h0.2v1c0.1-0.1,0.2-0.2,0.3-0.3c0.1-0.1,0.2-0.1,0.3-0.1c0.1,0,0.2,0,0.3,0.1
			c0.1,0.1,0.2,0.2,0.2,0.3c0,0.1,0.1,0.3,0.1,0.5v0.9h-0.2v-0.8c0-0.2,0-0.3,0-0.4c0-0.1-0.1-0.2-0.1-0.3c-0.1-0.1-0.2-0.1-0.3-0.1
			c-0.1,0-0.2,0-0.4,0.1c-0.1,0.1-0.2,0.2-0.2,0.3c0,0.1,0,0.2,0,0.5v0.6h-0.2V26.3z"/>
		<path class="st0" d="M72.5,26.2c0,0,0.1,0,0.1,0.1c0,0,0.1,0.1,0.1,0.1c0,0,0,0.1-0.1,0.1c0,0-0.1,0.1-0.1,0.1c0,0-0.1,0-0.1-0.1
			c0,0-0.1-0.1-0.1-0.1c0,0,0-0.1,0.1-0.1C72.4,26.3,72.5,26.2,72.5,26.2z M72.4,26.9h0.2v1.7h-0.2V26.9z"/>
		<path class="st0" d="M74.8,26.9v1.7h-0.2v-0.3c-0.1,0.1-0.2,0.2-0.3,0.3c-0.1,0.1-0.2,0.1-0.4,0.1c-0.2,0-0.4-0.1-0.6-0.3
			C73.1,28.2,73,28,73,27.8c0-0.2,0.1-0.5,0.3-0.6c0.2-0.2,0.4-0.3,0.6-0.3c0.1,0,0.3,0,0.4,0.1c0.1,0.1,0.2,0.1,0.3,0.3v-0.3H74.8z
			 M73.9,27.1c-0.1,0-0.2,0-0.3,0.1c-0.1,0.1-0.2,0.1-0.2,0.3c-0.1,0.1-0.1,0.2-0.1,0.3c0,0.1,0,0.2,0.1,0.3
			c0.1,0.1,0.1,0.2,0.2,0.3s0.2,0.1,0.3,0.1c0.1,0,0.2,0,0.3-0.1c0.1-0.1,0.2-0.1,0.2-0.2c0.1-0.1,0.1-0.2,0.1-0.3
			c0-0.2-0.1-0.4-0.2-0.5C74.3,27.2,74.1,27.1,73.9,27.1z"/>
		<path class="st0" d="M76.1,26.9c0.3,0,0.5,0.1,0.6,0.3c0.2,0.2,0.2,0.4,0.2,0.6c0,0.2-0.1,0.4-0.2,0.6s-0.4,0.3-0.6,0.3
			c-0.3,0-0.5-0.1-0.6-0.3c-0.2-0.2-0.2-0.4-0.2-0.6c0-0.2,0.1-0.4,0.2-0.6C75.6,27,75.8,26.9,76.1,26.9z M76.1,27.1
			c-0.2,0-0.3,0.1-0.5,0.2c-0.1,0.1-0.2,0.3-0.2,0.5c0,0.1,0,0.2,0.1,0.3c0.1,0.1,0.1,0.2,0.2,0.2c0.1,0.1,0.2,0.1,0.3,0.1
			c0.1,0,0.2,0,0.3-0.1c0.1-0.1,0.2-0.1,0.2-0.2c0.1-0.1,0.1-0.2,0.1-0.3c0-0.2-0.1-0.4-0.2-0.5C76.4,27.2,76.2,27.1,76.1,27.1z"/>
		<path class="st0" d="M78,26.6v-0.2h1.2v0.2h-0.5v2.1h-0.2v-2.1H78z"/>
		<path class="st0" d="M79.5,26.9h0.2v0.8c0,0.2,0,0.3,0,0.4c0,0.1,0.1,0.2,0.2,0.2c0.1,0.1,0.2,0.1,0.3,0.1c0.1,0,0.2,0,0.3-0.1
			c0.1-0.1,0.1-0.1,0.2-0.2c0-0.1,0-0.2,0-0.4v-0.8H81v0.8c0,0.2,0,0.4-0.1,0.5c-0.1,0.1-0.1,0.2-0.2,0.3c-0.1,0.1-0.2,0.1-0.4,0.1
			s-0.3,0-0.4-0.1c-0.1-0.1-0.2-0.2-0.2-0.3c-0.1-0.1-0.1-0.3-0.1-0.5V26.9z"/>
		<path class="st0" d="M81.5,26.9h0.2v0.3c0.1-0.1,0.2-0.2,0.3-0.3c0.1-0.1,0.2-0.1,0.3-0.1c0.1,0,0.2,0,0.3,0.1
			c0.1,0.1,0.2,0.2,0.2,0.3c0,0.1,0.1,0.3,0.1,0.5v0.9h-0.2v-0.8c0-0.2,0-0.3,0-0.4c0-0.1-0.1-0.2-0.1-0.3c-0.1-0.1-0.2-0.1-0.3-0.1
			c-0.1,0-0.2,0-0.4,0.1c-0.1,0.1-0.2,0.2-0.2,0.3c0,0.1,0,0.2,0,0.5v0.6h-0.2V26.9z"/>
		<path class="st0" d="M84.9,26.9h0.2v1.4c0,0.2,0,0.4-0.1,0.5c-0.1,0.2-0.2,0.3-0.3,0.4c-0.1,0.1-0.3,0.1-0.5,0.1
			c-0.1,0-0.3,0-0.4-0.1c-0.1,0-0.2-0.1-0.3-0.2c-0.1-0.1-0.1-0.2-0.2-0.3h0.2c0.1,0.1,0.1,0.2,0.2,0.2s0.2,0.1,0.4,0.1
			c0.1,0,0.3,0,0.4-0.1c0.1-0.1,0.2-0.1,0.2-0.2c0-0.1,0.1-0.2,0.1-0.4v-0.1c-0.1,0.1-0.2,0.2-0.3,0.2c-0.1,0.1-0.2,0.1-0.4,0.1
			c-0.2,0-0.3,0-0.4-0.1c-0.1-0.1-0.2-0.2-0.3-0.3c-0.1-0.1-0.1-0.3-0.1-0.4s0-0.3,0.1-0.4c0.1-0.1,0.2-0.2,0.3-0.3
			c0.1-0.1,0.3-0.1,0.4-0.1c0.1,0,0.2,0,0.4,0.1c0.1,0.1,0.2,0.1,0.3,0.3V26.9z M84.2,27.1c-0.1,0-0.2,0-0.3,0.1
			c-0.1,0.1-0.2,0.1-0.2,0.2c-0.1,0.1-0.1,0.2-0.1,0.3c0,0.2,0.1,0.3,0.2,0.5c0.1,0.1,0.3,0.2,0.5,0.2c0.2,0,0.4-0.1,0.5-0.2
			c0.1-0.1,0.2-0.3,0.2-0.5c0-0.1,0-0.2-0.1-0.3c-0.1-0.1-0.1-0.2-0.2-0.2C84.5,27.1,84.4,27.1,84.2,27.1z"/>
		<path class="st0" d="M86.5,26.3h0.2v1.4c0,0.2,0,0.3,0,0.3c0,0.1,0,0.2,0.1,0.2c0,0.1,0.1,0.1,0.2,0.2c0.1,0,0.2,0.1,0.3,0.1
			c0.1,0,0.1,0,0.2,0s0.1-0.1,0.2-0.1c0-0.1,0.1-0.1,0.1-0.2c0-0.1,0-0.2,0-0.4v-1.4H88v1.4c0,0.2,0,0.4-0.1,0.5s-0.1,0.2-0.2,0.3
			c-0.1,0.1-0.3,0.1-0.4,0.1c-0.2,0-0.3,0-0.5-0.1c-0.1-0.1-0.2-0.2-0.3-0.4c0-0.1,0-0.3,0-0.5V26.3z"/>
		<path class="st0" d="M88.5,26.9h0.2v0.3c0.1-0.1,0.2-0.2,0.3-0.3c0.1-0.1,0.2-0.1,0.3-0.1c0.1,0,0.2,0,0.3,0.1
			c0.1,0.1,0.2,0.2,0.2,0.3c0,0.1,0.1,0.3,0.1,0.5v0.9h-0.2v-0.8c0-0.2,0-0.3,0-0.4c0-0.1-0.1-0.2-0.1-0.3c-0.1-0.1-0.2-0.1-0.3-0.1
			c-0.1,0-0.2,0-0.4,0.1c-0.1,0.1-0.2,0.2-0.2,0.3c0,0.1,0,0.2,0,0.5v0.6h-0.2V26.9z"/>
		<path class="st0" d="M90.5,26.2c0,0,0.1,0,0.1,0.1c0,0,0.1,0.1,0.1,0.1c0,0,0,0.1-0.1,0.1c0,0-0.1,0.1-0.1,0.1c0,0-0.1,0-0.1-0.1
			c0,0-0.1-0.1-0.1-0.1c0,0,0-0.1,0.1-0.1C90.4,26.3,90.5,26.2,90.5,26.2z M90.4,26.9h0.2v1.7h-0.2V26.9z"/>
		<path class="st0" d="M90.9,26.9h0.2l0.6,1.2l0.6-1.2h0.2l-0.8,1.7h0L90.9,26.9z"/>
		<path class="st0" d="M94.3,28.1l0.2,0.1c-0.1,0.1-0.1,0.2-0.2,0.3c-0.1,0.1-0.2,0.1-0.3,0.2c-0.1,0-0.2,0.1-0.3,0.1
			c-0.3,0-0.5-0.1-0.6-0.3c-0.2-0.2-0.2-0.4-0.2-0.6c0-0.2,0.1-0.4,0.2-0.6c0.2-0.2,0.4-0.3,0.7-0.3c0.3,0,0.5,0.1,0.7,0.3
			c0.1,0.2,0.2,0.3,0.2,0.6H93c0,0.2,0.1,0.4,0.2,0.5c0.1,0.1,0.3,0.2,0.4,0.2c0.1,0,0.2,0,0.3,0c0.1,0,0.2-0.1,0.2-0.1
			C94.1,28.3,94.2,28.2,94.3,28.1z M94.3,27.6c0-0.1-0.1-0.2-0.1-0.3c-0.1-0.1-0.1-0.1-0.2-0.2c-0.1,0-0.2-0.1-0.3-0.1
			c-0.2,0-0.3,0.1-0.4,0.2c-0.1,0.1-0.2,0.2-0.2,0.4H94.3z"/>
		<path class="st0" d="M94.8,26.9H95v0.2c0.1-0.1,0.1-0.2,0.2-0.2s0.1-0.1,0.2-0.1c0.1,0,0.1,0,0.2,0.1l-0.1,0.2c0,0-0.1,0-0.1,0
			c-0.1,0-0.1,0-0.2,0.1c-0.1,0.1-0.1,0.2-0.2,0.3c0,0.1,0,0.3,0,0.6v0.6h-0.2V26.9z"/>
		<path class="st0" d="M96.7,27.1l-0.1,0.1c-0.1-0.1-0.2-0.2-0.3-0.2c-0.1,0-0.1,0-0.2,0.1c-0.1,0-0.1,0.1-0.1,0.2
			c0,0.1,0,0.1,0.1,0.2c0,0.1,0.1,0.1,0.3,0.2c0.2,0.1,0.3,0.2,0.3,0.2c0.1,0.1,0.1,0.2,0.1,0.3c0,0.1,0,0.3-0.1,0.4
			c-0.1,0.1-0.2,0.1-0.4,0.1c-0.1,0-0.2,0-0.3-0.1c-0.1,0-0.2-0.1-0.2-0.2l0.1-0.2c0.1,0.1,0.2,0.2,0.4,0.2c0.1,0,0.2,0,0.2-0.1
			c0.1-0.1,0.1-0.1,0.1-0.2c0-0.1,0-0.1-0.1-0.2c0,0-0.1-0.1-0.3-0.2c-0.2-0.1-0.3-0.2-0.3-0.2c-0.1-0.1-0.1-0.2-0.1-0.3
			c0-0.1,0-0.2,0.1-0.3c0.1-0.1,0.2-0.1,0.3-0.1C96.4,26.9,96.5,27,96.7,27.1z"/>
		<path class="st0" d="M97.2,26.2c0,0,0.1,0,0.1,0.1c0,0,0.1,0.1,0.1,0.1c0,0,0,0.1-0.1,0.1c0,0-0.1,0.1-0.1,0.1c0,0-0.1,0-0.1-0.1
			c0,0-0.1-0.1-0.1-0.1c0,0,0-0.1,0.1-0.1C97.1,26.3,97.1,26.2,97.2,26.2z M97,26.9h0.2v1.7H97V26.9z"/>
		<path class="st0" d="M97.9,26.3h0.2v0.6h0.3v0.2h-0.3v1.5h-0.2v-1.5h-0.3v-0.2h0.3V26.3z"/>
		<path class="st0" d="M98.6,26.9h0.2l0.6,1.3l0.6-1.3h0.2l-1,2.3H99l0.3-0.7L98.6,26.9z"/>
	</g>
	<path class="st0" d="M11,5.7c0,0-4.2,3.8-10.2,4.8c0,0-0.3,0-0.3,0.1s-0.4,2.1,0.9,5c0,0,0.1,0.2,0.3,0.2c0.1,0,0.9-0.1,1.9-0.7
		c0,0,0.2,0,0.1,0.1c0,0.2,1,13.1,14.2,15.6c0,0,0.2,0,0-0.1C17.7,30.6,1.8,21.1,11,5.7z"/>
	<g>
		<path class="st0" d="M33,16.8c-0.8,0.8-1.7,1.5-2.6,2.1c1.2,2.1,1.8,3.8,1.8,3.8c0.6-1.3,0.9-2.8,0.9-4.4
			C33.1,17.8,33.1,17.3,33,16.8z"/>
		<path class="st0" d="M29.6,17.6c2.1-0.9,3.1-1.7,3.2-1.8c-1.1-4.9-5.5-8.5-10.7-8.5c-0.5,0-0.9,0-1.4,0.1
			c-0.5,0.9-0.9,1.8-1.3,2.6C24.3,11,27.6,14.5,29.6,17.6z"/>
		<path class="st0" d="M18.8,11.8c-1,2.8-1.5,5.5-1.6,7.8c4.7,0.2,8.4-0.5,10.9-1.4C24.8,14.5,21.5,12.7,18.8,11.8z"/>
		<path class="st0" d="M15,20.7c-2.2-0.4-3.6-0.9-3.7-0.9c0.4,3.3,2.3,6.1,5,7.8C15.1,25.5,14.8,23.1,15,20.7z"/>
		<path class="st0" d="M18.6,10c0.6-1.1,1.1-1.9,1.4-2.4c-1.9,0.4-3.7,1.3-5.1,2.5C16.2,9.9,17.5,9.9,18.6,10z"/>
		<path class="st0" d="M17.2,21.1c0,4.5,1,7.4,1.1,7.5c1.2,0.5,2.5,0.7,3.9,0.7c4.3,0,7.9-2.4,9.8-6c-0.8-1.4-1.7-2.7-2.6-3.8
			C25.4,21.5,20.8,21.5,17.2,21.1z"/>
		<path class="st0" d="M17.8,11.5c-2.2-0.6-3.6-0.6-3.7-0.6c-1.8,2-2.9,4.6-2.9,7.4c0,0.2,0,0.4,0,0.5c1.4,0.2,2.7,0.4,3.9,0.5
			C15.6,16.5,16.7,13.7,17.8,11.5z"/>
	</g>
	<path class="st0" d="M22.5,5.8c0,0-3.5-0.8-6.8-4.5c0,0-0.2-0.3-0.5,0c-0.3,0.2-1.5,1-2.3,2.2c0,0-0.2,0.3,0,0.5
		c0,0,0.9,0.7,1.1,0.8c0,0-7.6,6-3.7,14.6C10.4,19.4,9.8,6,22.5,5.8z"/>
</g>
</svg>
