<?xml version="1.0" encoding="utf-8"?>
<!-- Generator: Adobe Illustrator 25.2.3, SVG Export Plug-In . SVG Version: 6.00 Build 0)  -->
<svg version="1.1" id="圖層_1" xmlns="http://www.w3.org/2000/svg" xmlns:xlink="http://www.w3.org/1999/xlink" x="0px" y="0px"
	 width="446px" height="115.1px" viewBox="0 0 446 115.1" style="enable-background:new 0 0 446 115.1;" xml:space="preserve">
<style type="text/css">
	.st0{fill:#113770;}
	.st1{fill:none;stroke:#113770;stroke-width:0.25;stroke-miterlimit:10;}
	.st2{fill:url(#XMLID_2_);}
	.st3{fill:url(#XMLID_3_);}
	.st4{fill:url(#XMLID_4_);}
	.st5{fill:url(#XMLID_5_);}
</style>
<g>
	<g>
		<path class="st0" d="M341,10.3c-1.1,0-2,0.4-2.6,1.3c-0.6,0.8-0.9,2-0.9,3.5c0,3.1,1.2,4.7,3.5,4.7c1,0,2.2-0.2,3.6-0.7v2.5
			c-1.2,0.5-2.4,0.7-3.9,0.7c-2,0-3.6-0.6-4.7-1.9c-1.1-1.2-1.6-3-1.6-5.3c0-1.5,0.3-2.7,0.8-3.8c0.5-1.1,1.3-1.9,2.3-2.5
			c1-0.6,2.2-0.9,3.5-0.9c1.4,0,2.7,0.3,4.1,1l-1,2.4c-0.5-0.2-1.1-0.5-1.6-0.7C342,10.4,341.5,10.3,341,10.3z"/>
		<path class="st0" d="M359.2,14.9c0,2.3-0.7,4.1-2,5.3c-1.3,1.2-3.2,1.8-5.7,1.8h-4v-14h4.4c2.3,0,4.1,0.6,5.3,1.8
			S359.2,12.8,359.2,14.9z M356.1,15c0-3-1.3-4.5-4-4.5h-1.6v9.1h1.3C354.7,19.6,356.1,18.1,356.1,15z"/>
		<path class="st0" d="M367.3,22.1h-6.4v-1.7l1.7-0.8v-9.1l-1.7-0.8V8.1h6.4v1.7l-1.7,0.8v9.1l1.7,0.8V22.1z"/>
		<path class="st0" d="M369.7,8.1h4.4c2,0,3.4,0.3,4.3,0.8c0.9,0.6,1.3,1.5,1.3,2.7c0,0.8-0.2,1.5-0.6,2.1c-0.4,0.5-0.9,0.9-1.6,1
			v0.1c0.9,0.2,1.5,0.6,1.9,1.1c0.4,0.5,0.6,1.3,0.6,2.2c0,1.3-0.5,2.3-1.4,3c-0.9,0.7-2.2,1.1-3.8,1.1h-5.2V8.1z M372.7,13.6h1.7
			c0.8,0,1.4-0.1,1.8-0.4c0.4-0.2,0.5-0.7,0.5-1.2c0-0.5-0.2-0.9-0.6-1.2c-0.4-0.2-1-0.3-1.9-0.3h-1.6V13.6z M372.7,16v3.7h1.9
			c0.8,0,1.4-0.2,1.8-0.5c0.4-0.3,0.6-0.8,0.6-1.4c0-1.2-0.8-1.7-2.5-1.7H372.7z"/>
		<path class="st0" d="M341,39.8c-1.1,0-2,0.4-2.6,1.3c-0.6,0.8-0.9,2-0.9,3.5c0,3.1,1.2,4.7,3.5,4.7c1,0,2.2-0.2,3.6-0.7V51
			c-1.2,0.5-2.4,0.7-3.9,0.7c-2,0-3.6-0.6-4.7-1.9c-1.1-1.2-1.6-3-1.6-5.3c0-1.5,0.3-2.7,0.8-3.8c0.5-1.1,1.3-1.9,2.3-2.5
			c1-0.6,2.2-0.9,3.5-0.9c1.4,0,2.7,0.3,4.1,1l-1,2.4c-0.5-0.2-1.1-0.5-1.6-0.7C342,39.9,341.5,39.8,341,39.8z"/>
		<path class="st0" d="M354.1,51.5l-0.6-1.5h-0.1c-0.5,0.6-1,1.1-1.5,1.3c-0.5,0.2-1.2,0.4-2,0.4c-1,0-1.8-0.3-2.4-0.9
			c-0.6-0.6-0.9-1.4-0.9-2.5c0-1.1,0.4-2,1.2-2.5c0.8-0.5,2-0.8,3.6-0.9l1.9-0.1v-0.5c0-1.1-0.6-1.6-1.7-1.6c-0.9,0-1.9,0.3-3,0.8
			l-1-2c1.2-0.6,2.6-1,4.1-1c1.4,0,2.5,0.3,3.3,0.9c0.8,0.6,1.2,1.6,1.2,2.9v7.1H354.1z M353.3,46.6l-1.1,0c-0.8,0-1.5,0.2-1.9,0.5
			c-0.4,0.3-0.6,0.7-0.6,1.3c0,0.8,0.5,1.2,1.4,1.2c0.7,0,1.2-0.2,1.6-0.6c0.4-0.4,0.6-0.9,0.6-1.6V46.6z"/>
		<path class="st0" d="M365.1,51.7c-1.3,0-2.2-0.5-3-1.4h-0.2c0.1,0.9,0.2,1.4,0.2,1.6v4.3h-2.9V40.8h2.4l0.4,1.4h0.1
			c0.7-1.1,1.7-1.6,3-1.6c1.3,0,2.3,0.5,3,1.5c0.7,1,1.1,2.3,1.1,4.1c0,1.1-0.2,2.1-0.5,3c-0.3,0.8-0.8,1.5-1.4,1.9
			C366.6,51.5,365.9,51.7,365.1,51.7z M364.2,43c-0.7,0-1.3,0.2-1.6,0.7c-0.3,0.4-0.5,1.2-0.5,2.2v0.3c0,1.2,0.2,2,0.5,2.5
			c0.3,0.5,0.9,0.7,1.6,0.7c1.3,0,2-1.1,2-3.2c0-1.1-0.2-1.8-0.5-2.4C365.4,43.2,364.9,43,364.2,43z"/>
		<path class="st0" d="M371.5,38c0-1,0.5-1.4,1.6-1.4c1.1,0,1.6,0.5,1.6,1.4c0,0.5-0.1,0.8-0.4,1.1c-0.3,0.3-0.7,0.4-1.2,0.4
			C372,39.5,371.5,39,371.5,38z M374.5,51.5h-2.9V40.8h2.9V51.5z"/>
		<path class="st0" d="M382.1,49.4c0.5,0,1.1-0.1,1.8-0.3v2.2c-0.7,0.3-1.6,0.5-2.7,0.5c-1.2,0-2-0.3-2.6-0.9
			c-0.5-0.6-0.8-1.5-0.8-2.7V43h-1.4v-1.2l1.6-1l0.8-2.3h1.9v2.3h3V43h-3v5.2c0,0.4,0.1,0.7,0.3,0.9
			C381.4,49.3,381.7,49.4,382.1,49.4z"/>
		<path class="st0" d="M392.9,51.5l-0.6-1.5h-0.1c-0.5,0.6-1,1.1-1.5,1.3c-0.5,0.2-1.2,0.4-2,0.4c-1,0-1.8-0.3-2.4-0.9
			c-0.6-0.6-0.9-1.4-0.9-2.5c0-1.1,0.4-2,1.2-2.5c0.8-0.5,2-0.8,3.6-0.9l1.9-0.1v-0.5c0-1.1-0.6-1.6-1.7-1.6c-0.9,0-1.9,0.3-3,0.8
			l-1-2c1.2-0.6,2.6-1,4.1-1c1.4,0,2.5,0.3,3.3,0.9c0.8,0.6,1.2,1.6,1.2,2.9v7.1H392.9z M392.1,46.6l-1.1,0c-0.8,0-1.5,0.2-1.9,0.5
			c-0.4,0.3-0.6,0.7-0.6,1.3c0,0.8,0.5,1.2,1.4,1.2c0.7,0,1.2-0.2,1.6-0.6c0.4-0.4,0.6-0.9,0.6-1.6V46.6z"/>
		<path class="st0" d="M400.9,51.5H398V36.6h2.9V51.5z"/>
		<path class="st0" d="M340.3,81h-6.4v-1.7l1.7-0.8v-9.1l-1.7-0.8V67h6.4v1.7l-1.7,0.8v9.1l1.7,0.8V81z"/>
		<path class="st0" d="M352.3,81h-2.9v-6.3c0-0.8-0.1-1.4-0.4-1.7c-0.3-0.4-0.7-0.6-1.3-0.6c-0.8,0-1.4,0.3-1.8,0.8
			c-0.4,0.5-0.5,1.5-0.5,2.7v5h-2.9V70.3h2.2l0.4,1.4h0.2c0.3-0.5,0.8-0.9,1.3-1.2c0.6-0.3,1.2-0.4,2-0.4c1.2,0,2.2,0.3,2.8,1
			c0.6,0.7,1,1.6,1,2.9V81z"/>
		<path class="st0" d="M365.2,81h-2.9v-6.3c0-0.8-0.1-1.4-0.4-1.7c-0.3-0.4-0.7-0.6-1.3-0.6c-0.8,0-1.4,0.3-1.8,0.8
			c-0.4,0.5-0.5,1.5-0.5,2.7v5h-2.9V70.3h2.2l0.4,1.4h0.2c0.3-0.5,0.8-0.9,1.3-1.2c0.6-0.3,1.2-0.4,2-0.4c1.2,0,2.2,0.3,2.8,1
			c0.6,0.7,1,1.6,1,2.9V81z"/>
		<path class="st0" d="M378,75.6c0,1.7-0.5,3.1-1.4,4.1c-0.9,1-2.2,1.5-3.8,1.5c-1,0-1.9-0.2-2.7-0.7c-0.8-0.5-1.4-1.1-1.8-1.9
			c-0.4-0.8-0.6-1.8-0.6-3c0-1.8,0.5-3.1,1.4-4.1c0.9-1,2.2-1.5,3.9-1.5c1,0,1.9,0.2,2.7,0.7c0.8,0.4,1.4,1.1,1.8,1.9
			C377.8,73.5,378,74.5,378,75.6z M370.6,75.6c0,1.1,0.2,1.9,0.5,2.4c0.3,0.5,0.9,0.8,1.7,0.8c0.8,0,1.3-0.3,1.7-0.8
			c0.3-0.5,0.5-1.3,0.5-2.4c0-1.1-0.2-1.9-0.5-2.4c-0.3-0.5-0.9-0.8-1.7-0.8c-0.8,0-1.3,0.3-1.7,0.8
			C370.8,73.8,370.6,74.6,370.6,75.6z"/>
		<path class="st0" d="M382.8,81l-4.1-10.7h3.1l2.1,6.1c0.2,0.7,0.3,1.4,0.4,2.2h0.1c0-0.7,0.2-1.5,0.4-2.2l2.1-6.1h3.1L385.8,81
			H382.8z"/>
		<path class="st0" d="M398.2,81l-0.6-1.5h-0.1c-0.5,0.6-1,1.1-1.5,1.3c-0.5,0.2-1.2,0.4-2,0.4c-1,0-1.8-0.3-2.4-0.9
			c-0.6-0.6-0.9-1.4-0.9-2.5c0-1.1,0.4-2,1.2-2.5c0.8-0.5,2-0.8,3.6-0.9l1.9-0.1v-0.5c0-1.1-0.6-1.6-1.7-1.6c-0.9,0-1.9,0.3-3,0.8
			l-1-2c1.2-0.6,2.6-1,4.1-1c1.4,0,2.5,0.3,3.3,0.9c0.8,0.6,1.2,1.6,1.2,2.9V81H398.2z M397.3,76l-1.1,0c-0.8,0-1.5,0.2-1.9,0.5
			c-0.4,0.3-0.6,0.7-0.6,1.3c0,0.8,0.5,1.2,1.4,1.2c0.7,0,1.2-0.2,1.6-0.6c0.4-0.4,0.6-0.9,0.6-1.6V76z"/>
		<path class="st0" d="M407.8,78.9c0.5,0,1.1-0.1,1.8-0.3v2.2c-0.7,0.3-1.6,0.5-2.7,0.5c-1.2,0-2-0.3-2.6-0.9
			c-0.5-0.6-0.8-1.5-0.8-2.7v-5.2h-1.4v-1.2l1.6-1l0.8-2.3h1.9v2.3h3v2.2h-3v5.2c0,0.4,0.1,0.7,0.3,0.9
			C407.1,78.8,407.4,78.9,407.8,78.9z"/>
		<path class="st0" d="M411.7,67.5c0-1,0.5-1.4,1.6-1.4c1.1,0,1.6,0.5,1.6,1.4c0,0.5-0.1,0.8-0.4,1.1c-0.3,0.3-0.7,0.4-1.2,0.4
			C412.2,68.9,411.7,68.5,411.7,67.5z M414.7,81h-2.9V70.3h2.9V81z"/>
		<path class="st0" d="M427.5,75.6c0,1.7-0.5,3.1-1.4,4.1c-0.9,1-2.2,1.5-3.8,1.5c-1,0-1.9-0.2-2.7-0.7c-0.8-0.5-1.4-1.1-1.8-1.9
			c-0.4-0.8-0.6-1.8-0.6-3c0-1.8,0.5-3.1,1.4-4.1c0.9-1,2.2-1.5,3.9-1.5c1,0,1.9,0.2,2.7,0.7c0.8,0.4,1.4,1.1,1.8,1.9
			C427.3,73.5,427.5,74.5,427.5,75.6z M420.1,75.6c0,1.1,0.2,1.9,0.5,2.4c0.3,0.5,0.9,0.8,1.7,0.8c0.8,0,1.3-0.3,1.7-0.8
			c0.3-0.5,0.5-1.3,0.5-2.4c0-1.1-0.2-1.9-0.5-2.4c-0.3-0.5-0.9-0.8-1.7-0.8c-0.8,0-1.3,0.3-1.7,0.8
			C420.3,73.8,420.1,74.6,420.1,75.6z"/>
		<path class="st0" d="M439.8,81h-2.9v-6.3c0-0.8-0.1-1.4-0.4-1.7c-0.3-0.4-0.7-0.6-1.3-0.6c-0.8,0-1.4,0.3-1.8,0.8
			c-0.4,0.5-0.5,1.5-0.5,2.7v5h-2.9V70.3h2.2l0.4,1.4h0.2c0.3-0.5,0.8-0.9,1.3-1.2c0.6-0.3,1.2-0.4,2-0.4c1.2,0,2.2,0.3,2.8,1
			c0.6,0.7,1,1.6,1,2.9V81z"/>
		<path class="st0" d="M343.6,110.5l-1-3.3h-5.1l-1,3.3h-3.2l4.9-14.1h3.6l5,14.1H343.6z M341.9,104.6c-0.9-3-1.5-4.7-1.6-5.1
			c-0.1-0.4-0.2-0.7-0.3-0.9c-0.2,0.8-0.8,2.8-1.8,6.1H341.9z"/>
		<path class="st0" d="M352.7,110.6c-3.3,0-5-1.8-5-5.5c0-1.8,0.5-3.2,1.4-4.2c0.9-1,2.2-1.4,3.9-1.4c1.2,0,2.4,0.2,3.3,0.7
			l-0.9,2.3c-0.5-0.2-0.9-0.3-1.3-0.5c-0.4-0.1-0.8-0.2-1.2-0.2c-1.5,0-2.3,1.1-2.3,3.2c0,2.1,0.8,3.1,2.3,3.1
			c0.6,0,1.1-0.1,1.6-0.2c0.5-0.2,1-0.4,1.4-0.7v2.5c-0.5,0.3-1,0.5-1.4,0.6C354,110.6,353.4,110.6,352.7,110.6z"/>
		<path class="st0" d="M362.8,110.6c-3.3,0-5-1.8-5-5.5c0-1.8,0.5-3.2,1.4-4.2c0.9-1,2.2-1.4,3.9-1.4c1.2,0,2.4,0.2,3.3,0.7
			l-0.9,2.3c-0.5-0.2-0.9-0.3-1.3-0.5c-0.4-0.1-0.8-0.2-1.2-0.2c-1.5,0-2.3,1.1-2.3,3.2c0,2.1,0.8,3.1,2.3,3.1
			c0.6,0,1.1-0.1,1.6-0.2c0.5-0.2,1-0.4,1.4-0.7v2.5c-0.5,0.3-1,0.5-1.4,0.6C364.1,110.6,363.5,110.6,362.8,110.6z"/>
		<path class="st0" d="M373.4,110.6c-1.7,0-3.1-0.5-4-1.4c-1-1-1.5-2.3-1.5-4c0-1.8,0.4-3.2,1.3-4.2c0.9-1,2.1-1.5,3.7-1.5
			c1.5,0,2.7,0.4,3.5,1.3c0.8,0.9,1.3,2.1,1.3,3.6v1.4h-6.9c0,0.8,0.3,1.5,0.7,1.9c0.5,0.5,1.1,0.7,1.9,0.7c0.6,0,1.3-0.1,1.8-0.2
			c0.6-0.1,1.2-0.3,1.8-0.6v2.3c-0.5,0.3-1.1,0.4-1.6,0.6C374.9,110.6,374.2,110.6,373.4,110.6z M373,101.6c-0.6,0-1.1,0.2-1.5,0.6
			c-0.4,0.4-0.6,0.9-0.6,1.7h4.1c0-0.7-0.2-1.3-0.6-1.7C374.1,101.8,373.6,101.6,373,101.6z"/>
		<path class="st0" d="M383.1,110.5h-2.9V95.5h2.9V110.5z"/>
		<path class="st0" d="M391,110.6c-1.7,0-3.1-0.5-4-1.4c-1-1-1.5-2.3-1.5-4c0-1.8,0.4-3.2,1.3-4.2c0.9-1,2.1-1.5,3.7-1.5
			c1.5,0,2.7,0.4,3.5,1.3c0.8,0.9,1.3,2.1,1.3,3.6v1.4h-6.9c0,0.8,0.3,1.5,0.7,1.9c0.5,0.5,1.1,0.7,1.9,0.7c0.6,0,1.3-0.1,1.8-0.2
			c0.6-0.1,1.2-0.3,1.8-0.6v2.3c-0.5,0.3-1.1,0.4-1.6,0.6C392.5,110.6,391.8,110.6,391,110.6z M390.6,101.6c-0.6,0-1.1,0.2-1.5,0.6
			c-0.4,0.4-0.6,0.9-0.6,1.7h4.1c0-0.7-0.2-1.3-0.6-1.7C391.7,101.8,391.2,101.6,390.6,101.6z"/>
		<path class="st0" d="M403.7,99.5c0.4,0,0.7,0,1,0.1l-0.2,2.7c-0.2-0.1-0.5-0.1-0.9-0.1c-0.9,0-1.7,0.2-2.2,0.7
			c-0.5,0.5-0.8,1.2-0.8,2v5.5h-2.9V99.7h2.2l0.4,1.8h0.1c0.3-0.6,0.8-1.1,1.3-1.5C402.4,99.7,403.1,99.5,403.7,99.5z"/>
		<path class="st0" d="M413.3,110.5l-0.6-1.5h-0.1c-0.5,0.6-1,1.1-1.5,1.3c-0.5,0.2-1.2,0.4-2,0.4c-1,0-1.8-0.3-2.4-0.9
			c-0.6-0.6-0.9-1.4-0.9-2.5c0-1.1,0.4-2,1.2-2.5c0.8-0.5,2-0.8,3.6-0.9l1.9-0.1v-0.5c0-1.1-0.6-1.6-1.7-1.6c-0.9,0-1.9,0.3-3,0.8
			l-1-2c1.2-0.6,2.6-1,4.1-1c1.4,0,2.5,0.3,3.3,0.9c0.8,0.6,1.2,1.6,1.2,2.9v7.1H413.3z M412.4,105.5l-1.1,0c-0.8,0-1.5,0.2-1.9,0.5
			c-0.4,0.3-0.6,0.7-0.6,1.3c0,0.8,0.5,1.2,1.4,1.2c0.7,0,1.2-0.2,1.6-0.6c0.4-0.4,0.6-0.9,0.6-1.6V105.5z"/>
		<path class="st0" d="M422.8,108.3c0.5,0,1.1-0.1,1.8-0.3v2.2c-0.7,0.3-1.6,0.5-2.7,0.5c-1.2,0-2-0.3-2.6-0.9
			c-0.5-0.6-0.8-1.5-0.8-2.7v-5.2h-1.4v-1.2l1.6-1l0.8-2.3h1.9v2.3h3v2.2h-3v5.2c0,0.4,0.1,0.7,0.3,0.9
			C422.2,108.2,422.5,108.3,422.8,108.3z"/>
		<path class="st0" d="M436.6,105.1c0,1.7-0.5,3.1-1.4,4.1c-0.9,1-2.2,1.5-3.8,1.5c-1,0-1.9-0.2-2.7-0.7c-0.8-0.5-1.4-1.1-1.8-1.9
			c-0.4-0.8-0.6-1.8-0.6-3c0-1.8,0.5-3.1,1.4-4.1c0.9-1,2.2-1.5,3.9-1.5c1,0,1.9,0.2,2.7,0.7c0.8,0.4,1.4,1.1,1.8,1.9
			C436.4,103,436.6,104,436.6,105.1z M429.2,105.1c0,1.1,0.2,1.9,0.5,2.4c0.3,0.5,0.9,0.8,1.7,0.8c0.8,0,1.3-0.3,1.7-0.8
			c0.3-0.5,0.5-1.3,0.5-2.4c0-1.1-0.2-1.9-0.5-2.4c-0.3-0.5-0.9-0.8-1.7-0.8c-0.8,0-1.3,0.3-1.7,0.8
			C429.4,103.2,429.2,104,429.2,105.1z"/>
		<path class="st0" d="M445,99.5c0.4,0,0.7,0,1,0.1l-0.2,2.7c-0.2-0.1-0.5-0.1-0.9-0.1c-0.9,0-1.7,0.2-2.2,0.7
			c-0.5,0.5-0.8,1.2-0.8,2v5.5H439V99.7h2.2l0.4,1.8h0.1c0.3-0.6,0.8-1.1,1.3-1.5C443.7,99.7,444.3,99.5,445,99.5z"/>
	</g>
	<g>
		<path class="st0" d="M14.5,101.7v8.5h-1.4v-1H7.9v5.9H6.5v-5.9H1.3v1.1H0v-8.6h6.5v-3.2h1.4v3.2H14.5z M6.5,107.8v-4.8H1.3v4.8
			H6.5z M13.1,107.8v-4.8H7.9v4.8H13.1z"/>
		<path class="st0" d="M43.2,110v1.5h6.5v1.1h-6.5v2.4h-1.3v-2.4h-6.4v-1.1h6.4V110h-7.3v-1.2h7.3V104H35v-1.1h15.3v1.1h-7.1v4.8
			h7.5v1.2H43.2z M38.8,101h-4.1v-1.2h4.1v-1.3h1.3v1.3h2.1v1.2h-2.1v1.4h-1.3V101z M38.9,104.5v1.3H41v1.2h-2.2v1.4h-1.2V107H35
			v-1.2h2.6v-1.3H38.9z M45,101h-2.1v-1.2H45v-1.3h1.3v1.3h4.2v1.2h-4.2v1.4H45V101z M46.4,108.4v-1.4h-2.2v-1.2h2.2v-1.2h1.3v1.2
			h2.5v1.2h-2.5v1.4H46.4z"/>
		<path class="st0" d="M71.9,105.3v9.7h-1.3V99.3h6.6v6H71.9z M71.9,100.3v1.5h4v-1.5H71.9z M75.9,104.3v-1.6h-4v1.6H75.9z
			 M80.4,110.7v4h-1.2v-4h-2.6c-0.1,1.2-0.7,3.1-2.4,4.3c-0.2-0.2-0.6-0.6-0.9-0.8c1.5-0.9,2-2.4,2.1-3.5h-2.3v-1.1h2.3v-2h-2v-1.1
			h8.9v1.1h-2.1v2h2.5v1.1H80.4z M79.2,109.5v-2h-2.5v2H79.2z M85.5,113.3c0,0.8-0.2,1.2-0.7,1.5c-0.5,0.2-1.4,0.3-2.8,0.2
			c0-0.3-0.2-1-0.4-1.3c1,0,2,0,2.2,0c0.3,0,0.4-0.1,0.4-0.4v-7.9h-5.4v-6.1h6.7V113.3z M80,100.3v1.5h4.1v-1.5H80z M84.1,104.3
			v-1.6H80v1.6H84.1z"/>
		<path class="st0" d="M111.9,109.9c0,0,0,0.4-0.1,0.5c-0.2,2.5-0.5,3.6-0.9,4c-0.3,0.3-0.7,0.4-1.2,0.5c-0.5,0-1.4,0-2.4,0
			c0-0.4-0.2-0.8-0.4-1.2c1,0.1,2,0.1,2.3,0.1c0.3,0,0.5,0,0.7-0.2c0.3-0.2,0.5-1,0.6-2.7h-4.1c0.2-1.1,0.5-2.7,0.6-4h3.6V105h-3
			v-0.2c-0.7,0.3-1.3,0.6-2,0.8c-0.1-0.3-0.5-0.8-0.7-1c1.2-0.4,2.5-1,3.6-1.7c-0.5-0.5-1.4-1.1-2-1.6l0.8-0.7
			c0.7,0.4,1.6,1.1,2.2,1.6c0.7-0.6,1.3-1.2,1.7-1.9h-4.2v-1.1h4.9l0.2-0.1l0.8,0.4c-0.8,1.8-2.2,3.2-3.8,4.3h2.8v4H108
			c-0.1,0.6-0.2,1.3-0.3,1.9H111.9z M119.9,109.4c-0.5,1.3-1.3,2.4-2.3,3.3c1,0.6,1.8,1.1,2.4,1.6l-0.7,0.9
			c-0.7-0.5-1.6-1.1-2.7-1.8c-1.2,0.8-2.6,1.4-4.1,1.8c-0.1-0.3-0.4-0.8-0.6-1c1.3-0.3,2.6-0.8,3.7-1.4c-1-0.6-2-1.2-2.9-1.7
			l0.7-0.7c1,0.5,2.1,1.2,3.1,1.8c0.7-0.5,1.3-1.2,1.8-1.9h-5.5v-1h6.2l0.2-0.1L119.9,109.4z M121.2,101.1c-0.7,0.7-1.7,1.4-2.6,2
			c1,0.6,2,1,3.1,1.3c-0.3,0.2-0.6,0.7-0.8,1c-0.9-0.3-1.8-0.7-2.6-1.1v2.4c0,0.4,0,0.5,0.3,0.5h1.3c0.2,0,0.6,0,0.9-0.1
			c0,0.3,0,0.7,0.1,0.9c-0.2,0.1-0.6,0.1-0.9,0.1h-1.5c-1.1,0-1.3-0.4-1.3-1.5V105h-2.5v0.4c0,1.2-0.4,2.5-2,3.4
			c-0.2-0.2-0.6-0.7-0.9-0.8c1.4-0.8,1.7-1.8,1.7-2.6v-1.4h4c-1.9-1.2-3.4-3-4.3-5l1.1-0.3c0.4,0.8,0.8,1.5,1.4,2.2
			c0.8-0.6,1.7-1.5,2.3-2.1l1,0.7c-0.8,0.7-1.8,1.5-2.6,2.1c0.4,0.4,0.8,0.8,1.3,1.1c0.8-0.6,1.8-1.5,2.4-2.1L121.2,101.1z"/>
		<path class="st0" d="M143.1,109.4c-0.2,1.7-0.7,3.5-1.6,4.9c-0.3-0.2-0.8-0.5-1.1-0.6c1.4-2.2,1.6-5.1,1.6-7.2v-2.4h7.4v5.3H143.1
			z M146.7,99.1c-0.1,0.1-0.2,0.3-0.3,0.4c1.4,0.9,3.1,1.9,4,2.6l-0.7,1.1c-0.9-0.7-2.6-1.9-4-2.8c-1.2,1.5-2.9,2.8-4.5,3.7
			c-0.1-0.3-0.5-0.9-0.7-1.2c2-1,4-2.5,5.1-4.3L146.7,99.1z M143.1,110.2h6.7v4.7h-1.2v-0.7h-4.4v0.7h-1.2V110.2z M148.1,108.4v-1.2
			h-4.9c0,0.4,0,0.8-0.1,1.2H148.1z M143.2,105.1v1.2h4.9v-1.2H143.2z M147.7,102.3v0.9h-3.8v-0.9H147.7z M144.2,111.2v1.9h4.4v-1.9
			H144.2z M152.7,110.4h-1.3v-9.9h1.3V110.4z M156.1,98.6v14.6c0,0.9-0.2,1.3-0.7,1.5c-0.5,0.2-1.4,0.3-2.9,0.3
			c-0.1-0.4-0.3-1-0.5-1.3c1.1,0,2.1,0,2.4,0c0.3,0,0.4-0.1,0.4-0.4V98.6H156.1z"/>
		<path class="st0" d="M178.7,110c-0.4,1.3-1.2,2.7-1.9,3.6c-0.2-0.2-0.7-0.5-0.9-0.7c0.7-0.9,1.3-2.1,1.7-3.3L178.7,110z
			 M181,108.7v6.3h-1.3v-6.3h-3.6v-1.2h3.6v-1.9H176v-1.1h5c0.3-0.8,0.8-2,1-2.9l1.2,0.3c-0.3,0.9-0.7,1.8-1,2.6h2.3v1.1H181v1.9
			h3.3v1.2H181z M184.2,101.5h-7.9v-1.1h3.5c-0.2-0.5-0.5-1.2-0.8-1.6l1.3-0.3c0.4,0.6,0.8,1.4,1,2h2.9V101.5z M178.1,104.4
			c-0.1-0.7-0.4-1.7-0.7-2.5l1.1-0.3c0.4,0.8,0.7,1.8,0.7,2.5L178.1,104.4z M182.7,109.5c0.6,0.9,1.2,2.1,1.5,2.8l-1,0.5
			c-0.3-0.8-0.9-2-1.5-2.9L182.7,109.5z M192.4,105.8h-2v9.1h-1.3v-9.1h-2.5v0.6c0,2.6-0.2,6.1-1.9,8.5c-0.2-0.3-0.7-0.7-1-0.8
			c1.5-2.2,1.7-5.3,1.7-7.7v-6.2c2-0.3,4.3-0.9,5.6-1.4l1.1,1c-1.5,0.6-3.6,1-5.5,1.3v3.4h5.8V105.8z"/>
		<path class="st0" d="M219.4,102.5c-0.3,7.9-0.6,10.5-1.3,11.4c-0.4,0.5-0.7,0.6-1.2,0.7c-0.5,0.1-1.2,0.1-2,0c0-0.4-0.2-1-0.4-1.4
			c0.8,0.1,1.4,0.1,1.8,0.1c0.3,0,0.5-0.1,0.6-0.3c0.5-0.6,0.8-3.1,1.1-9.9h-2.6c-0.2,4.5-0.9,9-3.1,11.8c-0.3-0.3-0.7-0.7-1.1-0.9
			c2.1-2.5,2.7-6.7,2.9-10.9h-2.5v-1.3h2.5c0-1.1,0-2.2,0-3.2h1.3c0,1.1,0,2.1-0.1,3.2h3.9V102.5z M226.9,100.8v13.9h-1.4v-1.2H222
			v1.3h-1.3v-14H226.9z M225.5,112.2v-10.1H222v10.1H225.5z"/>
		<path class="st0" d="M251.4,107.3c-0.3,1.6-1,3.3-1.8,4.6c0.4,0.2,0.8,0.5,1.4,0.9c1.3,0.7,2.9,0.9,5.1,0.9c2.3,0,5.2-0.2,7.3-0.4
			c-0.2,0.4-0.4,1-0.4,1.4c-1.3,0.1-4.8,0.2-6.9,0.2c-2.4,0-4-0.2-5.3-1c-0.7-0.4-1.4-1-1.8-1c-0.4,0-1,1.1-1.6,2.2l-0.9-1.2
			c0.5-0.8,1.1-1.4,1.6-1.8l0,0c0.8-1,1.5-2.5,1.9-3.9h-2.6c0.5-1.1,1.2-2.6,1.8-4h-2.4v-1.2h4.1c-0.5,1.3-1.2,2.8-1.7,4.1h1.2
			l0.2-0.1L251.4,107.3z M249.1,101.9c-0.3-0.8-1-2-1.4-3l1.2-0.4c0.5,0.9,1.1,2.1,1.4,2.9L249.1,101.9z M256.5,108.5
			c-1.1,1.5-2.7,2.9-4.2,3.7c-0.2-0.3-0.6-0.8-0.9-1c1.6-0.7,3.4-2.2,4.5-3.7h-3.5v-4.5h4.1v-1.5h-4.8v-1.2h4.8v-1.8h1.3v1.8h5.1
			v1.2h-5.1v1.5h4.3v4.5h-3.9c1.6,1.1,3.4,2.5,4.4,3.5l-0.9,0.9c-0.8-0.9-2.4-2.2-3.9-3.3v4.2h-1.3V108.5z M253.6,106.4h2.9v-2.3
			h-2.9V106.4z M257.8,104.1v2.3h3v-2.3H257.8z"/>
		<path class="st0" d="M293.4,107.2c1.4,1.1,3.3,2,5.2,2.5c-0.3,0.3-0.7,0.7-0.8,1.1c-0.3-0.1-0.7-0.2-1-0.3v4.5h-1.3v-0.4h-3.2v0.5
			H291v-5.5h3.7c-1.2-0.6-2.2-1.4-3-2.3h-3.4c-0.8,0.8-1.7,1.6-2.8,2.3h3.8v5.4h-1.3v-0.4h-3v0.5h-1.2v-4.6
			c-0.4,0.2-0.8,0.4-1.2,0.5c-0.1-0.3-0.5-0.8-0.7-1c2-0.7,3.5-1.7,4.7-2.7h-4.4V106h5.6c0.5-0.6,0.9-1.2,1.2-1.8h-5.5v-4.9h5.7v4.7
			l1.3,0.3c-0.3,0.6-0.7,1.2-1.1,1.8h5c-0.6-0.4-1.4-0.8-2.2-1.1l0.7-0.7c0.9,0.3,2.1,0.9,2.7,1.3l-0.4,0.5h3.1v1.2H293.4z
			 M287.9,100.5h-3.2v2.6h3.2V100.5z M288.1,110.7h-3v2.7h3V110.7z M297,104.2h-5.9v-4.9h5.9V104.2z M295.5,113.3v-2.7h-3.2v2.7
			H295.5z M295.7,100.5h-3.3v2.6h3.3V100.5z"/>
	</g>
	<line class="st1" x1="318" y1="0" x2="318" y2="114"/>
	<g>
		<polygon id="XMLID_31_" class="st0" points="40.4,6.3 76.7,6.3 40.4,42.6 		"/>
		<polygon id="XMLID_24_" class="st0" points="40.4,82.1 76.7,82.1 40.4,45.8 		"/>
		<polygon id="XMLID_23_" class="st0" points="112.4,6.3 148.7,6.3 112.4,42.6 		"/>
		<polygon id="XMLID_22_" class="st0" points="37.1,45.8 0.8,45.8 37.1,82.1 		"/>
		<polygon id="XMLID_21_" class="st0" points="112.4,82.1 148.7,82.1 112.4,45.8 		"/>
		<polygon id="XMLID_20_" class="st0" points="259.3,42.6 259.3,6.3 295.6,42.6 		"/>
		<polygon id="XMLID_19_" class="st0" points="295.6,45.8 295.6,82.1 259.3,45.8 		"/>
		<polygon id="XMLID_18_" class="st0" points="256.1,42.6 256.1,6.3 219.8,42.6 		"/>
		<polygon id="XMLID_17_" class="st0" points="219.8,45.8 219.8,82.1 256.1,45.8 		"/>
		<rect id="XMLID_16_" x="165.2" y="6.3" class="st0" width="36.3" height="36.3"/>
		<rect id="XMLID_15_" x="165.2" y="45.8" class="st0" width="36.3" height="36.3"/>
		
			<linearGradient id="XMLID_2_" gradientUnits="userSpaceOnUse" x1="789.5437" y1="677.6915" x2="775.527" y2="665.0764" gradientTransform="matrix(-0.7071 -0.7071 0.7071 -0.7071 336.3348 1095.9175)">
			<stop  offset="0" style="stop-color:#FFF000"/>
			<stop  offset="3.103935e-02" style="stop-color:#FEE802"/>
			<stop  offset="0.2624" style="stop-color:#F5AD0D"/>
			<stop  offset="0.46" style="stop-color:#EF8216"/>
			<stop  offset="0.6138" style="stop-color:#EB681B"/>
			<stop  offset="0.7051" style="stop-color:#EA5E1D"/>
		</linearGradient>
		<polygon id="XMLID_14_" class="st2" points="258.1,58.8 241.7,75.2 274.5,75.2 		"/>
		<linearGradient id="XMLID_3_" gradientUnits="userSpaceOnUse" x1="113.4449" y1="46.3666" x2="83.3909" y2="70.696">
			<stop  offset="0" style="stop-color:#FFFFFF"/>
			<stop  offset="4.507155e-02" style="stop-color:#E3E8EE"/>
			<stop  offset="0.1432" style="stop-color:#ACB9CD"/>
			<stop  offset="0.242" style="stop-color:#7D91B1"/>
			<stop  offset="0.3396" style="stop-color:#567199"/>
			<stop  offset="0.4355" style="stop-color:#385887"/>
			<stop  offset="0.5294" style="stop-color:#22467A"/>
			<stop  offset="0.6204" style="stop-color:#153B73"/>
			<stop  offset="0.7051" style="stop-color:#113770"/>
		</linearGradient>
		<polygon id="XMLID_13_" class="st3" points="109.2,46.4 72.9,46.4 109.2,82.7 		"/>
		
			<linearGradient id="XMLID_4_" gradientUnits="userSpaceOnUse" x1="-868.7502" y1="677.7559" x2="-890.662" y2="658.0353" gradientTransform="matrix(0 1 1 0 -569.1629 912.704)">
			<stop  offset="0" style="stop-color:#FFFFFF"/>
			<stop  offset="0.1775" style="stop-color:#C3E5BF"/>
			<stop  offset="0.3584" style="stop-color:#8DCE84"/>
			<stop  offset="0.5132" style="stop-color:#65BD59"/>
			<stop  offset="0.6337" style="stop-color:#4DB33F"/>
			<stop  offset="0.7051" style="stop-color:#44AF35"/>
		</linearGradient>
		<polygon id="XMLID_12_" class="st4" points="109.2,42.6 72.9,42.6 109.2,6.3 		"/>
		
			<linearGradient id="XMLID_5_" gradientUnits="userSpaceOnUse" x1="-868.7504" y1="605.7111" x2="-890.662" y2="585.9905" gradientTransform="matrix(0 1 1 0 -569.1629 912.704)">
			<stop  offset="0" style="stop-color:#FFFFFF"/>
			<stop  offset="0.1775" style="stop-color:#C3E5BF"/>
			<stop  offset="0.3584" style="stop-color:#8DCE84"/>
			<stop  offset="0.5132" style="stop-color:#65BD59"/>
			<stop  offset="0.6337" style="stop-color:#4DB33F"/>
			<stop  offset="0.7051" style="stop-color:#44AF35"/>
		</linearGradient>
		<polygon id="XMLID_11_" class="st5" points="37.1,42.6 0.8,42.6 37.1,6.3 		"/>
	</g>
</g>
</svg>
